M48
;GenerationSoftware,Autodesk,EAGLE,9.5.1*%
;CreationDate,2020-03-02T23:54:35Z*%
FMAT,2
ICI,OFF
METRIC,TZ,000.000
T8C0.200
T7C0.350
T6C0.600
T5C0.650
T4C0.900
T3C1.000
T2C1.016
T1C2.540
%
G90
M71
T1
X89535Y34163
X89535Y3810
X6350Y-3810
X6350Y40259
T2
X49530Y1778
X16256Y30226
X16256Y32766
X18796Y30226
X18796Y32766
X46990Y1778
X21336Y32766
X21336Y30226
X18542Y1524
X16002Y1524
X44450Y1778
T3
X30861Y5969
X30861Y8509
X33401Y5969
X33401Y8509
X35941Y5969
X35941Y8509
X38481Y5969
X38481Y8509
X41021Y5969
X41021Y8509
X43561Y5969
X43561Y8509
X46101Y5969
X46101Y8509
X15621Y8509
X48641Y8509
X51181Y5969
X51181Y8509
X53721Y5969
X53721Y8509
X56261Y5969
X56261Y8509
X58801Y5969
X58801Y8509
X61341Y5969
X61341Y8509
X63881Y5969
X63881Y8509
X28321Y8509
X48641Y5969
X18161Y5969
X18161Y8509
X20701Y5969
X15621Y5969
X28321Y5969
X25781Y8509
X25781Y5969
X23241Y8509
X23241Y5969
X20701Y8509
T4
X5588Y33504
X5588Y30504
T5
X95320Y15906
X95320Y21686
T6
X94820Y14476
X94820Y23116
X99000Y23116
X99000Y14476
T7
X70866Y32766
X61214Y33020
X41402Y10668
X67564Y29718
X61214Y31750
X46228Y11684
X73660Y33020
X70104Y1219
X56896Y1778
X65786Y2286
X9652Y28448
X23114Y21082
X52832Y20320
X63500Y13462
X64008Y16510
X56388Y10668
X39370Y29972
X51816Y33020
X72136Y36322
T8
X32004Y35814
X34163Y30353
X43688Y35306
X43688Y38100
X54356Y35814
X58674Y24130
X30480Y29210
X53594Y22606
X32766Y26924
X35052Y25146
X37338Y20574
X50038Y4064
X37338Y15494
X32512Y33782
X33274Y36068
X52316Y29464
X37846Y25908
X53594Y18288
X84074Y23114
X27432Y26670
X81534Y15240
X53086Y16510
X42164Y19304
X25146Y23114
X43688Y36576
M30