G04 EAGLE Gerber RS-274X export*
G75*
%MOMM*%
%FSLAX34Y34*%
%LPD*%
%IN*%
%IPPOS*%
%AMOC8*
5,1,8,0,0,1.08239X$1,22.5*%
G01*
%ADD10C,0.254000*%


D10*
X38100Y-22337D02*
X38171Y-24660D01*
X38518Y-27978D01*
X39154Y-31254D01*
X40073Y-34461D01*
X41267Y-37576D01*
X42729Y-40576D01*
X44446Y-43436D01*
X46407Y-46136D01*
X48595Y-48655D01*
X50994Y-50973D01*
X53586Y-53074D01*
X56352Y-54940D01*
X59270Y-56559D01*
X62317Y-57917D01*
X65471Y-59004D01*
X68709Y-59812D01*
X72004Y-60335D01*
X75332Y-60569D01*
X78668Y-60512D01*
X842522Y-14032D01*
X844786Y-13862D01*
X852826Y-12803D01*
X860743Y-11048D01*
X868477Y-8610D01*
X875969Y-5506D01*
X883162Y-1762D01*
X890002Y2595D01*
X896435Y7532D01*
X902414Y13011D01*
X907893Y18989D01*
X912829Y25423D01*
X917186Y32262D01*
X920931Y39455D01*
X924034Y46947D01*
X926473Y54681D01*
X928228Y62598D01*
X929286Y70638D01*
X929640Y78740D01*
X930305Y83812D01*
X931410Y88807D01*
X932945Y93687D01*
X934901Y98414D01*
X937260Y102953D01*
X940007Y107269D01*
X943119Y111330D01*
X946573Y115103D01*
X950343Y118561D01*
X954400Y121678D01*
X958713Y124429D01*
X963249Y126793D01*
X967975Y128753D01*
X972853Y130294D01*
X977847Y131404D01*
X982918Y132075D01*
X988029Y132300D01*
X993140Y132080D01*
X995680Y132080D01*
X996566Y132119D01*
X997444Y132234D01*
X998310Y132426D01*
X999155Y132693D01*
X999974Y133032D01*
X1000760Y133441D01*
X1001508Y133917D01*
X1002211Y134457D01*
X1002864Y135056D01*
X1003463Y135709D01*
X1004003Y136412D01*
X1004479Y137160D01*
X1004888Y137946D01*
X1005227Y138765D01*
X1005494Y139610D01*
X1005686Y140476D01*
X1005801Y141355D01*
X1005840Y142240D01*
X1005840Y233680D01*
X1005811Y234344D01*
X1005724Y235003D01*
X1005580Y235652D01*
X1005380Y236286D01*
X1005126Y236900D01*
X1004819Y237490D01*
X1004462Y238051D01*
X1004057Y238578D01*
X1003608Y239068D01*
X1003118Y239517D01*
X1002591Y239922D01*
X1002030Y240279D01*
X1001440Y240586D01*
X1000826Y240840D01*
X1000192Y241040D01*
X999543Y241184D01*
X998884Y241271D01*
X998220Y241300D01*
X995680Y241300D01*
X989924Y241551D01*
X984212Y242303D01*
X978588Y243550D01*
X973093Y245283D01*
X967770Y247487D01*
X962660Y250148D01*
X957801Y253243D01*
X953230Y256750D01*
X948983Y260643D01*
X945090Y264890D01*
X941583Y269461D01*
X938488Y274320D01*
X935827Y279430D01*
X933623Y284753D01*
X931890Y290248D01*
X930643Y295872D01*
X929891Y301584D01*
X929640Y307340D01*
X929628Y308662D01*
X929239Y314928D01*
X928305Y321136D01*
X926834Y327239D01*
X924837Y333190D01*
X922328Y338945D01*
X919328Y344459D01*
X915858Y349691D01*
X911945Y354600D01*
X907620Y359150D01*
X902914Y363305D01*
X897865Y367034D01*
X892509Y370309D01*
X886888Y373105D01*
X881045Y375401D01*
X875024Y377178D01*
X868872Y378424D01*
X862634Y379129D01*
X99240Y431800D01*
X94652Y432376D01*
X90032Y432550D01*
X85414Y432321D01*
X80833Y431690D01*
X76325Y430662D01*
X71924Y429245D01*
X67663Y427450D01*
X63574Y425290D01*
X59690Y422783D01*
X56039Y419946D01*
X52648Y416802D01*
X49545Y413374D01*
X46753Y409689D01*
X44292Y405774D01*
X42181Y401660D01*
X40438Y397378D01*
X39074Y392960D01*
X38100Y388440D01*
X38100Y-22337D01*
X939700Y231160D02*
X939711Y230899D01*
X939746Y230639D01*
X939802Y230384D01*
X939881Y230134D01*
X939981Y229892D01*
X940102Y229660D01*
X940243Y229439D01*
X940402Y229232D01*
X940579Y229039D01*
X940772Y228862D01*
X940979Y228703D01*
X941200Y228562D01*
X941432Y228441D01*
X941674Y228341D01*
X941924Y228262D01*
X942179Y228206D01*
X942439Y228171D01*
X942700Y228160D01*
X953700Y228160D01*
X953961Y228171D01*
X954221Y228206D01*
X954476Y228262D01*
X954726Y228341D01*
X954968Y228441D01*
X955200Y228562D01*
X955421Y228703D01*
X955628Y228862D01*
X955821Y229039D01*
X955998Y229232D01*
X956157Y229439D01*
X956298Y229660D01*
X956419Y229892D01*
X956519Y230134D01*
X956598Y230384D01*
X956654Y230639D01*
X956689Y230899D01*
X956700Y231160D01*
X956689Y231421D01*
X956654Y231681D01*
X956598Y231936D01*
X956519Y232186D01*
X956419Y232428D01*
X956298Y232660D01*
X956157Y232881D01*
X955998Y233088D01*
X955821Y233281D01*
X955628Y233458D01*
X955421Y233617D01*
X955200Y233758D01*
X954968Y233879D01*
X954726Y233979D01*
X954476Y234058D01*
X954221Y234114D01*
X953961Y234149D01*
X953700Y234160D01*
X942700Y234160D01*
X942439Y234149D01*
X942179Y234114D01*
X941924Y234058D01*
X941674Y233979D01*
X941432Y233879D01*
X941200Y233758D01*
X940979Y233617D01*
X940772Y233458D01*
X940579Y233281D01*
X940402Y233088D01*
X940243Y232881D01*
X940102Y232660D01*
X939981Y232428D01*
X939881Y232186D01*
X939802Y231936D01*
X939746Y231681D01*
X939711Y231421D01*
X939700Y231160D01*
X939700Y144760D02*
X939711Y144499D01*
X939746Y144239D01*
X939802Y143984D01*
X939881Y143734D01*
X939981Y143492D01*
X940102Y143260D01*
X940243Y143039D01*
X940402Y142832D01*
X940579Y142639D01*
X940772Y142462D01*
X940979Y142303D01*
X941200Y142162D01*
X941432Y142041D01*
X941674Y141941D01*
X941924Y141862D01*
X942179Y141806D01*
X942439Y141771D01*
X942700Y141760D01*
X953700Y141760D01*
X953961Y141771D01*
X954221Y141806D01*
X954476Y141862D01*
X954726Y141941D01*
X954968Y142041D01*
X955200Y142162D01*
X955421Y142303D01*
X955628Y142462D01*
X955821Y142639D01*
X955998Y142832D01*
X956157Y143039D01*
X956298Y143260D01*
X956419Y143492D01*
X956519Y143734D01*
X956598Y143984D01*
X956654Y144239D01*
X956689Y144499D01*
X956700Y144760D01*
X956689Y145021D01*
X956654Y145281D01*
X956598Y145536D01*
X956519Y145786D01*
X956419Y146028D01*
X956298Y146260D01*
X956157Y146481D01*
X955998Y146688D01*
X955821Y146881D01*
X955628Y147058D01*
X955421Y147217D01*
X955200Y147358D01*
X954968Y147479D01*
X954726Y147579D01*
X954476Y147658D01*
X954221Y147714D01*
X953961Y147749D01*
X953700Y147760D01*
X942700Y147760D01*
X942439Y147749D01*
X942179Y147714D01*
X941924Y147658D01*
X941674Y147579D01*
X941432Y147479D01*
X941200Y147358D01*
X940979Y147217D01*
X940772Y147058D01*
X940579Y146881D01*
X940402Y146688D01*
X940243Y146481D01*
X940102Y146260D01*
X939981Y146028D01*
X939881Y145786D01*
X939802Y145536D01*
X939746Y145281D01*
X939711Y145021D01*
X939700Y144760D01*
X984000Y144760D02*
X984011Y144499D01*
X984046Y144239D01*
X984102Y143984D01*
X984181Y143734D01*
X984281Y143492D01*
X984402Y143260D01*
X984543Y143039D01*
X984702Y142832D01*
X984879Y142639D01*
X985072Y142462D01*
X985279Y142303D01*
X985500Y142162D01*
X985732Y142041D01*
X985974Y141941D01*
X986224Y141862D01*
X986479Y141806D01*
X986739Y141771D01*
X987000Y141760D01*
X993000Y141760D01*
X993261Y141771D01*
X993521Y141806D01*
X993776Y141862D01*
X994026Y141941D01*
X994268Y142041D01*
X994500Y142162D01*
X994721Y142303D01*
X994928Y142462D01*
X995121Y142639D01*
X995298Y142832D01*
X995457Y143039D01*
X995598Y143260D01*
X995719Y143492D01*
X995819Y143734D01*
X995898Y143984D01*
X995954Y144239D01*
X995989Y144499D01*
X996000Y144760D01*
X995989Y145021D01*
X995954Y145281D01*
X995898Y145536D01*
X995819Y145786D01*
X995719Y146028D01*
X995598Y146260D01*
X995457Y146481D01*
X995298Y146688D01*
X995121Y146881D01*
X994928Y147058D01*
X994721Y147217D01*
X994500Y147358D01*
X994268Y147479D01*
X994026Y147579D01*
X993776Y147658D01*
X993521Y147714D01*
X993261Y147749D01*
X993000Y147760D01*
X987000Y147760D01*
X986739Y147749D01*
X986479Y147714D01*
X986224Y147658D01*
X985974Y147579D01*
X985732Y147479D01*
X985500Y147358D01*
X985279Y147217D01*
X985072Y147058D01*
X984879Y146881D01*
X984702Y146688D01*
X984543Y146481D01*
X984402Y146260D01*
X984281Y146028D01*
X984181Y145786D01*
X984102Y145536D01*
X984046Y145281D01*
X984011Y145021D01*
X984000Y144760D01*
X984000Y231160D02*
X984011Y230899D01*
X984046Y230639D01*
X984102Y230384D01*
X984181Y230134D01*
X984281Y229892D01*
X984402Y229660D01*
X984543Y229439D01*
X984702Y229232D01*
X984879Y229039D01*
X985072Y228862D01*
X985279Y228703D01*
X985500Y228562D01*
X985732Y228441D01*
X985974Y228341D01*
X986224Y228262D01*
X986479Y228206D01*
X986739Y228171D01*
X987000Y228160D01*
X993000Y228160D01*
X993261Y228171D01*
X993521Y228206D01*
X993776Y228262D01*
X994026Y228341D01*
X994268Y228441D01*
X994500Y228562D01*
X994721Y228703D01*
X994928Y228862D01*
X995121Y229039D01*
X995298Y229232D01*
X995457Y229439D01*
X995598Y229660D01*
X995719Y229892D01*
X995819Y230134D01*
X995898Y230384D01*
X995954Y230639D01*
X995989Y230899D01*
X996000Y231160D01*
X995989Y231421D01*
X995954Y231681D01*
X995898Y231936D01*
X995819Y232186D01*
X995719Y232428D01*
X995598Y232660D01*
X995457Y232881D01*
X995298Y233088D01*
X995121Y233281D01*
X994928Y233458D01*
X994721Y233617D01*
X994500Y233758D01*
X994268Y233879D01*
X994026Y233979D01*
X993776Y234058D01*
X993521Y234114D01*
X993261Y234149D01*
X993000Y234160D01*
X987000Y234160D01*
X986739Y234149D01*
X986479Y234114D01*
X986224Y234058D01*
X985974Y233979D01*
X985732Y233879D01*
X985500Y233758D01*
X985279Y233617D01*
X985072Y233458D01*
X984879Y233281D01*
X984702Y233088D01*
X984543Y232881D01*
X984402Y232660D01*
X984281Y232428D01*
X984181Y232186D01*
X984102Y231936D01*
X984046Y231681D01*
X984011Y231421D01*
X984000Y231160D01*
X76200Y402091D02*
X76122Y401096D01*
X75966Y400110D01*
X75733Y399140D01*
X75424Y398191D01*
X75042Y397269D01*
X74589Y396380D01*
X74068Y395529D01*
X73481Y394721D01*
X72833Y393963D01*
X72127Y393257D01*
X71369Y392609D01*
X70561Y392022D01*
X69710Y391501D01*
X68821Y391048D01*
X67899Y390666D01*
X66950Y390357D01*
X65980Y390124D01*
X64994Y389968D01*
X63999Y389890D01*
X63001Y389890D01*
X62006Y389968D01*
X61020Y390124D01*
X60050Y390357D01*
X59101Y390666D01*
X58179Y391048D01*
X57290Y391501D01*
X56439Y392022D01*
X55631Y392609D01*
X54873Y393257D01*
X54167Y393963D01*
X53519Y394721D01*
X52932Y395529D01*
X52411Y396380D01*
X51958Y397269D01*
X51576Y398191D01*
X51267Y399140D01*
X51034Y400110D01*
X50878Y401096D01*
X50800Y402091D01*
X50800Y403089D01*
X50878Y404084D01*
X51034Y405070D01*
X51267Y406040D01*
X51576Y406989D01*
X51958Y407911D01*
X52411Y408800D01*
X52932Y409651D01*
X53519Y410459D01*
X54167Y411217D01*
X54873Y411923D01*
X55631Y412571D01*
X56439Y413158D01*
X57290Y413679D01*
X58179Y414132D01*
X59101Y414514D01*
X60050Y414823D01*
X61020Y415056D01*
X62006Y415212D01*
X63001Y415290D01*
X63999Y415290D01*
X64994Y415212D01*
X65980Y415056D01*
X66950Y414823D01*
X67899Y414514D01*
X68821Y414132D01*
X69710Y413679D01*
X70561Y413158D01*
X71369Y412571D01*
X72127Y411923D01*
X72833Y411217D01*
X73481Y410459D01*
X74068Y409651D01*
X74589Y408800D01*
X75042Y407911D01*
X75424Y406989D01*
X75733Y406040D01*
X75966Y405070D01*
X76122Y404084D01*
X76200Y403089D01*
X76200Y402091D01*
X76200Y-38599D02*
X76122Y-39594D01*
X75966Y-40580D01*
X75733Y-41550D01*
X75424Y-42499D01*
X75042Y-43421D01*
X74589Y-44310D01*
X74068Y-45161D01*
X73481Y-45969D01*
X72833Y-46727D01*
X72127Y-47433D01*
X71369Y-48081D01*
X70561Y-48668D01*
X69710Y-49189D01*
X68821Y-49642D01*
X67899Y-50024D01*
X66950Y-50333D01*
X65980Y-50566D01*
X64994Y-50722D01*
X63999Y-50800D01*
X63001Y-50800D01*
X62006Y-50722D01*
X61020Y-50566D01*
X60050Y-50333D01*
X59101Y-50024D01*
X58179Y-49642D01*
X57290Y-49189D01*
X56439Y-48668D01*
X55631Y-48081D01*
X54873Y-47433D01*
X54167Y-46727D01*
X53519Y-45969D01*
X52932Y-45161D01*
X52411Y-44310D01*
X51958Y-43421D01*
X51576Y-42499D01*
X51267Y-41550D01*
X51034Y-40580D01*
X50878Y-39594D01*
X50800Y-38599D01*
X50800Y-37601D01*
X50878Y-36606D01*
X51034Y-35620D01*
X51267Y-34650D01*
X51576Y-33701D01*
X51958Y-32779D01*
X52411Y-31890D01*
X52932Y-31039D01*
X53519Y-30231D01*
X54167Y-29473D01*
X54873Y-28767D01*
X55631Y-28119D01*
X56439Y-27532D01*
X57290Y-27011D01*
X58179Y-26558D01*
X59101Y-26176D01*
X60050Y-25867D01*
X61020Y-25634D01*
X62006Y-25478D01*
X63001Y-25400D01*
X63999Y-25400D01*
X64994Y-25478D01*
X65980Y-25634D01*
X66950Y-25867D01*
X67899Y-26176D01*
X68821Y-26558D01*
X69710Y-27011D01*
X70561Y-27532D01*
X71369Y-28119D01*
X72127Y-28767D01*
X72833Y-29473D01*
X73481Y-30231D01*
X74068Y-31039D01*
X74589Y-31890D01*
X75042Y-32779D01*
X75424Y-33701D01*
X75733Y-34650D01*
X75966Y-35620D01*
X76122Y-36606D01*
X76200Y-37601D01*
X76200Y-38599D01*
X908050Y37601D02*
X907972Y36606D01*
X907816Y35620D01*
X907583Y34650D01*
X907274Y33701D01*
X906892Y32779D01*
X906439Y31890D01*
X905918Y31039D01*
X905331Y30231D01*
X904683Y29473D01*
X903977Y28767D01*
X903219Y28119D01*
X902411Y27532D01*
X901560Y27011D01*
X900671Y26558D01*
X899749Y26176D01*
X898800Y25867D01*
X897830Y25634D01*
X896844Y25478D01*
X895849Y25400D01*
X894851Y25400D01*
X893856Y25478D01*
X892870Y25634D01*
X891900Y25867D01*
X890951Y26176D01*
X890029Y26558D01*
X889140Y27011D01*
X888289Y27532D01*
X887481Y28119D01*
X886723Y28767D01*
X886017Y29473D01*
X885369Y30231D01*
X884782Y31039D01*
X884261Y31890D01*
X883808Y32779D01*
X883426Y33701D01*
X883117Y34650D01*
X882884Y35620D01*
X882728Y36606D01*
X882650Y37601D01*
X882650Y38599D01*
X882728Y39594D01*
X882884Y40580D01*
X883117Y41550D01*
X883426Y42499D01*
X883808Y43421D01*
X884261Y44310D01*
X884782Y45161D01*
X885369Y45969D01*
X886017Y46727D01*
X886723Y47433D01*
X887481Y48081D01*
X888289Y48668D01*
X889140Y49189D01*
X890029Y49642D01*
X890951Y50024D01*
X891900Y50333D01*
X892870Y50566D01*
X893856Y50722D01*
X894851Y50800D01*
X895849Y50800D01*
X896844Y50722D01*
X897830Y50566D01*
X898800Y50333D01*
X899749Y50024D01*
X900671Y49642D01*
X901560Y49189D01*
X902411Y48668D01*
X903219Y48081D01*
X903977Y47433D01*
X904683Y46727D01*
X905331Y45969D01*
X905918Y45161D01*
X906439Y44310D01*
X906892Y43421D01*
X907274Y42499D01*
X907583Y41550D01*
X907816Y40580D01*
X907972Y39594D01*
X908050Y38599D01*
X908050Y37601D01*
X908050Y341131D02*
X907972Y340136D01*
X907816Y339150D01*
X907583Y338180D01*
X907274Y337231D01*
X906892Y336309D01*
X906439Y335420D01*
X905918Y334569D01*
X905331Y333761D01*
X904683Y333003D01*
X903977Y332297D01*
X903219Y331649D01*
X902411Y331062D01*
X901560Y330541D01*
X900671Y330088D01*
X899749Y329706D01*
X898800Y329397D01*
X897830Y329164D01*
X896844Y329008D01*
X895849Y328930D01*
X894851Y328930D01*
X893856Y329008D01*
X892870Y329164D01*
X891900Y329397D01*
X890951Y329706D01*
X890029Y330088D01*
X889140Y330541D01*
X888289Y331062D01*
X887481Y331649D01*
X886723Y332297D01*
X886017Y333003D01*
X885369Y333761D01*
X884782Y334569D01*
X884261Y335420D01*
X883808Y336309D01*
X883426Y337231D01*
X883117Y338180D01*
X882884Y339150D01*
X882728Y340136D01*
X882650Y341131D01*
X882650Y342129D01*
X882728Y343124D01*
X882884Y344110D01*
X883117Y345080D01*
X883426Y346029D01*
X883808Y346951D01*
X884261Y347840D01*
X884782Y348691D01*
X885369Y349499D01*
X886017Y350257D01*
X886723Y350963D01*
X887481Y351611D01*
X888289Y352198D01*
X889140Y352719D01*
X890029Y353172D01*
X890951Y353554D01*
X891900Y353863D01*
X892870Y354096D01*
X893856Y354252D01*
X894851Y354330D01*
X895849Y354330D01*
X896844Y354252D01*
X897830Y354096D01*
X898800Y353863D01*
X899749Y353554D01*
X900671Y353172D01*
X901560Y352719D01*
X902411Y352198D01*
X903219Y351611D01*
X903977Y350963D01*
X904683Y350257D01*
X905331Y349499D01*
X905918Y348691D01*
X906439Y347840D01*
X906892Y346951D01*
X907274Y346029D01*
X907583Y345080D01*
X907816Y344110D01*
X907972Y343124D01*
X908050Y342129D01*
X908050Y341131D01*
X56175Y309540D02*
X56760Y309463D01*
X57330Y309310D01*
X57875Y309085D01*
X58385Y308790D01*
X58853Y308431D01*
X59271Y308013D01*
X59630Y307545D01*
X59925Y307035D01*
X60150Y306490D01*
X60303Y305920D01*
X60380Y305335D01*
X60380Y304745D01*
X60303Y304160D01*
X60150Y303590D01*
X59925Y303045D01*
X59630Y302535D01*
X59271Y302067D01*
X58853Y301649D01*
X58385Y301290D01*
X57875Y300995D01*
X57330Y300770D01*
X56760Y300617D01*
X56175Y300540D01*
X55585Y300540D01*
X55000Y300617D01*
X54430Y300770D01*
X53885Y300995D01*
X53375Y301290D01*
X52907Y301649D01*
X52489Y302067D01*
X52130Y302535D01*
X51835Y303045D01*
X51610Y303590D01*
X51457Y304160D01*
X51380Y304745D01*
X51380Y305335D01*
X51457Y305920D01*
X51610Y306490D01*
X51835Y307035D01*
X52130Y307545D01*
X52489Y308013D01*
X52907Y308431D01*
X53375Y308790D01*
X53885Y309085D01*
X54430Y309310D01*
X55000Y309463D01*
X55585Y309540D01*
X56175Y309540D01*
X56175Y339540D02*
X56760Y339463D01*
X57330Y339310D01*
X57875Y339085D01*
X58385Y338790D01*
X58853Y338431D01*
X59271Y338013D01*
X59630Y337545D01*
X59925Y337035D01*
X60150Y336490D01*
X60303Y335920D01*
X60380Y335335D01*
X60380Y334745D01*
X60303Y334160D01*
X60150Y333590D01*
X59925Y333045D01*
X59630Y332535D01*
X59271Y332067D01*
X58853Y331649D01*
X58385Y331290D01*
X57875Y330995D01*
X57330Y330770D01*
X56760Y330617D01*
X56175Y330540D01*
X55585Y330540D01*
X55000Y330617D01*
X54430Y330770D01*
X53885Y330995D01*
X53375Y331290D01*
X52907Y331649D01*
X52489Y332067D01*
X52130Y332535D01*
X51835Y333045D01*
X51610Y333590D01*
X51457Y334160D01*
X51380Y334745D01*
X51380Y335335D01*
X51457Y335920D01*
X51610Y336490D01*
X51835Y337035D01*
X52130Y337545D01*
X52489Y338013D01*
X52907Y338431D01*
X53375Y338790D01*
X53885Y339085D01*
X54430Y339310D01*
X55000Y339463D01*
X55585Y339540D01*
X56175Y339540D01*
X953413Y220110D02*
X953835Y220054D01*
X954247Y219944D01*
X954641Y219781D01*
X955009Y219568D01*
X955347Y219309D01*
X955649Y219007D01*
X955908Y218669D01*
X956121Y218301D01*
X956284Y217907D01*
X956394Y217495D01*
X956450Y217073D01*
X956450Y216647D01*
X956394Y216225D01*
X956284Y215813D01*
X956121Y215419D01*
X955908Y215051D01*
X955649Y214713D01*
X955347Y214411D01*
X955009Y214152D01*
X954641Y213939D01*
X954247Y213776D01*
X953835Y213666D01*
X953413Y213610D01*
X952987Y213610D01*
X952565Y213666D01*
X952153Y213776D01*
X951759Y213939D01*
X951391Y214152D01*
X951053Y214411D01*
X950751Y214713D01*
X950492Y215051D01*
X950279Y215419D01*
X950116Y215813D01*
X950006Y216225D01*
X949950Y216647D01*
X949950Y217073D01*
X950006Y217495D01*
X950116Y217907D01*
X950279Y218301D01*
X950492Y218669D01*
X950751Y219007D01*
X951053Y219309D01*
X951391Y219568D01*
X951759Y219781D01*
X952153Y219944D01*
X952565Y220054D01*
X952987Y220110D01*
X953413Y220110D01*
X953413Y162310D02*
X953835Y162254D01*
X954247Y162144D01*
X954641Y161981D01*
X955009Y161768D01*
X955347Y161509D01*
X955649Y161207D01*
X955908Y160869D01*
X956121Y160501D01*
X956284Y160107D01*
X956394Y159695D01*
X956450Y159273D01*
X956450Y158847D01*
X956394Y158425D01*
X956284Y158013D01*
X956121Y157619D01*
X955908Y157251D01*
X955649Y156913D01*
X955347Y156611D01*
X955009Y156352D01*
X954641Y156139D01*
X954247Y155976D01*
X953835Y155866D01*
X953413Y155810D01*
X952987Y155810D01*
X952565Y155866D01*
X952153Y155976D01*
X951759Y156139D01*
X951391Y156352D01*
X951053Y156611D01*
X950751Y156913D01*
X950492Y157251D01*
X950279Y157619D01*
X950116Y158013D01*
X950006Y158425D01*
X949950Y158847D01*
X949950Y159273D01*
X950006Y159695D01*
X950116Y160107D01*
X950279Y160501D01*
X950492Y160869D01*
X950751Y161207D01*
X951053Y161509D01*
X951391Y161768D01*
X951759Y161981D01*
X952153Y162144D01*
X952565Y162254D01*
X952987Y162310D01*
X953413Y162310D01*
M02*
