G04 EAGLE Gerber RS-274X export*
G75*
%MOMM*%
%FSLAX34Y34*%
%LPD*%
%INSilkscreen Top*%
%IPPOS*%
%AMOC8*
5,1,8,0,0,1.08239X$1,22.5*%
G01*
%ADD10C,0.304800*%
%ADD11C,0.152400*%
%ADD12C,0.203200*%
%ADD13C,0.015238*%
%ADD14C,0.254000*%
%ADD15C,0.127000*%
%ADD16R,0.457200X0.762000*%
%ADD17C,0.558800*%
%ADD18C,0.700000*%
%ADD19C,0.101600*%
%ADD20R,0.190500X0.889000*%

G36*
X202610Y-34654D02*
X202610Y-34654D01*
X202718Y-34644D01*
X202731Y-34638D01*
X202745Y-34636D01*
X202842Y-34588D01*
X202941Y-34543D01*
X202954Y-34532D01*
X202963Y-34528D01*
X202978Y-34512D01*
X203055Y-34450D01*
X205640Y-31865D01*
X205703Y-31776D01*
X205769Y-31691D01*
X205774Y-31678D01*
X205782Y-31666D01*
X205813Y-31563D01*
X205849Y-31460D01*
X205849Y-31446D01*
X205853Y-31433D01*
X205849Y-31325D01*
X205850Y-31216D01*
X205845Y-31203D01*
X205845Y-31189D01*
X205807Y-31087D01*
X205772Y-30985D01*
X205763Y-30970D01*
X205759Y-30961D01*
X205745Y-30944D01*
X205691Y-30862D01*
X202927Y-27472D01*
X203484Y-26390D01*
X203490Y-26370D01*
X203532Y-26275D01*
X203903Y-25116D01*
X208254Y-24673D01*
X208358Y-24645D01*
X208464Y-24620D01*
X208476Y-24613D01*
X208489Y-24610D01*
X208579Y-24549D01*
X208672Y-24492D01*
X208680Y-24481D01*
X208692Y-24473D01*
X208758Y-24387D01*
X208827Y-24303D01*
X208831Y-24290D01*
X208840Y-24279D01*
X208874Y-24176D01*
X208913Y-24075D01*
X208914Y-24057D01*
X208918Y-24048D01*
X208918Y-24026D01*
X208927Y-23928D01*
X208927Y-20272D01*
X208910Y-20165D01*
X208896Y-20057D01*
X208890Y-20045D01*
X208888Y-20031D01*
X208836Y-19935D01*
X208789Y-19838D01*
X208779Y-19828D01*
X208773Y-19816D01*
X208693Y-19742D01*
X208617Y-19665D01*
X208605Y-19659D01*
X208595Y-19649D01*
X208496Y-19604D01*
X208399Y-19556D01*
X208381Y-19552D01*
X208372Y-19548D01*
X208351Y-19546D01*
X208254Y-19527D01*
X203903Y-19084D01*
X203532Y-17925D01*
X203523Y-17908D01*
X203521Y-17900D01*
X203517Y-17893D01*
X203484Y-17810D01*
X202927Y-16728D01*
X205691Y-13338D01*
X205745Y-13244D01*
X205802Y-13152D01*
X205805Y-13139D01*
X205812Y-13127D01*
X205833Y-13020D01*
X205858Y-12915D01*
X205856Y-12901D01*
X205859Y-12887D01*
X205844Y-12780D01*
X205834Y-12672D01*
X205828Y-12659D01*
X205826Y-12646D01*
X205778Y-12548D01*
X205733Y-12449D01*
X205722Y-12436D01*
X205718Y-12427D01*
X205702Y-12412D01*
X205640Y-12335D01*
X203055Y-9750D01*
X202966Y-9687D01*
X202881Y-9621D01*
X202868Y-9616D01*
X202856Y-9608D01*
X202753Y-9577D01*
X202650Y-9541D01*
X202636Y-9541D01*
X202623Y-9537D01*
X202515Y-9541D01*
X202406Y-9540D01*
X202393Y-9545D01*
X202379Y-9545D01*
X202277Y-9583D01*
X202175Y-9618D01*
X202160Y-9627D01*
X202151Y-9631D01*
X202134Y-9645D01*
X202052Y-9699D01*
X198662Y-12463D01*
X197580Y-11906D01*
X197560Y-11900D01*
X197465Y-11858D01*
X196306Y-11487D01*
X195863Y-7136D01*
X195835Y-7032D01*
X195810Y-6926D01*
X195803Y-6914D01*
X195800Y-6901D01*
X195739Y-6811D01*
X195682Y-6718D01*
X195671Y-6710D01*
X195663Y-6698D01*
X195577Y-6632D01*
X195493Y-6564D01*
X195480Y-6559D01*
X195469Y-6550D01*
X195366Y-6516D01*
X195265Y-6477D01*
X195247Y-6476D01*
X195238Y-6472D01*
X195216Y-6473D01*
X195118Y-6463D01*
X191462Y-6463D01*
X191355Y-6480D01*
X191247Y-6494D01*
X191235Y-6500D01*
X191221Y-6502D01*
X191125Y-6554D01*
X191028Y-6601D01*
X191018Y-6611D01*
X191006Y-6617D01*
X190932Y-6697D01*
X190855Y-6773D01*
X190849Y-6785D01*
X190839Y-6796D01*
X190794Y-6894D01*
X190746Y-6991D01*
X190742Y-7009D01*
X190738Y-7018D01*
X190736Y-7039D01*
X190717Y-7136D01*
X190274Y-11487D01*
X189115Y-11858D01*
X189097Y-11868D01*
X189000Y-11906D01*
X187918Y-12463D01*
X184528Y-9699D01*
X184434Y-9645D01*
X184342Y-9588D01*
X184329Y-9585D01*
X184317Y-9578D01*
X184210Y-9557D01*
X184105Y-9532D01*
X184091Y-9534D01*
X184077Y-9531D01*
X183970Y-9546D01*
X183862Y-9556D01*
X183849Y-9562D01*
X183836Y-9564D01*
X183738Y-9612D01*
X183639Y-9657D01*
X183626Y-9668D01*
X183617Y-9672D01*
X183602Y-9688D01*
X183525Y-9750D01*
X180940Y-12335D01*
X180877Y-12424D01*
X180811Y-12509D01*
X180806Y-12522D01*
X180798Y-12534D01*
X180767Y-12637D01*
X180731Y-12740D01*
X180731Y-12754D01*
X180727Y-12767D01*
X180731Y-12875D01*
X180730Y-12984D01*
X180735Y-12997D01*
X180735Y-13011D01*
X180773Y-13113D01*
X180808Y-13215D01*
X180817Y-13230D01*
X180821Y-13239D01*
X180835Y-13256D01*
X180889Y-13338D01*
X183653Y-16728D01*
X183096Y-17810D01*
X183090Y-17830D01*
X183048Y-17925D01*
X182677Y-19084D01*
X178326Y-19527D01*
X178222Y-19555D01*
X178116Y-19580D01*
X178104Y-19587D01*
X178091Y-19590D01*
X178001Y-19651D01*
X177908Y-19708D01*
X177900Y-19719D01*
X177888Y-19727D01*
X177822Y-19813D01*
X177754Y-19897D01*
X177749Y-19910D01*
X177740Y-19921D01*
X177706Y-20024D01*
X177667Y-20125D01*
X177666Y-20143D01*
X177662Y-20152D01*
X177663Y-20174D01*
X177653Y-20272D01*
X177653Y-23928D01*
X177670Y-24035D01*
X177684Y-24143D01*
X177690Y-24155D01*
X177692Y-24169D01*
X177744Y-24265D01*
X177791Y-24362D01*
X177801Y-24372D01*
X177807Y-24384D01*
X177887Y-24458D01*
X177963Y-24535D01*
X177975Y-24541D01*
X177986Y-24551D01*
X178084Y-24596D01*
X178181Y-24644D01*
X178199Y-24648D01*
X178208Y-24652D01*
X178229Y-24654D01*
X178326Y-24673D01*
X182677Y-25116D01*
X183048Y-26275D01*
X183058Y-26293D01*
X183096Y-26390D01*
X183653Y-27472D01*
X180889Y-30862D01*
X180835Y-30956D01*
X180778Y-31048D01*
X180775Y-31061D01*
X180768Y-31073D01*
X180747Y-31180D01*
X180722Y-31285D01*
X180724Y-31299D01*
X180721Y-31313D01*
X180736Y-31420D01*
X180746Y-31528D01*
X180752Y-31541D01*
X180754Y-31555D01*
X180802Y-31652D01*
X180847Y-31751D01*
X180858Y-31764D01*
X180862Y-31773D01*
X180878Y-31788D01*
X180940Y-31865D01*
X183525Y-34450D01*
X183614Y-34513D01*
X183699Y-34579D01*
X183712Y-34584D01*
X183724Y-34592D01*
X183827Y-34623D01*
X183930Y-34659D01*
X183944Y-34659D01*
X183957Y-34663D01*
X184065Y-34659D01*
X184174Y-34660D01*
X184187Y-34655D01*
X184201Y-34655D01*
X184303Y-34617D01*
X184405Y-34582D01*
X184420Y-34573D01*
X184429Y-34569D01*
X184446Y-34555D01*
X184528Y-34501D01*
X187918Y-31737D01*
X189000Y-32294D01*
X189053Y-32311D01*
X189102Y-32337D01*
X189168Y-32348D01*
X189232Y-32369D01*
X189288Y-32368D01*
X189342Y-32377D01*
X189409Y-32366D01*
X189476Y-32365D01*
X189528Y-32347D01*
X189583Y-32338D01*
X189643Y-32306D01*
X189706Y-32283D01*
X189749Y-32249D01*
X189799Y-32223D01*
X189845Y-32174D01*
X189897Y-32132D01*
X189928Y-32085D01*
X189966Y-32045D01*
X190022Y-31940D01*
X190030Y-31927D01*
X190031Y-31922D01*
X190035Y-31915D01*
X192188Y-26718D01*
X192208Y-26634D01*
X192213Y-26622D01*
X192215Y-26606D01*
X192240Y-26520D01*
X192239Y-26500D01*
X192244Y-26480D01*
X192236Y-26398D01*
X192237Y-26379D01*
X192233Y-26359D01*
X192229Y-26276D01*
X192222Y-26257D01*
X192220Y-26237D01*
X192188Y-26168D01*
X192182Y-26141D01*
X192167Y-26117D01*
X192140Y-26048D01*
X192127Y-26033D01*
X192119Y-26015D01*
X192074Y-25966D01*
X192054Y-25934D01*
X192022Y-25908D01*
X191983Y-25862D01*
X191962Y-25847D01*
X191952Y-25837D01*
X191931Y-25825D01*
X191868Y-25781D01*
X191865Y-25779D01*
X191864Y-25779D01*
X191862Y-25777D01*
X190978Y-25282D01*
X190299Y-24655D01*
X189785Y-23886D01*
X189465Y-23018D01*
X189357Y-22101D01*
X189470Y-21166D01*
X189801Y-20285D01*
X190333Y-19508D01*
X191034Y-18879D01*
X191864Y-18436D01*
X192776Y-18202D01*
X193718Y-18192D01*
X194634Y-18406D01*
X195474Y-18831D01*
X196188Y-19444D01*
X196737Y-20209D01*
X197088Y-21083D01*
X197221Y-22015D01*
X197129Y-22952D01*
X196817Y-23840D01*
X196302Y-24628D01*
X195615Y-25272D01*
X194716Y-25778D01*
X194676Y-25811D01*
X194634Y-25833D01*
X194603Y-25866D01*
X194555Y-25901D01*
X194542Y-25918D01*
X194526Y-25931D01*
X194491Y-25985D01*
X194467Y-26011D01*
X194454Y-26042D01*
X194412Y-26099D01*
X194406Y-26119D01*
X194395Y-26137D01*
X194377Y-26210D01*
X194367Y-26233D01*
X194364Y-26257D01*
X194341Y-26333D01*
X194342Y-26353D01*
X194337Y-26374D01*
X194344Y-26458D01*
X194343Y-26476D01*
X194346Y-26492D01*
X194349Y-26576D01*
X194357Y-26603D01*
X194358Y-26617D01*
X194368Y-26639D01*
X194392Y-26718D01*
X194700Y-27463D01*
X194701Y-27463D01*
X195011Y-28212D01*
X195321Y-28961D01*
X195321Y-28962D01*
X195632Y-29710D01*
X195632Y-29711D01*
X195942Y-30460D01*
X196252Y-31209D01*
X196253Y-31210D01*
X196545Y-31915D01*
X196574Y-31962D01*
X196595Y-32014D01*
X196638Y-32065D01*
X196674Y-32122D01*
X196717Y-32157D01*
X196753Y-32200D01*
X196810Y-32234D01*
X196862Y-32277D01*
X196914Y-32296D01*
X196962Y-32325D01*
X197028Y-32339D01*
X197091Y-32363D01*
X197146Y-32365D01*
X197200Y-32376D01*
X197267Y-32369D01*
X197334Y-32371D01*
X197388Y-32355D01*
X197443Y-32348D01*
X197554Y-32304D01*
X197568Y-32300D01*
X197572Y-32297D01*
X197580Y-32294D01*
X198662Y-31737D01*
X202052Y-34501D01*
X202146Y-34555D01*
X202238Y-34612D01*
X202251Y-34615D01*
X202263Y-34622D01*
X202370Y-34643D01*
X202475Y-34668D01*
X202489Y-34666D01*
X202503Y-34669D01*
X202610Y-34654D01*
G37*
G36*
X680777Y353574D02*
X680777Y353574D01*
X680795Y353572D01*
X680897Y353600D01*
X681000Y353622D01*
X681015Y353631D01*
X681032Y353636D01*
X681177Y353721D01*
X686257Y357531D01*
X686260Y357534D01*
X686264Y357536D01*
X686345Y357623D01*
X686427Y357708D01*
X686429Y357712D01*
X686432Y357715D01*
X686482Y357824D01*
X686532Y357931D01*
X686532Y357935D01*
X686534Y357939D01*
X686547Y358057D01*
X686560Y358175D01*
X686560Y358179D01*
X686560Y358184D01*
X686534Y358300D01*
X686510Y358416D01*
X686507Y358420D01*
X686506Y358424D01*
X686445Y358526D01*
X686385Y358628D01*
X686381Y358631D01*
X686379Y358634D01*
X686257Y358749D01*
X681177Y362559D01*
X681161Y362567D01*
X681148Y362580D01*
X681133Y362587D01*
X681125Y362593D01*
X681075Y362613D01*
X681052Y362624D01*
X680959Y362673D01*
X680941Y362676D01*
X680925Y362683D01*
X680820Y362695D01*
X680716Y362711D01*
X680698Y362708D01*
X680681Y362710D01*
X680578Y362688D01*
X680473Y362670D01*
X680458Y362662D01*
X680440Y362658D01*
X680350Y362604D01*
X680257Y362554D01*
X680244Y362541D01*
X680229Y362532D01*
X680160Y362452D01*
X680088Y362375D01*
X680081Y362358D01*
X680069Y362345D01*
X680030Y362247D01*
X679986Y362151D01*
X679984Y362133D01*
X679977Y362117D01*
X679959Y361950D01*
X679959Y354330D01*
X679962Y354312D01*
X679960Y354295D01*
X679981Y354191D01*
X679999Y354087D01*
X680007Y354072D01*
X680011Y354054D01*
X680064Y353963D01*
X680114Y353870D01*
X680126Y353858D01*
X680136Y353842D01*
X680215Y353773D01*
X680292Y353701D01*
X680308Y353693D01*
X680322Y353681D01*
X680419Y353641D01*
X680515Y353597D01*
X680533Y353595D01*
X680549Y353588D01*
X680655Y353581D01*
X680759Y353570D01*
X680777Y353574D01*
G37*
G36*
X756977Y353574D02*
X756977Y353574D01*
X756995Y353572D01*
X757097Y353600D01*
X757200Y353622D01*
X757215Y353631D01*
X757232Y353636D01*
X757377Y353721D01*
X762457Y357531D01*
X762460Y357534D01*
X762464Y357536D01*
X762545Y357623D01*
X762627Y357708D01*
X762629Y357712D01*
X762632Y357715D01*
X762682Y357824D01*
X762732Y357931D01*
X762732Y357935D01*
X762734Y357939D01*
X762747Y358057D01*
X762760Y358175D01*
X762760Y358179D01*
X762760Y358184D01*
X762734Y358300D01*
X762710Y358416D01*
X762707Y358420D01*
X762706Y358424D01*
X762645Y358526D01*
X762585Y358628D01*
X762581Y358631D01*
X762579Y358634D01*
X762457Y358749D01*
X757377Y362559D01*
X757361Y362567D01*
X757348Y362580D01*
X757333Y362587D01*
X757325Y362593D01*
X757275Y362613D01*
X757252Y362624D01*
X757159Y362673D01*
X757141Y362676D01*
X757125Y362683D01*
X757020Y362695D01*
X756916Y362711D01*
X756898Y362708D01*
X756881Y362710D01*
X756778Y362688D01*
X756673Y362670D01*
X756658Y362662D01*
X756640Y362658D01*
X756550Y362604D01*
X756457Y362554D01*
X756444Y362541D01*
X756429Y362532D01*
X756360Y362452D01*
X756288Y362375D01*
X756281Y362358D01*
X756269Y362345D01*
X756230Y362247D01*
X756186Y362151D01*
X756184Y362133D01*
X756177Y362117D01*
X756159Y361950D01*
X756159Y354330D01*
X756162Y354312D01*
X756160Y354295D01*
X756181Y354191D01*
X756199Y354087D01*
X756207Y354072D01*
X756211Y354054D01*
X756264Y353963D01*
X756314Y353870D01*
X756326Y353858D01*
X756336Y353842D01*
X756415Y353773D01*
X756492Y353701D01*
X756508Y353693D01*
X756522Y353681D01*
X756619Y353641D01*
X756715Y353597D01*
X756733Y353595D01*
X756749Y353588D01*
X756855Y353581D01*
X756959Y353570D01*
X756977Y353574D01*
G37*
D10*
X233179Y26933D02*
X231145Y28966D01*
X227078Y28966D01*
X225044Y26933D01*
X225044Y18798D01*
X227078Y16764D01*
X231145Y16764D01*
X233179Y18798D01*
X241111Y16764D02*
X245178Y16764D01*
X247212Y18798D01*
X247212Y22865D01*
X245178Y24899D01*
X241111Y24899D01*
X239077Y22865D01*
X239077Y18798D01*
X241111Y16764D01*
X253110Y16764D02*
X253110Y24899D01*
X255143Y24899D01*
X257177Y22865D01*
X257177Y16764D01*
X257177Y22865D02*
X259211Y24899D01*
X261245Y22865D01*
X261245Y16764D01*
X269176Y16764D02*
X269176Y26933D01*
X271210Y28966D01*
X271210Y22865D02*
X267142Y22865D01*
X278531Y16764D02*
X282599Y16764D01*
X284632Y18798D01*
X284632Y22865D01*
X282599Y24899D01*
X278531Y24899D01*
X276498Y22865D01*
X276498Y18798D01*
X278531Y16764D01*
X290530Y16764D02*
X290530Y24899D01*
X290530Y20831D02*
X294598Y24899D01*
X296632Y24899D01*
X304258Y26933D02*
X304258Y18798D01*
X306292Y16764D01*
X306292Y24899D02*
X302224Y24899D01*
X325612Y28966D02*
X325612Y16764D01*
X329680Y24899D02*
X325612Y28966D01*
X329680Y24899D02*
X333747Y28966D01*
X333747Y16764D01*
X341679Y24899D02*
X345746Y24899D01*
X347780Y22865D01*
X347780Y16764D01*
X341679Y16764D01*
X339645Y18798D01*
X341679Y20831D01*
X347780Y20831D01*
X353678Y24899D02*
X353678Y12697D01*
X353678Y24899D02*
X359779Y24899D01*
X361813Y22865D01*
X361813Y18798D01*
X359779Y16764D01*
X353678Y16764D01*
X367711Y16764D02*
X373812Y16764D01*
X375846Y18798D01*
X373812Y20831D01*
X369744Y20831D01*
X367711Y22865D01*
X369744Y24899D01*
X375846Y24899D01*
X233179Y4073D02*
X231145Y6106D01*
X227078Y6106D01*
X225044Y4073D01*
X225044Y2039D01*
X227078Y5D01*
X231145Y5D01*
X233179Y-2029D01*
X233179Y-4062D01*
X231145Y-6096D01*
X227078Y-6096D01*
X225044Y-4062D01*
X241111Y2039D02*
X245178Y2039D01*
X247212Y5D01*
X247212Y-6096D01*
X241111Y-6096D01*
X239077Y-4062D01*
X241111Y-2029D01*
X247212Y-2029D01*
X253110Y-6096D02*
X253110Y2039D01*
X255143Y2039D01*
X257177Y5D01*
X257177Y-6096D01*
X257177Y5D02*
X259211Y2039D01*
X261245Y5D01*
X261245Y-6096D01*
X267142Y-4062D02*
X267142Y2039D01*
X267142Y-4062D02*
X269176Y-6096D01*
X275277Y-6096D01*
X275277Y2039D01*
X283209Y-6096D02*
X287276Y-6096D01*
X283209Y-6096D02*
X281175Y-4062D01*
X281175Y5D01*
X283209Y2039D01*
X287276Y2039D01*
X289310Y5D01*
X289310Y-2029D01*
X281175Y-2029D01*
X295208Y6106D02*
X297242Y6106D01*
X297242Y-6096D01*
X299275Y-6096D02*
X295208Y-6096D01*
X324697Y6106D02*
X326731Y4073D01*
X324697Y6106D02*
X320630Y6106D01*
X318596Y4073D01*
X318596Y-4062D01*
X320630Y-6096D01*
X324697Y-6096D01*
X326731Y-4062D01*
X332629Y6106D02*
X334662Y6106D01*
X334662Y-6096D01*
X332629Y-6096D02*
X336696Y-6096D01*
X344018Y2039D02*
X348085Y2039D01*
X350119Y5D01*
X350119Y-6096D01*
X344018Y-6096D01*
X341984Y-4062D01*
X344018Y-2029D01*
X350119Y-2029D01*
X356017Y-4062D02*
X356017Y2039D01*
X356017Y-4062D02*
X358050Y-6096D01*
X364152Y-6096D01*
X364152Y-8130D02*
X364152Y2039D01*
X364152Y-8130D02*
X362118Y-10163D01*
X360084Y-10163D01*
X225044Y-16754D02*
X225044Y-24889D01*
X229111Y-28956D01*
X233179Y-24889D01*
X233179Y-16754D01*
X239077Y-16754D02*
X247212Y-16754D01*
X239077Y-16754D02*
X239077Y-22855D01*
X243144Y-20821D01*
X245178Y-20821D01*
X247212Y-22855D01*
X247212Y-26922D01*
X245178Y-28956D01*
X241111Y-28956D01*
X239077Y-26922D01*
X267142Y-28956D02*
X275277Y-28956D01*
X267142Y-28956D02*
X275277Y-20821D01*
X275277Y-18787D01*
X273244Y-16754D01*
X269176Y-16754D01*
X267142Y-18787D01*
X281175Y-18787D02*
X281175Y-26922D01*
X281175Y-18787D02*
X283209Y-16754D01*
X287276Y-16754D01*
X289310Y-18787D01*
X289310Y-26922D01*
X287276Y-28956D01*
X283209Y-28956D01*
X281175Y-26922D01*
X289310Y-18787D01*
X295208Y-28956D02*
X303343Y-28956D01*
X295208Y-28956D02*
X303343Y-20821D01*
X303343Y-18787D01*
X301309Y-16754D01*
X297242Y-16754D01*
X295208Y-18787D01*
X309241Y-18787D02*
X309241Y-26922D01*
X309241Y-18787D02*
X311274Y-16754D01*
X315342Y-16754D01*
X317376Y-18787D01*
X317376Y-26922D01*
X315342Y-28956D01*
X311274Y-28956D01*
X309241Y-26922D01*
X317376Y-18787D01*
X323273Y-22855D02*
X331408Y-22855D01*
X337306Y-26922D02*
X337306Y-18787D01*
X339340Y-16754D01*
X343407Y-16754D01*
X345441Y-18787D01*
X345441Y-26922D01*
X343407Y-28956D01*
X339340Y-28956D01*
X337306Y-26922D01*
X345441Y-18787D01*
X351339Y-18787D02*
X353373Y-16754D01*
X357440Y-16754D01*
X359474Y-18787D01*
X359474Y-20821D01*
X357440Y-22855D01*
X355407Y-22855D01*
X357440Y-22855D02*
X359474Y-24889D01*
X359474Y-26922D01*
X357440Y-28956D01*
X353373Y-28956D01*
X351339Y-26922D01*
X365372Y-22855D02*
X373507Y-22855D01*
X379405Y-26922D02*
X379405Y-18787D01*
X381438Y-16754D01*
X385506Y-16754D01*
X387540Y-18787D01*
X387540Y-26922D01*
X385506Y-28956D01*
X381438Y-28956D01*
X379405Y-26922D01*
X387540Y-18787D01*
X393437Y-28956D02*
X401572Y-28956D01*
X393437Y-28956D02*
X401572Y-20821D01*
X401572Y-18787D01*
X399539Y-16754D01*
X395471Y-16754D01*
X393437Y-18787D01*
D11*
X480231Y-8128D02*
X480231Y515D01*
X483112Y-5247D02*
X480231Y-8128D01*
X483112Y-5247D02*
X485993Y-8128D01*
X485993Y515D01*
X489586Y-2366D02*
X489586Y-8128D01*
X489586Y-2366D02*
X492468Y515D01*
X495349Y-2366D01*
X495349Y-8128D01*
X495349Y-3806D02*
X489586Y-3806D01*
X498942Y515D02*
X498942Y-8128D01*
X498942Y-5247D02*
X504704Y515D01*
X500382Y-3806D02*
X504704Y-8128D01*
X508297Y515D02*
X514059Y515D01*
X508297Y515D02*
X508297Y-8128D01*
X514059Y-8128D01*
X511178Y-3806D02*
X508297Y-3806D01*
X453561Y35393D02*
X453561Y41155D01*
X453561Y35393D02*
X456442Y32512D01*
X459323Y35393D01*
X459323Y41155D01*
X464357Y41155D02*
X467238Y41155D01*
X464357Y41155D02*
X462916Y39715D01*
X462916Y33953D01*
X464357Y32512D01*
X467238Y32512D01*
X468679Y33953D01*
X468679Y39715D01*
X467238Y41155D01*
X472272Y41155D02*
X472272Y33953D01*
X473712Y32512D01*
X476593Y32512D01*
X478034Y33953D01*
X478034Y41155D01*
X484508Y41155D02*
X484508Y32512D01*
X481627Y41155D02*
X487389Y41155D01*
X435659Y-925D02*
X434218Y515D01*
X431337Y515D01*
X429896Y-925D01*
X429896Y-6687D01*
X431337Y-8128D01*
X434218Y-8128D01*
X435659Y-6687D01*
X435659Y-3806D01*
X432778Y-3806D01*
X439252Y515D02*
X439252Y-8128D01*
X445014Y-8128D02*
X439252Y515D01*
X445014Y515D02*
X445014Y-8128D01*
X448607Y-8128D02*
X448607Y515D01*
X448607Y-8128D02*
X452929Y-8128D01*
X454369Y-6687D01*
X454369Y-925D01*
X452929Y515D01*
X448607Y515D01*
D12*
X187204Y40394D02*
X185425Y42173D01*
X181866Y42173D01*
X180086Y40394D01*
X180086Y33276D01*
X181866Y31496D01*
X185425Y31496D01*
X187204Y33276D01*
X187204Y36835D01*
X183645Y36835D01*
X191780Y42173D02*
X191780Y31496D01*
X198898Y31496D02*
X191780Y42173D01*
X198898Y42173D02*
X198898Y31496D01*
X203474Y31496D02*
X203474Y42173D01*
X203474Y31496D02*
X208813Y31496D01*
X210592Y33276D01*
X210592Y40394D01*
X208813Y42173D01*
X203474Y42173D01*
X141986Y42173D02*
X141986Y35055D01*
X145545Y31496D01*
X149104Y35055D01*
X149104Y42173D01*
X153680Y31496D02*
X157239Y31496D01*
X155459Y31496D02*
X155459Y42173D01*
X153680Y42173D02*
X157239Y42173D01*
X161476Y42173D02*
X161476Y31496D01*
X168594Y31496D02*
X161476Y42173D01*
X168594Y42173D02*
X168594Y31496D01*
D13*
X777485Y60635D02*
X776112Y60635D01*
X776112Y60636D02*
X776107Y60720D01*
X776098Y60804D01*
X776084Y60887D01*
X776067Y60970D01*
X776046Y61051D01*
X776022Y61132D01*
X775993Y61211D01*
X775961Y61289D01*
X775925Y61366D01*
X775886Y61440D01*
X775844Y61513D01*
X775798Y61584D01*
X775748Y61652D01*
X775696Y61718D01*
X775641Y61782D01*
X775583Y61843D01*
X775522Y61901D01*
X775458Y61956D01*
X775392Y62008D01*
X775324Y62058D01*
X775253Y62104D01*
X775180Y62146D01*
X775106Y62185D01*
X775029Y62221D01*
X774951Y62253D01*
X774872Y62282D01*
X774791Y62306D01*
X774710Y62327D01*
X774627Y62344D01*
X774544Y62358D01*
X774460Y62367D01*
X774376Y62372D01*
X774375Y63745D01*
X774376Y63745D01*
X774486Y63741D01*
X774596Y63732D01*
X774706Y63720D01*
X774815Y63704D01*
X774923Y63684D01*
X775031Y63661D01*
X775138Y63634D01*
X775244Y63603D01*
X775349Y63568D01*
X775452Y63530D01*
X775554Y63489D01*
X775655Y63444D01*
X775754Y63395D01*
X775851Y63343D01*
X775946Y63288D01*
X776040Y63229D01*
X776131Y63167D01*
X776220Y63102D01*
X776307Y63034D01*
X776392Y62963D01*
X776474Y62889D01*
X776553Y62813D01*
X776629Y62734D01*
X776703Y62652D01*
X776774Y62567D01*
X776842Y62480D01*
X776907Y62391D01*
X776969Y62300D01*
X777028Y62206D01*
X777083Y62111D01*
X777135Y62014D01*
X777184Y61915D01*
X777229Y61814D01*
X777270Y61712D01*
X777308Y61609D01*
X777343Y61504D01*
X777374Y61398D01*
X777401Y61291D01*
X777424Y61183D01*
X777444Y61075D01*
X777460Y60966D01*
X777472Y60856D01*
X777481Y60746D01*
X777485Y60636D01*
X777342Y60636D01*
X777337Y60744D01*
X777329Y60851D01*
X777317Y60958D01*
X777301Y61064D01*
X777281Y61170D01*
X777258Y61275D01*
X777231Y61379D01*
X777200Y61482D01*
X777165Y61584D01*
X777127Y61685D01*
X777086Y61784D01*
X777041Y61882D01*
X776992Y61978D01*
X776941Y62072D01*
X776885Y62165D01*
X776827Y62255D01*
X776766Y62344D01*
X776701Y62430D01*
X776633Y62513D01*
X776563Y62595D01*
X776489Y62673D01*
X776413Y62749D01*
X776335Y62823D01*
X776253Y62893D01*
X776170Y62961D01*
X776084Y63026D01*
X775995Y63087D01*
X775905Y63145D01*
X775812Y63201D01*
X775718Y63252D01*
X775622Y63301D01*
X775524Y63346D01*
X775425Y63387D01*
X775324Y63425D01*
X775222Y63460D01*
X775119Y63491D01*
X775015Y63518D01*
X774910Y63541D01*
X774804Y63561D01*
X774698Y63577D01*
X774591Y63589D01*
X774484Y63597D01*
X774376Y63602D01*
X774376Y63459D01*
X774481Y63454D01*
X774585Y63446D01*
X774689Y63434D01*
X774793Y63418D01*
X774896Y63398D01*
X774998Y63375D01*
X775099Y63348D01*
X775200Y63317D01*
X775299Y63283D01*
X775396Y63245D01*
X775493Y63203D01*
X775588Y63159D01*
X775681Y63110D01*
X775772Y63059D01*
X775861Y63004D01*
X775949Y62946D01*
X776034Y62885D01*
X776117Y62821D01*
X776197Y62753D01*
X776275Y62683D01*
X776351Y62611D01*
X776423Y62535D01*
X776493Y62457D01*
X776561Y62377D01*
X776625Y62294D01*
X776686Y62209D01*
X776744Y62121D01*
X776799Y62032D01*
X776850Y61941D01*
X776899Y61848D01*
X776943Y61753D01*
X776985Y61656D01*
X777023Y61559D01*
X777057Y61460D01*
X777088Y61359D01*
X777115Y61258D01*
X777138Y61156D01*
X777158Y61053D01*
X777174Y60949D01*
X777186Y60845D01*
X777194Y60741D01*
X777199Y60636D01*
X777056Y60636D01*
X777051Y60740D01*
X777042Y60844D01*
X777030Y60948D01*
X777013Y61051D01*
X776992Y61154D01*
X776968Y61255D01*
X776940Y61356D01*
X776908Y61455D01*
X776872Y61553D01*
X776832Y61650D01*
X776789Y61745D01*
X776743Y61839D01*
X776692Y61930D01*
X776639Y62020D01*
X776582Y62107D01*
X776521Y62193D01*
X776458Y62276D01*
X776391Y62356D01*
X776322Y62434D01*
X776249Y62509D01*
X776174Y62582D01*
X776096Y62651D01*
X776016Y62718D01*
X775933Y62781D01*
X775847Y62842D01*
X775760Y62899D01*
X775670Y62952D01*
X775579Y63003D01*
X775485Y63049D01*
X775390Y63092D01*
X775293Y63132D01*
X775195Y63168D01*
X775096Y63200D01*
X774995Y63228D01*
X774894Y63252D01*
X774791Y63273D01*
X774688Y63290D01*
X774584Y63302D01*
X774480Y63311D01*
X774376Y63316D01*
X774376Y63173D01*
X774477Y63168D01*
X774578Y63159D01*
X774679Y63146D01*
X774779Y63130D01*
X774878Y63109D01*
X774977Y63085D01*
X775074Y63057D01*
X775170Y63025D01*
X775265Y62989D01*
X775359Y62950D01*
X775450Y62907D01*
X775541Y62861D01*
X775629Y62811D01*
X775715Y62758D01*
X775799Y62701D01*
X775881Y62642D01*
X775961Y62579D01*
X776038Y62513D01*
X776112Y62444D01*
X776184Y62372D01*
X776253Y62298D01*
X776319Y62221D01*
X776382Y62141D01*
X776441Y62059D01*
X776498Y61975D01*
X776551Y61889D01*
X776601Y61801D01*
X776647Y61710D01*
X776690Y61619D01*
X776729Y61525D01*
X776765Y61430D01*
X776797Y61334D01*
X776825Y61237D01*
X776849Y61138D01*
X776870Y61039D01*
X776886Y60939D01*
X776899Y60838D01*
X776908Y60737D01*
X776913Y60636D01*
X776770Y60636D01*
X776765Y60734D01*
X776756Y60832D01*
X776743Y60929D01*
X776727Y61026D01*
X776706Y61122D01*
X776682Y61217D01*
X776654Y61311D01*
X776622Y61404D01*
X776587Y61495D01*
X776548Y61585D01*
X776506Y61674D01*
X776460Y61761D01*
X776410Y61845D01*
X776358Y61928D01*
X776302Y62009D01*
X776243Y62087D01*
X776180Y62163D01*
X776115Y62237D01*
X776047Y62307D01*
X775977Y62375D01*
X775903Y62440D01*
X775827Y62503D01*
X775749Y62562D01*
X775668Y62618D01*
X775585Y62670D01*
X775501Y62720D01*
X775414Y62766D01*
X775325Y62808D01*
X775235Y62847D01*
X775144Y62882D01*
X775051Y62914D01*
X774957Y62942D01*
X774862Y62966D01*
X774766Y62987D01*
X774669Y63003D01*
X774572Y63016D01*
X774474Y63025D01*
X774376Y63030D01*
X774376Y62887D01*
X774471Y62882D01*
X774565Y62873D01*
X774659Y62860D01*
X774752Y62844D01*
X774845Y62823D01*
X774936Y62799D01*
X775027Y62772D01*
X775116Y62740D01*
X775204Y62705D01*
X775291Y62667D01*
X775375Y62625D01*
X775459Y62579D01*
X775540Y62530D01*
X775619Y62478D01*
X775696Y62423D01*
X775770Y62365D01*
X775843Y62303D01*
X775912Y62239D01*
X775979Y62172D01*
X776043Y62103D01*
X776105Y62030D01*
X776163Y61956D01*
X776218Y61879D01*
X776270Y61800D01*
X776319Y61719D01*
X776365Y61635D01*
X776407Y61551D01*
X776445Y61464D01*
X776480Y61376D01*
X776512Y61287D01*
X776539Y61196D01*
X776563Y61105D01*
X776584Y61012D01*
X776600Y60919D01*
X776613Y60825D01*
X776622Y60731D01*
X776627Y60636D01*
X776484Y60636D01*
X776479Y60727D01*
X776470Y60818D01*
X776457Y60908D01*
X776441Y60997D01*
X776421Y61086D01*
X776397Y61174D01*
X776369Y61261D01*
X776338Y61347D01*
X776304Y61431D01*
X776266Y61514D01*
X776224Y61595D01*
X776179Y61674D01*
X776131Y61752D01*
X776080Y61827D01*
X776026Y61900D01*
X775968Y61971D01*
X775908Y62039D01*
X775845Y62105D01*
X775779Y62168D01*
X775711Y62228D01*
X775640Y62286D01*
X775567Y62340D01*
X775492Y62391D01*
X775414Y62439D01*
X775335Y62484D01*
X775254Y62526D01*
X775171Y62564D01*
X775087Y62598D01*
X775001Y62629D01*
X774914Y62657D01*
X774826Y62681D01*
X774737Y62701D01*
X774648Y62717D01*
X774558Y62730D01*
X774467Y62739D01*
X774376Y62744D01*
X774376Y62601D01*
X774466Y62595D01*
X774555Y62586D01*
X774644Y62573D01*
X774732Y62556D01*
X774820Y62535D01*
X774906Y62510D01*
X774991Y62481D01*
X775075Y62449D01*
X775157Y62413D01*
X775238Y62374D01*
X775317Y62331D01*
X775394Y62284D01*
X775469Y62234D01*
X775541Y62181D01*
X775611Y62125D01*
X775679Y62066D01*
X775744Y62004D01*
X775806Y61939D01*
X775865Y61871D01*
X775921Y61801D01*
X775974Y61729D01*
X776024Y61654D01*
X776071Y61577D01*
X776114Y61498D01*
X776153Y61417D01*
X776189Y61335D01*
X776221Y61251D01*
X776250Y61166D01*
X776275Y61080D01*
X776296Y60992D01*
X776313Y60904D01*
X776326Y60815D01*
X776335Y60726D01*
X776341Y60636D01*
X776197Y60636D01*
X776192Y60722D01*
X776183Y60807D01*
X776170Y60892D01*
X776153Y60976D01*
X776132Y61059D01*
X776108Y61141D01*
X776080Y61222D01*
X776048Y61302D01*
X776013Y61380D01*
X775974Y61457D01*
X775932Y61531D01*
X775886Y61604D01*
X775837Y61675D01*
X775786Y61743D01*
X775731Y61809D01*
X775673Y61872D01*
X775612Y61933D01*
X775549Y61991D01*
X775483Y62046D01*
X775415Y62097D01*
X775344Y62146D01*
X775271Y62192D01*
X775197Y62234D01*
X775120Y62273D01*
X775042Y62308D01*
X774962Y62340D01*
X774881Y62368D01*
X774799Y62392D01*
X774716Y62413D01*
X774632Y62430D01*
X774547Y62443D01*
X774462Y62452D01*
X774376Y62457D01*
D11*
X776800Y35960D02*
X776798Y35862D01*
X776792Y35764D01*
X776783Y35666D01*
X776769Y35569D01*
X776752Y35472D01*
X776731Y35376D01*
X776706Y35281D01*
X776678Y35187D01*
X776645Y35095D01*
X776610Y35003D01*
X776570Y34913D01*
X776528Y34825D01*
X776481Y34738D01*
X776432Y34654D01*
X776379Y34571D01*
X776323Y34491D01*
X776263Y34412D01*
X776201Y34336D01*
X776136Y34263D01*
X776068Y34192D01*
X775997Y34124D01*
X775924Y34059D01*
X775848Y33997D01*
X775769Y33937D01*
X775689Y33881D01*
X775606Y33828D01*
X775522Y33779D01*
X775435Y33732D01*
X775347Y33690D01*
X775257Y33650D01*
X775165Y33615D01*
X775073Y33582D01*
X774979Y33554D01*
X774884Y33529D01*
X774788Y33508D01*
X774691Y33491D01*
X774594Y33477D01*
X774496Y33468D01*
X774398Y33462D01*
X774300Y33460D01*
X749600Y33460D02*
X749502Y33462D01*
X749404Y33468D01*
X749306Y33477D01*
X749209Y33491D01*
X749112Y33508D01*
X749016Y33529D01*
X748921Y33554D01*
X748827Y33582D01*
X748735Y33615D01*
X748643Y33650D01*
X748553Y33690D01*
X748465Y33732D01*
X748378Y33779D01*
X748294Y33828D01*
X748211Y33881D01*
X748131Y33937D01*
X748052Y33997D01*
X747976Y34059D01*
X747903Y34124D01*
X747832Y34192D01*
X747764Y34263D01*
X747699Y34336D01*
X747637Y34412D01*
X747577Y34491D01*
X747521Y34571D01*
X747468Y34654D01*
X747419Y34738D01*
X747372Y34825D01*
X747330Y34913D01*
X747290Y35003D01*
X747255Y35095D01*
X747222Y35187D01*
X747194Y35281D01*
X747169Y35376D01*
X747148Y35472D01*
X747131Y35569D01*
X747117Y35666D01*
X747108Y35764D01*
X747102Y35862D01*
X747100Y35960D01*
D13*
X749525Y63745D02*
X749525Y62372D01*
X749524Y62372D02*
X749440Y62367D01*
X749356Y62358D01*
X749273Y62344D01*
X749190Y62327D01*
X749109Y62306D01*
X749028Y62282D01*
X748949Y62253D01*
X748871Y62221D01*
X748794Y62185D01*
X748720Y62146D01*
X748647Y62104D01*
X748576Y62058D01*
X748508Y62008D01*
X748442Y61956D01*
X748378Y61901D01*
X748317Y61843D01*
X748259Y61782D01*
X748204Y61718D01*
X748152Y61652D01*
X748102Y61584D01*
X748056Y61513D01*
X748014Y61440D01*
X747975Y61366D01*
X747939Y61289D01*
X747907Y61211D01*
X747878Y61132D01*
X747854Y61051D01*
X747833Y60970D01*
X747816Y60887D01*
X747802Y60804D01*
X747793Y60720D01*
X747788Y60636D01*
X746415Y60635D01*
X746415Y60636D01*
X746419Y60746D01*
X746428Y60856D01*
X746440Y60966D01*
X746456Y61075D01*
X746476Y61183D01*
X746499Y61291D01*
X746526Y61398D01*
X746557Y61504D01*
X746592Y61609D01*
X746630Y61712D01*
X746671Y61814D01*
X746716Y61915D01*
X746765Y62014D01*
X746817Y62111D01*
X746872Y62206D01*
X746931Y62300D01*
X746993Y62391D01*
X747058Y62480D01*
X747126Y62567D01*
X747197Y62652D01*
X747271Y62734D01*
X747347Y62813D01*
X747426Y62889D01*
X747508Y62963D01*
X747593Y63034D01*
X747680Y63102D01*
X747769Y63167D01*
X747860Y63229D01*
X747954Y63288D01*
X748049Y63343D01*
X748146Y63395D01*
X748245Y63444D01*
X748346Y63489D01*
X748448Y63530D01*
X748551Y63568D01*
X748656Y63603D01*
X748762Y63634D01*
X748869Y63661D01*
X748977Y63684D01*
X749085Y63704D01*
X749194Y63720D01*
X749304Y63732D01*
X749414Y63741D01*
X749524Y63745D01*
X749524Y63602D01*
X749416Y63597D01*
X749309Y63589D01*
X749202Y63577D01*
X749096Y63561D01*
X748990Y63541D01*
X748885Y63518D01*
X748781Y63491D01*
X748678Y63460D01*
X748576Y63425D01*
X748475Y63387D01*
X748376Y63346D01*
X748278Y63301D01*
X748182Y63252D01*
X748088Y63201D01*
X747995Y63145D01*
X747905Y63087D01*
X747816Y63026D01*
X747730Y62961D01*
X747647Y62893D01*
X747565Y62823D01*
X747487Y62749D01*
X747411Y62673D01*
X747337Y62595D01*
X747267Y62513D01*
X747199Y62430D01*
X747134Y62344D01*
X747073Y62255D01*
X747015Y62165D01*
X746959Y62072D01*
X746908Y61978D01*
X746859Y61882D01*
X746814Y61784D01*
X746773Y61685D01*
X746735Y61584D01*
X746700Y61482D01*
X746669Y61379D01*
X746642Y61275D01*
X746619Y61170D01*
X746599Y61064D01*
X746583Y60958D01*
X746571Y60851D01*
X746563Y60744D01*
X746558Y60636D01*
X746701Y60636D01*
X746706Y60741D01*
X746714Y60845D01*
X746726Y60949D01*
X746742Y61053D01*
X746762Y61156D01*
X746785Y61258D01*
X746812Y61359D01*
X746843Y61460D01*
X746877Y61559D01*
X746915Y61656D01*
X746957Y61753D01*
X747001Y61848D01*
X747050Y61941D01*
X747101Y62032D01*
X747156Y62121D01*
X747214Y62209D01*
X747275Y62294D01*
X747339Y62377D01*
X747407Y62457D01*
X747477Y62535D01*
X747549Y62611D01*
X747625Y62683D01*
X747703Y62753D01*
X747783Y62821D01*
X747866Y62885D01*
X747951Y62946D01*
X748039Y63004D01*
X748128Y63059D01*
X748219Y63110D01*
X748312Y63159D01*
X748407Y63203D01*
X748504Y63245D01*
X748601Y63283D01*
X748700Y63317D01*
X748801Y63348D01*
X748902Y63375D01*
X749004Y63398D01*
X749107Y63418D01*
X749211Y63434D01*
X749315Y63446D01*
X749419Y63454D01*
X749524Y63459D01*
X749524Y63316D01*
X749420Y63311D01*
X749316Y63302D01*
X749212Y63290D01*
X749109Y63273D01*
X749006Y63252D01*
X748905Y63228D01*
X748804Y63200D01*
X748705Y63168D01*
X748607Y63132D01*
X748510Y63092D01*
X748415Y63049D01*
X748321Y63003D01*
X748230Y62952D01*
X748140Y62899D01*
X748053Y62842D01*
X747967Y62781D01*
X747884Y62718D01*
X747804Y62651D01*
X747726Y62582D01*
X747651Y62509D01*
X747578Y62434D01*
X747509Y62356D01*
X747442Y62276D01*
X747379Y62193D01*
X747318Y62107D01*
X747261Y62020D01*
X747208Y61930D01*
X747157Y61839D01*
X747111Y61745D01*
X747068Y61650D01*
X747028Y61553D01*
X746992Y61455D01*
X746960Y61356D01*
X746932Y61255D01*
X746908Y61154D01*
X746887Y61051D01*
X746870Y60948D01*
X746858Y60844D01*
X746849Y60740D01*
X746844Y60636D01*
X746987Y60636D01*
X746992Y60737D01*
X747001Y60838D01*
X747014Y60939D01*
X747030Y61039D01*
X747051Y61138D01*
X747075Y61237D01*
X747103Y61334D01*
X747135Y61430D01*
X747171Y61525D01*
X747210Y61619D01*
X747253Y61710D01*
X747299Y61801D01*
X747349Y61889D01*
X747402Y61975D01*
X747459Y62059D01*
X747518Y62141D01*
X747581Y62221D01*
X747647Y62298D01*
X747716Y62372D01*
X747788Y62444D01*
X747862Y62513D01*
X747939Y62579D01*
X748019Y62642D01*
X748101Y62701D01*
X748185Y62758D01*
X748271Y62811D01*
X748359Y62861D01*
X748450Y62907D01*
X748541Y62950D01*
X748635Y62989D01*
X748730Y63025D01*
X748826Y63057D01*
X748923Y63085D01*
X749022Y63109D01*
X749121Y63130D01*
X749221Y63146D01*
X749322Y63159D01*
X749423Y63168D01*
X749524Y63173D01*
X749524Y63030D01*
X749426Y63025D01*
X749328Y63016D01*
X749231Y63003D01*
X749134Y62987D01*
X749038Y62966D01*
X748943Y62942D01*
X748849Y62914D01*
X748756Y62882D01*
X748665Y62847D01*
X748575Y62808D01*
X748486Y62766D01*
X748399Y62720D01*
X748315Y62670D01*
X748232Y62618D01*
X748151Y62562D01*
X748073Y62503D01*
X747997Y62440D01*
X747923Y62375D01*
X747853Y62307D01*
X747785Y62237D01*
X747720Y62163D01*
X747657Y62087D01*
X747598Y62009D01*
X747542Y61928D01*
X747490Y61845D01*
X747440Y61761D01*
X747394Y61674D01*
X747352Y61585D01*
X747313Y61495D01*
X747278Y61404D01*
X747246Y61311D01*
X747218Y61217D01*
X747194Y61122D01*
X747173Y61026D01*
X747157Y60929D01*
X747144Y60832D01*
X747135Y60734D01*
X747130Y60636D01*
X747273Y60636D01*
X747278Y60731D01*
X747287Y60825D01*
X747300Y60919D01*
X747316Y61012D01*
X747337Y61105D01*
X747361Y61196D01*
X747388Y61287D01*
X747420Y61376D01*
X747455Y61464D01*
X747493Y61551D01*
X747535Y61635D01*
X747581Y61719D01*
X747630Y61800D01*
X747682Y61879D01*
X747737Y61956D01*
X747795Y62030D01*
X747857Y62103D01*
X747921Y62172D01*
X747988Y62239D01*
X748057Y62303D01*
X748130Y62365D01*
X748204Y62423D01*
X748281Y62478D01*
X748360Y62530D01*
X748441Y62579D01*
X748525Y62625D01*
X748609Y62667D01*
X748696Y62705D01*
X748784Y62740D01*
X748873Y62772D01*
X748964Y62799D01*
X749055Y62823D01*
X749148Y62844D01*
X749241Y62860D01*
X749335Y62873D01*
X749429Y62882D01*
X749524Y62887D01*
X749524Y62744D01*
X749433Y62739D01*
X749342Y62730D01*
X749252Y62717D01*
X749163Y62701D01*
X749074Y62681D01*
X748986Y62657D01*
X748899Y62629D01*
X748813Y62598D01*
X748729Y62564D01*
X748646Y62526D01*
X748565Y62484D01*
X748486Y62439D01*
X748408Y62391D01*
X748333Y62340D01*
X748260Y62286D01*
X748189Y62228D01*
X748121Y62168D01*
X748055Y62105D01*
X747992Y62039D01*
X747932Y61971D01*
X747874Y61900D01*
X747820Y61827D01*
X747769Y61752D01*
X747721Y61674D01*
X747676Y61595D01*
X747634Y61514D01*
X747596Y61431D01*
X747562Y61347D01*
X747531Y61261D01*
X747503Y61174D01*
X747479Y61086D01*
X747459Y60997D01*
X747443Y60908D01*
X747430Y60818D01*
X747421Y60727D01*
X747416Y60636D01*
X747559Y60636D01*
X747565Y60726D01*
X747574Y60815D01*
X747587Y60904D01*
X747604Y60992D01*
X747625Y61080D01*
X747650Y61166D01*
X747679Y61251D01*
X747711Y61335D01*
X747747Y61417D01*
X747786Y61498D01*
X747829Y61577D01*
X747876Y61654D01*
X747926Y61729D01*
X747979Y61801D01*
X748035Y61871D01*
X748094Y61939D01*
X748156Y62004D01*
X748221Y62066D01*
X748289Y62125D01*
X748359Y62181D01*
X748431Y62234D01*
X748506Y62284D01*
X748583Y62331D01*
X748662Y62374D01*
X748743Y62413D01*
X748825Y62449D01*
X748909Y62481D01*
X748994Y62510D01*
X749080Y62535D01*
X749168Y62556D01*
X749256Y62573D01*
X749345Y62586D01*
X749434Y62595D01*
X749524Y62601D01*
X749524Y62457D01*
X749438Y62452D01*
X749353Y62443D01*
X749268Y62430D01*
X749184Y62413D01*
X749101Y62392D01*
X749019Y62368D01*
X748938Y62340D01*
X748858Y62308D01*
X748780Y62273D01*
X748703Y62234D01*
X748629Y62192D01*
X748556Y62146D01*
X748485Y62097D01*
X748417Y62046D01*
X748351Y61991D01*
X748288Y61933D01*
X748227Y61872D01*
X748169Y61809D01*
X748114Y61743D01*
X748063Y61675D01*
X748014Y61604D01*
X747968Y61531D01*
X747926Y61457D01*
X747887Y61380D01*
X747852Y61302D01*
X747820Y61222D01*
X747792Y61141D01*
X747768Y61059D01*
X747747Y60976D01*
X747730Y60892D01*
X747717Y60807D01*
X747708Y60722D01*
X747703Y60636D01*
D11*
X747100Y60460D02*
X747100Y35860D01*
X776800Y35860D02*
X776800Y60460D01*
X774300Y63060D02*
X749700Y63060D01*
X749600Y33460D02*
X774300Y33460D01*
D14*
X752250Y54760D02*
X752252Y54873D01*
X752258Y54987D01*
X752268Y55100D01*
X752282Y55212D01*
X752299Y55324D01*
X752321Y55436D01*
X752347Y55546D01*
X752376Y55656D01*
X752409Y55764D01*
X752446Y55872D01*
X752487Y55977D01*
X752531Y56082D01*
X752579Y56185D01*
X752630Y56286D01*
X752685Y56385D01*
X752744Y56482D01*
X752806Y56577D01*
X752871Y56670D01*
X752939Y56761D01*
X753010Y56849D01*
X753085Y56935D01*
X753162Y57018D01*
X753242Y57098D01*
X753325Y57175D01*
X753411Y57250D01*
X753499Y57321D01*
X753590Y57389D01*
X753683Y57454D01*
X753778Y57516D01*
X753875Y57575D01*
X753974Y57630D01*
X754075Y57681D01*
X754178Y57729D01*
X754283Y57773D01*
X754388Y57814D01*
X754496Y57851D01*
X754604Y57884D01*
X754714Y57913D01*
X754824Y57939D01*
X754936Y57961D01*
X755048Y57978D01*
X755160Y57992D01*
X755273Y58002D01*
X755387Y58008D01*
X755500Y58010D01*
X755613Y58008D01*
X755727Y58002D01*
X755840Y57992D01*
X755952Y57978D01*
X756064Y57961D01*
X756176Y57939D01*
X756286Y57913D01*
X756396Y57884D01*
X756504Y57851D01*
X756612Y57814D01*
X756717Y57773D01*
X756822Y57729D01*
X756925Y57681D01*
X757026Y57630D01*
X757125Y57575D01*
X757222Y57516D01*
X757317Y57454D01*
X757410Y57389D01*
X757501Y57321D01*
X757589Y57250D01*
X757675Y57175D01*
X757758Y57098D01*
X757838Y57018D01*
X757915Y56935D01*
X757990Y56849D01*
X758061Y56761D01*
X758129Y56670D01*
X758194Y56577D01*
X758256Y56482D01*
X758315Y56385D01*
X758370Y56286D01*
X758421Y56185D01*
X758469Y56082D01*
X758513Y55977D01*
X758554Y55872D01*
X758591Y55764D01*
X758624Y55656D01*
X758653Y55546D01*
X758679Y55436D01*
X758701Y55324D01*
X758718Y55212D01*
X758732Y55100D01*
X758742Y54987D01*
X758748Y54873D01*
X758750Y54760D01*
X758748Y54647D01*
X758742Y54533D01*
X758732Y54420D01*
X758718Y54308D01*
X758701Y54196D01*
X758679Y54084D01*
X758653Y53974D01*
X758624Y53864D01*
X758591Y53756D01*
X758554Y53648D01*
X758513Y53543D01*
X758469Y53438D01*
X758421Y53335D01*
X758370Y53234D01*
X758315Y53135D01*
X758256Y53038D01*
X758194Y52943D01*
X758129Y52850D01*
X758061Y52759D01*
X757990Y52671D01*
X757915Y52585D01*
X757838Y52502D01*
X757758Y52422D01*
X757675Y52345D01*
X757589Y52270D01*
X757501Y52199D01*
X757410Y52131D01*
X757317Y52066D01*
X757222Y52004D01*
X757125Y51945D01*
X757026Y51890D01*
X756925Y51839D01*
X756822Y51791D01*
X756717Y51747D01*
X756612Y51706D01*
X756504Y51669D01*
X756396Y51636D01*
X756286Y51607D01*
X756176Y51581D01*
X756064Y51559D01*
X755952Y51542D01*
X755840Y51528D01*
X755727Y51518D01*
X755613Y51512D01*
X755500Y51510D01*
X755387Y51512D01*
X755273Y51518D01*
X755160Y51528D01*
X755048Y51542D01*
X754936Y51559D01*
X754824Y51581D01*
X754714Y51607D01*
X754604Y51636D01*
X754496Y51669D01*
X754388Y51706D01*
X754283Y51747D01*
X754178Y51791D01*
X754075Y51839D01*
X753974Y51890D01*
X753875Y51945D01*
X753778Y52004D01*
X753683Y52066D01*
X753590Y52131D01*
X753499Y52199D01*
X753411Y52270D01*
X753325Y52345D01*
X753242Y52422D01*
X753162Y52502D01*
X753085Y52585D01*
X753010Y52671D01*
X752939Y52759D01*
X752871Y52850D01*
X752806Y52943D01*
X752744Y53038D01*
X752685Y53135D01*
X752630Y53234D01*
X752579Y53335D01*
X752531Y53438D01*
X752487Y53543D01*
X752446Y53648D01*
X752409Y53756D01*
X752376Y53864D01*
X752347Y53974D01*
X752321Y54084D01*
X752299Y54196D01*
X752282Y54308D01*
X752268Y54420D01*
X752258Y54533D01*
X752252Y54647D01*
X752250Y54760D01*
D15*
X749935Y67480D02*
X749935Y70700D01*
X750740Y71505D01*
X752350Y71505D01*
X753155Y70700D01*
X753155Y67480D01*
X752350Y66675D01*
X750740Y66675D01*
X749935Y67480D01*
X751545Y68285D02*
X753155Y66675D01*
X755548Y69895D02*
X757158Y71505D01*
X757158Y66675D01*
X755548Y66675D02*
X758768Y66675D01*
X503160Y370720D02*
X503160Y379220D01*
X505660Y379220D01*
X503160Y355720D02*
X503160Y347220D01*
X505660Y347220D01*
X533160Y347220D02*
X533160Y355720D01*
X533160Y347220D02*
X530660Y347220D01*
X533160Y370720D02*
X533160Y379220D01*
X530660Y379220D01*
X530660Y381720D02*
X535660Y381720D01*
X535660Y377220D01*
D12*
X226060Y334010D02*
X219710Y340360D01*
X207010Y340360D02*
X200660Y334010D01*
X194310Y340360D01*
X181610Y340360D02*
X175260Y334010D01*
X168910Y340360D01*
X156210Y340360D02*
X149860Y334010D01*
X226060Y334010D02*
X226060Y295910D01*
X219710Y289560D01*
X207010Y289560D01*
X200660Y295910D01*
X194310Y289560D01*
X181610Y289560D01*
X175260Y295910D01*
X168910Y289560D01*
X156210Y289560D01*
X149860Y295910D01*
X200660Y295910D02*
X200660Y334010D01*
X175260Y334010D02*
X175260Y295910D01*
X149860Y295910D02*
X149860Y334010D01*
X156210Y340360D02*
X168910Y340360D01*
X181610Y340360D02*
X194310Y340360D01*
X207010Y340360D02*
X219710Y340360D01*
X219710Y343710D02*
X207010Y343710D01*
D15*
X208654Y346329D02*
X207849Y347134D01*
X208654Y346329D02*
X209459Y346329D01*
X210264Y347134D01*
X210264Y351159D01*
X209459Y351159D02*
X211069Y351159D01*
X213462Y349549D02*
X215072Y351159D01*
X215072Y346329D01*
X213462Y346329D02*
X216682Y346329D01*
D12*
X377190Y271780D02*
X440690Y271780D01*
X377190Y271780D02*
X377190Y398780D01*
X440690Y398780D01*
X440690Y271780D01*
D15*
X383540Y386080D02*
X383542Y386239D01*
X383548Y386398D01*
X383558Y386556D01*
X383572Y386715D01*
X383590Y386873D01*
X383611Y387030D01*
X383637Y387187D01*
X383667Y387343D01*
X383700Y387499D01*
X383738Y387653D01*
X383779Y387807D01*
X383824Y387959D01*
X383873Y388110D01*
X383926Y388260D01*
X383982Y388409D01*
X384043Y388556D01*
X384106Y388701D01*
X384174Y388845D01*
X384245Y388988D01*
X384319Y389128D01*
X384397Y389266D01*
X384479Y389403D01*
X384564Y389537D01*
X384652Y389670D01*
X384743Y389800D01*
X384838Y389927D01*
X384936Y390052D01*
X385037Y390175D01*
X385141Y390295D01*
X385248Y390413D01*
X385358Y390528D01*
X385471Y390640D01*
X385586Y390749D01*
X385704Y390855D01*
X385825Y390959D01*
X385949Y391059D01*
X386074Y391156D01*
X386203Y391250D01*
X386333Y391340D01*
X386466Y391428D01*
X386601Y391512D01*
X386738Y391592D01*
X386877Y391670D01*
X387018Y391743D01*
X387160Y391813D01*
X387305Y391880D01*
X387451Y391943D01*
X387598Y392002D01*
X387747Y392058D01*
X387898Y392109D01*
X388049Y392157D01*
X388202Y392201D01*
X388356Y392242D01*
X388510Y392278D01*
X388666Y392311D01*
X388822Y392340D01*
X388979Y392364D01*
X389137Y392385D01*
X389295Y392402D01*
X389453Y392415D01*
X389612Y392424D01*
X389771Y392429D01*
X389930Y392430D01*
X390089Y392427D01*
X390247Y392420D01*
X390406Y392409D01*
X390564Y392394D01*
X390722Y392375D01*
X390879Y392352D01*
X391036Y392326D01*
X391192Y392295D01*
X391347Y392261D01*
X391501Y392222D01*
X391655Y392180D01*
X391807Y392134D01*
X391958Y392084D01*
X392107Y392030D01*
X392256Y391973D01*
X392402Y391912D01*
X392548Y391847D01*
X392691Y391779D01*
X392833Y391707D01*
X392973Y391631D01*
X393111Y391553D01*
X393247Y391470D01*
X393381Y391385D01*
X393512Y391296D01*
X393642Y391203D01*
X393769Y391108D01*
X393893Y391009D01*
X394016Y390907D01*
X394135Y390803D01*
X394252Y390695D01*
X394366Y390584D01*
X394477Y390471D01*
X394586Y390355D01*
X394691Y390236D01*
X394794Y390114D01*
X394893Y389990D01*
X394990Y389864D01*
X395083Y389735D01*
X395173Y389604D01*
X395259Y389470D01*
X395342Y389335D01*
X395422Y389197D01*
X395498Y389058D01*
X395571Y388917D01*
X395640Y388774D01*
X395706Y388629D01*
X395768Y388482D01*
X395826Y388335D01*
X395881Y388185D01*
X395932Y388035D01*
X395979Y387883D01*
X396022Y387730D01*
X396061Y387576D01*
X396097Y387421D01*
X396128Y387265D01*
X396156Y387109D01*
X396180Y386952D01*
X396200Y386794D01*
X396216Y386636D01*
X396228Y386477D01*
X396236Y386318D01*
X396240Y386159D01*
X396240Y386001D01*
X396236Y385842D01*
X396228Y385683D01*
X396216Y385524D01*
X396200Y385366D01*
X396180Y385208D01*
X396156Y385051D01*
X396128Y384895D01*
X396097Y384739D01*
X396061Y384584D01*
X396022Y384430D01*
X395979Y384277D01*
X395932Y384125D01*
X395881Y383975D01*
X395826Y383825D01*
X395768Y383678D01*
X395706Y383531D01*
X395640Y383386D01*
X395571Y383243D01*
X395498Y383102D01*
X395422Y382963D01*
X395342Y382825D01*
X395259Y382690D01*
X395173Y382556D01*
X395083Y382425D01*
X394990Y382296D01*
X394893Y382170D01*
X394794Y382046D01*
X394691Y381924D01*
X394586Y381805D01*
X394477Y381689D01*
X394366Y381576D01*
X394252Y381465D01*
X394135Y381357D01*
X394016Y381253D01*
X393893Y381151D01*
X393769Y381052D01*
X393642Y380957D01*
X393512Y380864D01*
X393381Y380775D01*
X393247Y380690D01*
X393111Y380607D01*
X392973Y380529D01*
X392833Y380453D01*
X392691Y380381D01*
X392548Y380313D01*
X392402Y380248D01*
X392256Y380187D01*
X392107Y380130D01*
X391958Y380076D01*
X391807Y380026D01*
X391655Y379980D01*
X391501Y379938D01*
X391347Y379899D01*
X391192Y379865D01*
X391036Y379834D01*
X390879Y379808D01*
X390722Y379785D01*
X390564Y379766D01*
X390406Y379751D01*
X390247Y379740D01*
X390089Y379733D01*
X389930Y379730D01*
X389771Y379731D01*
X389612Y379736D01*
X389453Y379745D01*
X389295Y379758D01*
X389137Y379775D01*
X388979Y379796D01*
X388822Y379820D01*
X388666Y379849D01*
X388510Y379882D01*
X388356Y379918D01*
X388202Y379959D01*
X388049Y380003D01*
X387898Y380051D01*
X387747Y380102D01*
X387598Y380158D01*
X387451Y380217D01*
X387305Y380280D01*
X387160Y380347D01*
X387018Y380417D01*
X386877Y380490D01*
X386738Y380568D01*
X386601Y380648D01*
X386466Y380732D01*
X386333Y380820D01*
X386203Y380910D01*
X386074Y381004D01*
X385949Y381101D01*
X385825Y381201D01*
X385704Y381305D01*
X385586Y381411D01*
X385471Y381520D01*
X385358Y381632D01*
X385248Y381747D01*
X385141Y381865D01*
X385037Y381985D01*
X384936Y382108D01*
X384838Y382233D01*
X384743Y382360D01*
X384652Y382490D01*
X384564Y382623D01*
X384479Y382757D01*
X384397Y382894D01*
X384319Y383032D01*
X384245Y383172D01*
X384174Y383315D01*
X384106Y383459D01*
X384043Y383604D01*
X383982Y383751D01*
X383926Y383900D01*
X383873Y384050D01*
X383824Y384201D01*
X383779Y384353D01*
X383738Y384507D01*
X383700Y384661D01*
X383667Y384817D01*
X383637Y384973D01*
X383611Y385130D01*
X383590Y385287D01*
X383572Y385445D01*
X383558Y385604D01*
X383548Y385762D01*
X383542Y385921D01*
X383540Y386080D01*
X380365Y268355D02*
X380365Y264330D01*
X381170Y263525D01*
X382780Y263525D01*
X383585Y264330D01*
X383585Y268355D01*
X385978Y263525D02*
X389198Y263525D01*
X385978Y263525D02*
X389198Y266745D01*
X389198Y267550D01*
X388393Y268355D01*
X386783Y268355D01*
X385978Y267550D01*
D16*
X764540Y12700D03*
D11*
X785559Y14483D02*
X785559Y8382D01*
X785559Y14483D02*
X788610Y14483D01*
X789627Y13466D01*
X789627Y11433D01*
X788610Y10416D01*
X785559Y10416D01*
X787593Y10416D02*
X789627Y8382D01*
X792576Y12449D02*
X794609Y14483D01*
X794609Y8382D01*
X792576Y8382D02*
X796643Y8382D01*
D17*
X563880Y378155D02*
X563880Y378765D01*
D15*
X583440Y382655D02*
X584245Y381850D01*
X583440Y382655D02*
X581830Y382655D01*
X581025Y381850D01*
X581025Y378630D01*
X581830Y377825D01*
X583440Y377825D01*
X584245Y378630D01*
X586638Y381045D02*
X588248Y382655D01*
X588248Y377825D01*
X586638Y377825D02*
X589858Y377825D01*
D12*
X457200Y11430D02*
X450850Y5080D01*
X438150Y5080D01*
X431800Y11430D01*
X431800Y24130D02*
X438150Y30480D01*
X450850Y30480D01*
X457200Y24130D01*
X488950Y5080D02*
X501650Y5080D01*
X488950Y5080D02*
X482600Y11430D01*
X482600Y24130D02*
X488950Y30480D01*
X482600Y11430D02*
X476250Y5080D01*
X463550Y5080D01*
X457200Y11430D01*
X457200Y24130D02*
X463550Y30480D01*
X476250Y30480D01*
X482600Y24130D01*
X508000Y24130D02*
X508000Y11430D01*
X501650Y5080D01*
X508000Y24130D02*
X501650Y30480D01*
X488950Y30480D01*
X431800Y24130D02*
X431800Y11430D01*
X123444Y332256D02*
X123444Y340844D01*
X94996Y340844D02*
X94996Y332256D01*
X106536Y344654D02*
X111904Y344654D01*
D15*
X106045Y359580D02*
X106045Y363605D01*
X106045Y359580D02*
X106850Y358775D01*
X108460Y358775D01*
X109265Y359580D01*
X109265Y363605D01*
X111658Y362800D02*
X112463Y363605D01*
X114073Y363605D01*
X114878Y362800D01*
X114878Y361995D01*
X114073Y361190D01*
X113268Y361190D01*
X114073Y361190D02*
X114878Y360385D01*
X114878Y359580D01*
X114073Y358775D01*
X112463Y358775D01*
X111658Y359580D01*
D16*
X298450Y337820D03*
D11*
X268669Y336042D02*
X268669Y342143D01*
X271720Y342143D01*
X272737Y341126D01*
X272737Y339093D01*
X271720Y338076D01*
X268669Y338076D01*
X270703Y338076D02*
X272737Y336042D01*
X275686Y336042D02*
X279753Y336042D01*
X275686Y336042D02*
X279753Y340109D01*
X279753Y341126D01*
X278736Y342143D01*
X276702Y342143D01*
X275686Y341126D01*
D17*
X110490Y300025D02*
X110490Y299415D01*
D11*
X106620Y286263D02*
X107637Y285246D01*
X106620Y286263D02*
X104586Y286263D01*
X103569Y285246D01*
X103569Y281179D01*
X104586Y280162D01*
X106620Y280162D01*
X107637Y281179D01*
X110586Y280162D02*
X114653Y280162D01*
X110586Y280162D02*
X114653Y284229D01*
X114653Y285246D01*
X113636Y286263D01*
X111602Y286263D01*
X110586Y285246D01*
D17*
X107950Y375615D02*
X107950Y376225D01*
D11*
X108969Y394466D02*
X107953Y395483D01*
X105919Y395483D01*
X104902Y394466D01*
X104902Y390399D01*
X105919Y389382D01*
X107953Y389382D01*
X108969Y390399D01*
X111918Y394466D02*
X112935Y395483D01*
X114969Y395483D01*
X115986Y394466D01*
X115986Y393449D01*
X114969Y392433D01*
X113952Y392433D01*
X114969Y392433D02*
X115986Y391416D01*
X115986Y390399D01*
X114969Y389382D01*
X112935Y389382D01*
X111918Y390399D01*
D17*
X298450Y398475D02*
X298450Y399085D01*
D11*
X274069Y402086D02*
X273053Y403103D01*
X271019Y403103D01*
X270002Y402086D01*
X270002Y398019D01*
X271019Y397002D01*
X273053Y397002D01*
X274069Y398019D01*
X280069Y397002D02*
X280069Y403103D01*
X277018Y400053D01*
X281086Y400053D01*
D16*
X298450Y378460D03*
D11*
X270002Y376682D02*
X270002Y382783D01*
X273053Y382783D01*
X274069Y381766D01*
X274069Y379733D01*
X273053Y378716D01*
X270002Y378716D01*
X272036Y378716D02*
X274069Y376682D01*
X277018Y381766D02*
X278035Y382783D01*
X280069Y382783D01*
X281086Y381766D01*
X281086Y380749D01*
X280069Y379733D01*
X279052Y379733D01*
X280069Y379733D02*
X281086Y378716D01*
X281086Y377699D01*
X280069Y376682D01*
X278035Y376682D01*
X277018Y377699D01*
D16*
X298450Y358140D03*
D11*
X270002Y356362D02*
X270002Y362463D01*
X273053Y362463D01*
X274069Y361446D01*
X274069Y359413D01*
X273053Y358396D01*
X270002Y358396D01*
X272036Y358396D02*
X274069Y356362D01*
X280069Y356362D02*
X280069Y362463D01*
X277018Y359413D01*
X281086Y359413D01*
D12*
X612940Y125420D02*
X622940Y125420D01*
X602940Y135420D02*
X602940Y235420D01*
X612940Y245420D02*
X622940Y245420D01*
X652940Y245420D02*
X672940Y245420D01*
X702940Y245420D02*
X712940Y245420D01*
X722940Y235420D02*
X722940Y135420D01*
X712940Y125420D02*
X702940Y125420D01*
X672940Y125420D02*
X652940Y125420D01*
X627940Y185420D02*
X627951Y186279D01*
X627982Y187137D01*
X628035Y187995D01*
X628109Y188851D01*
X628203Y189704D01*
X628319Y190556D01*
X628455Y191404D01*
X628613Y192248D01*
X628790Y193089D01*
X628989Y193924D01*
X629208Y194755D01*
X629447Y195580D01*
X629707Y196399D01*
X629986Y197211D01*
X630285Y198016D01*
X630604Y198814D01*
X630943Y199603D01*
X631300Y200384D01*
X631677Y201156D01*
X632073Y201919D01*
X632487Y202671D01*
X632919Y203414D01*
X633370Y204145D01*
X633839Y204865D01*
X634325Y205573D01*
X634828Y206269D01*
X635348Y206953D01*
X635885Y207624D01*
X636438Y208281D01*
X637007Y208925D01*
X637591Y209554D01*
X638191Y210169D01*
X638806Y210769D01*
X639435Y211353D01*
X640079Y211922D01*
X640736Y212475D01*
X641407Y213012D01*
X642091Y213532D01*
X642787Y214035D01*
X643495Y214521D01*
X644215Y214990D01*
X644946Y215441D01*
X645689Y215873D01*
X646441Y216287D01*
X647204Y216683D01*
X647976Y217060D01*
X648757Y217417D01*
X649546Y217756D01*
X650344Y218075D01*
X651149Y218374D01*
X651961Y218653D01*
X652780Y218913D01*
X653605Y219152D01*
X654436Y219371D01*
X655271Y219570D01*
X656112Y219747D01*
X656956Y219905D01*
X657804Y220041D01*
X658656Y220157D01*
X659509Y220251D01*
X660365Y220325D01*
X661223Y220378D01*
X662081Y220409D01*
X662940Y220420D01*
X663799Y220409D01*
X664657Y220378D01*
X665515Y220325D01*
X666371Y220251D01*
X667224Y220157D01*
X668076Y220041D01*
X668924Y219905D01*
X669768Y219747D01*
X670609Y219570D01*
X671444Y219371D01*
X672275Y219152D01*
X673100Y218913D01*
X673919Y218653D01*
X674731Y218374D01*
X675536Y218075D01*
X676334Y217756D01*
X677123Y217417D01*
X677904Y217060D01*
X678676Y216683D01*
X679439Y216287D01*
X680191Y215873D01*
X680934Y215441D01*
X681665Y214990D01*
X682385Y214521D01*
X683093Y214035D01*
X683789Y213532D01*
X684473Y213012D01*
X685144Y212475D01*
X685801Y211922D01*
X686445Y211353D01*
X687074Y210769D01*
X687689Y210169D01*
X688289Y209554D01*
X688873Y208925D01*
X689442Y208281D01*
X689995Y207624D01*
X690532Y206953D01*
X691052Y206269D01*
X691555Y205573D01*
X692041Y204865D01*
X692510Y204145D01*
X692961Y203414D01*
X693393Y202671D01*
X693807Y201919D01*
X694203Y201156D01*
X694580Y200384D01*
X694937Y199603D01*
X695276Y198814D01*
X695595Y198016D01*
X695894Y197211D01*
X696173Y196399D01*
X696433Y195580D01*
X696672Y194755D01*
X696891Y193924D01*
X697090Y193089D01*
X697267Y192248D01*
X697425Y191404D01*
X697561Y190556D01*
X697677Y189704D01*
X697771Y188851D01*
X697845Y187995D01*
X697898Y187137D01*
X697929Y186279D01*
X697940Y185420D01*
X697929Y184561D01*
X697898Y183703D01*
X697845Y182845D01*
X697771Y181989D01*
X697677Y181136D01*
X697561Y180284D01*
X697425Y179436D01*
X697267Y178592D01*
X697090Y177751D01*
X696891Y176916D01*
X696672Y176085D01*
X696433Y175260D01*
X696173Y174441D01*
X695894Y173629D01*
X695595Y172824D01*
X695276Y172026D01*
X694937Y171237D01*
X694580Y170456D01*
X694203Y169684D01*
X693807Y168921D01*
X693393Y168169D01*
X692961Y167426D01*
X692510Y166695D01*
X692041Y165975D01*
X691555Y165267D01*
X691052Y164571D01*
X690532Y163887D01*
X689995Y163216D01*
X689442Y162559D01*
X688873Y161915D01*
X688289Y161286D01*
X687689Y160671D01*
X687074Y160071D01*
X686445Y159487D01*
X685801Y158918D01*
X685144Y158365D01*
X684473Y157828D01*
X683789Y157308D01*
X683093Y156805D01*
X682385Y156319D01*
X681665Y155850D01*
X680934Y155399D01*
X680191Y154967D01*
X679439Y154553D01*
X678676Y154157D01*
X677904Y153780D01*
X677123Y153423D01*
X676334Y153084D01*
X675536Y152765D01*
X674731Y152466D01*
X673919Y152187D01*
X673100Y151927D01*
X672275Y151688D01*
X671444Y151469D01*
X670609Y151270D01*
X669768Y151093D01*
X668924Y150935D01*
X668076Y150799D01*
X667224Y150683D01*
X666371Y150589D01*
X665515Y150515D01*
X664657Y150462D01*
X663799Y150431D01*
X662940Y150420D01*
X662081Y150431D01*
X661223Y150462D01*
X660365Y150515D01*
X659509Y150589D01*
X658656Y150683D01*
X657804Y150799D01*
X656956Y150935D01*
X656112Y151093D01*
X655271Y151270D01*
X654436Y151469D01*
X653605Y151688D01*
X652780Y151927D01*
X651961Y152187D01*
X651149Y152466D01*
X650344Y152765D01*
X649546Y153084D01*
X648757Y153423D01*
X647976Y153780D01*
X647204Y154157D01*
X646441Y154553D01*
X645689Y154967D01*
X644946Y155399D01*
X644215Y155850D01*
X643495Y156319D01*
X642787Y156805D01*
X642091Y157308D01*
X641407Y157828D01*
X640736Y158365D01*
X640079Y158918D01*
X639435Y159487D01*
X638806Y160071D01*
X638191Y160671D01*
X637591Y161286D01*
X637007Y161915D01*
X636438Y162559D01*
X635885Y163216D01*
X635348Y163887D01*
X634828Y164571D01*
X634325Y165267D01*
X633839Y165975D01*
X633370Y166695D01*
X632919Y167426D01*
X632487Y168169D01*
X632073Y168921D01*
X631677Y169684D01*
X631300Y170456D01*
X630943Y171237D01*
X630604Y172026D01*
X630285Y172824D01*
X629986Y173629D01*
X629707Y174441D01*
X629447Y175260D01*
X629208Y176085D01*
X628989Y176916D01*
X628790Y177751D01*
X628613Y178592D01*
X628455Y179436D01*
X628319Y180284D01*
X628203Y181136D01*
X628109Y181989D01*
X628035Y182845D01*
X627982Y183703D01*
X627951Y184561D01*
X627940Y185420D01*
D18*
X614940Y140420D02*
X614942Y140529D01*
X614948Y140638D01*
X614958Y140746D01*
X614972Y140854D01*
X614989Y140962D01*
X615011Y141069D01*
X615036Y141175D01*
X615066Y141279D01*
X615099Y141383D01*
X615136Y141486D01*
X615176Y141587D01*
X615220Y141686D01*
X615268Y141784D01*
X615320Y141881D01*
X615374Y141975D01*
X615432Y142067D01*
X615494Y142157D01*
X615559Y142244D01*
X615626Y142330D01*
X615697Y142413D01*
X615771Y142493D01*
X615848Y142570D01*
X615927Y142645D01*
X616009Y142716D01*
X616094Y142785D01*
X616181Y142850D01*
X616270Y142913D01*
X616362Y142971D01*
X616456Y143027D01*
X616551Y143079D01*
X616649Y143128D01*
X616748Y143173D01*
X616849Y143215D01*
X616951Y143252D01*
X617054Y143286D01*
X617159Y143317D01*
X617265Y143343D01*
X617371Y143366D01*
X617479Y143384D01*
X617587Y143399D01*
X617695Y143410D01*
X617804Y143417D01*
X617913Y143420D01*
X618022Y143419D01*
X618131Y143414D01*
X618239Y143405D01*
X618347Y143392D01*
X618455Y143375D01*
X618562Y143355D01*
X618668Y143330D01*
X618773Y143302D01*
X618877Y143270D01*
X618980Y143234D01*
X619082Y143194D01*
X619182Y143151D01*
X619280Y143104D01*
X619377Y143054D01*
X619471Y143000D01*
X619564Y142942D01*
X619655Y142882D01*
X619743Y142818D01*
X619829Y142751D01*
X619912Y142681D01*
X619993Y142608D01*
X620071Y142532D01*
X620146Y142453D01*
X620219Y142371D01*
X620288Y142287D01*
X620354Y142201D01*
X620417Y142112D01*
X620477Y142021D01*
X620534Y141928D01*
X620587Y141833D01*
X620636Y141736D01*
X620682Y141637D01*
X620724Y141537D01*
X620763Y141435D01*
X620798Y141331D01*
X620829Y141227D01*
X620857Y141122D01*
X620880Y141015D01*
X620900Y140908D01*
X620916Y140800D01*
X620928Y140692D01*
X620936Y140583D01*
X620940Y140474D01*
X620940Y140366D01*
X620936Y140257D01*
X620928Y140148D01*
X620916Y140040D01*
X620900Y139932D01*
X620880Y139825D01*
X620857Y139718D01*
X620829Y139613D01*
X620798Y139509D01*
X620763Y139405D01*
X620724Y139303D01*
X620682Y139203D01*
X620636Y139104D01*
X620587Y139007D01*
X620534Y138912D01*
X620477Y138819D01*
X620417Y138728D01*
X620354Y138639D01*
X620288Y138553D01*
X620219Y138469D01*
X620146Y138387D01*
X620071Y138308D01*
X619993Y138232D01*
X619912Y138159D01*
X619829Y138089D01*
X619743Y138022D01*
X619655Y137958D01*
X619564Y137898D01*
X619471Y137840D01*
X619377Y137786D01*
X619280Y137736D01*
X619182Y137689D01*
X619082Y137646D01*
X618980Y137606D01*
X618877Y137570D01*
X618773Y137538D01*
X618668Y137510D01*
X618562Y137485D01*
X618455Y137465D01*
X618347Y137448D01*
X618239Y137435D01*
X618131Y137426D01*
X618022Y137421D01*
X617913Y137420D01*
X617804Y137423D01*
X617695Y137430D01*
X617587Y137441D01*
X617479Y137456D01*
X617371Y137474D01*
X617265Y137497D01*
X617159Y137523D01*
X617054Y137554D01*
X616951Y137588D01*
X616849Y137625D01*
X616748Y137667D01*
X616649Y137712D01*
X616551Y137761D01*
X616456Y137813D01*
X616362Y137869D01*
X616270Y137927D01*
X616181Y137990D01*
X616094Y138055D01*
X616009Y138124D01*
X615927Y138195D01*
X615848Y138270D01*
X615771Y138347D01*
X615697Y138427D01*
X615626Y138510D01*
X615559Y138596D01*
X615494Y138683D01*
X615432Y138773D01*
X615374Y138865D01*
X615320Y138959D01*
X615268Y139056D01*
X615220Y139154D01*
X615176Y139253D01*
X615136Y139354D01*
X615099Y139457D01*
X615066Y139561D01*
X615036Y139665D01*
X615011Y139771D01*
X614989Y139878D01*
X614972Y139986D01*
X614958Y140094D01*
X614948Y140202D01*
X614942Y140311D01*
X614940Y140420D01*
X614940Y230420D02*
X614942Y230529D01*
X614948Y230638D01*
X614958Y230746D01*
X614972Y230854D01*
X614989Y230962D01*
X615011Y231069D01*
X615036Y231175D01*
X615066Y231279D01*
X615099Y231383D01*
X615136Y231486D01*
X615176Y231587D01*
X615220Y231686D01*
X615268Y231784D01*
X615320Y231881D01*
X615374Y231975D01*
X615432Y232067D01*
X615494Y232157D01*
X615559Y232244D01*
X615626Y232330D01*
X615697Y232413D01*
X615771Y232493D01*
X615848Y232570D01*
X615927Y232645D01*
X616009Y232716D01*
X616094Y232785D01*
X616181Y232850D01*
X616270Y232913D01*
X616362Y232971D01*
X616456Y233027D01*
X616551Y233079D01*
X616649Y233128D01*
X616748Y233173D01*
X616849Y233215D01*
X616951Y233252D01*
X617054Y233286D01*
X617159Y233317D01*
X617265Y233343D01*
X617371Y233366D01*
X617479Y233384D01*
X617587Y233399D01*
X617695Y233410D01*
X617804Y233417D01*
X617913Y233420D01*
X618022Y233419D01*
X618131Y233414D01*
X618239Y233405D01*
X618347Y233392D01*
X618455Y233375D01*
X618562Y233355D01*
X618668Y233330D01*
X618773Y233302D01*
X618877Y233270D01*
X618980Y233234D01*
X619082Y233194D01*
X619182Y233151D01*
X619280Y233104D01*
X619377Y233054D01*
X619471Y233000D01*
X619564Y232942D01*
X619655Y232882D01*
X619743Y232818D01*
X619829Y232751D01*
X619912Y232681D01*
X619993Y232608D01*
X620071Y232532D01*
X620146Y232453D01*
X620219Y232371D01*
X620288Y232287D01*
X620354Y232201D01*
X620417Y232112D01*
X620477Y232021D01*
X620534Y231928D01*
X620587Y231833D01*
X620636Y231736D01*
X620682Y231637D01*
X620724Y231537D01*
X620763Y231435D01*
X620798Y231331D01*
X620829Y231227D01*
X620857Y231122D01*
X620880Y231015D01*
X620900Y230908D01*
X620916Y230800D01*
X620928Y230692D01*
X620936Y230583D01*
X620940Y230474D01*
X620940Y230366D01*
X620936Y230257D01*
X620928Y230148D01*
X620916Y230040D01*
X620900Y229932D01*
X620880Y229825D01*
X620857Y229718D01*
X620829Y229613D01*
X620798Y229509D01*
X620763Y229405D01*
X620724Y229303D01*
X620682Y229203D01*
X620636Y229104D01*
X620587Y229007D01*
X620534Y228912D01*
X620477Y228819D01*
X620417Y228728D01*
X620354Y228639D01*
X620288Y228553D01*
X620219Y228469D01*
X620146Y228387D01*
X620071Y228308D01*
X619993Y228232D01*
X619912Y228159D01*
X619829Y228089D01*
X619743Y228022D01*
X619655Y227958D01*
X619564Y227898D01*
X619471Y227840D01*
X619377Y227786D01*
X619280Y227736D01*
X619182Y227689D01*
X619082Y227646D01*
X618980Y227606D01*
X618877Y227570D01*
X618773Y227538D01*
X618668Y227510D01*
X618562Y227485D01*
X618455Y227465D01*
X618347Y227448D01*
X618239Y227435D01*
X618131Y227426D01*
X618022Y227421D01*
X617913Y227420D01*
X617804Y227423D01*
X617695Y227430D01*
X617587Y227441D01*
X617479Y227456D01*
X617371Y227474D01*
X617265Y227497D01*
X617159Y227523D01*
X617054Y227554D01*
X616951Y227588D01*
X616849Y227625D01*
X616748Y227667D01*
X616649Y227712D01*
X616551Y227761D01*
X616456Y227813D01*
X616362Y227869D01*
X616270Y227927D01*
X616181Y227990D01*
X616094Y228055D01*
X616009Y228124D01*
X615927Y228195D01*
X615848Y228270D01*
X615771Y228347D01*
X615697Y228427D01*
X615626Y228510D01*
X615559Y228596D01*
X615494Y228683D01*
X615432Y228773D01*
X615374Y228865D01*
X615320Y228959D01*
X615268Y229056D01*
X615220Y229154D01*
X615176Y229253D01*
X615136Y229354D01*
X615099Y229457D01*
X615066Y229561D01*
X615036Y229665D01*
X615011Y229771D01*
X614989Y229878D01*
X614972Y229986D01*
X614958Y230094D01*
X614948Y230202D01*
X614942Y230311D01*
X614940Y230420D01*
X704940Y230420D02*
X704942Y230529D01*
X704948Y230638D01*
X704958Y230746D01*
X704972Y230854D01*
X704989Y230962D01*
X705011Y231069D01*
X705036Y231175D01*
X705066Y231279D01*
X705099Y231383D01*
X705136Y231486D01*
X705176Y231587D01*
X705220Y231686D01*
X705268Y231784D01*
X705320Y231881D01*
X705374Y231975D01*
X705432Y232067D01*
X705494Y232157D01*
X705559Y232244D01*
X705626Y232330D01*
X705697Y232413D01*
X705771Y232493D01*
X705848Y232570D01*
X705927Y232645D01*
X706009Y232716D01*
X706094Y232785D01*
X706181Y232850D01*
X706270Y232913D01*
X706362Y232971D01*
X706456Y233027D01*
X706551Y233079D01*
X706649Y233128D01*
X706748Y233173D01*
X706849Y233215D01*
X706951Y233252D01*
X707054Y233286D01*
X707159Y233317D01*
X707265Y233343D01*
X707371Y233366D01*
X707479Y233384D01*
X707587Y233399D01*
X707695Y233410D01*
X707804Y233417D01*
X707913Y233420D01*
X708022Y233419D01*
X708131Y233414D01*
X708239Y233405D01*
X708347Y233392D01*
X708455Y233375D01*
X708562Y233355D01*
X708668Y233330D01*
X708773Y233302D01*
X708877Y233270D01*
X708980Y233234D01*
X709082Y233194D01*
X709182Y233151D01*
X709280Y233104D01*
X709377Y233054D01*
X709471Y233000D01*
X709564Y232942D01*
X709655Y232882D01*
X709743Y232818D01*
X709829Y232751D01*
X709912Y232681D01*
X709993Y232608D01*
X710071Y232532D01*
X710146Y232453D01*
X710219Y232371D01*
X710288Y232287D01*
X710354Y232201D01*
X710417Y232112D01*
X710477Y232021D01*
X710534Y231928D01*
X710587Y231833D01*
X710636Y231736D01*
X710682Y231637D01*
X710724Y231537D01*
X710763Y231435D01*
X710798Y231331D01*
X710829Y231227D01*
X710857Y231122D01*
X710880Y231015D01*
X710900Y230908D01*
X710916Y230800D01*
X710928Y230692D01*
X710936Y230583D01*
X710940Y230474D01*
X710940Y230366D01*
X710936Y230257D01*
X710928Y230148D01*
X710916Y230040D01*
X710900Y229932D01*
X710880Y229825D01*
X710857Y229718D01*
X710829Y229613D01*
X710798Y229509D01*
X710763Y229405D01*
X710724Y229303D01*
X710682Y229203D01*
X710636Y229104D01*
X710587Y229007D01*
X710534Y228912D01*
X710477Y228819D01*
X710417Y228728D01*
X710354Y228639D01*
X710288Y228553D01*
X710219Y228469D01*
X710146Y228387D01*
X710071Y228308D01*
X709993Y228232D01*
X709912Y228159D01*
X709829Y228089D01*
X709743Y228022D01*
X709655Y227958D01*
X709564Y227898D01*
X709471Y227840D01*
X709377Y227786D01*
X709280Y227736D01*
X709182Y227689D01*
X709082Y227646D01*
X708980Y227606D01*
X708877Y227570D01*
X708773Y227538D01*
X708668Y227510D01*
X708562Y227485D01*
X708455Y227465D01*
X708347Y227448D01*
X708239Y227435D01*
X708131Y227426D01*
X708022Y227421D01*
X707913Y227420D01*
X707804Y227423D01*
X707695Y227430D01*
X707587Y227441D01*
X707479Y227456D01*
X707371Y227474D01*
X707265Y227497D01*
X707159Y227523D01*
X707054Y227554D01*
X706951Y227588D01*
X706849Y227625D01*
X706748Y227667D01*
X706649Y227712D01*
X706551Y227761D01*
X706456Y227813D01*
X706362Y227869D01*
X706270Y227927D01*
X706181Y227990D01*
X706094Y228055D01*
X706009Y228124D01*
X705927Y228195D01*
X705848Y228270D01*
X705771Y228347D01*
X705697Y228427D01*
X705626Y228510D01*
X705559Y228596D01*
X705494Y228683D01*
X705432Y228773D01*
X705374Y228865D01*
X705320Y228959D01*
X705268Y229056D01*
X705220Y229154D01*
X705176Y229253D01*
X705136Y229354D01*
X705099Y229457D01*
X705066Y229561D01*
X705036Y229665D01*
X705011Y229771D01*
X704989Y229878D01*
X704972Y229986D01*
X704958Y230094D01*
X704948Y230202D01*
X704942Y230311D01*
X704940Y230420D01*
X704940Y140420D02*
X704942Y140529D01*
X704948Y140638D01*
X704958Y140746D01*
X704972Y140854D01*
X704989Y140962D01*
X705011Y141069D01*
X705036Y141175D01*
X705066Y141279D01*
X705099Y141383D01*
X705136Y141486D01*
X705176Y141587D01*
X705220Y141686D01*
X705268Y141784D01*
X705320Y141881D01*
X705374Y141975D01*
X705432Y142067D01*
X705494Y142157D01*
X705559Y142244D01*
X705626Y142330D01*
X705697Y142413D01*
X705771Y142493D01*
X705848Y142570D01*
X705927Y142645D01*
X706009Y142716D01*
X706094Y142785D01*
X706181Y142850D01*
X706270Y142913D01*
X706362Y142971D01*
X706456Y143027D01*
X706551Y143079D01*
X706649Y143128D01*
X706748Y143173D01*
X706849Y143215D01*
X706951Y143252D01*
X707054Y143286D01*
X707159Y143317D01*
X707265Y143343D01*
X707371Y143366D01*
X707479Y143384D01*
X707587Y143399D01*
X707695Y143410D01*
X707804Y143417D01*
X707913Y143420D01*
X708022Y143419D01*
X708131Y143414D01*
X708239Y143405D01*
X708347Y143392D01*
X708455Y143375D01*
X708562Y143355D01*
X708668Y143330D01*
X708773Y143302D01*
X708877Y143270D01*
X708980Y143234D01*
X709082Y143194D01*
X709182Y143151D01*
X709280Y143104D01*
X709377Y143054D01*
X709471Y143000D01*
X709564Y142942D01*
X709655Y142882D01*
X709743Y142818D01*
X709829Y142751D01*
X709912Y142681D01*
X709993Y142608D01*
X710071Y142532D01*
X710146Y142453D01*
X710219Y142371D01*
X710288Y142287D01*
X710354Y142201D01*
X710417Y142112D01*
X710477Y142021D01*
X710534Y141928D01*
X710587Y141833D01*
X710636Y141736D01*
X710682Y141637D01*
X710724Y141537D01*
X710763Y141435D01*
X710798Y141331D01*
X710829Y141227D01*
X710857Y141122D01*
X710880Y141015D01*
X710900Y140908D01*
X710916Y140800D01*
X710928Y140692D01*
X710936Y140583D01*
X710940Y140474D01*
X710940Y140366D01*
X710936Y140257D01*
X710928Y140148D01*
X710916Y140040D01*
X710900Y139932D01*
X710880Y139825D01*
X710857Y139718D01*
X710829Y139613D01*
X710798Y139509D01*
X710763Y139405D01*
X710724Y139303D01*
X710682Y139203D01*
X710636Y139104D01*
X710587Y139007D01*
X710534Y138912D01*
X710477Y138819D01*
X710417Y138728D01*
X710354Y138639D01*
X710288Y138553D01*
X710219Y138469D01*
X710146Y138387D01*
X710071Y138308D01*
X709993Y138232D01*
X709912Y138159D01*
X709829Y138089D01*
X709743Y138022D01*
X709655Y137958D01*
X709564Y137898D01*
X709471Y137840D01*
X709377Y137786D01*
X709280Y137736D01*
X709182Y137689D01*
X709082Y137646D01*
X708980Y137606D01*
X708877Y137570D01*
X708773Y137538D01*
X708668Y137510D01*
X708562Y137485D01*
X708455Y137465D01*
X708347Y137448D01*
X708239Y137435D01*
X708131Y137426D01*
X708022Y137421D01*
X707913Y137420D01*
X707804Y137423D01*
X707695Y137430D01*
X707587Y137441D01*
X707479Y137456D01*
X707371Y137474D01*
X707265Y137497D01*
X707159Y137523D01*
X707054Y137554D01*
X706951Y137588D01*
X706849Y137625D01*
X706748Y137667D01*
X706649Y137712D01*
X706551Y137761D01*
X706456Y137813D01*
X706362Y137869D01*
X706270Y137927D01*
X706181Y137990D01*
X706094Y138055D01*
X706009Y138124D01*
X705927Y138195D01*
X705848Y138270D01*
X705771Y138347D01*
X705697Y138427D01*
X705626Y138510D01*
X705559Y138596D01*
X705494Y138683D01*
X705432Y138773D01*
X705374Y138865D01*
X705320Y138959D01*
X705268Y139056D01*
X705220Y139154D01*
X705176Y139253D01*
X705136Y139354D01*
X705099Y139457D01*
X705066Y139561D01*
X705036Y139665D01*
X705011Y139771D01*
X704989Y139878D01*
X704972Y139986D01*
X704958Y140094D01*
X704948Y140202D01*
X704942Y140311D01*
X704940Y140420D01*
D12*
X712940Y125420D02*
X722940Y135420D01*
X722940Y235420D02*
X712940Y245420D01*
X612940Y245420D02*
X602940Y235420D01*
X602940Y135420D02*
X612940Y125420D01*
D15*
X595245Y182857D02*
X596050Y183662D01*
X595245Y182857D02*
X595245Y181247D01*
X596050Y180442D01*
X596855Y180442D01*
X597660Y181247D01*
X597660Y182857D01*
X598465Y183662D01*
X599270Y183662D01*
X600075Y182857D01*
X600075Y181247D01*
X599270Y180442D01*
X596855Y186055D02*
X595245Y187665D01*
X600075Y187665D01*
X600075Y186055D02*
X600075Y189275D01*
D12*
X74300Y125420D02*
X64300Y125420D01*
X54300Y135420D02*
X54300Y235420D01*
X64300Y245420D02*
X74300Y245420D01*
X104300Y245420D02*
X124300Y245420D01*
X154300Y245420D02*
X164300Y245420D01*
X174300Y235420D02*
X174300Y135420D01*
X164300Y125420D02*
X154300Y125420D01*
X124300Y125420D02*
X104300Y125420D01*
X79300Y185420D02*
X79311Y186279D01*
X79342Y187137D01*
X79395Y187995D01*
X79469Y188851D01*
X79563Y189704D01*
X79679Y190556D01*
X79815Y191404D01*
X79973Y192248D01*
X80150Y193089D01*
X80349Y193924D01*
X80568Y194755D01*
X80807Y195580D01*
X81067Y196399D01*
X81346Y197211D01*
X81645Y198016D01*
X81964Y198814D01*
X82303Y199603D01*
X82660Y200384D01*
X83037Y201156D01*
X83433Y201919D01*
X83847Y202671D01*
X84279Y203414D01*
X84730Y204145D01*
X85199Y204865D01*
X85685Y205573D01*
X86188Y206269D01*
X86708Y206953D01*
X87245Y207624D01*
X87798Y208281D01*
X88367Y208925D01*
X88951Y209554D01*
X89551Y210169D01*
X90166Y210769D01*
X90795Y211353D01*
X91439Y211922D01*
X92096Y212475D01*
X92767Y213012D01*
X93451Y213532D01*
X94147Y214035D01*
X94855Y214521D01*
X95575Y214990D01*
X96306Y215441D01*
X97049Y215873D01*
X97801Y216287D01*
X98564Y216683D01*
X99336Y217060D01*
X100117Y217417D01*
X100906Y217756D01*
X101704Y218075D01*
X102509Y218374D01*
X103321Y218653D01*
X104140Y218913D01*
X104965Y219152D01*
X105796Y219371D01*
X106631Y219570D01*
X107472Y219747D01*
X108316Y219905D01*
X109164Y220041D01*
X110016Y220157D01*
X110869Y220251D01*
X111725Y220325D01*
X112583Y220378D01*
X113441Y220409D01*
X114300Y220420D01*
X115159Y220409D01*
X116017Y220378D01*
X116875Y220325D01*
X117731Y220251D01*
X118584Y220157D01*
X119436Y220041D01*
X120284Y219905D01*
X121128Y219747D01*
X121969Y219570D01*
X122804Y219371D01*
X123635Y219152D01*
X124460Y218913D01*
X125279Y218653D01*
X126091Y218374D01*
X126896Y218075D01*
X127694Y217756D01*
X128483Y217417D01*
X129264Y217060D01*
X130036Y216683D01*
X130799Y216287D01*
X131551Y215873D01*
X132294Y215441D01*
X133025Y214990D01*
X133745Y214521D01*
X134453Y214035D01*
X135149Y213532D01*
X135833Y213012D01*
X136504Y212475D01*
X137161Y211922D01*
X137805Y211353D01*
X138434Y210769D01*
X139049Y210169D01*
X139649Y209554D01*
X140233Y208925D01*
X140802Y208281D01*
X141355Y207624D01*
X141892Y206953D01*
X142412Y206269D01*
X142915Y205573D01*
X143401Y204865D01*
X143870Y204145D01*
X144321Y203414D01*
X144753Y202671D01*
X145167Y201919D01*
X145563Y201156D01*
X145940Y200384D01*
X146297Y199603D01*
X146636Y198814D01*
X146955Y198016D01*
X147254Y197211D01*
X147533Y196399D01*
X147793Y195580D01*
X148032Y194755D01*
X148251Y193924D01*
X148450Y193089D01*
X148627Y192248D01*
X148785Y191404D01*
X148921Y190556D01*
X149037Y189704D01*
X149131Y188851D01*
X149205Y187995D01*
X149258Y187137D01*
X149289Y186279D01*
X149300Y185420D01*
X149289Y184561D01*
X149258Y183703D01*
X149205Y182845D01*
X149131Y181989D01*
X149037Y181136D01*
X148921Y180284D01*
X148785Y179436D01*
X148627Y178592D01*
X148450Y177751D01*
X148251Y176916D01*
X148032Y176085D01*
X147793Y175260D01*
X147533Y174441D01*
X147254Y173629D01*
X146955Y172824D01*
X146636Y172026D01*
X146297Y171237D01*
X145940Y170456D01*
X145563Y169684D01*
X145167Y168921D01*
X144753Y168169D01*
X144321Y167426D01*
X143870Y166695D01*
X143401Y165975D01*
X142915Y165267D01*
X142412Y164571D01*
X141892Y163887D01*
X141355Y163216D01*
X140802Y162559D01*
X140233Y161915D01*
X139649Y161286D01*
X139049Y160671D01*
X138434Y160071D01*
X137805Y159487D01*
X137161Y158918D01*
X136504Y158365D01*
X135833Y157828D01*
X135149Y157308D01*
X134453Y156805D01*
X133745Y156319D01*
X133025Y155850D01*
X132294Y155399D01*
X131551Y154967D01*
X130799Y154553D01*
X130036Y154157D01*
X129264Y153780D01*
X128483Y153423D01*
X127694Y153084D01*
X126896Y152765D01*
X126091Y152466D01*
X125279Y152187D01*
X124460Y151927D01*
X123635Y151688D01*
X122804Y151469D01*
X121969Y151270D01*
X121128Y151093D01*
X120284Y150935D01*
X119436Y150799D01*
X118584Y150683D01*
X117731Y150589D01*
X116875Y150515D01*
X116017Y150462D01*
X115159Y150431D01*
X114300Y150420D01*
X113441Y150431D01*
X112583Y150462D01*
X111725Y150515D01*
X110869Y150589D01*
X110016Y150683D01*
X109164Y150799D01*
X108316Y150935D01*
X107472Y151093D01*
X106631Y151270D01*
X105796Y151469D01*
X104965Y151688D01*
X104140Y151927D01*
X103321Y152187D01*
X102509Y152466D01*
X101704Y152765D01*
X100906Y153084D01*
X100117Y153423D01*
X99336Y153780D01*
X98564Y154157D01*
X97801Y154553D01*
X97049Y154967D01*
X96306Y155399D01*
X95575Y155850D01*
X94855Y156319D01*
X94147Y156805D01*
X93451Y157308D01*
X92767Y157828D01*
X92096Y158365D01*
X91439Y158918D01*
X90795Y159487D01*
X90166Y160071D01*
X89551Y160671D01*
X88951Y161286D01*
X88367Y161915D01*
X87798Y162559D01*
X87245Y163216D01*
X86708Y163887D01*
X86188Y164571D01*
X85685Y165267D01*
X85199Y165975D01*
X84730Y166695D01*
X84279Y167426D01*
X83847Y168169D01*
X83433Y168921D01*
X83037Y169684D01*
X82660Y170456D01*
X82303Y171237D01*
X81964Y172026D01*
X81645Y172824D01*
X81346Y173629D01*
X81067Y174441D01*
X80807Y175260D01*
X80568Y176085D01*
X80349Y176916D01*
X80150Y177751D01*
X79973Y178592D01*
X79815Y179436D01*
X79679Y180284D01*
X79563Y181136D01*
X79469Y181989D01*
X79395Y182845D01*
X79342Y183703D01*
X79311Y184561D01*
X79300Y185420D01*
D18*
X66300Y140420D02*
X66302Y140529D01*
X66308Y140638D01*
X66318Y140746D01*
X66332Y140854D01*
X66349Y140962D01*
X66371Y141069D01*
X66396Y141175D01*
X66426Y141279D01*
X66459Y141383D01*
X66496Y141486D01*
X66536Y141587D01*
X66580Y141686D01*
X66628Y141784D01*
X66680Y141881D01*
X66734Y141975D01*
X66792Y142067D01*
X66854Y142157D01*
X66919Y142244D01*
X66986Y142330D01*
X67057Y142413D01*
X67131Y142493D01*
X67208Y142570D01*
X67287Y142645D01*
X67369Y142716D01*
X67454Y142785D01*
X67541Y142850D01*
X67630Y142913D01*
X67722Y142971D01*
X67816Y143027D01*
X67911Y143079D01*
X68009Y143128D01*
X68108Y143173D01*
X68209Y143215D01*
X68311Y143252D01*
X68414Y143286D01*
X68519Y143317D01*
X68625Y143343D01*
X68731Y143366D01*
X68839Y143384D01*
X68947Y143399D01*
X69055Y143410D01*
X69164Y143417D01*
X69273Y143420D01*
X69382Y143419D01*
X69491Y143414D01*
X69599Y143405D01*
X69707Y143392D01*
X69815Y143375D01*
X69922Y143355D01*
X70028Y143330D01*
X70133Y143302D01*
X70237Y143270D01*
X70340Y143234D01*
X70442Y143194D01*
X70542Y143151D01*
X70640Y143104D01*
X70737Y143054D01*
X70831Y143000D01*
X70924Y142942D01*
X71015Y142882D01*
X71103Y142818D01*
X71189Y142751D01*
X71272Y142681D01*
X71353Y142608D01*
X71431Y142532D01*
X71506Y142453D01*
X71579Y142371D01*
X71648Y142287D01*
X71714Y142201D01*
X71777Y142112D01*
X71837Y142021D01*
X71894Y141928D01*
X71947Y141833D01*
X71996Y141736D01*
X72042Y141637D01*
X72084Y141537D01*
X72123Y141435D01*
X72158Y141331D01*
X72189Y141227D01*
X72217Y141122D01*
X72240Y141015D01*
X72260Y140908D01*
X72276Y140800D01*
X72288Y140692D01*
X72296Y140583D01*
X72300Y140474D01*
X72300Y140366D01*
X72296Y140257D01*
X72288Y140148D01*
X72276Y140040D01*
X72260Y139932D01*
X72240Y139825D01*
X72217Y139718D01*
X72189Y139613D01*
X72158Y139509D01*
X72123Y139405D01*
X72084Y139303D01*
X72042Y139203D01*
X71996Y139104D01*
X71947Y139007D01*
X71894Y138912D01*
X71837Y138819D01*
X71777Y138728D01*
X71714Y138639D01*
X71648Y138553D01*
X71579Y138469D01*
X71506Y138387D01*
X71431Y138308D01*
X71353Y138232D01*
X71272Y138159D01*
X71189Y138089D01*
X71103Y138022D01*
X71015Y137958D01*
X70924Y137898D01*
X70831Y137840D01*
X70737Y137786D01*
X70640Y137736D01*
X70542Y137689D01*
X70442Y137646D01*
X70340Y137606D01*
X70237Y137570D01*
X70133Y137538D01*
X70028Y137510D01*
X69922Y137485D01*
X69815Y137465D01*
X69707Y137448D01*
X69599Y137435D01*
X69491Y137426D01*
X69382Y137421D01*
X69273Y137420D01*
X69164Y137423D01*
X69055Y137430D01*
X68947Y137441D01*
X68839Y137456D01*
X68731Y137474D01*
X68625Y137497D01*
X68519Y137523D01*
X68414Y137554D01*
X68311Y137588D01*
X68209Y137625D01*
X68108Y137667D01*
X68009Y137712D01*
X67911Y137761D01*
X67816Y137813D01*
X67722Y137869D01*
X67630Y137927D01*
X67541Y137990D01*
X67454Y138055D01*
X67369Y138124D01*
X67287Y138195D01*
X67208Y138270D01*
X67131Y138347D01*
X67057Y138427D01*
X66986Y138510D01*
X66919Y138596D01*
X66854Y138683D01*
X66792Y138773D01*
X66734Y138865D01*
X66680Y138959D01*
X66628Y139056D01*
X66580Y139154D01*
X66536Y139253D01*
X66496Y139354D01*
X66459Y139457D01*
X66426Y139561D01*
X66396Y139665D01*
X66371Y139771D01*
X66349Y139878D01*
X66332Y139986D01*
X66318Y140094D01*
X66308Y140202D01*
X66302Y140311D01*
X66300Y140420D01*
X66300Y230420D02*
X66302Y230529D01*
X66308Y230638D01*
X66318Y230746D01*
X66332Y230854D01*
X66349Y230962D01*
X66371Y231069D01*
X66396Y231175D01*
X66426Y231279D01*
X66459Y231383D01*
X66496Y231486D01*
X66536Y231587D01*
X66580Y231686D01*
X66628Y231784D01*
X66680Y231881D01*
X66734Y231975D01*
X66792Y232067D01*
X66854Y232157D01*
X66919Y232244D01*
X66986Y232330D01*
X67057Y232413D01*
X67131Y232493D01*
X67208Y232570D01*
X67287Y232645D01*
X67369Y232716D01*
X67454Y232785D01*
X67541Y232850D01*
X67630Y232913D01*
X67722Y232971D01*
X67816Y233027D01*
X67911Y233079D01*
X68009Y233128D01*
X68108Y233173D01*
X68209Y233215D01*
X68311Y233252D01*
X68414Y233286D01*
X68519Y233317D01*
X68625Y233343D01*
X68731Y233366D01*
X68839Y233384D01*
X68947Y233399D01*
X69055Y233410D01*
X69164Y233417D01*
X69273Y233420D01*
X69382Y233419D01*
X69491Y233414D01*
X69599Y233405D01*
X69707Y233392D01*
X69815Y233375D01*
X69922Y233355D01*
X70028Y233330D01*
X70133Y233302D01*
X70237Y233270D01*
X70340Y233234D01*
X70442Y233194D01*
X70542Y233151D01*
X70640Y233104D01*
X70737Y233054D01*
X70831Y233000D01*
X70924Y232942D01*
X71015Y232882D01*
X71103Y232818D01*
X71189Y232751D01*
X71272Y232681D01*
X71353Y232608D01*
X71431Y232532D01*
X71506Y232453D01*
X71579Y232371D01*
X71648Y232287D01*
X71714Y232201D01*
X71777Y232112D01*
X71837Y232021D01*
X71894Y231928D01*
X71947Y231833D01*
X71996Y231736D01*
X72042Y231637D01*
X72084Y231537D01*
X72123Y231435D01*
X72158Y231331D01*
X72189Y231227D01*
X72217Y231122D01*
X72240Y231015D01*
X72260Y230908D01*
X72276Y230800D01*
X72288Y230692D01*
X72296Y230583D01*
X72300Y230474D01*
X72300Y230366D01*
X72296Y230257D01*
X72288Y230148D01*
X72276Y230040D01*
X72260Y229932D01*
X72240Y229825D01*
X72217Y229718D01*
X72189Y229613D01*
X72158Y229509D01*
X72123Y229405D01*
X72084Y229303D01*
X72042Y229203D01*
X71996Y229104D01*
X71947Y229007D01*
X71894Y228912D01*
X71837Y228819D01*
X71777Y228728D01*
X71714Y228639D01*
X71648Y228553D01*
X71579Y228469D01*
X71506Y228387D01*
X71431Y228308D01*
X71353Y228232D01*
X71272Y228159D01*
X71189Y228089D01*
X71103Y228022D01*
X71015Y227958D01*
X70924Y227898D01*
X70831Y227840D01*
X70737Y227786D01*
X70640Y227736D01*
X70542Y227689D01*
X70442Y227646D01*
X70340Y227606D01*
X70237Y227570D01*
X70133Y227538D01*
X70028Y227510D01*
X69922Y227485D01*
X69815Y227465D01*
X69707Y227448D01*
X69599Y227435D01*
X69491Y227426D01*
X69382Y227421D01*
X69273Y227420D01*
X69164Y227423D01*
X69055Y227430D01*
X68947Y227441D01*
X68839Y227456D01*
X68731Y227474D01*
X68625Y227497D01*
X68519Y227523D01*
X68414Y227554D01*
X68311Y227588D01*
X68209Y227625D01*
X68108Y227667D01*
X68009Y227712D01*
X67911Y227761D01*
X67816Y227813D01*
X67722Y227869D01*
X67630Y227927D01*
X67541Y227990D01*
X67454Y228055D01*
X67369Y228124D01*
X67287Y228195D01*
X67208Y228270D01*
X67131Y228347D01*
X67057Y228427D01*
X66986Y228510D01*
X66919Y228596D01*
X66854Y228683D01*
X66792Y228773D01*
X66734Y228865D01*
X66680Y228959D01*
X66628Y229056D01*
X66580Y229154D01*
X66536Y229253D01*
X66496Y229354D01*
X66459Y229457D01*
X66426Y229561D01*
X66396Y229665D01*
X66371Y229771D01*
X66349Y229878D01*
X66332Y229986D01*
X66318Y230094D01*
X66308Y230202D01*
X66302Y230311D01*
X66300Y230420D01*
X156300Y230420D02*
X156302Y230529D01*
X156308Y230638D01*
X156318Y230746D01*
X156332Y230854D01*
X156349Y230962D01*
X156371Y231069D01*
X156396Y231175D01*
X156426Y231279D01*
X156459Y231383D01*
X156496Y231486D01*
X156536Y231587D01*
X156580Y231686D01*
X156628Y231784D01*
X156680Y231881D01*
X156734Y231975D01*
X156792Y232067D01*
X156854Y232157D01*
X156919Y232244D01*
X156986Y232330D01*
X157057Y232413D01*
X157131Y232493D01*
X157208Y232570D01*
X157287Y232645D01*
X157369Y232716D01*
X157454Y232785D01*
X157541Y232850D01*
X157630Y232913D01*
X157722Y232971D01*
X157816Y233027D01*
X157911Y233079D01*
X158009Y233128D01*
X158108Y233173D01*
X158209Y233215D01*
X158311Y233252D01*
X158414Y233286D01*
X158519Y233317D01*
X158625Y233343D01*
X158731Y233366D01*
X158839Y233384D01*
X158947Y233399D01*
X159055Y233410D01*
X159164Y233417D01*
X159273Y233420D01*
X159382Y233419D01*
X159491Y233414D01*
X159599Y233405D01*
X159707Y233392D01*
X159815Y233375D01*
X159922Y233355D01*
X160028Y233330D01*
X160133Y233302D01*
X160237Y233270D01*
X160340Y233234D01*
X160442Y233194D01*
X160542Y233151D01*
X160640Y233104D01*
X160737Y233054D01*
X160831Y233000D01*
X160924Y232942D01*
X161015Y232882D01*
X161103Y232818D01*
X161189Y232751D01*
X161272Y232681D01*
X161353Y232608D01*
X161431Y232532D01*
X161506Y232453D01*
X161579Y232371D01*
X161648Y232287D01*
X161714Y232201D01*
X161777Y232112D01*
X161837Y232021D01*
X161894Y231928D01*
X161947Y231833D01*
X161996Y231736D01*
X162042Y231637D01*
X162084Y231537D01*
X162123Y231435D01*
X162158Y231331D01*
X162189Y231227D01*
X162217Y231122D01*
X162240Y231015D01*
X162260Y230908D01*
X162276Y230800D01*
X162288Y230692D01*
X162296Y230583D01*
X162300Y230474D01*
X162300Y230366D01*
X162296Y230257D01*
X162288Y230148D01*
X162276Y230040D01*
X162260Y229932D01*
X162240Y229825D01*
X162217Y229718D01*
X162189Y229613D01*
X162158Y229509D01*
X162123Y229405D01*
X162084Y229303D01*
X162042Y229203D01*
X161996Y229104D01*
X161947Y229007D01*
X161894Y228912D01*
X161837Y228819D01*
X161777Y228728D01*
X161714Y228639D01*
X161648Y228553D01*
X161579Y228469D01*
X161506Y228387D01*
X161431Y228308D01*
X161353Y228232D01*
X161272Y228159D01*
X161189Y228089D01*
X161103Y228022D01*
X161015Y227958D01*
X160924Y227898D01*
X160831Y227840D01*
X160737Y227786D01*
X160640Y227736D01*
X160542Y227689D01*
X160442Y227646D01*
X160340Y227606D01*
X160237Y227570D01*
X160133Y227538D01*
X160028Y227510D01*
X159922Y227485D01*
X159815Y227465D01*
X159707Y227448D01*
X159599Y227435D01*
X159491Y227426D01*
X159382Y227421D01*
X159273Y227420D01*
X159164Y227423D01*
X159055Y227430D01*
X158947Y227441D01*
X158839Y227456D01*
X158731Y227474D01*
X158625Y227497D01*
X158519Y227523D01*
X158414Y227554D01*
X158311Y227588D01*
X158209Y227625D01*
X158108Y227667D01*
X158009Y227712D01*
X157911Y227761D01*
X157816Y227813D01*
X157722Y227869D01*
X157630Y227927D01*
X157541Y227990D01*
X157454Y228055D01*
X157369Y228124D01*
X157287Y228195D01*
X157208Y228270D01*
X157131Y228347D01*
X157057Y228427D01*
X156986Y228510D01*
X156919Y228596D01*
X156854Y228683D01*
X156792Y228773D01*
X156734Y228865D01*
X156680Y228959D01*
X156628Y229056D01*
X156580Y229154D01*
X156536Y229253D01*
X156496Y229354D01*
X156459Y229457D01*
X156426Y229561D01*
X156396Y229665D01*
X156371Y229771D01*
X156349Y229878D01*
X156332Y229986D01*
X156318Y230094D01*
X156308Y230202D01*
X156302Y230311D01*
X156300Y230420D01*
X156300Y140420D02*
X156302Y140529D01*
X156308Y140638D01*
X156318Y140746D01*
X156332Y140854D01*
X156349Y140962D01*
X156371Y141069D01*
X156396Y141175D01*
X156426Y141279D01*
X156459Y141383D01*
X156496Y141486D01*
X156536Y141587D01*
X156580Y141686D01*
X156628Y141784D01*
X156680Y141881D01*
X156734Y141975D01*
X156792Y142067D01*
X156854Y142157D01*
X156919Y142244D01*
X156986Y142330D01*
X157057Y142413D01*
X157131Y142493D01*
X157208Y142570D01*
X157287Y142645D01*
X157369Y142716D01*
X157454Y142785D01*
X157541Y142850D01*
X157630Y142913D01*
X157722Y142971D01*
X157816Y143027D01*
X157911Y143079D01*
X158009Y143128D01*
X158108Y143173D01*
X158209Y143215D01*
X158311Y143252D01*
X158414Y143286D01*
X158519Y143317D01*
X158625Y143343D01*
X158731Y143366D01*
X158839Y143384D01*
X158947Y143399D01*
X159055Y143410D01*
X159164Y143417D01*
X159273Y143420D01*
X159382Y143419D01*
X159491Y143414D01*
X159599Y143405D01*
X159707Y143392D01*
X159815Y143375D01*
X159922Y143355D01*
X160028Y143330D01*
X160133Y143302D01*
X160237Y143270D01*
X160340Y143234D01*
X160442Y143194D01*
X160542Y143151D01*
X160640Y143104D01*
X160737Y143054D01*
X160831Y143000D01*
X160924Y142942D01*
X161015Y142882D01*
X161103Y142818D01*
X161189Y142751D01*
X161272Y142681D01*
X161353Y142608D01*
X161431Y142532D01*
X161506Y142453D01*
X161579Y142371D01*
X161648Y142287D01*
X161714Y142201D01*
X161777Y142112D01*
X161837Y142021D01*
X161894Y141928D01*
X161947Y141833D01*
X161996Y141736D01*
X162042Y141637D01*
X162084Y141537D01*
X162123Y141435D01*
X162158Y141331D01*
X162189Y141227D01*
X162217Y141122D01*
X162240Y141015D01*
X162260Y140908D01*
X162276Y140800D01*
X162288Y140692D01*
X162296Y140583D01*
X162300Y140474D01*
X162300Y140366D01*
X162296Y140257D01*
X162288Y140148D01*
X162276Y140040D01*
X162260Y139932D01*
X162240Y139825D01*
X162217Y139718D01*
X162189Y139613D01*
X162158Y139509D01*
X162123Y139405D01*
X162084Y139303D01*
X162042Y139203D01*
X161996Y139104D01*
X161947Y139007D01*
X161894Y138912D01*
X161837Y138819D01*
X161777Y138728D01*
X161714Y138639D01*
X161648Y138553D01*
X161579Y138469D01*
X161506Y138387D01*
X161431Y138308D01*
X161353Y138232D01*
X161272Y138159D01*
X161189Y138089D01*
X161103Y138022D01*
X161015Y137958D01*
X160924Y137898D01*
X160831Y137840D01*
X160737Y137786D01*
X160640Y137736D01*
X160542Y137689D01*
X160442Y137646D01*
X160340Y137606D01*
X160237Y137570D01*
X160133Y137538D01*
X160028Y137510D01*
X159922Y137485D01*
X159815Y137465D01*
X159707Y137448D01*
X159599Y137435D01*
X159491Y137426D01*
X159382Y137421D01*
X159273Y137420D01*
X159164Y137423D01*
X159055Y137430D01*
X158947Y137441D01*
X158839Y137456D01*
X158731Y137474D01*
X158625Y137497D01*
X158519Y137523D01*
X158414Y137554D01*
X158311Y137588D01*
X158209Y137625D01*
X158108Y137667D01*
X158009Y137712D01*
X157911Y137761D01*
X157816Y137813D01*
X157722Y137869D01*
X157630Y137927D01*
X157541Y137990D01*
X157454Y138055D01*
X157369Y138124D01*
X157287Y138195D01*
X157208Y138270D01*
X157131Y138347D01*
X157057Y138427D01*
X156986Y138510D01*
X156919Y138596D01*
X156854Y138683D01*
X156792Y138773D01*
X156734Y138865D01*
X156680Y138959D01*
X156628Y139056D01*
X156580Y139154D01*
X156536Y139253D01*
X156496Y139354D01*
X156459Y139457D01*
X156426Y139561D01*
X156396Y139665D01*
X156371Y139771D01*
X156349Y139878D01*
X156332Y139986D01*
X156318Y140094D01*
X156308Y140202D01*
X156302Y140311D01*
X156300Y140420D01*
D12*
X164300Y125420D02*
X174300Y135420D01*
X174300Y235420D02*
X164300Y245420D01*
X64300Y245420D02*
X54300Y235420D01*
X54300Y135420D02*
X64300Y125420D01*
D15*
X46605Y182857D02*
X47410Y183662D01*
X46605Y182857D02*
X46605Y181247D01*
X47410Y180442D01*
X48215Y180442D01*
X49020Y181247D01*
X49020Y182857D01*
X49825Y183662D01*
X50630Y183662D01*
X51435Y182857D01*
X51435Y181247D01*
X50630Y180442D01*
X51435Y186055D02*
X51435Y189275D01*
X51435Y186055D02*
X48215Y189275D01*
X47410Y189275D01*
X46605Y188470D01*
X46605Y186860D01*
X47410Y186055D01*
D12*
X818680Y125420D02*
X828680Y125420D01*
X808680Y135420D02*
X808680Y235420D01*
X818680Y245420D02*
X828680Y245420D01*
X858680Y245420D02*
X878680Y245420D01*
X908680Y245420D02*
X918680Y245420D01*
X928680Y235420D02*
X928680Y135420D01*
X918680Y125420D02*
X908680Y125420D01*
X878680Y125420D02*
X858680Y125420D01*
X833680Y185420D02*
X833691Y186279D01*
X833722Y187137D01*
X833775Y187995D01*
X833849Y188851D01*
X833943Y189704D01*
X834059Y190556D01*
X834195Y191404D01*
X834353Y192248D01*
X834530Y193089D01*
X834729Y193924D01*
X834948Y194755D01*
X835187Y195580D01*
X835447Y196399D01*
X835726Y197211D01*
X836025Y198016D01*
X836344Y198814D01*
X836683Y199603D01*
X837040Y200384D01*
X837417Y201156D01*
X837813Y201919D01*
X838227Y202671D01*
X838659Y203414D01*
X839110Y204145D01*
X839579Y204865D01*
X840065Y205573D01*
X840568Y206269D01*
X841088Y206953D01*
X841625Y207624D01*
X842178Y208281D01*
X842747Y208925D01*
X843331Y209554D01*
X843931Y210169D01*
X844546Y210769D01*
X845175Y211353D01*
X845819Y211922D01*
X846476Y212475D01*
X847147Y213012D01*
X847831Y213532D01*
X848527Y214035D01*
X849235Y214521D01*
X849955Y214990D01*
X850686Y215441D01*
X851429Y215873D01*
X852181Y216287D01*
X852944Y216683D01*
X853716Y217060D01*
X854497Y217417D01*
X855286Y217756D01*
X856084Y218075D01*
X856889Y218374D01*
X857701Y218653D01*
X858520Y218913D01*
X859345Y219152D01*
X860176Y219371D01*
X861011Y219570D01*
X861852Y219747D01*
X862696Y219905D01*
X863544Y220041D01*
X864396Y220157D01*
X865249Y220251D01*
X866105Y220325D01*
X866963Y220378D01*
X867821Y220409D01*
X868680Y220420D01*
X869539Y220409D01*
X870397Y220378D01*
X871255Y220325D01*
X872111Y220251D01*
X872964Y220157D01*
X873816Y220041D01*
X874664Y219905D01*
X875508Y219747D01*
X876349Y219570D01*
X877184Y219371D01*
X878015Y219152D01*
X878840Y218913D01*
X879659Y218653D01*
X880471Y218374D01*
X881276Y218075D01*
X882074Y217756D01*
X882863Y217417D01*
X883644Y217060D01*
X884416Y216683D01*
X885179Y216287D01*
X885931Y215873D01*
X886674Y215441D01*
X887405Y214990D01*
X888125Y214521D01*
X888833Y214035D01*
X889529Y213532D01*
X890213Y213012D01*
X890884Y212475D01*
X891541Y211922D01*
X892185Y211353D01*
X892814Y210769D01*
X893429Y210169D01*
X894029Y209554D01*
X894613Y208925D01*
X895182Y208281D01*
X895735Y207624D01*
X896272Y206953D01*
X896792Y206269D01*
X897295Y205573D01*
X897781Y204865D01*
X898250Y204145D01*
X898701Y203414D01*
X899133Y202671D01*
X899547Y201919D01*
X899943Y201156D01*
X900320Y200384D01*
X900677Y199603D01*
X901016Y198814D01*
X901335Y198016D01*
X901634Y197211D01*
X901913Y196399D01*
X902173Y195580D01*
X902412Y194755D01*
X902631Y193924D01*
X902830Y193089D01*
X903007Y192248D01*
X903165Y191404D01*
X903301Y190556D01*
X903417Y189704D01*
X903511Y188851D01*
X903585Y187995D01*
X903638Y187137D01*
X903669Y186279D01*
X903680Y185420D01*
X903669Y184561D01*
X903638Y183703D01*
X903585Y182845D01*
X903511Y181989D01*
X903417Y181136D01*
X903301Y180284D01*
X903165Y179436D01*
X903007Y178592D01*
X902830Y177751D01*
X902631Y176916D01*
X902412Y176085D01*
X902173Y175260D01*
X901913Y174441D01*
X901634Y173629D01*
X901335Y172824D01*
X901016Y172026D01*
X900677Y171237D01*
X900320Y170456D01*
X899943Y169684D01*
X899547Y168921D01*
X899133Y168169D01*
X898701Y167426D01*
X898250Y166695D01*
X897781Y165975D01*
X897295Y165267D01*
X896792Y164571D01*
X896272Y163887D01*
X895735Y163216D01*
X895182Y162559D01*
X894613Y161915D01*
X894029Y161286D01*
X893429Y160671D01*
X892814Y160071D01*
X892185Y159487D01*
X891541Y158918D01*
X890884Y158365D01*
X890213Y157828D01*
X889529Y157308D01*
X888833Y156805D01*
X888125Y156319D01*
X887405Y155850D01*
X886674Y155399D01*
X885931Y154967D01*
X885179Y154553D01*
X884416Y154157D01*
X883644Y153780D01*
X882863Y153423D01*
X882074Y153084D01*
X881276Y152765D01*
X880471Y152466D01*
X879659Y152187D01*
X878840Y151927D01*
X878015Y151688D01*
X877184Y151469D01*
X876349Y151270D01*
X875508Y151093D01*
X874664Y150935D01*
X873816Y150799D01*
X872964Y150683D01*
X872111Y150589D01*
X871255Y150515D01*
X870397Y150462D01*
X869539Y150431D01*
X868680Y150420D01*
X867821Y150431D01*
X866963Y150462D01*
X866105Y150515D01*
X865249Y150589D01*
X864396Y150683D01*
X863544Y150799D01*
X862696Y150935D01*
X861852Y151093D01*
X861011Y151270D01*
X860176Y151469D01*
X859345Y151688D01*
X858520Y151927D01*
X857701Y152187D01*
X856889Y152466D01*
X856084Y152765D01*
X855286Y153084D01*
X854497Y153423D01*
X853716Y153780D01*
X852944Y154157D01*
X852181Y154553D01*
X851429Y154967D01*
X850686Y155399D01*
X849955Y155850D01*
X849235Y156319D01*
X848527Y156805D01*
X847831Y157308D01*
X847147Y157828D01*
X846476Y158365D01*
X845819Y158918D01*
X845175Y159487D01*
X844546Y160071D01*
X843931Y160671D01*
X843331Y161286D01*
X842747Y161915D01*
X842178Y162559D01*
X841625Y163216D01*
X841088Y163887D01*
X840568Y164571D01*
X840065Y165267D01*
X839579Y165975D01*
X839110Y166695D01*
X838659Y167426D01*
X838227Y168169D01*
X837813Y168921D01*
X837417Y169684D01*
X837040Y170456D01*
X836683Y171237D01*
X836344Y172026D01*
X836025Y172824D01*
X835726Y173629D01*
X835447Y174441D01*
X835187Y175260D01*
X834948Y176085D01*
X834729Y176916D01*
X834530Y177751D01*
X834353Y178592D01*
X834195Y179436D01*
X834059Y180284D01*
X833943Y181136D01*
X833849Y181989D01*
X833775Y182845D01*
X833722Y183703D01*
X833691Y184561D01*
X833680Y185420D01*
D18*
X820680Y140420D02*
X820682Y140529D01*
X820688Y140638D01*
X820698Y140746D01*
X820712Y140854D01*
X820729Y140962D01*
X820751Y141069D01*
X820776Y141175D01*
X820806Y141279D01*
X820839Y141383D01*
X820876Y141486D01*
X820916Y141587D01*
X820960Y141686D01*
X821008Y141784D01*
X821060Y141881D01*
X821114Y141975D01*
X821172Y142067D01*
X821234Y142157D01*
X821299Y142244D01*
X821366Y142330D01*
X821437Y142413D01*
X821511Y142493D01*
X821588Y142570D01*
X821667Y142645D01*
X821749Y142716D01*
X821834Y142785D01*
X821921Y142850D01*
X822010Y142913D01*
X822102Y142971D01*
X822196Y143027D01*
X822291Y143079D01*
X822389Y143128D01*
X822488Y143173D01*
X822589Y143215D01*
X822691Y143252D01*
X822794Y143286D01*
X822899Y143317D01*
X823005Y143343D01*
X823111Y143366D01*
X823219Y143384D01*
X823327Y143399D01*
X823435Y143410D01*
X823544Y143417D01*
X823653Y143420D01*
X823762Y143419D01*
X823871Y143414D01*
X823979Y143405D01*
X824087Y143392D01*
X824195Y143375D01*
X824302Y143355D01*
X824408Y143330D01*
X824513Y143302D01*
X824617Y143270D01*
X824720Y143234D01*
X824822Y143194D01*
X824922Y143151D01*
X825020Y143104D01*
X825117Y143054D01*
X825211Y143000D01*
X825304Y142942D01*
X825395Y142882D01*
X825483Y142818D01*
X825569Y142751D01*
X825652Y142681D01*
X825733Y142608D01*
X825811Y142532D01*
X825886Y142453D01*
X825959Y142371D01*
X826028Y142287D01*
X826094Y142201D01*
X826157Y142112D01*
X826217Y142021D01*
X826274Y141928D01*
X826327Y141833D01*
X826376Y141736D01*
X826422Y141637D01*
X826464Y141537D01*
X826503Y141435D01*
X826538Y141331D01*
X826569Y141227D01*
X826597Y141122D01*
X826620Y141015D01*
X826640Y140908D01*
X826656Y140800D01*
X826668Y140692D01*
X826676Y140583D01*
X826680Y140474D01*
X826680Y140366D01*
X826676Y140257D01*
X826668Y140148D01*
X826656Y140040D01*
X826640Y139932D01*
X826620Y139825D01*
X826597Y139718D01*
X826569Y139613D01*
X826538Y139509D01*
X826503Y139405D01*
X826464Y139303D01*
X826422Y139203D01*
X826376Y139104D01*
X826327Y139007D01*
X826274Y138912D01*
X826217Y138819D01*
X826157Y138728D01*
X826094Y138639D01*
X826028Y138553D01*
X825959Y138469D01*
X825886Y138387D01*
X825811Y138308D01*
X825733Y138232D01*
X825652Y138159D01*
X825569Y138089D01*
X825483Y138022D01*
X825395Y137958D01*
X825304Y137898D01*
X825211Y137840D01*
X825117Y137786D01*
X825020Y137736D01*
X824922Y137689D01*
X824822Y137646D01*
X824720Y137606D01*
X824617Y137570D01*
X824513Y137538D01*
X824408Y137510D01*
X824302Y137485D01*
X824195Y137465D01*
X824087Y137448D01*
X823979Y137435D01*
X823871Y137426D01*
X823762Y137421D01*
X823653Y137420D01*
X823544Y137423D01*
X823435Y137430D01*
X823327Y137441D01*
X823219Y137456D01*
X823111Y137474D01*
X823005Y137497D01*
X822899Y137523D01*
X822794Y137554D01*
X822691Y137588D01*
X822589Y137625D01*
X822488Y137667D01*
X822389Y137712D01*
X822291Y137761D01*
X822196Y137813D01*
X822102Y137869D01*
X822010Y137927D01*
X821921Y137990D01*
X821834Y138055D01*
X821749Y138124D01*
X821667Y138195D01*
X821588Y138270D01*
X821511Y138347D01*
X821437Y138427D01*
X821366Y138510D01*
X821299Y138596D01*
X821234Y138683D01*
X821172Y138773D01*
X821114Y138865D01*
X821060Y138959D01*
X821008Y139056D01*
X820960Y139154D01*
X820916Y139253D01*
X820876Y139354D01*
X820839Y139457D01*
X820806Y139561D01*
X820776Y139665D01*
X820751Y139771D01*
X820729Y139878D01*
X820712Y139986D01*
X820698Y140094D01*
X820688Y140202D01*
X820682Y140311D01*
X820680Y140420D01*
X820680Y230420D02*
X820682Y230529D01*
X820688Y230638D01*
X820698Y230746D01*
X820712Y230854D01*
X820729Y230962D01*
X820751Y231069D01*
X820776Y231175D01*
X820806Y231279D01*
X820839Y231383D01*
X820876Y231486D01*
X820916Y231587D01*
X820960Y231686D01*
X821008Y231784D01*
X821060Y231881D01*
X821114Y231975D01*
X821172Y232067D01*
X821234Y232157D01*
X821299Y232244D01*
X821366Y232330D01*
X821437Y232413D01*
X821511Y232493D01*
X821588Y232570D01*
X821667Y232645D01*
X821749Y232716D01*
X821834Y232785D01*
X821921Y232850D01*
X822010Y232913D01*
X822102Y232971D01*
X822196Y233027D01*
X822291Y233079D01*
X822389Y233128D01*
X822488Y233173D01*
X822589Y233215D01*
X822691Y233252D01*
X822794Y233286D01*
X822899Y233317D01*
X823005Y233343D01*
X823111Y233366D01*
X823219Y233384D01*
X823327Y233399D01*
X823435Y233410D01*
X823544Y233417D01*
X823653Y233420D01*
X823762Y233419D01*
X823871Y233414D01*
X823979Y233405D01*
X824087Y233392D01*
X824195Y233375D01*
X824302Y233355D01*
X824408Y233330D01*
X824513Y233302D01*
X824617Y233270D01*
X824720Y233234D01*
X824822Y233194D01*
X824922Y233151D01*
X825020Y233104D01*
X825117Y233054D01*
X825211Y233000D01*
X825304Y232942D01*
X825395Y232882D01*
X825483Y232818D01*
X825569Y232751D01*
X825652Y232681D01*
X825733Y232608D01*
X825811Y232532D01*
X825886Y232453D01*
X825959Y232371D01*
X826028Y232287D01*
X826094Y232201D01*
X826157Y232112D01*
X826217Y232021D01*
X826274Y231928D01*
X826327Y231833D01*
X826376Y231736D01*
X826422Y231637D01*
X826464Y231537D01*
X826503Y231435D01*
X826538Y231331D01*
X826569Y231227D01*
X826597Y231122D01*
X826620Y231015D01*
X826640Y230908D01*
X826656Y230800D01*
X826668Y230692D01*
X826676Y230583D01*
X826680Y230474D01*
X826680Y230366D01*
X826676Y230257D01*
X826668Y230148D01*
X826656Y230040D01*
X826640Y229932D01*
X826620Y229825D01*
X826597Y229718D01*
X826569Y229613D01*
X826538Y229509D01*
X826503Y229405D01*
X826464Y229303D01*
X826422Y229203D01*
X826376Y229104D01*
X826327Y229007D01*
X826274Y228912D01*
X826217Y228819D01*
X826157Y228728D01*
X826094Y228639D01*
X826028Y228553D01*
X825959Y228469D01*
X825886Y228387D01*
X825811Y228308D01*
X825733Y228232D01*
X825652Y228159D01*
X825569Y228089D01*
X825483Y228022D01*
X825395Y227958D01*
X825304Y227898D01*
X825211Y227840D01*
X825117Y227786D01*
X825020Y227736D01*
X824922Y227689D01*
X824822Y227646D01*
X824720Y227606D01*
X824617Y227570D01*
X824513Y227538D01*
X824408Y227510D01*
X824302Y227485D01*
X824195Y227465D01*
X824087Y227448D01*
X823979Y227435D01*
X823871Y227426D01*
X823762Y227421D01*
X823653Y227420D01*
X823544Y227423D01*
X823435Y227430D01*
X823327Y227441D01*
X823219Y227456D01*
X823111Y227474D01*
X823005Y227497D01*
X822899Y227523D01*
X822794Y227554D01*
X822691Y227588D01*
X822589Y227625D01*
X822488Y227667D01*
X822389Y227712D01*
X822291Y227761D01*
X822196Y227813D01*
X822102Y227869D01*
X822010Y227927D01*
X821921Y227990D01*
X821834Y228055D01*
X821749Y228124D01*
X821667Y228195D01*
X821588Y228270D01*
X821511Y228347D01*
X821437Y228427D01*
X821366Y228510D01*
X821299Y228596D01*
X821234Y228683D01*
X821172Y228773D01*
X821114Y228865D01*
X821060Y228959D01*
X821008Y229056D01*
X820960Y229154D01*
X820916Y229253D01*
X820876Y229354D01*
X820839Y229457D01*
X820806Y229561D01*
X820776Y229665D01*
X820751Y229771D01*
X820729Y229878D01*
X820712Y229986D01*
X820698Y230094D01*
X820688Y230202D01*
X820682Y230311D01*
X820680Y230420D01*
X910680Y230420D02*
X910682Y230529D01*
X910688Y230638D01*
X910698Y230746D01*
X910712Y230854D01*
X910729Y230962D01*
X910751Y231069D01*
X910776Y231175D01*
X910806Y231279D01*
X910839Y231383D01*
X910876Y231486D01*
X910916Y231587D01*
X910960Y231686D01*
X911008Y231784D01*
X911060Y231881D01*
X911114Y231975D01*
X911172Y232067D01*
X911234Y232157D01*
X911299Y232244D01*
X911366Y232330D01*
X911437Y232413D01*
X911511Y232493D01*
X911588Y232570D01*
X911667Y232645D01*
X911749Y232716D01*
X911834Y232785D01*
X911921Y232850D01*
X912010Y232913D01*
X912102Y232971D01*
X912196Y233027D01*
X912291Y233079D01*
X912389Y233128D01*
X912488Y233173D01*
X912589Y233215D01*
X912691Y233252D01*
X912794Y233286D01*
X912899Y233317D01*
X913005Y233343D01*
X913111Y233366D01*
X913219Y233384D01*
X913327Y233399D01*
X913435Y233410D01*
X913544Y233417D01*
X913653Y233420D01*
X913762Y233419D01*
X913871Y233414D01*
X913979Y233405D01*
X914087Y233392D01*
X914195Y233375D01*
X914302Y233355D01*
X914408Y233330D01*
X914513Y233302D01*
X914617Y233270D01*
X914720Y233234D01*
X914822Y233194D01*
X914922Y233151D01*
X915020Y233104D01*
X915117Y233054D01*
X915211Y233000D01*
X915304Y232942D01*
X915395Y232882D01*
X915483Y232818D01*
X915569Y232751D01*
X915652Y232681D01*
X915733Y232608D01*
X915811Y232532D01*
X915886Y232453D01*
X915959Y232371D01*
X916028Y232287D01*
X916094Y232201D01*
X916157Y232112D01*
X916217Y232021D01*
X916274Y231928D01*
X916327Y231833D01*
X916376Y231736D01*
X916422Y231637D01*
X916464Y231537D01*
X916503Y231435D01*
X916538Y231331D01*
X916569Y231227D01*
X916597Y231122D01*
X916620Y231015D01*
X916640Y230908D01*
X916656Y230800D01*
X916668Y230692D01*
X916676Y230583D01*
X916680Y230474D01*
X916680Y230366D01*
X916676Y230257D01*
X916668Y230148D01*
X916656Y230040D01*
X916640Y229932D01*
X916620Y229825D01*
X916597Y229718D01*
X916569Y229613D01*
X916538Y229509D01*
X916503Y229405D01*
X916464Y229303D01*
X916422Y229203D01*
X916376Y229104D01*
X916327Y229007D01*
X916274Y228912D01*
X916217Y228819D01*
X916157Y228728D01*
X916094Y228639D01*
X916028Y228553D01*
X915959Y228469D01*
X915886Y228387D01*
X915811Y228308D01*
X915733Y228232D01*
X915652Y228159D01*
X915569Y228089D01*
X915483Y228022D01*
X915395Y227958D01*
X915304Y227898D01*
X915211Y227840D01*
X915117Y227786D01*
X915020Y227736D01*
X914922Y227689D01*
X914822Y227646D01*
X914720Y227606D01*
X914617Y227570D01*
X914513Y227538D01*
X914408Y227510D01*
X914302Y227485D01*
X914195Y227465D01*
X914087Y227448D01*
X913979Y227435D01*
X913871Y227426D01*
X913762Y227421D01*
X913653Y227420D01*
X913544Y227423D01*
X913435Y227430D01*
X913327Y227441D01*
X913219Y227456D01*
X913111Y227474D01*
X913005Y227497D01*
X912899Y227523D01*
X912794Y227554D01*
X912691Y227588D01*
X912589Y227625D01*
X912488Y227667D01*
X912389Y227712D01*
X912291Y227761D01*
X912196Y227813D01*
X912102Y227869D01*
X912010Y227927D01*
X911921Y227990D01*
X911834Y228055D01*
X911749Y228124D01*
X911667Y228195D01*
X911588Y228270D01*
X911511Y228347D01*
X911437Y228427D01*
X911366Y228510D01*
X911299Y228596D01*
X911234Y228683D01*
X911172Y228773D01*
X911114Y228865D01*
X911060Y228959D01*
X911008Y229056D01*
X910960Y229154D01*
X910916Y229253D01*
X910876Y229354D01*
X910839Y229457D01*
X910806Y229561D01*
X910776Y229665D01*
X910751Y229771D01*
X910729Y229878D01*
X910712Y229986D01*
X910698Y230094D01*
X910688Y230202D01*
X910682Y230311D01*
X910680Y230420D01*
X910680Y140420D02*
X910682Y140529D01*
X910688Y140638D01*
X910698Y140746D01*
X910712Y140854D01*
X910729Y140962D01*
X910751Y141069D01*
X910776Y141175D01*
X910806Y141279D01*
X910839Y141383D01*
X910876Y141486D01*
X910916Y141587D01*
X910960Y141686D01*
X911008Y141784D01*
X911060Y141881D01*
X911114Y141975D01*
X911172Y142067D01*
X911234Y142157D01*
X911299Y142244D01*
X911366Y142330D01*
X911437Y142413D01*
X911511Y142493D01*
X911588Y142570D01*
X911667Y142645D01*
X911749Y142716D01*
X911834Y142785D01*
X911921Y142850D01*
X912010Y142913D01*
X912102Y142971D01*
X912196Y143027D01*
X912291Y143079D01*
X912389Y143128D01*
X912488Y143173D01*
X912589Y143215D01*
X912691Y143252D01*
X912794Y143286D01*
X912899Y143317D01*
X913005Y143343D01*
X913111Y143366D01*
X913219Y143384D01*
X913327Y143399D01*
X913435Y143410D01*
X913544Y143417D01*
X913653Y143420D01*
X913762Y143419D01*
X913871Y143414D01*
X913979Y143405D01*
X914087Y143392D01*
X914195Y143375D01*
X914302Y143355D01*
X914408Y143330D01*
X914513Y143302D01*
X914617Y143270D01*
X914720Y143234D01*
X914822Y143194D01*
X914922Y143151D01*
X915020Y143104D01*
X915117Y143054D01*
X915211Y143000D01*
X915304Y142942D01*
X915395Y142882D01*
X915483Y142818D01*
X915569Y142751D01*
X915652Y142681D01*
X915733Y142608D01*
X915811Y142532D01*
X915886Y142453D01*
X915959Y142371D01*
X916028Y142287D01*
X916094Y142201D01*
X916157Y142112D01*
X916217Y142021D01*
X916274Y141928D01*
X916327Y141833D01*
X916376Y141736D01*
X916422Y141637D01*
X916464Y141537D01*
X916503Y141435D01*
X916538Y141331D01*
X916569Y141227D01*
X916597Y141122D01*
X916620Y141015D01*
X916640Y140908D01*
X916656Y140800D01*
X916668Y140692D01*
X916676Y140583D01*
X916680Y140474D01*
X916680Y140366D01*
X916676Y140257D01*
X916668Y140148D01*
X916656Y140040D01*
X916640Y139932D01*
X916620Y139825D01*
X916597Y139718D01*
X916569Y139613D01*
X916538Y139509D01*
X916503Y139405D01*
X916464Y139303D01*
X916422Y139203D01*
X916376Y139104D01*
X916327Y139007D01*
X916274Y138912D01*
X916217Y138819D01*
X916157Y138728D01*
X916094Y138639D01*
X916028Y138553D01*
X915959Y138469D01*
X915886Y138387D01*
X915811Y138308D01*
X915733Y138232D01*
X915652Y138159D01*
X915569Y138089D01*
X915483Y138022D01*
X915395Y137958D01*
X915304Y137898D01*
X915211Y137840D01*
X915117Y137786D01*
X915020Y137736D01*
X914922Y137689D01*
X914822Y137646D01*
X914720Y137606D01*
X914617Y137570D01*
X914513Y137538D01*
X914408Y137510D01*
X914302Y137485D01*
X914195Y137465D01*
X914087Y137448D01*
X913979Y137435D01*
X913871Y137426D01*
X913762Y137421D01*
X913653Y137420D01*
X913544Y137423D01*
X913435Y137430D01*
X913327Y137441D01*
X913219Y137456D01*
X913111Y137474D01*
X913005Y137497D01*
X912899Y137523D01*
X912794Y137554D01*
X912691Y137588D01*
X912589Y137625D01*
X912488Y137667D01*
X912389Y137712D01*
X912291Y137761D01*
X912196Y137813D01*
X912102Y137869D01*
X912010Y137927D01*
X911921Y137990D01*
X911834Y138055D01*
X911749Y138124D01*
X911667Y138195D01*
X911588Y138270D01*
X911511Y138347D01*
X911437Y138427D01*
X911366Y138510D01*
X911299Y138596D01*
X911234Y138683D01*
X911172Y138773D01*
X911114Y138865D01*
X911060Y138959D01*
X911008Y139056D01*
X910960Y139154D01*
X910916Y139253D01*
X910876Y139354D01*
X910839Y139457D01*
X910806Y139561D01*
X910776Y139665D01*
X910751Y139771D01*
X910729Y139878D01*
X910712Y139986D01*
X910698Y140094D01*
X910688Y140202D01*
X910682Y140311D01*
X910680Y140420D01*
D12*
X918680Y125420D02*
X928680Y135420D01*
X928680Y235420D02*
X918680Y245420D01*
X818680Y245420D02*
X808680Y235420D01*
X808680Y135420D02*
X818680Y125420D01*
D15*
X800985Y182857D02*
X801790Y183662D01*
X800985Y182857D02*
X800985Y181247D01*
X801790Y180442D01*
X802595Y180442D01*
X803400Y181247D01*
X803400Y182857D01*
X804205Y183662D01*
X805010Y183662D01*
X805815Y182857D01*
X805815Y181247D01*
X805010Y180442D01*
X801790Y186055D02*
X800985Y186860D01*
X800985Y188470D01*
X801790Y189275D01*
X802595Y189275D01*
X803400Y188470D01*
X803400Y187665D01*
X803400Y188470D02*
X804205Y189275D01*
X805010Y189275D01*
X805815Y188470D01*
X805815Y186860D01*
X805010Y186055D01*
D12*
X419740Y125420D02*
X409740Y125420D01*
X399740Y135420D02*
X399740Y235420D01*
X409740Y245420D02*
X419740Y245420D01*
X449740Y245420D02*
X469740Y245420D01*
X499740Y245420D02*
X509740Y245420D01*
X519740Y235420D02*
X519740Y135420D01*
X509740Y125420D02*
X499740Y125420D01*
X469740Y125420D02*
X449740Y125420D01*
X424740Y185420D02*
X424751Y186279D01*
X424782Y187137D01*
X424835Y187995D01*
X424909Y188851D01*
X425003Y189704D01*
X425119Y190556D01*
X425255Y191404D01*
X425413Y192248D01*
X425590Y193089D01*
X425789Y193924D01*
X426008Y194755D01*
X426247Y195580D01*
X426507Y196399D01*
X426786Y197211D01*
X427085Y198016D01*
X427404Y198814D01*
X427743Y199603D01*
X428100Y200384D01*
X428477Y201156D01*
X428873Y201919D01*
X429287Y202671D01*
X429719Y203414D01*
X430170Y204145D01*
X430639Y204865D01*
X431125Y205573D01*
X431628Y206269D01*
X432148Y206953D01*
X432685Y207624D01*
X433238Y208281D01*
X433807Y208925D01*
X434391Y209554D01*
X434991Y210169D01*
X435606Y210769D01*
X436235Y211353D01*
X436879Y211922D01*
X437536Y212475D01*
X438207Y213012D01*
X438891Y213532D01*
X439587Y214035D01*
X440295Y214521D01*
X441015Y214990D01*
X441746Y215441D01*
X442489Y215873D01*
X443241Y216287D01*
X444004Y216683D01*
X444776Y217060D01*
X445557Y217417D01*
X446346Y217756D01*
X447144Y218075D01*
X447949Y218374D01*
X448761Y218653D01*
X449580Y218913D01*
X450405Y219152D01*
X451236Y219371D01*
X452071Y219570D01*
X452912Y219747D01*
X453756Y219905D01*
X454604Y220041D01*
X455456Y220157D01*
X456309Y220251D01*
X457165Y220325D01*
X458023Y220378D01*
X458881Y220409D01*
X459740Y220420D01*
X460599Y220409D01*
X461457Y220378D01*
X462315Y220325D01*
X463171Y220251D01*
X464024Y220157D01*
X464876Y220041D01*
X465724Y219905D01*
X466568Y219747D01*
X467409Y219570D01*
X468244Y219371D01*
X469075Y219152D01*
X469900Y218913D01*
X470719Y218653D01*
X471531Y218374D01*
X472336Y218075D01*
X473134Y217756D01*
X473923Y217417D01*
X474704Y217060D01*
X475476Y216683D01*
X476239Y216287D01*
X476991Y215873D01*
X477734Y215441D01*
X478465Y214990D01*
X479185Y214521D01*
X479893Y214035D01*
X480589Y213532D01*
X481273Y213012D01*
X481944Y212475D01*
X482601Y211922D01*
X483245Y211353D01*
X483874Y210769D01*
X484489Y210169D01*
X485089Y209554D01*
X485673Y208925D01*
X486242Y208281D01*
X486795Y207624D01*
X487332Y206953D01*
X487852Y206269D01*
X488355Y205573D01*
X488841Y204865D01*
X489310Y204145D01*
X489761Y203414D01*
X490193Y202671D01*
X490607Y201919D01*
X491003Y201156D01*
X491380Y200384D01*
X491737Y199603D01*
X492076Y198814D01*
X492395Y198016D01*
X492694Y197211D01*
X492973Y196399D01*
X493233Y195580D01*
X493472Y194755D01*
X493691Y193924D01*
X493890Y193089D01*
X494067Y192248D01*
X494225Y191404D01*
X494361Y190556D01*
X494477Y189704D01*
X494571Y188851D01*
X494645Y187995D01*
X494698Y187137D01*
X494729Y186279D01*
X494740Y185420D01*
X494729Y184561D01*
X494698Y183703D01*
X494645Y182845D01*
X494571Y181989D01*
X494477Y181136D01*
X494361Y180284D01*
X494225Y179436D01*
X494067Y178592D01*
X493890Y177751D01*
X493691Y176916D01*
X493472Y176085D01*
X493233Y175260D01*
X492973Y174441D01*
X492694Y173629D01*
X492395Y172824D01*
X492076Y172026D01*
X491737Y171237D01*
X491380Y170456D01*
X491003Y169684D01*
X490607Y168921D01*
X490193Y168169D01*
X489761Y167426D01*
X489310Y166695D01*
X488841Y165975D01*
X488355Y165267D01*
X487852Y164571D01*
X487332Y163887D01*
X486795Y163216D01*
X486242Y162559D01*
X485673Y161915D01*
X485089Y161286D01*
X484489Y160671D01*
X483874Y160071D01*
X483245Y159487D01*
X482601Y158918D01*
X481944Y158365D01*
X481273Y157828D01*
X480589Y157308D01*
X479893Y156805D01*
X479185Y156319D01*
X478465Y155850D01*
X477734Y155399D01*
X476991Y154967D01*
X476239Y154553D01*
X475476Y154157D01*
X474704Y153780D01*
X473923Y153423D01*
X473134Y153084D01*
X472336Y152765D01*
X471531Y152466D01*
X470719Y152187D01*
X469900Y151927D01*
X469075Y151688D01*
X468244Y151469D01*
X467409Y151270D01*
X466568Y151093D01*
X465724Y150935D01*
X464876Y150799D01*
X464024Y150683D01*
X463171Y150589D01*
X462315Y150515D01*
X461457Y150462D01*
X460599Y150431D01*
X459740Y150420D01*
X458881Y150431D01*
X458023Y150462D01*
X457165Y150515D01*
X456309Y150589D01*
X455456Y150683D01*
X454604Y150799D01*
X453756Y150935D01*
X452912Y151093D01*
X452071Y151270D01*
X451236Y151469D01*
X450405Y151688D01*
X449580Y151927D01*
X448761Y152187D01*
X447949Y152466D01*
X447144Y152765D01*
X446346Y153084D01*
X445557Y153423D01*
X444776Y153780D01*
X444004Y154157D01*
X443241Y154553D01*
X442489Y154967D01*
X441746Y155399D01*
X441015Y155850D01*
X440295Y156319D01*
X439587Y156805D01*
X438891Y157308D01*
X438207Y157828D01*
X437536Y158365D01*
X436879Y158918D01*
X436235Y159487D01*
X435606Y160071D01*
X434991Y160671D01*
X434391Y161286D01*
X433807Y161915D01*
X433238Y162559D01*
X432685Y163216D01*
X432148Y163887D01*
X431628Y164571D01*
X431125Y165267D01*
X430639Y165975D01*
X430170Y166695D01*
X429719Y167426D01*
X429287Y168169D01*
X428873Y168921D01*
X428477Y169684D01*
X428100Y170456D01*
X427743Y171237D01*
X427404Y172026D01*
X427085Y172824D01*
X426786Y173629D01*
X426507Y174441D01*
X426247Y175260D01*
X426008Y176085D01*
X425789Y176916D01*
X425590Y177751D01*
X425413Y178592D01*
X425255Y179436D01*
X425119Y180284D01*
X425003Y181136D01*
X424909Y181989D01*
X424835Y182845D01*
X424782Y183703D01*
X424751Y184561D01*
X424740Y185420D01*
D18*
X411740Y140420D02*
X411742Y140529D01*
X411748Y140638D01*
X411758Y140746D01*
X411772Y140854D01*
X411789Y140962D01*
X411811Y141069D01*
X411836Y141175D01*
X411866Y141279D01*
X411899Y141383D01*
X411936Y141486D01*
X411976Y141587D01*
X412020Y141686D01*
X412068Y141784D01*
X412120Y141881D01*
X412174Y141975D01*
X412232Y142067D01*
X412294Y142157D01*
X412359Y142244D01*
X412426Y142330D01*
X412497Y142413D01*
X412571Y142493D01*
X412648Y142570D01*
X412727Y142645D01*
X412809Y142716D01*
X412894Y142785D01*
X412981Y142850D01*
X413070Y142913D01*
X413162Y142971D01*
X413256Y143027D01*
X413351Y143079D01*
X413449Y143128D01*
X413548Y143173D01*
X413649Y143215D01*
X413751Y143252D01*
X413854Y143286D01*
X413959Y143317D01*
X414065Y143343D01*
X414171Y143366D01*
X414279Y143384D01*
X414387Y143399D01*
X414495Y143410D01*
X414604Y143417D01*
X414713Y143420D01*
X414822Y143419D01*
X414931Y143414D01*
X415039Y143405D01*
X415147Y143392D01*
X415255Y143375D01*
X415362Y143355D01*
X415468Y143330D01*
X415573Y143302D01*
X415677Y143270D01*
X415780Y143234D01*
X415882Y143194D01*
X415982Y143151D01*
X416080Y143104D01*
X416177Y143054D01*
X416271Y143000D01*
X416364Y142942D01*
X416455Y142882D01*
X416543Y142818D01*
X416629Y142751D01*
X416712Y142681D01*
X416793Y142608D01*
X416871Y142532D01*
X416946Y142453D01*
X417019Y142371D01*
X417088Y142287D01*
X417154Y142201D01*
X417217Y142112D01*
X417277Y142021D01*
X417334Y141928D01*
X417387Y141833D01*
X417436Y141736D01*
X417482Y141637D01*
X417524Y141537D01*
X417563Y141435D01*
X417598Y141331D01*
X417629Y141227D01*
X417657Y141122D01*
X417680Y141015D01*
X417700Y140908D01*
X417716Y140800D01*
X417728Y140692D01*
X417736Y140583D01*
X417740Y140474D01*
X417740Y140366D01*
X417736Y140257D01*
X417728Y140148D01*
X417716Y140040D01*
X417700Y139932D01*
X417680Y139825D01*
X417657Y139718D01*
X417629Y139613D01*
X417598Y139509D01*
X417563Y139405D01*
X417524Y139303D01*
X417482Y139203D01*
X417436Y139104D01*
X417387Y139007D01*
X417334Y138912D01*
X417277Y138819D01*
X417217Y138728D01*
X417154Y138639D01*
X417088Y138553D01*
X417019Y138469D01*
X416946Y138387D01*
X416871Y138308D01*
X416793Y138232D01*
X416712Y138159D01*
X416629Y138089D01*
X416543Y138022D01*
X416455Y137958D01*
X416364Y137898D01*
X416271Y137840D01*
X416177Y137786D01*
X416080Y137736D01*
X415982Y137689D01*
X415882Y137646D01*
X415780Y137606D01*
X415677Y137570D01*
X415573Y137538D01*
X415468Y137510D01*
X415362Y137485D01*
X415255Y137465D01*
X415147Y137448D01*
X415039Y137435D01*
X414931Y137426D01*
X414822Y137421D01*
X414713Y137420D01*
X414604Y137423D01*
X414495Y137430D01*
X414387Y137441D01*
X414279Y137456D01*
X414171Y137474D01*
X414065Y137497D01*
X413959Y137523D01*
X413854Y137554D01*
X413751Y137588D01*
X413649Y137625D01*
X413548Y137667D01*
X413449Y137712D01*
X413351Y137761D01*
X413256Y137813D01*
X413162Y137869D01*
X413070Y137927D01*
X412981Y137990D01*
X412894Y138055D01*
X412809Y138124D01*
X412727Y138195D01*
X412648Y138270D01*
X412571Y138347D01*
X412497Y138427D01*
X412426Y138510D01*
X412359Y138596D01*
X412294Y138683D01*
X412232Y138773D01*
X412174Y138865D01*
X412120Y138959D01*
X412068Y139056D01*
X412020Y139154D01*
X411976Y139253D01*
X411936Y139354D01*
X411899Y139457D01*
X411866Y139561D01*
X411836Y139665D01*
X411811Y139771D01*
X411789Y139878D01*
X411772Y139986D01*
X411758Y140094D01*
X411748Y140202D01*
X411742Y140311D01*
X411740Y140420D01*
X411740Y230420D02*
X411742Y230529D01*
X411748Y230638D01*
X411758Y230746D01*
X411772Y230854D01*
X411789Y230962D01*
X411811Y231069D01*
X411836Y231175D01*
X411866Y231279D01*
X411899Y231383D01*
X411936Y231486D01*
X411976Y231587D01*
X412020Y231686D01*
X412068Y231784D01*
X412120Y231881D01*
X412174Y231975D01*
X412232Y232067D01*
X412294Y232157D01*
X412359Y232244D01*
X412426Y232330D01*
X412497Y232413D01*
X412571Y232493D01*
X412648Y232570D01*
X412727Y232645D01*
X412809Y232716D01*
X412894Y232785D01*
X412981Y232850D01*
X413070Y232913D01*
X413162Y232971D01*
X413256Y233027D01*
X413351Y233079D01*
X413449Y233128D01*
X413548Y233173D01*
X413649Y233215D01*
X413751Y233252D01*
X413854Y233286D01*
X413959Y233317D01*
X414065Y233343D01*
X414171Y233366D01*
X414279Y233384D01*
X414387Y233399D01*
X414495Y233410D01*
X414604Y233417D01*
X414713Y233420D01*
X414822Y233419D01*
X414931Y233414D01*
X415039Y233405D01*
X415147Y233392D01*
X415255Y233375D01*
X415362Y233355D01*
X415468Y233330D01*
X415573Y233302D01*
X415677Y233270D01*
X415780Y233234D01*
X415882Y233194D01*
X415982Y233151D01*
X416080Y233104D01*
X416177Y233054D01*
X416271Y233000D01*
X416364Y232942D01*
X416455Y232882D01*
X416543Y232818D01*
X416629Y232751D01*
X416712Y232681D01*
X416793Y232608D01*
X416871Y232532D01*
X416946Y232453D01*
X417019Y232371D01*
X417088Y232287D01*
X417154Y232201D01*
X417217Y232112D01*
X417277Y232021D01*
X417334Y231928D01*
X417387Y231833D01*
X417436Y231736D01*
X417482Y231637D01*
X417524Y231537D01*
X417563Y231435D01*
X417598Y231331D01*
X417629Y231227D01*
X417657Y231122D01*
X417680Y231015D01*
X417700Y230908D01*
X417716Y230800D01*
X417728Y230692D01*
X417736Y230583D01*
X417740Y230474D01*
X417740Y230366D01*
X417736Y230257D01*
X417728Y230148D01*
X417716Y230040D01*
X417700Y229932D01*
X417680Y229825D01*
X417657Y229718D01*
X417629Y229613D01*
X417598Y229509D01*
X417563Y229405D01*
X417524Y229303D01*
X417482Y229203D01*
X417436Y229104D01*
X417387Y229007D01*
X417334Y228912D01*
X417277Y228819D01*
X417217Y228728D01*
X417154Y228639D01*
X417088Y228553D01*
X417019Y228469D01*
X416946Y228387D01*
X416871Y228308D01*
X416793Y228232D01*
X416712Y228159D01*
X416629Y228089D01*
X416543Y228022D01*
X416455Y227958D01*
X416364Y227898D01*
X416271Y227840D01*
X416177Y227786D01*
X416080Y227736D01*
X415982Y227689D01*
X415882Y227646D01*
X415780Y227606D01*
X415677Y227570D01*
X415573Y227538D01*
X415468Y227510D01*
X415362Y227485D01*
X415255Y227465D01*
X415147Y227448D01*
X415039Y227435D01*
X414931Y227426D01*
X414822Y227421D01*
X414713Y227420D01*
X414604Y227423D01*
X414495Y227430D01*
X414387Y227441D01*
X414279Y227456D01*
X414171Y227474D01*
X414065Y227497D01*
X413959Y227523D01*
X413854Y227554D01*
X413751Y227588D01*
X413649Y227625D01*
X413548Y227667D01*
X413449Y227712D01*
X413351Y227761D01*
X413256Y227813D01*
X413162Y227869D01*
X413070Y227927D01*
X412981Y227990D01*
X412894Y228055D01*
X412809Y228124D01*
X412727Y228195D01*
X412648Y228270D01*
X412571Y228347D01*
X412497Y228427D01*
X412426Y228510D01*
X412359Y228596D01*
X412294Y228683D01*
X412232Y228773D01*
X412174Y228865D01*
X412120Y228959D01*
X412068Y229056D01*
X412020Y229154D01*
X411976Y229253D01*
X411936Y229354D01*
X411899Y229457D01*
X411866Y229561D01*
X411836Y229665D01*
X411811Y229771D01*
X411789Y229878D01*
X411772Y229986D01*
X411758Y230094D01*
X411748Y230202D01*
X411742Y230311D01*
X411740Y230420D01*
X501740Y230420D02*
X501742Y230529D01*
X501748Y230638D01*
X501758Y230746D01*
X501772Y230854D01*
X501789Y230962D01*
X501811Y231069D01*
X501836Y231175D01*
X501866Y231279D01*
X501899Y231383D01*
X501936Y231486D01*
X501976Y231587D01*
X502020Y231686D01*
X502068Y231784D01*
X502120Y231881D01*
X502174Y231975D01*
X502232Y232067D01*
X502294Y232157D01*
X502359Y232244D01*
X502426Y232330D01*
X502497Y232413D01*
X502571Y232493D01*
X502648Y232570D01*
X502727Y232645D01*
X502809Y232716D01*
X502894Y232785D01*
X502981Y232850D01*
X503070Y232913D01*
X503162Y232971D01*
X503256Y233027D01*
X503351Y233079D01*
X503449Y233128D01*
X503548Y233173D01*
X503649Y233215D01*
X503751Y233252D01*
X503854Y233286D01*
X503959Y233317D01*
X504065Y233343D01*
X504171Y233366D01*
X504279Y233384D01*
X504387Y233399D01*
X504495Y233410D01*
X504604Y233417D01*
X504713Y233420D01*
X504822Y233419D01*
X504931Y233414D01*
X505039Y233405D01*
X505147Y233392D01*
X505255Y233375D01*
X505362Y233355D01*
X505468Y233330D01*
X505573Y233302D01*
X505677Y233270D01*
X505780Y233234D01*
X505882Y233194D01*
X505982Y233151D01*
X506080Y233104D01*
X506177Y233054D01*
X506271Y233000D01*
X506364Y232942D01*
X506455Y232882D01*
X506543Y232818D01*
X506629Y232751D01*
X506712Y232681D01*
X506793Y232608D01*
X506871Y232532D01*
X506946Y232453D01*
X507019Y232371D01*
X507088Y232287D01*
X507154Y232201D01*
X507217Y232112D01*
X507277Y232021D01*
X507334Y231928D01*
X507387Y231833D01*
X507436Y231736D01*
X507482Y231637D01*
X507524Y231537D01*
X507563Y231435D01*
X507598Y231331D01*
X507629Y231227D01*
X507657Y231122D01*
X507680Y231015D01*
X507700Y230908D01*
X507716Y230800D01*
X507728Y230692D01*
X507736Y230583D01*
X507740Y230474D01*
X507740Y230366D01*
X507736Y230257D01*
X507728Y230148D01*
X507716Y230040D01*
X507700Y229932D01*
X507680Y229825D01*
X507657Y229718D01*
X507629Y229613D01*
X507598Y229509D01*
X507563Y229405D01*
X507524Y229303D01*
X507482Y229203D01*
X507436Y229104D01*
X507387Y229007D01*
X507334Y228912D01*
X507277Y228819D01*
X507217Y228728D01*
X507154Y228639D01*
X507088Y228553D01*
X507019Y228469D01*
X506946Y228387D01*
X506871Y228308D01*
X506793Y228232D01*
X506712Y228159D01*
X506629Y228089D01*
X506543Y228022D01*
X506455Y227958D01*
X506364Y227898D01*
X506271Y227840D01*
X506177Y227786D01*
X506080Y227736D01*
X505982Y227689D01*
X505882Y227646D01*
X505780Y227606D01*
X505677Y227570D01*
X505573Y227538D01*
X505468Y227510D01*
X505362Y227485D01*
X505255Y227465D01*
X505147Y227448D01*
X505039Y227435D01*
X504931Y227426D01*
X504822Y227421D01*
X504713Y227420D01*
X504604Y227423D01*
X504495Y227430D01*
X504387Y227441D01*
X504279Y227456D01*
X504171Y227474D01*
X504065Y227497D01*
X503959Y227523D01*
X503854Y227554D01*
X503751Y227588D01*
X503649Y227625D01*
X503548Y227667D01*
X503449Y227712D01*
X503351Y227761D01*
X503256Y227813D01*
X503162Y227869D01*
X503070Y227927D01*
X502981Y227990D01*
X502894Y228055D01*
X502809Y228124D01*
X502727Y228195D01*
X502648Y228270D01*
X502571Y228347D01*
X502497Y228427D01*
X502426Y228510D01*
X502359Y228596D01*
X502294Y228683D01*
X502232Y228773D01*
X502174Y228865D01*
X502120Y228959D01*
X502068Y229056D01*
X502020Y229154D01*
X501976Y229253D01*
X501936Y229354D01*
X501899Y229457D01*
X501866Y229561D01*
X501836Y229665D01*
X501811Y229771D01*
X501789Y229878D01*
X501772Y229986D01*
X501758Y230094D01*
X501748Y230202D01*
X501742Y230311D01*
X501740Y230420D01*
X501740Y140420D02*
X501742Y140529D01*
X501748Y140638D01*
X501758Y140746D01*
X501772Y140854D01*
X501789Y140962D01*
X501811Y141069D01*
X501836Y141175D01*
X501866Y141279D01*
X501899Y141383D01*
X501936Y141486D01*
X501976Y141587D01*
X502020Y141686D01*
X502068Y141784D01*
X502120Y141881D01*
X502174Y141975D01*
X502232Y142067D01*
X502294Y142157D01*
X502359Y142244D01*
X502426Y142330D01*
X502497Y142413D01*
X502571Y142493D01*
X502648Y142570D01*
X502727Y142645D01*
X502809Y142716D01*
X502894Y142785D01*
X502981Y142850D01*
X503070Y142913D01*
X503162Y142971D01*
X503256Y143027D01*
X503351Y143079D01*
X503449Y143128D01*
X503548Y143173D01*
X503649Y143215D01*
X503751Y143252D01*
X503854Y143286D01*
X503959Y143317D01*
X504065Y143343D01*
X504171Y143366D01*
X504279Y143384D01*
X504387Y143399D01*
X504495Y143410D01*
X504604Y143417D01*
X504713Y143420D01*
X504822Y143419D01*
X504931Y143414D01*
X505039Y143405D01*
X505147Y143392D01*
X505255Y143375D01*
X505362Y143355D01*
X505468Y143330D01*
X505573Y143302D01*
X505677Y143270D01*
X505780Y143234D01*
X505882Y143194D01*
X505982Y143151D01*
X506080Y143104D01*
X506177Y143054D01*
X506271Y143000D01*
X506364Y142942D01*
X506455Y142882D01*
X506543Y142818D01*
X506629Y142751D01*
X506712Y142681D01*
X506793Y142608D01*
X506871Y142532D01*
X506946Y142453D01*
X507019Y142371D01*
X507088Y142287D01*
X507154Y142201D01*
X507217Y142112D01*
X507277Y142021D01*
X507334Y141928D01*
X507387Y141833D01*
X507436Y141736D01*
X507482Y141637D01*
X507524Y141537D01*
X507563Y141435D01*
X507598Y141331D01*
X507629Y141227D01*
X507657Y141122D01*
X507680Y141015D01*
X507700Y140908D01*
X507716Y140800D01*
X507728Y140692D01*
X507736Y140583D01*
X507740Y140474D01*
X507740Y140366D01*
X507736Y140257D01*
X507728Y140148D01*
X507716Y140040D01*
X507700Y139932D01*
X507680Y139825D01*
X507657Y139718D01*
X507629Y139613D01*
X507598Y139509D01*
X507563Y139405D01*
X507524Y139303D01*
X507482Y139203D01*
X507436Y139104D01*
X507387Y139007D01*
X507334Y138912D01*
X507277Y138819D01*
X507217Y138728D01*
X507154Y138639D01*
X507088Y138553D01*
X507019Y138469D01*
X506946Y138387D01*
X506871Y138308D01*
X506793Y138232D01*
X506712Y138159D01*
X506629Y138089D01*
X506543Y138022D01*
X506455Y137958D01*
X506364Y137898D01*
X506271Y137840D01*
X506177Y137786D01*
X506080Y137736D01*
X505982Y137689D01*
X505882Y137646D01*
X505780Y137606D01*
X505677Y137570D01*
X505573Y137538D01*
X505468Y137510D01*
X505362Y137485D01*
X505255Y137465D01*
X505147Y137448D01*
X505039Y137435D01*
X504931Y137426D01*
X504822Y137421D01*
X504713Y137420D01*
X504604Y137423D01*
X504495Y137430D01*
X504387Y137441D01*
X504279Y137456D01*
X504171Y137474D01*
X504065Y137497D01*
X503959Y137523D01*
X503854Y137554D01*
X503751Y137588D01*
X503649Y137625D01*
X503548Y137667D01*
X503449Y137712D01*
X503351Y137761D01*
X503256Y137813D01*
X503162Y137869D01*
X503070Y137927D01*
X502981Y137990D01*
X502894Y138055D01*
X502809Y138124D01*
X502727Y138195D01*
X502648Y138270D01*
X502571Y138347D01*
X502497Y138427D01*
X502426Y138510D01*
X502359Y138596D01*
X502294Y138683D01*
X502232Y138773D01*
X502174Y138865D01*
X502120Y138959D01*
X502068Y139056D01*
X502020Y139154D01*
X501976Y139253D01*
X501936Y139354D01*
X501899Y139457D01*
X501866Y139561D01*
X501836Y139665D01*
X501811Y139771D01*
X501789Y139878D01*
X501772Y139986D01*
X501758Y140094D01*
X501748Y140202D01*
X501742Y140311D01*
X501740Y140420D01*
D12*
X509740Y125420D02*
X519740Y135420D01*
X519740Y235420D02*
X509740Y245420D01*
X409740Y245420D02*
X399740Y235420D01*
X399740Y135420D02*
X409740Y125420D01*
D15*
X392045Y182857D02*
X392850Y183662D01*
X392045Y182857D02*
X392045Y181247D01*
X392850Y180442D01*
X393655Y180442D01*
X394460Y181247D01*
X394460Y182857D01*
X395265Y183662D01*
X396070Y183662D01*
X396875Y182857D01*
X396875Y181247D01*
X396070Y180442D01*
X396875Y188470D02*
X392045Y188470D01*
X394460Y186055D01*
X394460Y189275D01*
D12*
X234320Y125420D02*
X224320Y125420D01*
X214320Y135420D02*
X214320Y235420D01*
X224320Y245420D02*
X234320Y245420D01*
X264320Y245420D02*
X284320Y245420D01*
X314320Y245420D02*
X324320Y245420D01*
X334320Y235420D02*
X334320Y135420D01*
X324320Y125420D02*
X314320Y125420D01*
X284320Y125420D02*
X264320Y125420D01*
X239320Y185420D02*
X239331Y186279D01*
X239362Y187137D01*
X239415Y187995D01*
X239489Y188851D01*
X239583Y189704D01*
X239699Y190556D01*
X239835Y191404D01*
X239993Y192248D01*
X240170Y193089D01*
X240369Y193924D01*
X240588Y194755D01*
X240827Y195580D01*
X241087Y196399D01*
X241366Y197211D01*
X241665Y198016D01*
X241984Y198814D01*
X242323Y199603D01*
X242680Y200384D01*
X243057Y201156D01*
X243453Y201919D01*
X243867Y202671D01*
X244299Y203414D01*
X244750Y204145D01*
X245219Y204865D01*
X245705Y205573D01*
X246208Y206269D01*
X246728Y206953D01*
X247265Y207624D01*
X247818Y208281D01*
X248387Y208925D01*
X248971Y209554D01*
X249571Y210169D01*
X250186Y210769D01*
X250815Y211353D01*
X251459Y211922D01*
X252116Y212475D01*
X252787Y213012D01*
X253471Y213532D01*
X254167Y214035D01*
X254875Y214521D01*
X255595Y214990D01*
X256326Y215441D01*
X257069Y215873D01*
X257821Y216287D01*
X258584Y216683D01*
X259356Y217060D01*
X260137Y217417D01*
X260926Y217756D01*
X261724Y218075D01*
X262529Y218374D01*
X263341Y218653D01*
X264160Y218913D01*
X264985Y219152D01*
X265816Y219371D01*
X266651Y219570D01*
X267492Y219747D01*
X268336Y219905D01*
X269184Y220041D01*
X270036Y220157D01*
X270889Y220251D01*
X271745Y220325D01*
X272603Y220378D01*
X273461Y220409D01*
X274320Y220420D01*
X275179Y220409D01*
X276037Y220378D01*
X276895Y220325D01*
X277751Y220251D01*
X278604Y220157D01*
X279456Y220041D01*
X280304Y219905D01*
X281148Y219747D01*
X281989Y219570D01*
X282824Y219371D01*
X283655Y219152D01*
X284480Y218913D01*
X285299Y218653D01*
X286111Y218374D01*
X286916Y218075D01*
X287714Y217756D01*
X288503Y217417D01*
X289284Y217060D01*
X290056Y216683D01*
X290819Y216287D01*
X291571Y215873D01*
X292314Y215441D01*
X293045Y214990D01*
X293765Y214521D01*
X294473Y214035D01*
X295169Y213532D01*
X295853Y213012D01*
X296524Y212475D01*
X297181Y211922D01*
X297825Y211353D01*
X298454Y210769D01*
X299069Y210169D01*
X299669Y209554D01*
X300253Y208925D01*
X300822Y208281D01*
X301375Y207624D01*
X301912Y206953D01*
X302432Y206269D01*
X302935Y205573D01*
X303421Y204865D01*
X303890Y204145D01*
X304341Y203414D01*
X304773Y202671D01*
X305187Y201919D01*
X305583Y201156D01*
X305960Y200384D01*
X306317Y199603D01*
X306656Y198814D01*
X306975Y198016D01*
X307274Y197211D01*
X307553Y196399D01*
X307813Y195580D01*
X308052Y194755D01*
X308271Y193924D01*
X308470Y193089D01*
X308647Y192248D01*
X308805Y191404D01*
X308941Y190556D01*
X309057Y189704D01*
X309151Y188851D01*
X309225Y187995D01*
X309278Y187137D01*
X309309Y186279D01*
X309320Y185420D01*
X309309Y184561D01*
X309278Y183703D01*
X309225Y182845D01*
X309151Y181989D01*
X309057Y181136D01*
X308941Y180284D01*
X308805Y179436D01*
X308647Y178592D01*
X308470Y177751D01*
X308271Y176916D01*
X308052Y176085D01*
X307813Y175260D01*
X307553Y174441D01*
X307274Y173629D01*
X306975Y172824D01*
X306656Y172026D01*
X306317Y171237D01*
X305960Y170456D01*
X305583Y169684D01*
X305187Y168921D01*
X304773Y168169D01*
X304341Y167426D01*
X303890Y166695D01*
X303421Y165975D01*
X302935Y165267D01*
X302432Y164571D01*
X301912Y163887D01*
X301375Y163216D01*
X300822Y162559D01*
X300253Y161915D01*
X299669Y161286D01*
X299069Y160671D01*
X298454Y160071D01*
X297825Y159487D01*
X297181Y158918D01*
X296524Y158365D01*
X295853Y157828D01*
X295169Y157308D01*
X294473Y156805D01*
X293765Y156319D01*
X293045Y155850D01*
X292314Y155399D01*
X291571Y154967D01*
X290819Y154553D01*
X290056Y154157D01*
X289284Y153780D01*
X288503Y153423D01*
X287714Y153084D01*
X286916Y152765D01*
X286111Y152466D01*
X285299Y152187D01*
X284480Y151927D01*
X283655Y151688D01*
X282824Y151469D01*
X281989Y151270D01*
X281148Y151093D01*
X280304Y150935D01*
X279456Y150799D01*
X278604Y150683D01*
X277751Y150589D01*
X276895Y150515D01*
X276037Y150462D01*
X275179Y150431D01*
X274320Y150420D01*
X273461Y150431D01*
X272603Y150462D01*
X271745Y150515D01*
X270889Y150589D01*
X270036Y150683D01*
X269184Y150799D01*
X268336Y150935D01*
X267492Y151093D01*
X266651Y151270D01*
X265816Y151469D01*
X264985Y151688D01*
X264160Y151927D01*
X263341Y152187D01*
X262529Y152466D01*
X261724Y152765D01*
X260926Y153084D01*
X260137Y153423D01*
X259356Y153780D01*
X258584Y154157D01*
X257821Y154553D01*
X257069Y154967D01*
X256326Y155399D01*
X255595Y155850D01*
X254875Y156319D01*
X254167Y156805D01*
X253471Y157308D01*
X252787Y157828D01*
X252116Y158365D01*
X251459Y158918D01*
X250815Y159487D01*
X250186Y160071D01*
X249571Y160671D01*
X248971Y161286D01*
X248387Y161915D01*
X247818Y162559D01*
X247265Y163216D01*
X246728Y163887D01*
X246208Y164571D01*
X245705Y165267D01*
X245219Y165975D01*
X244750Y166695D01*
X244299Y167426D01*
X243867Y168169D01*
X243453Y168921D01*
X243057Y169684D01*
X242680Y170456D01*
X242323Y171237D01*
X241984Y172026D01*
X241665Y172824D01*
X241366Y173629D01*
X241087Y174441D01*
X240827Y175260D01*
X240588Y176085D01*
X240369Y176916D01*
X240170Y177751D01*
X239993Y178592D01*
X239835Y179436D01*
X239699Y180284D01*
X239583Y181136D01*
X239489Y181989D01*
X239415Y182845D01*
X239362Y183703D01*
X239331Y184561D01*
X239320Y185420D01*
D18*
X226320Y140420D02*
X226322Y140529D01*
X226328Y140638D01*
X226338Y140746D01*
X226352Y140854D01*
X226369Y140962D01*
X226391Y141069D01*
X226416Y141175D01*
X226446Y141279D01*
X226479Y141383D01*
X226516Y141486D01*
X226556Y141587D01*
X226600Y141686D01*
X226648Y141784D01*
X226700Y141881D01*
X226754Y141975D01*
X226812Y142067D01*
X226874Y142157D01*
X226939Y142244D01*
X227006Y142330D01*
X227077Y142413D01*
X227151Y142493D01*
X227228Y142570D01*
X227307Y142645D01*
X227389Y142716D01*
X227474Y142785D01*
X227561Y142850D01*
X227650Y142913D01*
X227742Y142971D01*
X227836Y143027D01*
X227931Y143079D01*
X228029Y143128D01*
X228128Y143173D01*
X228229Y143215D01*
X228331Y143252D01*
X228434Y143286D01*
X228539Y143317D01*
X228645Y143343D01*
X228751Y143366D01*
X228859Y143384D01*
X228967Y143399D01*
X229075Y143410D01*
X229184Y143417D01*
X229293Y143420D01*
X229402Y143419D01*
X229511Y143414D01*
X229619Y143405D01*
X229727Y143392D01*
X229835Y143375D01*
X229942Y143355D01*
X230048Y143330D01*
X230153Y143302D01*
X230257Y143270D01*
X230360Y143234D01*
X230462Y143194D01*
X230562Y143151D01*
X230660Y143104D01*
X230757Y143054D01*
X230851Y143000D01*
X230944Y142942D01*
X231035Y142882D01*
X231123Y142818D01*
X231209Y142751D01*
X231292Y142681D01*
X231373Y142608D01*
X231451Y142532D01*
X231526Y142453D01*
X231599Y142371D01*
X231668Y142287D01*
X231734Y142201D01*
X231797Y142112D01*
X231857Y142021D01*
X231914Y141928D01*
X231967Y141833D01*
X232016Y141736D01*
X232062Y141637D01*
X232104Y141537D01*
X232143Y141435D01*
X232178Y141331D01*
X232209Y141227D01*
X232237Y141122D01*
X232260Y141015D01*
X232280Y140908D01*
X232296Y140800D01*
X232308Y140692D01*
X232316Y140583D01*
X232320Y140474D01*
X232320Y140366D01*
X232316Y140257D01*
X232308Y140148D01*
X232296Y140040D01*
X232280Y139932D01*
X232260Y139825D01*
X232237Y139718D01*
X232209Y139613D01*
X232178Y139509D01*
X232143Y139405D01*
X232104Y139303D01*
X232062Y139203D01*
X232016Y139104D01*
X231967Y139007D01*
X231914Y138912D01*
X231857Y138819D01*
X231797Y138728D01*
X231734Y138639D01*
X231668Y138553D01*
X231599Y138469D01*
X231526Y138387D01*
X231451Y138308D01*
X231373Y138232D01*
X231292Y138159D01*
X231209Y138089D01*
X231123Y138022D01*
X231035Y137958D01*
X230944Y137898D01*
X230851Y137840D01*
X230757Y137786D01*
X230660Y137736D01*
X230562Y137689D01*
X230462Y137646D01*
X230360Y137606D01*
X230257Y137570D01*
X230153Y137538D01*
X230048Y137510D01*
X229942Y137485D01*
X229835Y137465D01*
X229727Y137448D01*
X229619Y137435D01*
X229511Y137426D01*
X229402Y137421D01*
X229293Y137420D01*
X229184Y137423D01*
X229075Y137430D01*
X228967Y137441D01*
X228859Y137456D01*
X228751Y137474D01*
X228645Y137497D01*
X228539Y137523D01*
X228434Y137554D01*
X228331Y137588D01*
X228229Y137625D01*
X228128Y137667D01*
X228029Y137712D01*
X227931Y137761D01*
X227836Y137813D01*
X227742Y137869D01*
X227650Y137927D01*
X227561Y137990D01*
X227474Y138055D01*
X227389Y138124D01*
X227307Y138195D01*
X227228Y138270D01*
X227151Y138347D01*
X227077Y138427D01*
X227006Y138510D01*
X226939Y138596D01*
X226874Y138683D01*
X226812Y138773D01*
X226754Y138865D01*
X226700Y138959D01*
X226648Y139056D01*
X226600Y139154D01*
X226556Y139253D01*
X226516Y139354D01*
X226479Y139457D01*
X226446Y139561D01*
X226416Y139665D01*
X226391Y139771D01*
X226369Y139878D01*
X226352Y139986D01*
X226338Y140094D01*
X226328Y140202D01*
X226322Y140311D01*
X226320Y140420D01*
X226320Y230420D02*
X226322Y230529D01*
X226328Y230638D01*
X226338Y230746D01*
X226352Y230854D01*
X226369Y230962D01*
X226391Y231069D01*
X226416Y231175D01*
X226446Y231279D01*
X226479Y231383D01*
X226516Y231486D01*
X226556Y231587D01*
X226600Y231686D01*
X226648Y231784D01*
X226700Y231881D01*
X226754Y231975D01*
X226812Y232067D01*
X226874Y232157D01*
X226939Y232244D01*
X227006Y232330D01*
X227077Y232413D01*
X227151Y232493D01*
X227228Y232570D01*
X227307Y232645D01*
X227389Y232716D01*
X227474Y232785D01*
X227561Y232850D01*
X227650Y232913D01*
X227742Y232971D01*
X227836Y233027D01*
X227931Y233079D01*
X228029Y233128D01*
X228128Y233173D01*
X228229Y233215D01*
X228331Y233252D01*
X228434Y233286D01*
X228539Y233317D01*
X228645Y233343D01*
X228751Y233366D01*
X228859Y233384D01*
X228967Y233399D01*
X229075Y233410D01*
X229184Y233417D01*
X229293Y233420D01*
X229402Y233419D01*
X229511Y233414D01*
X229619Y233405D01*
X229727Y233392D01*
X229835Y233375D01*
X229942Y233355D01*
X230048Y233330D01*
X230153Y233302D01*
X230257Y233270D01*
X230360Y233234D01*
X230462Y233194D01*
X230562Y233151D01*
X230660Y233104D01*
X230757Y233054D01*
X230851Y233000D01*
X230944Y232942D01*
X231035Y232882D01*
X231123Y232818D01*
X231209Y232751D01*
X231292Y232681D01*
X231373Y232608D01*
X231451Y232532D01*
X231526Y232453D01*
X231599Y232371D01*
X231668Y232287D01*
X231734Y232201D01*
X231797Y232112D01*
X231857Y232021D01*
X231914Y231928D01*
X231967Y231833D01*
X232016Y231736D01*
X232062Y231637D01*
X232104Y231537D01*
X232143Y231435D01*
X232178Y231331D01*
X232209Y231227D01*
X232237Y231122D01*
X232260Y231015D01*
X232280Y230908D01*
X232296Y230800D01*
X232308Y230692D01*
X232316Y230583D01*
X232320Y230474D01*
X232320Y230366D01*
X232316Y230257D01*
X232308Y230148D01*
X232296Y230040D01*
X232280Y229932D01*
X232260Y229825D01*
X232237Y229718D01*
X232209Y229613D01*
X232178Y229509D01*
X232143Y229405D01*
X232104Y229303D01*
X232062Y229203D01*
X232016Y229104D01*
X231967Y229007D01*
X231914Y228912D01*
X231857Y228819D01*
X231797Y228728D01*
X231734Y228639D01*
X231668Y228553D01*
X231599Y228469D01*
X231526Y228387D01*
X231451Y228308D01*
X231373Y228232D01*
X231292Y228159D01*
X231209Y228089D01*
X231123Y228022D01*
X231035Y227958D01*
X230944Y227898D01*
X230851Y227840D01*
X230757Y227786D01*
X230660Y227736D01*
X230562Y227689D01*
X230462Y227646D01*
X230360Y227606D01*
X230257Y227570D01*
X230153Y227538D01*
X230048Y227510D01*
X229942Y227485D01*
X229835Y227465D01*
X229727Y227448D01*
X229619Y227435D01*
X229511Y227426D01*
X229402Y227421D01*
X229293Y227420D01*
X229184Y227423D01*
X229075Y227430D01*
X228967Y227441D01*
X228859Y227456D01*
X228751Y227474D01*
X228645Y227497D01*
X228539Y227523D01*
X228434Y227554D01*
X228331Y227588D01*
X228229Y227625D01*
X228128Y227667D01*
X228029Y227712D01*
X227931Y227761D01*
X227836Y227813D01*
X227742Y227869D01*
X227650Y227927D01*
X227561Y227990D01*
X227474Y228055D01*
X227389Y228124D01*
X227307Y228195D01*
X227228Y228270D01*
X227151Y228347D01*
X227077Y228427D01*
X227006Y228510D01*
X226939Y228596D01*
X226874Y228683D01*
X226812Y228773D01*
X226754Y228865D01*
X226700Y228959D01*
X226648Y229056D01*
X226600Y229154D01*
X226556Y229253D01*
X226516Y229354D01*
X226479Y229457D01*
X226446Y229561D01*
X226416Y229665D01*
X226391Y229771D01*
X226369Y229878D01*
X226352Y229986D01*
X226338Y230094D01*
X226328Y230202D01*
X226322Y230311D01*
X226320Y230420D01*
X316320Y230420D02*
X316322Y230529D01*
X316328Y230638D01*
X316338Y230746D01*
X316352Y230854D01*
X316369Y230962D01*
X316391Y231069D01*
X316416Y231175D01*
X316446Y231279D01*
X316479Y231383D01*
X316516Y231486D01*
X316556Y231587D01*
X316600Y231686D01*
X316648Y231784D01*
X316700Y231881D01*
X316754Y231975D01*
X316812Y232067D01*
X316874Y232157D01*
X316939Y232244D01*
X317006Y232330D01*
X317077Y232413D01*
X317151Y232493D01*
X317228Y232570D01*
X317307Y232645D01*
X317389Y232716D01*
X317474Y232785D01*
X317561Y232850D01*
X317650Y232913D01*
X317742Y232971D01*
X317836Y233027D01*
X317931Y233079D01*
X318029Y233128D01*
X318128Y233173D01*
X318229Y233215D01*
X318331Y233252D01*
X318434Y233286D01*
X318539Y233317D01*
X318645Y233343D01*
X318751Y233366D01*
X318859Y233384D01*
X318967Y233399D01*
X319075Y233410D01*
X319184Y233417D01*
X319293Y233420D01*
X319402Y233419D01*
X319511Y233414D01*
X319619Y233405D01*
X319727Y233392D01*
X319835Y233375D01*
X319942Y233355D01*
X320048Y233330D01*
X320153Y233302D01*
X320257Y233270D01*
X320360Y233234D01*
X320462Y233194D01*
X320562Y233151D01*
X320660Y233104D01*
X320757Y233054D01*
X320851Y233000D01*
X320944Y232942D01*
X321035Y232882D01*
X321123Y232818D01*
X321209Y232751D01*
X321292Y232681D01*
X321373Y232608D01*
X321451Y232532D01*
X321526Y232453D01*
X321599Y232371D01*
X321668Y232287D01*
X321734Y232201D01*
X321797Y232112D01*
X321857Y232021D01*
X321914Y231928D01*
X321967Y231833D01*
X322016Y231736D01*
X322062Y231637D01*
X322104Y231537D01*
X322143Y231435D01*
X322178Y231331D01*
X322209Y231227D01*
X322237Y231122D01*
X322260Y231015D01*
X322280Y230908D01*
X322296Y230800D01*
X322308Y230692D01*
X322316Y230583D01*
X322320Y230474D01*
X322320Y230366D01*
X322316Y230257D01*
X322308Y230148D01*
X322296Y230040D01*
X322280Y229932D01*
X322260Y229825D01*
X322237Y229718D01*
X322209Y229613D01*
X322178Y229509D01*
X322143Y229405D01*
X322104Y229303D01*
X322062Y229203D01*
X322016Y229104D01*
X321967Y229007D01*
X321914Y228912D01*
X321857Y228819D01*
X321797Y228728D01*
X321734Y228639D01*
X321668Y228553D01*
X321599Y228469D01*
X321526Y228387D01*
X321451Y228308D01*
X321373Y228232D01*
X321292Y228159D01*
X321209Y228089D01*
X321123Y228022D01*
X321035Y227958D01*
X320944Y227898D01*
X320851Y227840D01*
X320757Y227786D01*
X320660Y227736D01*
X320562Y227689D01*
X320462Y227646D01*
X320360Y227606D01*
X320257Y227570D01*
X320153Y227538D01*
X320048Y227510D01*
X319942Y227485D01*
X319835Y227465D01*
X319727Y227448D01*
X319619Y227435D01*
X319511Y227426D01*
X319402Y227421D01*
X319293Y227420D01*
X319184Y227423D01*
X319075Y227430D01*
X318967Y227441D01*
X318859Y227456D01*
X318751Y227474D01*
X318645Y227497D01*
X318539Y227523D01*
X318434Y227554D01*
X318331Y227588D01*
X318229Y227625D01*
X318128Y227667D01*
X318029Y227712D01*
X317931Y227761D01*
X317836Y227813D01*
X317742Y227869D01*
X317650Y227927D01*
X317561Y227990D01*
X317474Y228055D01*
X317389Y228124D01*
X317307Y228195D01*
X317228Y228270D01*
X317151Y228347D01*
X317077Y228427D01*
X317006Y228510D01*
X316939Y228596D01*
X316874Y228683D01*
X316812Y228773D01*
X316754Y228865D01*
X316700Y228959D01*
X316648Y229056D01*
X316600Y229154D01*
X316556Y229253D01*
X316516Y229354D01*
X316479Y229457D01*
X316446Y229561D01*
X316416Y229665D01*
X316391Y229771D01*
X316369Y229878D01*
X316352Y229986D01*
X316338Y230094D01*
X316328Y230202D01*
X316322Y230311D01*
X316320Y230420D01*
X316320Y140420D02*
X316322Y140529D01*
X316328Y140638D01*
X316338Y140746D01*
X316352Y140854D01*
X316369Y140962D01*
X316391Y141069D01*
X316416Y141175D01*
X316446Y141279D01*
X316479Y141383D01*
X316516Y141486D01*
X316556Y141587D01*
X316600Y141686D01*
X316648Y141784D01*
X316700Y141881D01*
X316754Y141975D01*
X316812Y142067D01*
X316874Y142157D01*
X316939Y142244D01*
X317006Y142330D01*
X317077Y142413D01*
X317151Y142493D01*
X317228Y142570D01*
X317307Y142645D01*
X317389Y142716D01*
X317474Y142785D01*
X317561Y142850D01*
X317650Y142913D01*
X317742Y142971D01*
X317836Y143027D01*
X317931Y143079D01*
X318029Y143128D01*
X318128Y143173D01*
X318229Y143215D01*
X318331Y143252D01*
X318434Y143286D01*
X318539Y143317D01*
X318645Y143343D01*
X318751Y143366D01*
X318859Y143384D01*
X318967Y143399D01*
X319075Y143410D01*
X319184Y143417D01*
X319293Y143420D01*
X319402Y143419D01*
X319511Y143414D01*
X319619Y143405D01*
X319727Y143392D01*
X319835Y143375D01*
X319942Y143355D01*
X320048Y143330D01*
X320153Y143302D01*
X320257Y143270D01*
X320360Y143234D01*
X320462Y143194D01*
X320562Y143151D01*
X320660Y143104D01*
X320757Y143054D01*
X320851Y143000D01*
X320944Y142942D01*
X321035Y142882D01*
X321123Y142818D01*
X321209Y142751D01*
X321292Y142681D01*
X321373Y142608D01*
X321451Y142532D01*
X321526Y142453D01*
X321599Y142371D01*
X321668Y142287D01*
X321734Y142201D01*
X321797Y142112D01*
X321857Y142021D01*
X321914Y141928D01*
X321967Y141833D01*
X322016Y141736D01*
X322062Y141637D01*
X322104Y141537D01*
X322143Y141435D01*
X322178Y141331D01*
X322209Y141227D01*
X322237Y141122D01*
X322260Y141015D01*
X322280Y140908D01*
X322296Y140800D01*
X322308Y140692D01*
X322316Y140583D01*
X322320Y140474D01*
X322320Y140366D01*
X322316Y140257D01*
X322308Y140148D01*
X322296Y140040D01*
X322280Y139932D01*
X322260Y139825D01*
X322237Y139718D01*
X322209Y139613D01*
X322178Y139509D01*
X322143Y139405D01*
X322104Y139303D01*
X322062Y139203D01*
X322016Y139104D01*
X321967Y139007D01*
X321914Y138912D01*
X321857Y138819D01*
X321797Y138728D01*
X321734Y138639D01*
X321668Y138553D01*
X321599Y138469D01*
X321526Y138387D01*
X321451Y138308D01*
X321373Y138232D01*
X321292Y138159D01*
X321209Y138089D01*
X321123Y138022D01*
X321035Y137958D01*
X320944Y137898D01*
X320851Y137840D01*
X320757Y137786D01*
X320660Y137736D01*
X320562Y137689D01*
X320462Y137646D01*
X320360Y137606D01*
X320257Y137570D01*
X320153Y137538D01*
X320048Y137510D01*
X319942Y137485D01*
X319835Y137465D01*
X319727Y137448D01*
X319619Y137435D01*
X319511Y137426D01*
X319402Y137421D01*
X319293Y137420D01*
X319184Y137423D01*
X319075Y137430D01*
X318967Y137441D01*
X318859Y137456D01*
X318751Y137474D01*
X318645Y137497D01*
X318539Y137523D01*
X318434Y137554D01*
X318331Y137588D01*
X318229Y137625D01*
X318128Y137667D01*
X318029Y137712D01*
X317931Y137761D01*
X317836Y137813D01*
X317742Y137869D01*
X317650Y137927D01*
X317561Y137990D01*
X317474Y138055D01*
X317389Y138124D01*
X317307Y138195D01*
X317228Y138270D01*
X317151Y138347D01*
X317077Y138427D01*
X317006Y138510D01*
X316939Y138596D01*
X316874Y138683D01*
X316812Y138773D01*
X316754Y138865D01*
X316700Y138959D01*
X316648Y139056D01*
X316600Y139154D01*
X316556Y139253D01*
X316516Y139354D01*
X316479Y139457D01*
X316446Y139561D01*
X316416Y139665D01*
X316391Y139771D01*
X316369Y139878D01*
X316352Y139986D01*
X316338Y140094D01*
X316328Y140202D01*
X316322Y140311D01*
X316320Y140420D01*
D12*
X324320Y125420D02*
X334320Y135420D01*
X334320Y235420D02*
X324320Y245420D01*
X224320Y245420D02*
X214320Y235420D01*
X214320Y135420D02*
X224320Y125420D01*
D15*
X206625Y182857D02*
X207430Y183662D01*
X206625Y182857D02*
X206625Y181247D01*
X207430Y180442D01*
X208235Y180442D01*
X209040Y181247D01*
X209040Y182857D01*
X209845Y183662D01*
X210650Y183662D01*
X211455Y182857D01*
X211455Y181247D01*
X210650Y180442D01*
X206625Y186055D02*
X206625Y189275D01*
X206625Y186055D02*
X209040Y186055D01*
X208235Y187665D01*
X208235Y188470D01*
X209040Y189275D01*
X210650Y189275D01*
X211455Y188470D01*
X211455Y186860D01*
X210650Y186055D01*
X651510Y72390D02*
X651510Y46990D01*
X651510Y72390D02*
X651510Y97790D01*
X651510Y46990D02*
X321310Y46990D01*
X321310Y97790D01*
X626110Y97790D01*
X635635Y97790D01*
X641985Y97790D01*
X651510Y97790D01*
X651510Y72390D02*
X626110Y72390D01*
X626110Y97790D01*
X641985Y97790D02*
X641985Y100965D01*
X635635Y100965D01*
X635635Y97790D01*
D19*
X638426Y104005D02*
X641477Y107056D01*
X638426Y104005D02*
X638426Y113157D01*
X635376Y113157D02*
X641477Y113157D01*
D15*
X321310Y97790D02*
X143510Y97790D01*
X143510Y46990D01*
X321310Y46990D01*
X654685Y60075D02*
X657905Y55245D01*
X654685Y55245D02*
X657905Y60075D01*
X660298Y58465D02*
X661908Y60075D01*
X661908Y55245D01*
X660298Y55245D02*
X663518Y55245D01*
D12*
X117644Y8260D02*
X82644Y8260D01*
X117644Y8260D02*
X117644Y16260D01*
X92644Y16260D01*
X92644Y28260D01*
X92644Y68260D02*
X92644Y80260D01*
X117644Y80260D01*
X117644Y88260D01*
X82644Y88260D01*
X42644Y68260D02*
X42644Y28260D01*
D15*
X168275Y25570D02*
X169080Y24765D01*
X169885Y24765D01*
X170690Y25570D01*
X170690Y29595D01*
X169885Y29595D02*
X171495Y29595D01*
X176303Y29595D02*
X176303Y24765D01*
X173888Y27180D02*
X176303Y29595D01*
X177108Y27180D02*
X173888Y27180D01*
D16*
X558800Y226060D03*
D11*
X576072Y224282D02*
X576072Y230383D01*
X579123Y230383D01*
X580139Y229366D01*
X580139Y227333D01*
X579123Y226316D01*
X576072Y226316D01*
X578106Y226316D02*
X580139Y224282D01*
X583088Y225299D02*
X584105Y224282D01*
X586139Y224282D01*
X587156Y225299D01*
X587156Y229366D01*
X586139Y230383D01*
X584105Y230383D01*
X583088Y229366D01*
X583088Y228349D01*
X584105Y227333D01*
X587156Y227333D01*
D16*
X558800Y203200D03*
D11*
X576072Y201422D02*
X576072Y207523D01*
X579123Y207523D01*
X580139Y206506D01*
X580139Y204473D01*
X579123Y203456D01*
X576072Y203456D01*
X578106Y203456D02*
X580139Y201422D01*
X583088Y205489D02*
X585122Y207523D01*
X585122Y201422D01*
X583088Y201422D02*
X587156Y201422D01*
X590105Y206506D02*
X591122Y207523D01*
X593155Y207523D01*
X594172Y206506D01*
X594172Y205489D01*
X593155Y204473D01*
X592138Y204473D01*
X593155Y204473D02*
X594172Y203456D01*
X594172Y202439D01*
X593155Y201422D01*
X591122Y201422D01*
X590105Y202439D01*
D16*
X558800Y180340D03*
D11*
X576072Y178562D02*
X576072Y184663D01*
X579123Y184663D01*
X580139Y183646D01*
X580139Y181613D01*
X579123Y180596D01*
X576072Y180596D01*
X578106Y180596D02*
X580139Y178562D01*
X583088Y182629D02*
X585122Y184663D01*
X585122Y178562D01*
X583088Y178562D02*
X587156Y178562D01*
X593155Y178562D02*
X593155Y184663D01*
X590105Y181613D01*
X594172Y181613D01*
D16*
X558800Y157480D03*
D11*
X576072Y155702D02*
X576072Y161803D01*
X579123Y161803D01*
X580139Y160786D01*
X580139Y158753D01*
X579123Y157736D01*
X576072Y157736D01*
X578106Y157736D02*
X580139Y155702D01*
X583088Y159769D02*
X585122Y161803D01*
X585122Y155702D01*
X583088Y155702D02*
X587156Y155702D01*
X590105Y161803D02*
X594172Y161803D01*
X590105Y161803D02*
X590105Y158753D01*
X592138Y159769D01*
X593155Y159769D01*
X594172Y158753D01*
X594172Y156719D01*
X593155Y155702D01*
X591122Y155702D01*
X590105Y156719D01*
D16*
X558800Y134620D03*
D11*
X576072Y132842D02*
X576072Y138943D01*
X579123Y138943D01*
X580139Y137926D01*
X580139Y135893D01*
X579123Y134876D01*
X576072Y134876D01*
X578106Y134876D02*
X580139Y132842D01*
X583088Y136909D02*
X585122Y138943D01*
X585122Y132842D01*
X583088Y132842D02*
X587156Y132842D01*
X592138Y137926D02*
X594172Y138943D01*
X592138Y137926D02*
X590105Y135893D01*
X590105Y133859D01*
X591122Y132842D01*
X593155Y132842D01*
X594172Y133859D01*
X594172Y134876D01*
X593155Y135893D01*
X590105Y135893D01*
D14*
X246918Y302880D02*
X246918Y316880D01*
D11*
X231062Y314043D02*
X231062Y307942D01*
X234113Y307942D01*
X235129Y308959D01*
X235129Y313026D01*
X234113Y314043D01*
X231062Y314043D01*
X240112Y313026D02*
X242146Y314043D01*
X240112Y313026D02*
X238078Y310993D01*
X238078Y308959D01*
X239095Y307942D01*
X241129Y307942D01*
X242146Y308959D01*
X242146Y309976D01*
X241129Y310993D01*
X238078Y310993D01*
D14*
X246918Y288940D02*
X246918Y274940D01*
D11*
X231062Y277462D02*
X231062Y283563D01*
X231062Y277462D02*
X234113Y277462D01*
X235129Y278479D01*
X235129Y282546D01*
X234113Y283563D01*
X231062Y283563D01*
X238078Y283563D02*
X242146Y283563D01*
X242146Y282546D01*
X238078Y278479D01*
X238078Y277462D01*
D12*
X775335Y111443D02*
X775335Y101918D01*
D11*
X779876Y103632D02*
X779876Y109733D01*
X779876Y103632D02*
X782926Y103632D01*
X783943Y104649D01*
X783943Y108716D01*
X782926Y109733D01*
X779876Y109733D01*
X786892Y107699D02*
X788926Y109733D01*
X788926Y103632D01*
X790959Y103632D02*
X786892Y103632D01*
X780177Y84333D02*
X780177Y78232D01*
X780177Y84333D02*
X783228Y84333D01*
X784245Y83316D01*
X784245Y81283D01*
X783228Y80266D01*
X780177Y80266D01*
X782211Y80266D02*
X784245Y78232D01*
X787194Y82299D02*
X789228Y84333D01*
X789228Y78232D01*
X791261Y78232D02*
X787194Y78232D01*
X794210Y84333D02*
X798278Y84333D01*
X798278Y83316D01*
X794210Y79249D01*
X794210Y78232D01*
D12*
X60150Y285270D02*
X51610Y285270D01*
X51610Y354810D02*
X60150Y354810D01*
X41610Y347040D02*
X41610Y293040D01*
X70150Y318770D02*
X70150Y336310D01*
D15*
X71286Y325902D02*
X70481Y325097D01*
X70481Y323487D01*
X71286Y322682D01*
X72091Y322682D01*
X72896Y323487D01*
X72896Y325097D01*
X73701Y325902D01*
X74506Y325902D01*
X75311Y325097D01*
X75311Y323487D01*
X74506Y322682D01*
X71286Y329905D02*
X70481Y331515D01*
X71286Y329905D02*
X72896Y328295D01*
X74506Y328295D01*
X75311Y329100D01*
X75311Y330710D01*
X74506Y331515D01*
X73701Y331515D01*
X72896Y330710D01*
X72896Y328295D01*
D16*
X838200Y81280D03*
D11*
X858012Y78232D02*
X858012Y84333D01*
X861063Y84333D01*
X862079Y83316D01*
X862079Y81283D01*
X861063Y80266D01*
X858012Y80266D01*
X860046Y80266D02*
X862079Y78232D01*
X865028Y82299D02*
X867062Y84333D01*
X867062Y78232D01*
X865028Y78232D02*
X869096Y78232D01*
X872045Y83316D02*
X873062Y84333D01*
X875095Y84333D01*
X876112Y83316D01*
X876112Y82299D01*
X875095Y81283D01*
X876112Y80266D01*
X876112Y79249D01*
X875095Y78232D01*
X873062Y78232D01*
X872045Y79249D01*
X872045Y80266D01*
X873062Y81283D01*
X872045Y82299D01*
X872045Y83316D01*
X873062Y81283D02*
X875095Y81283D01*
D12*
X854075Y58103D02*
X854075Y48578D01*
D11*
X858616Y50292D02*
X858616Y56393D01*
X858616Y50292D02*
X861666Y50292D01*
X862683Y51309D01*
X862683Y55376D01*
X861666Y56393D01*
X858616Y56393D01*
X865632Y50292D02*
X869699Y50292D01*
X865632Y50292D02*
X869699Y54359D01*
X869699Y55376D01*
X868683Y56393D01*
X866649Y56393D01*
X865632Y55376D01*
X856377Y37343D02*
X856377Y31242D01*
X856377Y37343D02*
X859428Y37343D01*
X860445Y36326D01*
X860445Y34293D01*
X859428Y33276D01*
X856377Y33276D01*
X858411Y33276D02*
X860445Y31242D01*
X863394Y35309D02*
X865428Y37343D01*
X865428Y31242D01*
X867461Y31242D02*
X863394Y31242D01*
X870410Y32259D02*
X871427Y31242D01*
X873461Y31242D01*
X874478Y32259D01*
X874478Y36326D01*
X873461Y37343D01*
X871427Y37343D01*
X870410Y36326D01*
X870410Y35309D01*
X871427Y34293D01*
X874478Y34293D01*
D12*
X621040Y337440D02*
X621040Y353440D01*
X654040Y353440D02*
X654040Y337440D01*
X641540Y355940D02*
X633540Y355940D01*
D11*
X630142Y372704D02*
X630142Y378212D01*
X630142Y372704D02*
X631244Y371602D01*
X633447Y371602D01*
X634548Y372704D01*
X634548Y378212D01*
X637626Y378212D02*
X642033Y378212D01*
X637626Y378212D02*
X637626Y374907D01*
X639829Y376008D01*
X640931Y376008D01*
X642033Y374907D01*
X642033Y372704D01*
X640931Y371602D01*
X638728Y371602D01*
X637626Y372704D01*
D20*
X761818Y358140D03*
D11*
X780542Y356362D02*
X780542Y362972D01*
X780542Y356362D02*
X784948Y356362D01*
X788026Y362972D02*
X792433Y362972D01*
X788026Y362972D02*
X788026Y356362D01*
X792433Y356362D01*
X790229Y359667D02*
X788026Y359667D01*
X795510Y362972D02*
X795510Y356362D01*
X798815Y356362D01*
X799917Y357464D01*
X799917Y361870D01*
X798815Y362972D01*
X795510Y362972D01*
X802994Y360768D02*
X805198Y362972D01*
X805198Y356362D01*
X807401Y356362D02*
X802994Y356362D01*
D20*
X685618Y358140D03*
D11*
X706882Y360432D02*
X706882Y353822D01*
X711288Y353822D01*
X714366Y360432D02*
X718773Y360432D01*
X714366Y360432D02*
X714366Y353822D01*
X718773Y353822D01*
X716569Y357127D02*
X714366Y357127D01*
X721850Y360432D02*
X721850Y353822D01*
X725155Y353822D01*
X726257Y354924D01*
X726257Y359330D01*
X725155Y360432D01*
X721850Y360432D01*
X729334Y353822D02*
X733741Y353822D01*
X733741Y358228D02*
X729334Y353822D01*
X733741Y358228D02*
X733741Y359330D01*
X732639Y360432D01*
X730436Y360432D01*
X729334Y359330D01*
D10*
X759460Y341820D02*
X759460Y333820D01*
D11*
X780950Y334264D02*
X780950Y340874D01*
X784254Y340874D01*
X785356Y339772D01*
X785356Y337569D01*
X784254Y336467D01*
X780950Y336467D01*
X783153Y336467D02*
X785356Y334264D01*
X788434Y334264D02*
X792840Y334264D01*
X788434Y334264D02*
X792840Y338670D01*
X792840Y339772D01*
X791739Y340874D01*
X789535Y340874D01*
X788434Y339772D01*
X795918Y339772D02*
X795918Y335366D01*
X795918Y339772D02*
X797019Y340874D01*
X799223Y340874D01*
X800324Y339772D01*
X800324Y335366D01*
X799223Y334264D01*
X797019Y334264D01*
X795918Y335366D01*
X800324Y339772D01*
D10*
X683260Y341820D02*
X683260Y333820D01*
D11*
X701802Y337312D02*
X701802Y343922D01*
X705107Y343922D01*
X706208Y342820D01*
X706208Y340617D01*
X705107Y339515D01*
X701802Y339515D01*
X704005Y339515D02*
X706208Y337312D01*
X709286Y337312D02*
X713693Y337312D01*
X713693Y341718D02*
X709286Y337312D01*
X713693Y341718D02*
X713693Y342820D01*
X712591Y343922D01*
X710388Y343922D01*
X709286Y342820D01*
X716770Y341718D02*
X718974Y343922D01*
X718974Y337312D01*
X721177Y337312D02*
X716770Y337312D01*
D10*
X762000Y317500D02*
X762000Y307340D01*
D11*
X786659Y315474D02*
X787760Y314372D01*
X786659Y315474D02*
X784455Y315474D01*
X783354Y314372D01*
X783354Y309966D01*
X784455Y308864D01*
X786659Y308864D01*
X787760Y309966D01*
X790838Y315474D02*
X795244Y315474D01*
X795244Y314372D01*
X790838Y309966D01*
X790838Y308864D01*
D10*
X640080Y309880D02*
X640080Y299720D01*
D11*
X609960Y304212D02*
X608859Y305314D01*
X606655Y305314D01*
X605554Y304212D01*
X605554Y299806D01*
X606655Y298704D01*
X608859Y298704D01*
X609960Y299806D01*
X613038Y304212D02*
X614139Y305314D01*
X616343Y305314D01*
X617444Y304212D01*
X617444Y303110D01*
X616343Y302009D01*
X617444Y300907D01*
X617444Y299806D01*
X616343Y298704D01*
X614139Y298704D01*
X613038Y299806D01*
X613038Y300907D01*
X614139Y302009D01*
X613038Y303110D01*
X613038Y304212D01*
X614139Y302009D02*
X616343Y302009D01*
D10*
X683260Y308420D02*
X683260Y316420D01*
D11*
X701802Y318522D02*
X701802Y311912D01*
X701802Y318522D02*
X705107Y318522D01*
X706208Y317420D01*
X706208Y315217D01*
X705107Y314115D01*
X701802Y314115D01*
X704005Y314115D02*
X706208Y311912D01*
X709286Y311912D02*
X713693Y311912D01*
X713693Y316318D02*
X709286Y311912D01*
X713693Y316318D02*
X713693Y317420D01*
X712591Y318522D01*
X710388Y318522D01*
X709286Y317420D01*
X716770Y311912D02*
X721177Y311912D01*
X721177Y316318D02*
X716770Y311912D01*
X721177Y316318D02*
X721177Y317420D01*
X720075Y318522D01*
X717872Y318522D01*
X716770Y317420D01*
D19*
X962500Y143260D02*
X976000Y143260D01*
X976000Y232660D02*
X962500Y232660D01*
X1016000Y232660D02*
X1016000Y143260D01*
X1002500Y143260D01*
X1002500Y232660D02*
X1016000Y232660D01*
D11*
X999294Y159704D02*
X1003700Y153094D01*
X999294Y153094D02*
X1003700Y159704D01*
X1006778Y153094D02*
X1011184Y153094D01*
X1006778Y153094D02*
X1011184Y157500D01*
X1011184Y158602D01*
X1010083Y159704D01*
X1007879Y159704D01*
X1006778Y158602D01*
M02*
