G04 EAGLE Gerber RS-274X export*
G75*
%MOMM*%
%FSLAX34Y34*%
%LPD*%
%INSoldermask Bottom*%
%IPPOS*%
%AMOC8*
5,1,8,0,0,1.08239X$1,22.5*%
G01*
%ADD10C,2.743200*%
%ADD11P,2.254402X8X202.500000*%
%ADD12C,2.082800*%
%ADD13R,1.981200X1.981200*%
%ADD14C,1.981200*%
%ADD15C,1.103200*%
%ADD16C,1.203200*%
%ADD17C,0.853200*%


D10*
X63500Y402590D03*
X63500Y-38100D03*
X895350Y38100D03*
X895350Y341630D03*
D11*
X213360Y327660D03*
X213360Y302260D03*
X187960Y327660D03*
X187960Y302260D03*
X162560Y327660D03*
X162560Y302260D03*
D12*
X495300Y17780D03*
X469900Y17780D03*
X444500Y17780D03*
D13*
X638810Y85090D03*
D14*
X638810Y59690D03*
X613410Y85090D03*
X613410Y59690D03*
X588010Y85090D03*
X588010Y59690D03*
X562610Y85090D03*
X562610Y59690D03*
X537210Y85090D03*
X537210Y59690D03*
X511810Y85090D03*
X511810Y59690D03*
X486410Y85090D03*
X486410Y59690D03*
X461010Y85090D03*
X461010Y59690D03*
X435610Y85090D03*
X435610Y59690D03*
X410210Y85090D03*
X410210Y59690D03*
X384810Y85090D03*
X384810Y59690D03*
X359410Y85090D03*
X359410Y59690D03*
X334010Y85090D03*
X334010Y59690D03*
X308610Y85090D03*
X308610Y59690D03*
X283210Y85090D03*
X283210Y59690D03*
X257810Y85090D03*
X257810Y59690D03*
X232410Y85090D03*
X232410Y59690D03*
X207010Y85090D03*
X207010Y59690D03*
X181610Y85090D03*
X181610Y59690D03*
X156210Y85090D03*
X156210Y59690D03*
D12*
X160020Y15240D03*
X185420Y15240D03*
D15*
X55880Y305040D03*
X55880Y335040D03*
D16*
X985000Y144760D02*
X995000Y144760D01*
X995000Y231160D02*
X985000Y231160D01*
X953200Y231160D02*
X943200Y231160D01*
X943200Y144760D02*
X953200Y144760D01*
D17*
X953200Y216860D03*
X953200Y159060D03*
M02*
