G04 EAGLE Gerber RS-274X export*
G75*
%MOMM*%
%FSLAX34Y34*%
%LPD*%
%INSoldermask Top*%
%IPPOS*%
%AMOC8*
5,1,8,0,0,1.08239X$1,22.5*%
G01*
%ADD10C,2.743200*%
%ADD11R,1.303200X0.603200*%
%ADD12R,0.503200X1.155600*%
%ADD13R,1.054000X0.503200*%
%ADD14P,2.254402X8X202.500000*%
%ADD15R,2.403200X0.803200*%
%ADD16R,1.303200X1.203200*%
%ADD17C,2.082800*%
%ADD18R,0.753200X1.403200*%
%ADD19R,2.235200X2.235200*%
%ADD20R,1.981200X1.981200*%
%ADD21C,1.981200*%
%ADD22R,4.803200X1.203200*%
%ADD23R,3.603200X1.803200*%
%ADD24R,1.727200X1.879600*%
%ADD25C,0.505344*%
%ADD26R,1.703200X0.903200*%
%ADD27R,0.803200X1.203200*%
%ADD28R,1.003200X1.203200*%
%ADD29C,1.103200*%
%ADD30R,1.403200X1.403200*%
%ADD31R,1.278200X1.203200*%
%ADD32R,1.503200X1.703200*%
%ADD33R,1.353200X0.778200*%
%ADD34R,1.353200X0.478200*%
%ADD35C,1.203200*%
%ADD36C,0.853200*%


D10*
X63500Y402590D03*
X63500Y-38100D03*
X895350Y38100D03*
X895350Y341630D03*
D11*
X739500Y58010D03*
X739500Y51510D03*
X739500Y45010D03*
X739500Y38510D03*
X784500Y38510D03*
X784500Y45010D03*
X784500Y51510D03*
X784500Y58010D03*
D12*
X528160Y377482D03*
X523160Y377482D03*
X518160Y377482D03*
X513160Y377482D03*
X508160Y377482D03*
D13*
X504140Y368220D03*
X504140Y363220D03*
X504140Y358220D03*
D12*
X508160Y348958D03*
X513160Y348958D03*
X518160Y348958D03*
X523160Y348958D03*
X528160Y348958D03*
D13*
X532180Y358220D03*
X532180Y363220D03*
X532180Y368220D03*
D14*
X213360Y327660D03*
X213360Y302260D03*
X187960Y327660D03*
X187960Y302260D03*
X162560Y327660D03*
X162560Y302260D03*
D15*
X358940Y392430D03*
X358940Y379730D03*
X358940Y367030D03*
X358940Y354330D03*
X358940Y341630D03*
X358940Y328930D03*
X358940Y316230D03*
X358940Y303530D03*
X358940Y290830D03*
X358940Y278130D03*
X458940Y278130D03*
X458940Y290830D03*
X458940Y303530D03*
X458940Y316230D03*
X458940Y328930D03*
X458940Y341630D03*
X458940Y354330D03*
X458940Y367030D03*
X458940Y379730D03*
X458940Y392430D03*
D16*
X773040Y12700D03*
X756040Y12700D03*
X555380Y378460D03*
X572380Y378460D03*
D17*
X495300Y17780D03*
X469900Y17780D03*
X444500Y17780D03*
D18*
X99720Y323549D03*
X109220Y323549D03*
X118720Y323549D03*
X118720Y349551D03*
X99720Y349551D03*
D16*
X306950Y337820D03*
X289950Y337820D03*
X118990Y299720D03*
X101990Y299720D03*
X99450Y375920D03*
X116450Y375920D03*
X289950Y398780D03*
X306950Y398780D03*
X289950Y378460D03*
X306950Y378460D03*
X289950Y358140D03*
X306950Y358140D03*
D19*
X637940Y115670D03*
X687940Y115670D03*
X687940Y255170D03*
X637940Y255170D03*
X89300Y115670D03*
X139300Y115670D03*
X139300Y255170D03*
X89300Y255170D03*
X843680Y115670D03*
X893680Y115670D03*
X893680Y255170D03*
X843680Y255170D03*
X434740Y115670D03*
X484740Y115670D03*
X484740Y255170D03*
X434740Y255170D03*
X249320Y115670D03*
X299320Y115670D03*
X299320Y255170D03*
X249320Y255170D03*
D20*
X638810Y85090D03*
D21*
X638810Y59690D03*
X613410Y85090D03*
X613410Y59690D03*
X588010Y85090D03*
X588010Y59690D03*
X562610Y85090D03*
X562610Y59690D03*
X537210Y85090D03*
X537210Y59690D03*
X511810Y85090D03*
X511810Y59690D03*
X486410Y85090D03*
X486410Y59690D03*
X461010Y85090D03*
X461010Y59690D03*
X435610Y85090D03*
X435610Y59690D03*
X410210Y85090D03*
X410210Y59690D03*
X384810Y85090D03*
X384810Y59690D03*
X359410Y85090D03*
X359410Y59690D03*
X334010Y85090D03*
X334010Y59690D03*
X308610Y85090D03*
X308610Y59690D03*
X283210Y85090D03*
X283210Y59690D03*
X257810Y85090D03*
X257810Y59690D03*
X232410Y85090D03*
X232410Y59690D03*
X207010Y85090D03*
X207010Y59690D03*
X181610Y85090D03*
X181610Y59690D03*
X156210Y85090D03*
X156210Y59690D03*
D22*
X109644Y38260D03*
X109644Y58260D03*
D23*
X57644Y14260D03*
X57644Y82260D03*
D17*
X160020Y15240D03*
X185420Y15240D03*
D16*
X550300Y226060D03*
X567300Y226060D03*
X550300Y203200D03*
X567300Y203200D03*
X550300Y180340D03*
X567300Y180340D03*
X550300Y157480D03*
X567300Y157480D03*
X550300Y134620D03*
X567300Y134620D03*
D24*
X295656Y309880D03*
X258064Y309880D03*
X295656Y281940D03*
X258064Y281940D03*
D25*
X764740Y110170D02*
X764740Y103190D01*
X764740Y110170D02*
X771720Y110170D01*
X771720Y103190D01*
X764740Y103190D01*
X764740Y107990D02*
X771720Y107990D01*
X747200Y110170D02*
X747200Y103190D01*
X747200Y110170D02*
X754180Y110170D01*
X754180Y103190D01*
X747200Y103190D01*
X747200Y107990D02*
X754180Y107990D01*
D16*
X770500Y81280D03*
X753500Y81280D03*
D26*
X73380Y297540D03*
X73380Y312540D03*
X73380Y342540D03*
D27*
X45880Y283540D03*
D28*
X66880Y283540D03*
D27*
X45880Y356540D03*
D28*
X66880Y356540D03*
D29*
X55880Y305040D03*
X55880Y335040D03*
D16*
X829700Y81280D03*
X846700Y81280D03*
D25*
X843480Y56830D02*
X843480Y49850D01*
X843480Y56830D02*
X850460Y56830D01*
X850460Y49850D01*
X843480Y49850D01*
X843480Y54650D02*
X850460Y54650D01*
X825940Y56830D02*
X825940Y49850D01*
X825940Y56830D02*
X832920Y56830D01*
X832920Y49850D01*
X825940Y49850D01*
X825940Y54650D02*
X832920Y54650D01*
D16*
X829700Y33020D03*
X846700Y33020D03*
D18*
X628040Y332439D03*
X637540Y332439D03*
X647040Y332439D03*
X647040Y358441D03*
X628040Y358441D03*
D30*
X769960Y358140D03*
X748960Y358140D03*
X693760Y358140D03*
X672760Y358140D03*
D31*
X767960Y337820D03*
X750960Y337820D03*
X674760Y337820D03*
X691760Y337820D03*
D32*
X771500Y312420D03*
X752500Y312420D03*
X649580Y304800D03*
X630580Y304800D03*
D31*
X674760Y312420D03*
X691760Y312420D03*
D33*
X942450Y155960D03*
X942450Y163960D03*
D34*
X942450Y170460D03*
X942450Y175460D03*
X942450Y180460D03*
X942450Y185460D03*
X942450Y190460D03*
X942450Y195460D03*
X942450Y200460D03*
X942450Y205460D03*
D33*
X942450Y211960D03*
X942450Y219960D03*
D35*
X985000Y144760D02*
X995000Y144760D01*
X995000Y231160D02*
X985000Y231160D01*
X953200Y231160D02*
X943200Y231160D01*
X943200Y144760D02*
X953200Y144760D01*
D36*
X953200Y216860D03*
X953200Y159060D03*
M02*
