G04 EAGLE Gerber RS-274X export*
G75*
%MOMM*%
%FSLAX34Y34*%
%LPD*%
%INBottom Copper*%
%IPPOS*%
%AMOC8*
5,1,8,0,0,1.08239X$1,22.5*%
G01*
%ADD10P,2.034460X8X202.500000*%
%ADD11C,1.879600*%
%ADD12R,1.778000X1.778000*%
%ADD13C,1.778000*%
%ADD14C,1.000000*%
%ADD15C,0.525000*%
%ADD16C,0.406400*%
%ADD17C,0.352400*%
%ADD18C,0.152400*%
%ADD19C,0.127000*%
%ADD20C,0.254000*%

G36*
X78375Y-56198D02*
X78375Y-56198D01*
X78406Y-56201D01*
X842249Y-9722D01*
X842276Y-9716D01*
X842299Y-9718D01*
X850503Y-8812D01*
X850584Y-8791D01*
X850645Y-8786D01*
X866618Y-4685D01*
X866726Y-4640D01*
X866798Y-4620D01*
X881720Y2402D01*
X881818Y2466D01*
X881885Y2499D01*
X895227Y12193D01*
X895310Y12274D01*
X895370Y12319D01*
X905578Y23190D01*
X905618Y23247D01*
X905666Y23298D01*
X905700Y23363D01*
X905742Y23422D01*
X905765Y23488D01*
X905797Y23551D01*
X905811Y23622D01*
X905835Y23691D01*
X905838Y23761D01*
X905852Y23830D01*
X905845Y23902D01*
X905849Y23975D01*
X905833Y24043D01*
X905827Y24113D01*
X905801Y24181D01*
X905785Y24252D01*
X905750Y24313D01*
X905725Y24378D01*
X905681Y24436D01*
X905646Y24500D01*
X905596Y24549D01*
X905554Y24605D01*
X905495Y24648D01*
X905444Y24700D01*
X905382Y24733D01*
X905326Y24775D01*
X905258Y24801D01*
X905194Y24836D01*
X905125Y24851D01*
X905060Y24876D01*
X904987Y24881D01*
X904916Y24897D01*
X904846Y24893D01*
X904777Y24898D01*
X904717Y24884D01*
X904633Y24879D01*
X904523Y24840D01*
X904449Y24823D01*
X898483Y22351D01*
X892217Y22351D01*
X886429Y24749D01*
X881999Y29179D01*
X879601Y34967D01*
X879601Y41233D01*
X881999Y47021D01*
X886429Y51451D01*
X892217Y53849D01*
X898483Y53849D01*
X904271Y51451D01*
X908701Y47021D01*
X911099Y41233D01*
X911099Y34798D01*
X911118Y34658D01*
X911138Y34520D01*
X911138Y34518D01*
X911139Y34516D01*
X911197Y34386D01*
X911253Y34260D01*
X911254Y34258D01*
X911255Y34257D01*
X911346Y34149D01*
X911436Y34042D01*
X911437Y34041D01*
X911438Y34040D01*
X911557Y33961D01*
X911672Y33884D01*
X911674Y33883D01*
X911675Y33882D01*
X911813Y33839D01*
X911943Y33797D01*
X911944Y33797D01*
X911946Y33796D01*
X912089Y33793D01*
X912227Y33789D01*
X912228Y33789D01*
X912230Y33789D01*
X912365Y33824D01*
X912502Y33860D01*
X912504Y33860D01*
X912505Y33861D01*
X912625Y33932D01*
X912747Y34004D01*
X912748Y34005D01*
X912750Y34006D01*
X912944Y34213D01*
X912957Y34237D01*
X912971Y34254D01*
X915613Y38417D01*
X915661Y38523D01*
X915700Y38587D01*
X921771Y53921D01*
X921798Y54034D01*
X921824Y54104D01*
X924914Y70304D01*
X924918Y70387D01*
X924931Y70446D01*
X925233Y76852D01*
X925227Y76920D01*
X925231Y76987D01*
X925214Y77061D01*
X925207Y77135D01*
X925182Y77198D01*
X925174Y77234D01*
X925317Y78883D01*
X925315Y78933D01*
X925321Y78971D01*
X925321Y80564D01*
X925324Y80568D01*
X925383Y80647D01*
X925399Y80688D01*
X925422Y80725D01*
X925441Y80799D01*
X925484Y80913D01*
X925491Y80993D01*
X925506Y81050D01*
X925952Y86181D01*
X930295Y99688D01*
X937535Y111889D01*
X947309Y122173D01*
X959126Y130025D01*
X972394Y135050D01*
X983262Y136556D01*
X983319Y136572D01*
X983378Y136579D01*
X983455Y136611D01*
X983536Y136634D01*
X983586Y136665D01*
X983640Y136688D01*
X983706Y136740D01*
X983777Y136785D01*
X983816Y136829D01*
X983862Y136866D01*
X983911Y136934D01*
X983966Y136996D01*
X983992Y137050D01*
X984026Y137098D01*
X984054Y137177D01*
X984090Y137252D01*
X984100Y137311D01*
X984119Y137366D01*
X984124Y137450D01*
X984138Y137533D01*
X984131Y137591D01*
X984134Y137650D01*
X984115Y137732D01*
X984106Y137815D01*
X984083Y137870D01*
X984070Y137927D01*
X984029Y138000D01*
X983997Y138078D01*
X983960Y138124D01*
X983932Y138176D01*
X983882Y138223D01*
X983820Y138300D01*
X983738Y138358D01*
X983687Y138406D01*
X982943Y138903D01*
X981893Y139953D01*
X981068Y141188D01*
X980499Y142560D01*
X980466Y142729D01*
X989734Y142729D01*
X989792Y142737D01*
X989850Y142735D01*
X989932Y142757D01*
X990015Y142769D01*
X990069Y142793D01*
X990125Y142807D01*
X990198Y142850D01*
X990275Y142885D01*
X990319Y142923D01*
X990370Y142953D01*
X990427Y143014D01*
X990492Y143069D01*
X990524Y143117D01*
X990564Y143160D01*
X990603Y143235D01*
X990649Y143305D01*
X990667Y143361D01*
X990694Y143413D01*
X990705Y143481D01*
X990735Y143576D01*
X990738Y143676D01*
X990749Y143744D01*
X990749Y144761D01*
X991766Y144761D01*
X991824Y144769D01*
X991882Y144768D01*
X991964Y144789D01*
X992047Y144801D01*
X992101Y144825D01*
X992157Y144839D01*
X992230Y144882D01*
X992307Y144917D01*
X992351Y144955D01*
X992402Y144985D01*
X992459Y145046D01*
X992524Y145101D01*
X992556Y145149D01*
X992596Y145192D01*
X992635Y145267D01*
X992681Y145337D01*
X992699Y145393D01*
X992726Y145445D01*
X992737Y145513D01*
X992767Y145608D01*
X992770Y145708D01*
X992781Y145776D01*
X992781Y152301D01*
X994493Y152301D01*
X995950Y152011D01*
X997322Y151442D01*
X998557Y150617D01*
X999607Y149567D01*
X999662Y149485D01*
X999748Y149389D01*
X999831Y149291D01*
X999842Y149284D01*
X999851Y149273D01*
X999961Y149205D01*
X1000067Y149134D01*
X1000080Y149130D01*
X1000092Y149122D01*
X1000215Y149087D01*
X1000338Y149048D01*
X1000352Y149048D01*
X1000365Y149044D01*
X1000494Y149044D01*
X1000622Y149041D01*
X1000636Y149044D01*
X1000650Y149044D01*
X1000774Y149080D01*
X1000897Y149112D01*
X1000909Y149120D01*
X1000923Y149123D01*
X1001032Y149192D01*
X1001142Y149258D01*
X1001151Y149268D01*
X1001163Y149275D01*
X1001248Y149371D01*
X1001336Y149465D01*
X1001343Y149477D01*
X1001352Y149488D01*
X1001407Y149603D01*
X1001466Y149718D01*
X1001468Y149731D01*
X1001474Y149744D01*
X1001521Y150025D01*
X1001519Y150038D01*
X1001521Y150049D01*
X1001521Y225871D01*
X1001503Y225998D01*
X1001489Y226126D01*
X1001483Y226139D01*
X1001481Y226152D01*
X1001429Y226270D01*
X1001379Y226388D01*
X1001371Y226399D01*
X1001365Y226412D01*
X1001282Y226510D01*
X1001202Y226610D01*
X1001190Y226618D01*
X1001182Y226629D01*
X1001074Y226700D01*
X1000969Y226774D01*
X1000956Y226779D01*
X1000945Y226786D01*
X1000822Y226825D01*
X1000701Y226867D01*
X1000687Y226868D01*
X1000674Y226872D01*
X1000545Y226875D01*
X1000417Y226882D01*
X1000403Y226879D01*
X1000390Y226879D01*
X1000265Y226847D01*
X1000140Y226818D01*
X1000128Y226811D01*
X1000115Y226808D01*
X1000004Y226742D01*
X999892Y226679D01*
X999883Y226670D01*
X999870Y226662D01*
X999676Y226455D01*
X999670Y226443D01*
X999662Y226435D01*
X999607Y226353D01*
X998557Y225303D01*
X997322Y224478D01*
X995950Y223909D01*
X994493Y223619D01*
X992781Y223619D01*
X992781Y230144D01*
X992774Y230195D01*
X992774Y230214D01*
X992773Y230218D01*
X992774Y230260D01*
X992753Y230342D01*
X992741Y230425D01*
X992717Y230479D01*
X992703Y230535D01*
X992660Y230608D01*
X992625Y230685D01*
X992587Y230729D01*
X992557Y230780D01*
X992496Y230837D01*
X992441Y230902D01*
X992393Y230934D01*
X992350Y230974D01*
X992275Y231013D01*
X992205Y231059D01*
X992149Y231077D01*
X992097Y231104D01*
X992029Y231115D01*
X991934Y231145D01*
X991834Y231148D01*
X991766Y231159D01*
X990749Y231159D01*
X990749Y232176D01*
X990742Y232226D01*
X990742Y232245D01*
X990741Y232249D01*
X990742Y232292D01*
X990721Y232374D01*
X990709Y232457D01*
X990685Y232511D01*
X990671Y232567D01*
X990628Y232640D01*
X990593Y232717D01*
X990555Y232761D01*
X990525Y232812D01*
X990464Y232869D01*
X990409Y232934D01*
X990361Y232966D01*
X990318Y233006D01*
X990243Y233045D01*
X990173Y233091D01*
X990117Y233109D01*
X990065Y233136D01*
X989997Y233147D01*
X989902Y233177D01*
X989802Y233180D01*
X989734Y233191D01*
X980466Y233191D01*
X980499Y233360D01*
X981068Y234732D01*
X981893Y235967D01*
X982509Y236583D01*
X982543Y236629D01*
X982586Y236669D01*
X982629Y236742D01*
X982679Y236810D01*
X982700Y236864D01*
X982729Y236914D01*
X982750Y236996D01*
X982781Y237076D01*
X982785Y237134D01*
X982800Y237190D01*
X982797Y237274D01*
X982804Y237359D01*
X982793Y237416D01*
X982791Y237474D01*
X982765Y237555D01*
X982748Y237638D01*
X982722Y237689D01*
X982704Y237744D01*
X982656Y237815D01*
X982617Y237890D01*
X982577Y237932D01*
X982545Y237980D01*
X982480Y238035D01*
X982422Y238096D01*
X982371Y238125D01*
X982327Y238163D01*
X982263Y238189D01*
X982176Y238240D01*
X982080Y238264D01*
X982017Y238290D01*
X972295Y240509D01*
X958010Y247389D01*
X945614Y257274D01*
X935729Y269670D01*
X928849Y283955D01*
X925321Y299412D01*
X925321Y307340D01*
X925317Y307370D01*
X925320Y307394D01*
X924937Y314528D01*
X924918Y314623D01*
X924915Y314690D01*
X921877Y328630D01*
X921829Y328761D01*
X921808Y328837D01*
X915872Y341811D01*
X915797Y341928D01*
X915761Y341998D01*
X912739Y346026D01*
X912728Y346036D01*
X912720Y346050D01*
X912628Y346137D01*
X912538Y346227D01*
X912525Y346234D01*
X912514Y346245D01*
X912401Y346303D01*
X912289Y346365D01*
X912274Y346368D01*
X912261Y346375D01*
X912137Y346399D01*
X912012Y346428D01*
X911997Y346427D01*
X911982Y346430D01*
X911856Y346419D01*
X911729Y346412D01*
X911714Y346407D01*
X911699Y346406D01*
X911580Y346360D01*
X911460Y346318D01*
X911448Y346309D01*
X911433Y346304D01*
X911332Y346227D01*
X911229Y346153D01*
X911219Y346141D01*
X911207Y346132D01*
X911131Y346030D01*
X911052Y345931D01*
X911046Y345917D01*
X911037Y345904D01*
X910992Y345785D01*
X910943Y345668D01*
X910942Y345653D01*
X910936Y345638D01*
X910926Y345512D01*
X910912Y345385D01*
X910915Y345370D01*
X910913Y345355D01*
X910929Y345288D01*
X910960Y345105D01*
X910980Y345068D01*
X910989Y345028D01*
X911099Y344763D01*
X911099Y338497D01*
X908701Y332709D01*
X904271Y328279D01*
X898483Y325881D01*
X892217Y325881D01*
X886429Y328279D01*
X881999Y332709D01*
X879601Y338497D01*
X879601Y344763D01*
X881999Y350551D01*
X886429Y354981D01*
X892217Y357379D01*
X898483Y357379D01*
X900656Y356479D01*
X900774Y356448D01*
X900892Y356413D01*
X900912Y356413D01*
X900931Y356408D01*
X901053Y356411D01*
X901176Y356410D01*
X901195Y356415D01*
X901215Y356416D01*
X901332Y356453D01*
X901450Y356486D01*
X901467Y356496D01*
X901486Y356502D01*
X901587Y356571D01*
X901692Y356635D01*
X901705Y356650D01*
X901722Y356661D01*
X901801Y356755D01*
X901883Y356845D01*
X901892Y356863D01*
X901905Y356878D01*
X901955Y356990D01*
X902009Y357100D01*
X902012Y357120D01*
X902020Y357138D01*
X902037Y357260D01*
X902059Y357380D01*
X902057Y357400D01*
X902059Y357420D01*
X902042Y357541D01*
X902029Y357663D01*
X902022Y357681D01*
X902019Y357701D01*
X901968Y357813D01*
X901922Y357926D01*
X901911Y357940D01*
X901902Y357960D01*
X901717Y358177D01*
X901712Y358180D01*
X901708Y358185D01*
X896254Y362897D01*
X896137Y362972D01*
X896075Y363021D01*
X883540Y369836D01*
X883410Y369885D01*
X883339Y369919D01*
X869641Y373909D01*
X869546Y373923D01*
X869481Y373942D01*
X862391Y374815D01*
X862361Y374815D01*
X862337Y374820D01*
X100842Y427360D01*
X100805Y427358D01*
X100769Y427363D01*
X100664Y427348D01*
X100559Y427340D01*
X100524Y427327D01*
X100487Y427322D01*
X100417Y427288D01*
X100292Y427242D01*
X100290Y427241D01*
X98778Y427498D01*
X98721Y427499D01*
X98677Y427510D01*
X97066Y427621D01*
X97063Y427622D01*
X97009Y427658D01*
X96947Y427676D01*
X96865Y427714D01*
X96756Y427731D01*
X96686Y427751D01*
X93148Y428150D01*
X93046Y428147D01*
X92977Y428155D01*
X82320Y427559D01*
X82173Y427530D01*
X82095Y427521D01*
X80343Y427016D01*
X73289Y424986D01*
X71838Y424568D01*
X71702Y424507D01*
X71628Y424481D01*
X63954Y420243D01*
X63931Y420225D01*
X63904Y420213D01*
X63818Y420140D01*
X63727Y420072D01*
X63710Y420048D01*
X63687Y420029D01*
X63624Y419935D01*
X63556Y419845D01*
X63546Y419817D01*
X63530Y419793D01*
X63495Y419685D01*
X63455Y419579D01*
X63453Y419550D01*
X63444Y419522D01*
X63441Y419408D01*
X63432Y419296D01*
X63437Y419267D01*
X63437Y419238D01*
X63465Y419128D01*
X63488Y419017D01*
X63501Y418991D01*
X63508Y418963D01*
X63566Y418865D01*
X63619Y418764D01*
X63639Y418743D01*
X63654Y418718D01*
X63736Y418641D01*
X63815Y418558D01*
X63840Y418544D01*
X63861Y418524D01*
X63962Y418472D01*
X64060Y418415D01*
X64088Y418408D01*
X64114Y418394D01*
X64191Y418381D01*
X64335Y418345D01*
X64398Y418347D01*
X64445Y418339D01*
X66633Y418339D01*
X72421Y415941D01*
X76851Y411511D01*
X79249Y405723D01*
X79249Y399457D01*
X76851Y393669D01*
X72421Y389239D01*
X66633Y386841D01*
X60367Y386841D01*
X54579Y389239D01*
X50149Y393669D01*
X47927Y399032D01*
X47912Y399058D01*
X47904Y399085D01*
X47840Y399180D01*
X47783Y399277D01*
X47762Y399297D01*
X47745Y399322D01*
X47658Y399395D01*
X47576Y399472D01*
X47550Y399486D01*
X47528Y399505D01*
X47424Y399551D01*
X47323Y399603D01*
X47295Y399608D01*
X47268Y399620D01*
X47156Y399636D01*
X47044Y399658D01*
X47015Y399655D01*
X46986Y399659D01*
X46874Y399643D01*
X46761Y399633D01*
X46734Y399623D01*
X46705Y399619D01*
X46602Y399572D01*
X46496Y399531D01*
X46473Y399514D01*
X46446Y399502D01*
X46359Y399428D01*
X46269Y399360D01*
X46252Y399336D01*
X46229Y399317D01*
X46188Y399251D01*
X46099Y399132D01*
X46084Y399093D01*
X46068Y399068D01*
X46062Y399049D01*
X46051Y399033D01*
X43611Y393145D01*
X43586Y393047D01*
X43559Y392983D01*
X42444Y388102D01*
X42432Y387953D01*
X42419Y387876D01*
X42419Y-22337D01*
X42424Y-22375D01*
X42421Y-22406D01*
X42725Y-26867D01*
X42727Y-26876D01*
X42727Y-26877D01*
X42728Y-26882D01*
X42752Y-26994D01*
X42760Y-27071D01*
X45156Y-35665D01*
X45252Y-35884D01*
X45265Y-35917D01*
X45867Y-36913D01*
X45873Y-36920D01*
X45877Y-36929D01*
X45963Y-37030D01*
X46047Y-37133D01*
X46055Y-37139D01*
X46061Y-37146D01*
X46172Y-37220D01*
X46281Y-37295D01*
X46289Y-37298D01*
X46297Y-37303D01*
X46424Y-37343D01*
X46550Y-37386D01*
X46559Y-37386D01*
X46568Y-37389D01*
X46701Y-37392D01*
X46834Y-37398D01*
X46843Y-37396D01*
X46852Y-37396D01*
X46980Y-37363D01*
X47110Y-37331D01*
X47119Y-37327D01*
X47127Y-37324D01*
X47242Y-37257D01*
X47357Y-37191D01*
X47364Y-37184D01*
X47372Y-37179D01*
X47463Y-37082D01*
X47556Y-36987D01*
X47560Y-36979D01*
X47566Y-36972D01*
X47627Y-36854D01*
X47690Y-36736D01*
X47692Y-36727D01*
X47696Y-36719D01*
X47705Y-36665D01*
X47749Y-36458D01*
X47746Y-36419D01*
X47751Y-36388D01*
X47751Y-34967D01*
X50149Y-29179D01*
X54579Y-24749D01*
X60367Y-22351D01*
X66633Y-22351D01*
X72421Y-24749D01*
X76851Y-29179D01*
X79249Y-34967D01*
X79249Y-41233D01*
X76851Y-47021D01*
X72421Y-51451D01*
X68383Y-53124D01*
X68279Y-53185D01*
X68172Y-53242D01*
X68156Y-53257D01*
X68138Y-53268D01*
X68055Y-53356D01*
X67968Y-53441D01*
X67957Y-53459D01*
X67943Y-53475D01*
X67887Y-53583D01*
X67827Y-53688D01*
X67822Y-53709D01*
X67813Y-53728D01*
X67789Y-53847D01*
X67761Y-53964D01*
X67762Y-53986D01*
X67757Y-54007D01*
X67768Y-54127D01*
X67773Y-54248D01*
X67780Y-54269D01*
X67782Y-54290D01*
X67825Y-54403D01*
X67864Y-54518D01*
X67876Y-54535D01*
X67884Y-54555D01*
X67957Y-54652D01*
X68026Y-54751D01*
X68043Y-54765D01*
X68056Y-54782D01*
X68153Y-54854D01*
X68246Y-54931D01*
X68264Y-54938D01*
X68283Y-54952D01*
X68549Y-55052D01*
X68554Y-55053D01*
X68558Y-55054D01*
X73660Y-56148D01*
X73789Y-56157D01*
X73866Y-56171D01*
X78337Y-56203D01*
X78375Y-56198D01*
G37*
%LPC*%
G36*
X252871Y-8214D02*
X252871Y-8214D01*
X250786Y-7350D01*
X249190Y-5754D01*
X248326Y-3669D01*
X248326Y-1411D01*
X249190Y674D01*
X250786Y2270D01*
X252871Y3134D01*
X255129Y3134D01*
X256374Y2618D01*
X256404Y2610D01*
X256431Y2596D01*
X256509Y2583D01*
X256649Y2547D01*
X256713Y2549D01*
X256762Y2541D01*
X259565Y2541D01*
X259594Y2545D01*
X259623Y2542D01*
X259734Y2565D01*
X259846Y2581D01*
X259873Y2593D01*
X259902Y2598D01*
X260002Y2650D01*
X260106Y2697D01*
X260128Y2716D01*
X260154Y2729D01*
X260236Y2807D01*
X260323Y2880D01*
X260339Y2905D01*
X260360Y2925D01*
X260417Y3023D01*
X260480Y3117D01*
X260489Y3145D01*
X260504Y3170D01*
X260532Y3280D01*
X260566Y3388D01*
X260567Y3418D01*
X260574Y3446D01*
X260570Y3559D01*
X260573Y3672D01*
X260566Y3701D01*
X260565Y3730D01*
X260530Y3838D01*
X260501Y3947D01*
X260487Y3973D01*
X260477Y4001D01*
X260432Y4064D01*
X260356Y4192D01*
X260311Y4235D01*
X260283Y4274D01*
X215098Y49458D01*
X215051Y49494D01*
X215011Y49536D01*
X214938Y49579D01*
X214871Y49629D01*
X214816Y49650D01*
X214765Y49680D01*
X214684Y49701D01*
X214605Y49731D01*
X214547Y49735D01*
X214490Y49750D01*
X214406Y49747D01*
X214322Y49754D01*
X214264Y49743D01*
X214206Y49741D01*
X214126Y49715D01*
X214043Y49698D01*
X213991Y49671D01*
X213935Y49653D01*
X213879Y49613D01*
X213878Y49612D01*
X209385Y47751D01*
X204635Y47751D01*
X201303Y49132D01*
X201191Y49160D01*
X201082Y49195D01*
X201054Y49196D01*
X201027Y49203D01*
X200913Y49199D01*
X200798Y49202D01*
X200771Y49195D01*
X200743Y49195D01*
X200634Y49159D01*
X200523Y49131D01*
X200499Y49116D01*
X200472Y49108D01*
X200377Y49044D01*
X200278Y48985D01*
X200259Y48965D01*
X200236Y48950D01*
X200162Y48862D01*
X200084Y48778D01*
X200071Y48753D01*
X200053Y48732D01*
X200007Y48627D01*
X199954Y48525D01*
X199950Y48500D01*
X199938Y48472D01*
X199901Y48208D01*
X199899Y48194D01*
X199899Y39686D01*
X199911Y39599D01*
X199914Y39512D01*
X199931Y39459D01*
X199939Y39404D01*
X199974Y39324D01*
X200001Y39241D01*
X200029Y39202D01*
X200055Y39145D01*
X200151Y39032D01*
X200196Y38968D01*
X200390Y38774D01*
X201254Y36689D01*
X201254Y34431D01*
X200390Y32346D01*
X198794Y30750D01*
X196709Y29886D01*
X194451Y29886D01*
X192366Y30750D01*
X190770Y32346D01*
X189906Y34431D01*
X189906Y36689D01*
X190770Y38774D01*
X190964Y38968D01*
X191016Y39038D01*
X191076Y39101D01*
X191102Y39151D01*
X191135Y39195D01*
X191166Y39277D01*
X191206Y39355D01*
X191214Y39402D01*
X191236Y39461D01*
X191248Y39609D01*
X191261Y39686D01*
X191261Y50006D01*
X191257Y50035D01*
X191260Y50065D01*
X191237Y50176D01*
X191221Y50288D01*
X191209Y50315D01*
X191204Y50343D01*
X191151Y50444D01*
X191105Y50547D01*
X191086Y50570D01*
X191073Y50596D01*
X190995Y50678D01*
X190922Y50764D01*
X190897Y50780D01*
X190877Y50802D01*
X190779Y50859D01*
X190685Y50922D01*
X190657Y50931D01*
X190632Y50945D01*
X190522Y50973D01*
X190414Y51008D01*
X190384Y51008D01*
X190356Y51016D01*
X190243Y51012D01*
X190130Y51015D01*
X190101Y51007D01*
X190072Y51007D01*
X189964Y50972D01*
X189855Y50943D01*
X189829Y50928D01*
X189801Y50919D01*
X189737Y50873D01*
X189610Y50798D01*
X189567Y50752D01*
X189528Y50724D01*
X188373Y49569D01*
X183985Y47751D01*
X179235Y47751D01*
X174847Y49569D01*
X171489Y52927D01*
X169848Y56889D01*
X169833Y56914D01*
X169824Y56942D01*
X169761Y57036D01*
X169703Y57133D01*
X169682Y57154D01*
X169666Y57178D01*
X169579Y57251D01*
X169497Y57329D01*
X169471Y57342D01*
X169448Y57361D01*
X169345Y57407D01*
X169244Y57459D01*
X169215Y57465D01*
X169188Y57476D01*
X169076Y57492D01*
X168965Y57514D01*
X168936Y57511D01*
X168907Y57515D01*
X168795Y57499D01*
X168682Y57489D01*
X168655Y57479D01*
X168626Y57475D01*
X168522Y57428D01*
X168417Y57387D01*
X168393Y57370D01*
X168366Y57358D01*
X168280Y57284D01*
X168190Y57216D01*
X168172Y57192D01*
X168150Y57173D01*
X168108Y57107D01*
X168020Y56988D01*
X168007Y56953D01*
X167990Y56929D01*
X167983Y56907D01*
X167972Y56889D01*
X166331Y52927D01*
X162973Y49569D01*
X158585Y47751D01*
X153835Y47751D01*
X149447Y49569D01*
X146089Y52927D01*
X144271Y57315D01*
X144271Y62065D01*
X146089Y66453D01*
X149447Y69811D01*
X153835Y71629D01*
X158585Y71629D01*
X162973Y69811D01*
X166331Y66453D01*
X167972Y62491D01*
X167987Y62466D01*
X167996Y62438D01*
X168059Y62344D01*
X168117Y62247D01*
X168138Y62226D01*
X168154Y62202D01*
X168241Y62129D01*
X168323Y62051D01*
X168349Y62038D01*
X168372Y62019D01*
X168475Y61973D01*
X168576Y61921D01*
X168605Y61916D01*
X168632Y61904D01*
X168744Y61888D01*
X168855Y61866D01*
X168884Y61869D01*
X168913Y61865D01*
X169025Y61881D01*
X169138Y61891D01*
X169165Y61901D01*
X169195Y61905D01*
X169298Y61952D01*
X169403Y61993D01*
X169427Y62010D01*
X169454Y62022D01*
X169540Y62096D01*
X169630Y62164D01*
X169648Y62188D01*
X169670Y62207D01*
X169712Y62273D01*
X169800Y62392D01*
X169822Y62451D01*
X169848Y62491D01*
X171489Y66453D01*
X174847Y69811D01*
X178809Y71452D01*
X178834Y71467D01*
X178862Y71476D01*
X178956Y71539D01*
X179053Y71597D01*
X179074Y71618D01*
X179098Y71634D01*
X179171Y71721D01*
X179249Y71803D01*
X179262Y71829D01*
X179281Y71852D01*
X179327Y71955D01*
X179379Y72056D01*
X179385Y72085D01*
X179396Y72112D01*
X179412Y72224D01*
X179434Y72335D01*
X179431Y72364D01*
X179435Y72393D01*
X179419Y72505D01*
X179409Y72618D01*
X179399Y72645D01*
X179395Y72675D01*
X179348Y72778D01*
X179307Y72883D01*
X179290Y72907D01*
X179278Y72934D01*
X179204Y73020D01*
X179136Y73110D01*
X179112Y73128D01*
X179093Y73150D01*
X179027Y73192D01*
X178908Y73280D01*
X178850Y73302D01*
X178809Y73328D01*
X174847Y74969D01*
X171489Y78327D01*
X169671Y82715D01*
X169671Y87465D01*
X171489Y91853D01*
X174847Y95211D01*
X179235Y97029D01*
X183985Y97029D01*
X188373Y95211D01*
X190718Y92866D01*
X190765Y92830D01*
X190805Y92788D01*
X190878Y92745D01*
X190946Y92695D01*
X191000Y92674D01*
X191051Y92644D01*
X191132Y92623D01*
X191211Y92593D01*
X191270Y92589D01*
X191326Y92574D01*
X191411Y92577D01*
X191495Y92570D01*
X191552Y92581D01*
X191610Y92583D01*
X191691Y92609D01*
X191773Y92626D01*
X191825Y92653D01*
X191881Y92671D01*
X191937Y92711D01*
X192026Y92757D01*
X192098Y92825D01*
X192154Y92866D01*
X193504Y94215D01*
X193556Y94285D01*
X193616Y94349D01*
X193642Y94398D01*
X193675Y94442D01*
X193706Y94524D01*
X193746Y94602D01*
X193754Y94650D01*
X193776Y94708D01*
X193788Y94856D01*
X193801Y94933D01*
X193801Y267654D01*
X193789Y267741D01*
X193786Y267828D01*
X193769Y267881D01*
X193761Y267936D01*
X193726Y268016D01*
X193722Y268027D01*
X193715Y268053D01*
X193712Y268059D01*
X193699Y268099D01*
X193671Y268138D01*
X193645Y268195D01*
X193597Y268252D01*
X193570Y268298D01*
X193531Y268334D01*
X193504Y268372D01*
X193310Y268566D01*
X192446Y270651D01*
X192446Y272909D01*
X193310Y274994D01*
X194906Y276590D01*
X196991Y277454D01*
X199249Y277454D01*
X201334Y276590D01*
X202930Y274994D01*
X203794Y272909D01*
X203794Y270651D01*
X202930Y268566D01*
X202736Y268372D01*
X202721Y268352D01*
X202704Y268338D01*
X202673Y268291D01*
X202624Y268239D01*
X202598Y268189D01*
X202565Y268145D01*
X202551Y268109D01*
X202546Y268101D01*
X202535Y268066D01*
X202534Y268063D01*
X202494Y267985D01*
X202486Y267938D01*
X202464Y267879D01*
X202452Y267732D01*
X202439Y267654D01*
X202439Y97638D01*
X202455Y97525D01*
X202465Y97410D01*
X202475Y97384D01*
X202479Y97357D01*
X202526Y97252D01*
X202567Y97145D01*
X202583Y97123D01*
X202595Y97097D01*
X202669Y97010D01*
X202738Y96918D01*
X202761Y96902D01*
X202778Y96880D01*
X202874Y96817D01*
X202966Y96748D01*
X202992Y96738D01*
X203015Y96723D01*
X203125Y96688D01*
X203232Y96648D01*
X203260Y96645D01*
X203286Y96637D01*
X203401Y96634D01*
X203515Y96625D01*
X203540Y96631D01*
X203570Y96630D01*
X203827Y96697D01*
X203843Y96700D01*
X204635Y97029D01*
X209385Y97029D01*
X213394Y95368D01*
X213506Y95339D01*
X213615Y95305D01*
X213643Y95304D01*
X213670Y95297D01*
X213784Y95300D01*
X213899Y95297D01*
X213926Y95304D01*
X213954Y95305D01*
X214063Y95340D01*
X214174Y95369D01*
X214198Y95383D01*
X214225Y95392D01*
X214320Y95456D01*
X214419Y95514D01*
X214438Y95535D01*
X214461Y95550D01*
X214535Y95638D01*
X214613Y95722D01*
X214626Y95746D01*
X214644Y95768D01*
X214690Y95872D01*
X214743Y95975D01*
X214747Y95999D01*
X214759Y96027D01*
X214796Y96291D01*
X214798Y96306D01*
X214798Y212567D01*
X269212Y266981D01*
X269264Y267051D01*
X269324Y267115D01*
X269350Y267164D01*
X269383Y267208D01*
X269414Y267290D01*
X269454Y267368D01*
X269462Y267415D01*
X269484Y267474D01*
X269496Y267622D01*
X269509Y267699D01*
X269509Y268693D01*
X272327Y271511D01*
X276313Y271511D01*
X279131Y268693D01*
X279131Y264707D01*
X276313Y261889D01*
X275319Y261889D01*
X275232Y261877D01*
X275145Y261874D01*
X275092Y261857D01*
X275037Y261849D01*
X274958Y261814D01*
X274874Y261787D01*
X274835Y261759D01*
X274778Y261733D01*
X274665Y261637D01*
X274601Y261592D01*
X250693Y237684D01*
X250675Y237660D01*
X250653Y237641D01*
X250590Y237547D01*
X250522Y237457D01*
X250512Y237429D01*
X250495Y237405D01*
X250461Y237297D01*
X250421Y237191D01*
X250418Y237162D01*
X250410Y237134D01*
X250407Y237020D01*
X250397Y236908D01*
X250403Y236879D01*
X250402Y236850D01*
X250431Y236740D01*
X250453Y236629D01*
X250467Y236603D01*
X250474Y236575D01*
X250532Y236477D01*
X250584Y236377D01*
X250604Y236355D01*
X250619Y236330D01*
X250702Y236253D01*
X250780Y236171D01*
X250805Y236156D01*
X250827Y236136D01*
X250928Y236084D01*
X251025Y236027D01*
X251054Y236020D01*
X251080Y236006D01*
X251157Y235993D01*
X251301Y235957D01*
X251363Y235959D01*
X251411Y235951D01*
X253453Y235951D01*
X256297Y233106D01*
X256299Y233101D01*
X256311Y233017D01*
X256334Y232964D01*
X256349Y232908D01*
X256392Y232835D01*
X256427Y232758D01*
X256465Y232713D01*
X256494Y232663D01*
X256556Y232605D01*
X256610Y232541D01*
X256659Y232509D01*
X256702Y232469D01*
X256777Y232430D01*
X256847Y232383D01*
X256903Y232366D01*
X256955Y232339D01*
X257023Y232328D01*
X257118Y232298D01*
X257218Y232295D01*
X257286Y232284D01*
X387606Y232284D01*
X421742Y198148D01*
X421811Y198096D01*
X421875Y198036D01*
X421925Y198010D01*
X421969Y197977D01*
X422050Y197946D01*
X422128Y197906D01*
X422176Y197898D01*
X422234Y197876D01*
X422382Y197864D01*
X422459Y197851D01*
X423633Y197851D01*
X424492Y196992D01*
X424538Y196957D01*
X424579Y196914D01*
X424651Y196872D01*
X424719Y196821D01*
X424773Y196800D01*
X424824Y196771D01*
X424905Y196750D01*
X424984Y196720D01*
X425043Y196715D01*
X425099Y196700D01*
X425184Y196703D01*
X425268Y196696D01*
X425325Y196708D01*
X425384Y196709D01*
X425464Y196735D01*
X425546Y196752D01*
X425598Y196779D01*
X425654Y196797D01*
X425710Y196837D01*
X425799Y196883D01*
X425871Y196952D01*
X425927Y196992D01*
X435946Y207011D01*
X523686Y207011D01*
X523773Y207023D01*
X523860Y207026D01*
X523913Y207043D01*
X523968Y207051D01*
X524048Y207086D01*
X524131Y207113D01*
X524170Y207141D01*
X524227Y207167D01*
X524341Y207263D01*
X524404Y207308D01*
X525106Y208010D01*
X527191Y208874D01*
X529449Y208874D01*
X530725Y208345D01*
X530837Y208316D01*
X530946Y208281D01*
X530974Y208281D01*
X531001Y208274D01*
X531115Y208277D01*
X531230Y208274D01*
X531257Y208281D01*
X531285Y208282D01*
X531394Y208317D01*
X531505Y208346D01*
X531529Y208360D01*
X531556Y208369D01*
X531651Y208433D01*
X531750Y208491D01*
X531769Y208512D01*
X531792Y208527D01*
X531866Y208615D01*
X531944Y208699D01*
X531957Y208723D01*
X531975Y208745D01*
X532021Y208849D01*
X532074Y208952D01*
X532078Y208976D01*
X532090Y209004D01*
X532127Y209268D01*
X532129Y209283D01*
X532129Y222647D01*
X532117Y222733D01*
X532114Y222821D01*
X532097Y222873D01*
X532089Y222928D01*
X532054Y223008D01*
X532027Y223091D01*
X531999Y223131D01*
X531973Y223188D01*
X531877Y223301D01*
X531832Y223365D01*
X531129Y224067D01*
X531129Y228053D01*
X533947Y230871D01*
X537933Y230871D01*
X540751Y228053D01*
X540751Y224067D01*
X540048Y223365D01*
X539996Y223295D01*
X539936Y223231D01*
X539910Y223182D01*
X539877Y223137D01*
X539846Y223056D01*
X539806Y222978D01*
X539798Y222930D01*
X539776Y222872D01*
X539764Y222724D01*
X539751Y222647D01*
X539751Y190604D01*
X539763Y190517D01*
X539766Y190430D01*
X539783Y190377D01*
X539791Y190322D01*
X539826Y190242D01*
X539853Y190159D01*
X539881Y190120D01*
X539907Y190063D01*
X540003Y189950D01*
X540048Y189886D01*
X543799Y186135D01*
X543799Y162614D01*
X541269Y160085D01*
X515918Y134734D01*
X515866Y134664D01*
X515806Y134600D01*
X515780Y134551D01*
X515747Y134506D01*
X515716Y134425D01*
X515676Y134347D01*
X515668Y134299D01*
X515646Y134241D01*
X515634Y134093D01*
X515621Y134016D01*
X515621Y97112D01*
X515621Y97111D01*
X515621Y97109D01*
X515641Y96969D01*
X515661Y96831D01*
X515661Y96829D01*
X515661Y96828D01*
X515719Y96700D01*
X515777Y96571D01*
X515778Y96570D01*
X515779Y96569D01*
X515872Y96459D01*
X515960Y96354D01*
X515962Y96354D01*
X515963Y96352D01*
X515976Y96344D01*
X516066Y96284D01*
X516081Y96270D01*
X516108Y96256D01*
X516197Y96197D01*
X516226Y96188D01*
X516247Y96174D01*
X518573Y95211D01*
X521931Y91853D01*
X523749Y87465D01*
X523749Y82715D01*
X521931Y78327D01*
X518573Y74969D01*
X514611Y73328D01*
X514586Y73313D01*
X514558Y73304D01*
X514464Y73241D01*
X514367Y73183D01*
X514346Y73162D01*
X514322Y73146D01*
X514249Y73059D01*
X514171Y72977D01*
X514158Y72951D01*
X514139Y72928D01*
X514093Y72825D01*
X514041Y72724D01*
X514035Y72695D01*
X514024Y72668D01*
X514008Y72556D01*
X513986Y72445D01*
X513989Y72416D01*
X513985Y72387D01*
X514001Y72275D01*
X514011Y72162D01*
X514021Y72135D01*
X514025Y72106D01*
X514072Y72002D01*
X514113Y71897D01*
X514130Y71873D01*
X514142Y71846D01*
X514216Y71760D01*
X514284Y71670D01*
X514308Y71652D01*
X514327Y71630D01*
X514393Y71588D01*
X514512Y71500D01*
X514570Y71478D01*
X514611Y71452D01*
X518573Y69811D01*
X521931Y66453D01*
X523572Y62491D01*
X523587Y62466D01*
X523596Y62438D01*
X523659Y62344D01*
X523717Y62247D01*
X523738Y62226D01*
X523754Y62202D01*
X523841Y62129D01*
X523923Y62051D01*
X523949Y62038D01*
X523972Y62019D01*
X524075Y61973D01*
X524176Y61921D01*
X524205Y61915D01*
X524232Y61904D01*
X524344Y61888D01*
X524455Y61866D01*
X524484Y61869D01*
X524513Y61865D01*
X524625Y61881D01*
X524738Y61891D01*
X524765Y61901D01*
X524795Y61905D01*
X524898Y61952D01*
X525003Y61993D01*
X525027Y62010D01*
X525054Y62022D01*
X525140Y62096D01*
X525230Y62164D01*
X525248Y62188D01*
X525270Y62207D01*
X525312Y62273D01*
X525400Y62392D01*
X525422Y62450D01*
X525448Y62491D01*
X527089Y66453D01*
X530447Y69811D01*
X534835Y71629D01*
X539585Y71629D01*
X543171Y70143D01*
X543283Y70114D01*
X543392Y70080D01*
X543420Y70079D01*
X543447Y70072D01*
X543561Y70075D01*
X543676Y70072D01*
X543703Y70079D01*
X543731Y70080D01*
X543840Y70115D01*
X543951Y70144D01*
X543975Y70158D01*
X544002Y70167D01*
X544097Y70231D01*
X544196Y70290D01*
X544215Y70310D01*
X544238Y70325D01*
X544312Y70413D01*
X544390Y70497D01*
X544403Y70522D01*
X544421Y70543D01*
X544467Y70648D01*
X544520Y70750D01*
X544524Y70775D01*
X544536Y70803D01*
X544573Y71066D01*
X544575Y71081D01*
X544575Y72444D01*
X547105Y74974D01*
X551414Y79284D01*
X551415Y79285D01*
X551417Y79286D01*
X551501Y79399D01*
X551585Y79511D01*
X551586Y79512D01*
X551587Y79513D01*
X551637Y79645D01*
X551686Y79776D01*
X551687Y79778D01*
X551687Y79779D01*
X551699Y79924D01*
X551710Y80060D01*
X551710Y80061D01*
X551710Y80063D01*
X551706Y80078D01*
X551654Y80338D01*
X551640Y80366D01*
X551634Y80390D01*
X550671Y82715D01*
X550671Y87465D01*
X552489Y91853D01*
X555847Y95211D01*
X560235Y97029D01*
X564985Y97029D01*
X569373Y95211D01*
X572731Y91853D01*
X574372Y87891D01*
X574387Y87866D01*
X574396Y87838D01*
X574459Y87744D01*
X574517Y87647D01*
X574538Y87626D01*
X574554Y87602D01*
X574641Y87529D01*
X574723Y87451D01*
X574749Y87438D01*
X574772Y87419D01*
X574875Y87373D01*
X574976Y87321D01*
X575005Y87315D01*
X575032Y87304D01*
X575144Y87288D01*
X575255Y87266D01*
X575284Y87269D01*
X575313Y87265D01*
X575425Y87281D01*
X575538Y87291D01*
X575565Y87301D01*
X575594Y87305D01*
X575698Y87352D01*
X575803Y87393D01*
X575827Y87410D01*
X575854Y87422D01*
X575940Y87496D01*
X576030Y87564D01*
X576048Y87588D01*
X576070Y87607D01*
X576112Y87673D01*
X576200Y87792D01*
X576222Y87850D01*
X576248Y87891D01*
X577889Y91853D01*
X581247Y95211D01*
X585635Y97029D01*
X590385Y97029D01*
X594773Y95211D01*
X598131Y91853D01*
X599772Y87891D01*
X599787Y87866D01*
X599796Y87838D01*
X599859Y87744D01*
X599917Y87647D01*
X599938Y87626D01*
X599954Y87602D01*
X600041Y87529D01*
X600123Y87451D01*
X600149Y87438D01*
X600172Y87419D01*
X600275Y87373D01*
X600376Y87321D01*
X600405Y87316D01*
X600432Y87304D01*
X600544Y87288D01*
X600655Y87266D01*
X600684Y87269D01*
X600713Y87265D01*
X600825Y87281D01*
X600938Y87291D01*
X600965Y87301D01*
X600995Y87305D01*
X601098Y87352D01*
X601203Y87393D01*
X601227Y87410D01*
X601254Y87422D01*
X601340Y87496D01*
X601430Y87564D01*
X601448Y87588D01*
X601470Y87607D01*
X601512Y87673D01*
X601600Y87792D01*
X601622Y87851D01*
X601648Y87891D01*
X603289Y91853D01*
X606647Y95211D01*
X611035Y97029D01*
X615785Y97029D01*
X620173Y95211D01*
X623531Y91853D01*
X624918Y88505D01*
X624962Y88431D01*
X624997Y88352D01*
X625034Y88309D01*
X625063Y88260D01*
X625125Y88201D01*
X625181Y88135D01*
X625228Y88104D01*
X625269Y88065D01*
X625346Y88025D01*
X625417Y87978D01*
X625471Y87960D01*
X625522Y87934D01*
X625606Y87918D01*
X625688Y87892D01*
X625745Y87890D01*
X625801Y87879D01*
X625886Y87887D01*
X625972Y87884D01*
X626027Y87899D01*
X626084Y87904D01*
X626164Y87935D01*
X626247Y87956D01*
X626296Y87985D01*
X626349Y88006D01*
X626418Y88058D01*
X626492Y88102D01*
X626531Y88143D01*
X626576Y88177D01*
X626627Y88246D01*
X626686Y88309D01*
X626712Y88360D01*
X626746Y88405D01*
X626777Y88486D01*
X626816Y88562D01*
X626824Y88611D01*
X626847Y88671D01*
X626858Y88816D01*
X626871Y88893D01*
X626871Y95243D01*
X628657Y97029D01*
X648963Y97029D01*
X650749Y95243D01*
X650749Y74937D01*
X648963Y73151D01*
X642613Y73151D01*
X642528Y73139D01*
X642442Y73137D01*
X642388Y73119D01*
X642332Y73111D01*
X642253Y73076D01*
X642171Y73050D01*
X642124Y73018D01*
X642072Y72995D01*
X642007Y72940D01*
X641935Y72892D01*
X641899Y72848D01*
X641855Y72812D01*
X641808Y72740D01*
X641752Y72674D01*
X641729Y72622D01*
X641698Y72575D01*
X641672Y72493D01*
X641637Y72414D01*
X641629Y72358D01*
X641612Y72304D01*
X641610Y72218D01*
X641598Y72133D01*
X641606Y72077D01*
X641604Y72020D01*
X641626Y71937D01*
X641638Y71852D01*
X641662Y71800D01*
X641676Y71745D01*
X641720Y71671D01*
X641756Y71592D01*
X641792Y71549D01*
X641822Y71500D01*
X641884Y71441D01*
X641940Y71376D01*
X641982Y71350D01*
X642029Y71306D01*
X642158Y71240D01*
X642225Y71198D01*
X645573Y69811D01*
X648931Y66453D01*
X650749Y62065D01*
X650749Y57315D01*
X648931Y52927D01*
X645573Y49569D01*
X641185Y47751D01*
X636435Y47751D01*
X632047Y49569D01*
X628689Y52927D01*
X627048Y56889D01*
X627033Y56914D01*
X627024Y56942D01*
X626961Y57036D01*
X626903Y57133D01*
X626882Y57154D01*
X626866Y57178D01*
X626779Y57251D01*
X626697Y57329D01*
X626671Y57342D01*
X626648Y57361D01*
X626545Y57407D01*
X626444Y57459D01*
X626415Y57465D01*
X626388Y57476D01*
X626276Y57492D01*
X626165Y57514D01*
X626136Y57511D01*
X626107Y57515D01*
X625995Y57499D01*
X625882Y57489D01*
X625855Y57479D01*
X625826Y57475D01*
X625722Y57428D01*
X625617Y57387D01*
X625593Y57370D01*
X625566Y57358D01*
X625480Y57284D01*
X625390Y57216D01*
X625372Y57192D01*
X625350Y57173D01*
X625308Y57107D01*
X625220Y56988D01*
X625207Y56953D01*
X625190Y56929D01*
X625183Y56907D01*
X625172Y56889D01*
X623531Y52927D01*
X620173Y49569D01*
X615785Y47751D01*
X611035Y47751D01*
X606647Y49569D01*
X603289Y52927D01*
X601471Y57315D01*
X601471Y62065D01*
X603289Y66453D01*
X606647Y69811D01*
X610609Y71452D01*
X610634Y71467D01*
X610662Y71476D01*
X610756Y71539D01*
X610853Y71597D01*
X610874Y71618D01*
X610898Y71634D01*
X610971Y71721D01*
X611049Y71803D01*
X611062Y71829D01*
X611081Y71852D01*
X611127Y71955D01*
X611179Y72056D01*
X611184Y72085D01*
X611196Y72112D01*
X611212Y72224D01*
X611234Y72335D01*
X611231Y72364D01*
X611235Y72393D01*
X611219Y72505D01*
X611209Y72618D01*
X611199Y72645D01*
X611195Y72675D01*
X611148Y72778D01*
X611107Y72883D01*
X611090Y72907D01*
X611078Y72934D01*
X611004Y73020D01*
X610936Y73110D01*
X610912Y73128D01*
X610893Y73150D01*
X610827Y73192D01*
X610708Y73280D01*
X610649Y73302D01*
X610609Y73328D01*
X606647Y74969D01*
X603289Y78327D01*
X601648Y82289D01*
X601633Y82314D01*
X601624Y82342D01*
X601561Y82436D01*
X601503Y82533D01*
X601482Y82554D01*
X601466Y82578D01*
X601379Y82651D01*
X601297Y82729D01*
X601271Y82742D01*
X601248Y82761D01*
X601145Y82807D01*
X601044Y82859D01*
X601015Y82865D01*
X600988Y82876D01*
X600876Y82892D01*
X600765Y82914D01*
X600736Y82911D01*
X600707Y82915D01*
X600595Y82899D01*
X600482Y82889D01*
X600455Y82879D01*
X600426Y82875D01*
X600322Y82828D01*
X600217Y82787D01*
X600193Y82770D01*
X600166Y82758D01*
X600080Y82684D01*
X599990Y82616D01*
X599972Y82592D01*
X599950Y82573D01*
X599908Y82507D01*
X599820Y82388D01*
X599800Y82337D01*
X599783Y82310D01*
X599780Y82301D01*
X599772Y82289D01*
X598131Y78327D01*
X594773Y74969D01*
X590385Y73151D01*
X585635Y73151D01*
X581247Y74969D01*
X577889Y78327D01*
X576248Y82289D01*
X576233Y82314D01*
X576224Y82342D01*
X576161Y82436D01*
X576103Y82533D01*
X576082Y82554D01*
X576066Y82578D01*
X575979Y82651D01*
X575897Y82729D01*
X575871Y82742D01*
X575848Y82761D01*
X575745Y82807D01*
X575644Y82859D01*
X575615Y82865D01*
X575588Y82876D01*
X575476Y82892D01*
X575365Y82914D01*
X575336Y82911D01*
X575307Y82915D01*
X575195Y82899D01*
X575082Y82889D01*
X575055Y82879D01*
X575025Y82875D01*
X574922Y82828D01*
X574817Y82787D01*
X574793Y82770D01*
X574766Y82758D01*
X574680Y82684D01*
X574590Y82616D01*
X574572Y82592D01*
X574550Y82573D01*
X574508Y82507D01*
X574420Y82388D01*
X574400Y82337D01*
X574383Y82310D01*
X574379Y82301D01*
X574372Y82289D01*
X572731Y78327D01*
X569373Y74969D01*
X565411Y73328D01*
X565386Y73313D01*
X565358Y73304D01*
X565264Y73241D01*
X565167Y73183D01*
X565146Y73162D01*
X565122Y73146D01*
X565049Y73059D01*
X564971Y72977D01*
X564958Y72951D01*
X564939Y72928D01*
X564893Y72825D01*
X564841Y72724D01*
X564835Y72695D01*
X564824Y72668D01*
X564808Y72556D01*
X564786Y72445D01*
X564789Y72416D01*
X564785Y72387D01*
X564801Y72275D01*
X564811Y72162D01*
X564821Y72135D01*
X564825Y72106D01*
X564872Y72002D01*
X564913Y71897D01*
X564930Y71873D01*
X564942Y71846D01*
X565016Y71760D01*
X565084Y71670D01*
X565108Y71652D01*
X565127Y71630D01*
X565193Y71588D01*
X565312Y71500D01*
X565370Y71478D01*
X565411Y71452D01*
X569373Y69811D01*
X572731Y66453D01*
X574549Y62065D01*
X574549Y57315D01*
X572731Y52927D01*
X569373Y49569D01*
X564985Y47751D01*
X560235Y47751D01*
X555847Y49569D01*
X552783Y52633D01*
X552737Y52668D01*
X552696Y52710D01*
X552623Y52753D01*
X552556Y52804D01*
X552501Y52825D01*
X552451Y52854D01*
X552369Y52875D01*
X552290Y52905D01*
X552232Y52910D01*
X552175Y52924D01*
X552091Y52922D01*
X552007Y52929D01*
X551950Y52917D01*
X551891Y52915D01*
X551811Y52889D01*
X551728Y52873D01*
X551676Y52846D01*
X551621Y52828D01*
X551565Y52788D01*
X551476Y52742D01*
X551404Y52673D01*
X551347Y52633D01*
X538074Y39359D01*
X538073Y39359D01*
X536262Y37548D01*
X536245Y37524D01*
X536222Y37505D01*
X536160Y37411D01*
X536091Y37321D01*
X536081Y37293D01*
X536065Y37269D01*
X536031Y37161D01*
X535990Y37055D01*
X535988Y37026D01*
X535979Y36998D01*
X535976Y36884D01*
X535967Y36772D01*
X535972Y36743D01*
X535972Y36714D01*
X536000Y36604D01*
X536023Y36493D01*
X536036Y36467D01*
X536043Y36439D01*
X536101Y36341D01*
X536154Y36241D01*
X536174Y36219D01*
X536189Y36194D01*
X536271Y36117D01*
X536349Y36035D01*
X536375Y36020D01*
X536396Y36000D01*
X536497Y35948D01*
X536595Y35891D01*
X536623Y35884D01*
X536649Y35870D01*
X536727Y35857D01*
X536870Y35821D01*
X536933Y35823D01*
X536980Y35815D01*
X578458Y35815D01*
X580325Y35041D01*
X592208Y23158D01*
X592278Y23106D01*
X592342Y23046D01*
X592392Y23020D01*
X592436Y22987D01*
X592517Y22956D01*
X592595Y22916D01*
X592643Y22908D01*
X592701Y22886D01*
X592849Y22874D01*
X592926Y22861D01*
X652795Y22861D01*
X652882Y22873D01*
X652969Y22876D01*
X653022Y22893D01*
X653076Y22901D01*
X653156Y22936D01*
X653240Y22963D01*
X653279Y22991D01*
X653336Y23017D01*
X653449Y23113D01*
X653513Y23158D01*
X660062Y29707D01*
X660527Y29900D01*
X660554Y29916D01*
X660583Y29925D01*
X660647Y29971D01*
X660772Y30044D01*
X660816Y30091D01*
X660857Y30120D01*
X660947Y30211D01*
X661076Y30211D01*
X661106Y30215D01*
X661137Y30213D01*
X661213Y30230D01*
X661357Y30251D01*
X661416Y30277D01*
X661464Y30288D01*
X661929Y30481D01*
X663951Y30481D01*
X664416Y30288D01*
X664446Y30280D01*
X664473Y30266D01*
X664551Y30253D01*
X664691Y30217D01*
X664756Y30219D01*
X664804Y30211D01*
X664933Y30211D01*
X665023Y30120D01*
X665048Y30101D01*
X665068Y30078D01*
X665134Y30036D01*
X665250Y29949D01*
X665311Y29926D01*
X665353Y29900D01*
X665818Y29707D01*
X667247Y28278D01*
X667440Y27813D01*
X667456Y27786D01*
X667465Y27757D01*
X667511Y27693D01*
X667584Y27568D01*
X667631Y27524D01*
X667660Y27483D01*
X667751Y27393D01*
X667751Y27264D01*
X667755Y27234D01*
X667753Y27203D01*
X667770Y27127D01*
X667791Y26983D01*
X667817Y26924D01*
X667828Y26876D01*
X668021Y26411D01*
X668021Y24389D01*
X667828Y23924D01*
X667820Y23894D01*
X667806Y23867D01*
X667793Y23789D01*
X667757Y23649D01*
X667759Y23584D01*
X667751Y23536D01*
X667751Y23407D01*
X667660Y23317D01*
X667641Y23292D01*
X667618Y23272D01*
X667576Y23206D01*
X667489Y23090D01*
X667466Y23029D01*
X667440Y22987D01*
X667247Y22522D01*
X663731Y19006D01*
X663713Y18982D01*
X663691Y18963D01*
X663628Y18869D01*
X663560Y18779D01*
X663550Y18751D01*
X663533Y18727D01*
X663499Y18619D01*
X663459Y18513D01*
X663457Y18484D01*
X663448Y18456D01*
X663445Y18342D01*
X663435Y18230D01*
X663441Y18201D01*
X663440Y18172D01*
X663469Y18062D01*
X663491Y17951D01*
X663505Y17925D01*
X663512Y17897D01*
X663570Y17799D01*
X663622Y17699D01*
X663642Y17677D01*
X663657Y17652D01*
X663740Y17575D01*
X663818Y17493D01*
X663843Y17478D01*
X663865Y17458D01*
X663966Y17406D01*
X664063Y17349D01*
X664092Y17342D01*
X664118Y17328D01*
X664195Y17315D01*
X664339Y17279D01*
X664401Y17281D01*
X664449Y17273D01*
X731926Y17273D01*
X732013Y17285D01*
X732100Y17288D01*
X732153Y17305D01*
X732207Y17313D01*
X732287Y17348D01*
X732370Y17375D01*
X732410Y17403D01*
X732467Y17429D01*
X732580Y17525D01*
X732644Y17570D01*
X797262Y82188D01*
X797273Y82203D01*
X797282Y82211D01*
X797308Y82249D01*
X797314Y82258D01*
X797374Y82322D01*
X797400Y82371D01*
X797433Y82415D01*
X797464Y82497D01*
X797504Y82575D01*
X797512Y82623D01*
X797534Y82681D01*
X797546Y82829D01*
X797559Y82906D01*
X797559Y266384D01*
X797555Y266413D01*
X797558Y266443D01*
X797535Y266554D01*
X797519Y266666D01*
X797507Y266693D01*
X797502Y266721D01*
X797450Y266822D01*
X797403Y266925D01*
X797384Y266948D01*
X797371Y266974D01*
X797293Y267056D01*
X797220Y267142D01*
X797195Y267159D01*
X797175Y267180D01*
X797077Y267237D01*
X796983Y267300D01*
X796955Y267309D01*
X796930Y267324D01*
X796820Y267351D01*
X796712Y267386D01*
X796683Y267386D01*
X796654Y267394D01*
X796541Y267390D01*
X796428Y267393D01*
X796399Y267386D01*
X796370Y267385D01*
X796262Y267350D01*
X796153Y267321D01*
X796127Y267306D01*
X796099Y267297D01*
X796036Y267252D01*
X795908Y267176D01*
X795865Y267130D01*
X795826Y267102D01*
X795694Y266970D01*
X793609Y266106D01*
X791351Y266106D01*
X789266Y266970D01*
X789072Y267164D01*
X789002Y267216D01*
X788939Y267276D01*
X788889Y267302D01*
X788845Y267335D01*
X788763Y267366D01*
X788685Y267406D01*
X788638Y267414D01*
X788579Y267436D01*
X788432Y267448D01*
X788354Y267461D01*
X770371Y267461D01*
X717328Y320504D01*
X717259Y320556D01*
X717195Y320616D01*
X717145Y320642D01*
X717101Y320675D01*
X717020Y320706D01*
X716942Y320746D01*
X716894Y320754D01*
X716836Y320776D01*
X716688Y320788D01*
X716611Y320801D01*
X676391Y320801D01*
X670423Y326769D01*
X670354Y326821D01*
X670290Y326881D01*
X670240Y326907D01*
X670196Y326940D01*
X670115Y326971D01*
X670037Y327011D01*
X669989Y327019D01*
X669931Y327041D01*
X669783Y327053D01*
X669706Y327066D01*
X669431Y327066D01*
X667346Y327930D01*
X665750Y329526D01*
X664886Y331611D01*
X664886Y331926D01*
X664882Y331955D01*
X664885Y331984D01*
X664862Y332095D01*
X664846Y332208D01*
X664834Y332234D01*
X664829Y332263D01*
X664777Y332364D01*
X664730Y332467D01*
X664711Y332489D01*
X664698Y332515D01*
X664620Y332597D01*
X664547Y332684D01*
X664522Y332700D01*
X664502Y332722D01*
X664404Y332779D01*
X664310Y332842D01*
X664282Y332850D01*
X664257Y332865D01*
X664147Y332893D01*
X664039Y332927D01*
X664009Y332928D01*
X663981Y332935D01*
X663868Y332932D01*
X663755Y332935D01*
X663726Y332927D01*
X663697Y332926D01*
X663589Y332891D01*
X663480Y332863D01*
X663454Y332848D01*
X663426Y332839D01*
X663363Y332793D01*
X663235Y332718D01*
X663192Y332672D01*
X663153Y332644D01*
X656211Y325702D01*
X656159Y325632D01*
X656099Y325568D01*
X656073Y325519D01*
X656040Y325475D01*
X656009Y325393D01*
X655969Y325315D01*
X655961Y325268D01*
X655939Y325209D01*
X655927Y325061D01*
X655914Y324984D01*
X655914Y323991D01*
X655050Y321906D01*
X653454Y320310D01*
X651369Y319446D01*
X649111Y319446D01*
X647026Y320310D01*
X645430Y321906D01*
X644566Y323991D01*
X644566Y325253D01*
X644566Y325254D01*
X644566Y325256D01*
X644546Y325396D01*
X644526Y325534D01*
X644526Y325535D01*
X644526Y325537D01*
X644469Y325663D01*
X644410Y325793D01*
X644409Y325795D01*
X644408Y325796D01*
X644320Y325900D01*
X644227Y326010D01*
X644225Y326011D01*
X644224Y326013D01*
X644211Y326021D01*
X643990Y326168D01*
X643961Y326177D01*
X643940Y326190D01*
X643506Y326370D01*
X641910Y327966D01*
X641046Y330051D01*
X641046Y332309D01*
X641910Y334394D01*
X643506Y335990D01*
X645591Y336854D01*
X646584Y336854D01*
X646671Y336866D01*
X646758Y336869D01*
X646811Y336886D01*
X646866Y336894D01*
X646945Y336929D01*
X647029Y336956D01*
X647068Y336984D01*
X647125Y337010D01*
X647238Y337106D01*
X647302Y337151D01*
X648841Y338690D01*
X648893Y338760D01*
X648953Y338824D01*
X648979Y338873D01*
X649012Y338917D01*
X649043Y338999D01*
X649083Y339077D01*
X649091Y339124D01*
X649113Y339183D01*
X649125Y339331D01*
X649138Y339408D01*
X649138Y366833D01*
X657295Y374990D01*
X757485Y374990D01*
X925662Y206813D01*
X925662Y180063D01*
X925674Y179976D01*
X925677Y179889D01*
X925694Y179836D01*
X925702Y179781D01*
X925737Y179701D01*
X925764Y179618D01*
X925792Y179579D01*
X925818Y179522D01*
X925914Y179408D01*
X925959Y179345D01*
X926830Y178474D01*
X927694Y176389D01*
X927694Y174131D01*
X926830Y172046D01*
X925234Y170450D01*
X923149Y169586D01*
X920891Y169586D01*
X918806Y170450D01*
X917210Y172046D01*
X916346Y174131D01*
X916346Y176389D01*
X917210Y178474D01*
X917743Y179007D01*
X917795Y179077D01*
X917855Y179140D01*
X917881Y179190D01*
X917914Y179234D01*
X917945Y179316D01*
X917985Y179394D01*
X917993Y179441D01*
X918015Y179500D01*
X918027Y179647D01*
X918040Y179725D01*
X918040Y196511D01*
X918032Y196569D01*
X918034Y196627D01*
X918012Y196709D01*
X918000Y196793D01*
X917977Y196846D01*
X917962Y196902D01*
X917919Y196975D01*
X917884Y197052D01*
X917846Y197097D01*
X917817Y197147D01*
X917755Y197205D01*
X917701Y197269D01*
X917652Y197301D01*
X917609Y197341D01*
X917534Y197380D01*
X917464Y197427D01*
X917408Y197444D01*
X917356Y197471D01*
X917288Y197482D01*
X917193Y197512D01*
X917093Y197515D01*
X917025Y197526D01*
X915811Y197526D01*
X913726Y198390D01*
X912123Y199993D01*
X912115Y200017D01*
X912070Y200081D01*
X911996Y200206D01*
X911949Y200250D01*
X911920Y200291D01*
X910292Y201919D01*
X809454Y302757D01*
X809430Y302775D01*
X809411Y302797D01*
X809317Y302860D01*
X809227Y302928D01*
X809199Y302938D01*
X809175Y302955D01*
X809067Y302989D01*
X808961Y303029D01*
X808932Y303032D01*
X808904Y303040D01*
X808790Y303043D01*
X808678Y303053D01*
X808649Y303047D01*
X808620Y303048D01*
X808510Y303019D01*
X808399Y302997D01*
X808373Y302983D01*
X808345Y302976D01*
X808247Y302918D01*
X808147Y302866D01*
X808125Y302846D01*
X808100Y302831D01*
X808023Y302748D01*
X807941Y302670D01*
X807926Y302645D01*
X807906Y302623D01*
X807854Y302522D01*
X807797Y302425D01*
X807790Y302396D01*
X807776Y302370D01*
X807763Y302293D01*
X807727Y302149D01*
X807729Y302087D01*
X807721Y302039D01*
X807721Y79370D01*
X806947Y77503D01*
X737329Y7885D01*
X735462Y7111D01*
X587056Y7111D01*
X585009Y7959D01*
X584995Y7967D01*
X584913Y7988D01*
X584834Y8018D01*
X584776Y8023D01*
X584719Y8037D01*
X584635Y8035D01*
X584551Y8042D01*
X584494Y8030D01*
X584435Y8028D01*
X584355Y8002D01*
X584272Y7986D01*
X584220Y7959D01*
X584165Y7941D01*
X584108Y7901D01*
X584020Y7855D01*
X583954Y7793D01*
X583935Y7780D01*
X583930Y7774D01*
X583891Y7746D01*
X569298Y-6847D01*
X567431Y-7621D01*
X256762Y-7621D01*
X256732Y-7625D01*
X256701Y-7623D01*
X256624Y-7640D01*
X256481Y-7661D01*
X256422Y-7687D01*
X256374Y-7698D01*
X255129Y-8214D01*
X252871Y-8214D01*
G37*
%LPD*%
G36*
X346825Y61881D02*
X346825Y61881D01*
X346938Y61891D01*
X346965Y61901D01*
X346994Y61905D01*
X347098Y61952D01*
X347203Y61993D01*
X347227Y62010D01*
X347254Y62022D01*
X347340Y62096D01*
X347430Y62164D01*
X347448Y62188D01*
X347470Y62207D01*
X347512Y62273D01*
X347600Y62392D01*
X347622Y62450D01*
X347648Y62491D01*
X349289Y66453D01*
X352647Y69811D01*
X356609Y71452D01*
X356634Y71467D01*
X356662Y71476D01*
X356756Y71539D01*
X356853Y71597D01*
X356874Y71618D01*
X356898Y71634D01*
X356971Y71721D01*
X357049Y71803D01*
X357062Y71829D01*
X357081Y71852D01*
X357127Y71955D01*
X357179Y72056D01*
X357184Y72085D01*
X357196Y72112D01*
X357212Y72224D01*
X357234Y72335D01*
X357231Y72364D01*
X357235Y72393D01*
X357219Y72505D01*
X357209Y72618D01*
X357199Y72645D01*
X357195Y72675D01*
X357148Y72778D01*
X357107Y72883D01*
X357090Y72907D01*
X357078Y72934D01*
X357004Y73020D01*
X356936Y73110D01*
X356912Y73128D01*
X356893Y73150D01*
X356827Y73192D01*
X356708Y73280D01*
X356649Y73302D01*
X356609Y73328D01*
X352647Y74969D01*
X349289Y78327D01*
X347471Y82715D01*
X347471Y87465D01*
X349289Y91853D01*
X352647Y95211D01*
X357035Y97029D01*
X361785Y97029D01*
X366173Y95211D01*
X369531Y91853D01*
X371172Y87891D01*
X371187Y87866D01*
X371196Y87838D01*
X371259Y87744D01*
X371317Y87647D01*
X371338Y87626D01*
X371354Y87602D01*
X371441Y87529D01*
X371523Y87451D01*
X371549Y87438D01*
X371572Y87419D01*
X371675Y87373D01*
X371776Y87321D01*
X371805Y87316D01*
X371832Y87304D01*
X371944Y87288D01*
X372055Y87266D01*
X372084Y87269D01*
X372113Y87265D01*
X372225Y87281D01*
X372338Y87291D01*
X372365Y87301D01*
X372395Y87305D01*
X372498Y87352D01*
X372603Y87393D01*
X372627Y87410D01*
X372654Y87422D01*
X372740Y87496D01*
X372830Y87564D01*
X372848Y87588D01*
X372870Y87607D01*
X372912Y87673D01*
X373000Y87792D01*
X373022Y87851D01*
X373048Y87891D01*
X374689Y91853D01*
X378047Y95211D01*
X382435Y97029D01*
X387185Y97029D01*
X391573Y95211D01*
X394931Y91853D01*
X396572Y87891D01*
X396587Y87866D01*
X396596Y87838D01*
X396659Y87744D01*
X396717Y87647D01*
X396738Y87626D01*
X396754Y87602D01*
X396841Y87529D01*
X396923Y87451D01*
X396949Y87438D01*
X396972Y87419D01*
X397075Y87373D01*
X397176Y87321D01*
X397205Y87316D01*
X397232Y87304D01*
X397344Y87288D01*
X397455Y87266D01*
X397484Y87269D01*
X397513Y87265D01*
X397625Y87281D01*
X397738Y87291D01*
X397765Y87301D01*
X397795Y87305D01*
X397898Y87352D01*
X398003Y87393D01*
X398027Y87410D01*
X398054Y87422D01*
X398140Y87496D01*
X398230Y87564D01*
X398248Y87588D01*
X398270Y87607D01*
X398312Y87673D01*
X398400Y87792D01*
X398422Y87851D01*
X398448Y87891D01*
X400089Y91853D01*
X403447Y95211D01*
X407835Y97029D01*
X412585Y97029D01*
X416973Y95211D01*
X420331Y91853D01*
X421972Y87891D01*
X421987Y87866D01*
X421996Y87838D01*
X422059Y87744D01*
X422117Y87647D01*
X422138Y87626D01*
X422154Y87602D01*
X422241Y87529D01*
X422323Y87451D01*
X422349Y87438D01*
X422372Y87419D01*
X422475Y87373D01*
X422576Y87321D01*
X422605Y87315D01*
X422632Y87304D01*
X422744Y87288D01*
X422855Y87266D01*
X422884Y87269D01*
X422913Y87265D01*
X423025Y87281D01*
X423138Y87291D01*
X423165Y87301D01*
X423195Y87305D01*
X423298Y87352D01*
X423403Y87393D01*
X423427Y87410D01*
X423454Y87422D01*
X423540Y87496D01*
X423630Y87564D01*
X423648Y87588D01*
X423670Y87607D01*
X423712Y87673D01*
X423800Y87792D01*
X423822Y87850D01*
X423848Y87891D01*
X425157Y91051D01*
X425186Y91163D01*
X425220Y91272D01*
X425221Y91300D01*
X425228Y91327D01*
X425225Y91441D01*
X425228Y91556D01*
X425221Y91583D01*
X425220Y91611D01*
X425185Y91720D01*
X425156Y91831D01*
X425142Y91855D01*
X425133Y91882D01*
X425069Y91977D01*
X425010Y92076D01*
X424990Y92095D01*
X424975Y92118D01*
X424887Y92192D01*
X424803Y92270D01*
X424778Y92283D01*
X424757Y92301D01*
X424652Y92348D01*
X424550Y92400D01*
X424525Y92404D01*
X424497Y92416D01*
X424234Y92453D01*
X424219Y92455D01*
X422856Y92455D01*
X414602Y100709D01*
X414532Y100761D01*
X414468Y100821D01*
X414419Y100847D01*
X414375Y100880D01*
X414293Y100911D01*
X414215Y100951D01*
X414168Y100959D01*
X414109Y100981D01*
X413961Y100993D01*
X413884Y101006D01*
X412891Y101006D01*
X410806Y101870D01*
X409210Y103466D01*
X408346Y105551D01*
X408346Y107809D01*
X409210Y109894D01*
X410806Y111490D01*
X412891Y112354D01*
X415149Y112354D01*
X417234Y111490D01*
X418830Y109894D01*
X419694Y107809D01*
X419694Y106816D01*
X419706Y106729D01*
X419709Y106642D01*
X419726Y106589D01*
X419734Y106534D01*
X419769Y106455D01*
X419796Y106371D01*
X419824Y106332D01*
X419850Y106275D01*
X419946Y106162D01*
X419991Y106098D01*
X425715Y100374D01*
X425785Y100322D01*
X425849Y100262D01*
X425898Y100236D01*
X425942Y100203D01*
X426024Y100172D01*
X426102Y100132D01*
X426149Y100124D01*
X426208Y100102D01*
X426356Y100090D01*
X426433Y100077D01*
X441818Y100077D01*
X444290Y97604D01*
X444314Y97587D01*
X444333Y97564D01*
X444427Y97502D01*
X444517Y97433D01*
X444545Y97423D01*
X444569Y97407D01*
X444677Y97373D01*
X444783Y97332D01*
X444812Y97330D01*
X444840Y97321D01*
X444954Y97318D01*
X445066Y97309D01*
X445095Y97314D01*
X445124Y97314D01*
X445234Y97342D01*
X445345Y97365D01*
X445371Y97378D01*
X445399Y97385D01*
X445497Y97443D01*
X445597Y97496D01*
X445619Y97516D01*
X445644Y97531D01*
X445721Y97613D01*
X445803Y97691D01*
X445818Y97717D01*
X445838Y97738D01*
X445890Y97839D01*
X445947Y97937D01*
X445954Y97965D01*
X445968Y97991D01*
X445981Y98069D01*
X446017Y98212D01*
X446015Y98275D01*
X446023Y98322D01*
X446023Y127287D01*
X446011Y127374D01*
X446008Y127461D01*
X445991Y127514D01*
X445983Y127569D01*
X445948Y127648D01*
X445921Y127732D01*
X445893Y127771D01*
X445867Y127828D01*
X445771Y127941D01*
X445726Y128005D01*
X373099Y200632D01*
X373029Y200684D01*
X372965Y200744D01*
X372916Y200770D01*
X372872Y200803D01*
X372790Y200834D01*
X372712Y200874D01*
X372665Y200882D01*
X372606Y200904D01*
X372458Y200916D01*
X372381Y200929D01*
X371387Y200929D01*
X368569Y203747D01*
X368569Y204962D01*
X368561Y205020D01*
X368563Y205078D01*
X368541Y205160D01*
X368529Y205244D01*
X368506Y205297D01*
X368491Y205353D01*
X368448Y205426D01*
X368413Y205503D01*
X368375Y205548D01*
X368346Y205598D01*
X368284Y205656D01*
X368230Y205720D01*
X368181Y205752D01*
X368138Y205792D01*
X368063Y205831D01*
X367993Y205878D01*
X367937Y205895D01*
X367885Y205922D01*
X367817Y205933D01*
X367722Y205963D01*
X367622Y205966D01*
X367554Y205977D01*
X234477Y205977D01*
X234446Y205973D01*
X234415Y205975D01*
X234339Y205958D01*
X234195Y205937D01*
X234136Y205911D01*
X234088Y205900D01*
X232269Y205146D01*
X230011Y205146D01*
X227926Y206010D01*
X226330Y207606D01*
X225466Y209691D01*
X225466Y210006D01*
X225462Y210035D01*
X225465Y210064D01*
X225442Y210175D01*
X225426Y210288D01*
X225414Y210314D01*
X225409Y210343D01*
X225356Y210444D01*
X225310Y210547D01*
X225291Y210569D01*
X225278Y210595D01*
X225200Y210678D01*
X225127Y210764D01*
X225102Y210780D01*
X225082Y210802D01*
X224984Y210859D01*
X224890Y210922D01*
X224862Y210930D01*
X224837Y210945D01*
X224727Y210973D01*
X224619Y211007D01*
X224589Y211008D01*
X224561Y211015D01*
X224448Y211012D01*
X224335Y211015D01*
X224306Y211007D01*
X224277Y211006D01*
X224169Y210971D01*
X224060Y210943D01*
X224034Y210928D01*
X224006Y210919D01*
X223942Y210873D01*
X223815Y210798D01*
X223772Y210752D01*
X223733Y210724D01*
X222717Y209708D01*
X222665Y209638D01*
X222605Y209574D01*
X222579Y209525D01*
X222546Y209481D01*
X222515Y209399D01*
X222475Y209321D01*
X222467Y209274D01*
X222445Y209215D01*
X222433Y209067D01*
X222420Y208990D01*
X222420Y94435D01*
X222424Y94406D01*
X222421Y94376D01*
X222444Y94265D01*
X222460Y94153D01*
X222472Y94126D01*
X222477Y94098D01*
X222530Y93997D01*
X222576Y93894D01*
X222595Y93871D01*
X222608Y93845D01*
X222686Y93763D01*
X222759Y93677D01*
X222784Y93661D01*
X222804Y93639D01*
X222902Y93582D01*
X222996Y93519D01*
X223024Y93510D01*
X223049Y93496D01*
X223159Y93468D01*
X223267Y93433D01*
X223297Y93433D01*
X223325Y93425D01*
X223438Y93429D01*
X223551Y93426D01*
X223580Y93434D01*
X223609Y93434D01*
X223717Y93469D01*
X223826Y93498D01*
X223852Y93513D01*
X223880Y93522D01*
X223944Y93568D01*
X224071Y93643D01*
X224114Y93689D01*
X224153Y93717D01*
X225647Y95211D01*
X230035Y97029D01*
X234785Y97029D01*
X239173Y95211D01*
X242531Y91853D01*
X244172Y87891D01*
X244187Y87866D01*
X244196Y87838D01*
X244259Y87744D01*
X244317Y87647D01*
X244338Y87626D01*
X244354Y87602D01*
X244441Y87529D01*
X244523Y87451D01*
X244549Y87438D01*
X244572Y87419D01*
X244675Y87373D01*
X244776Y87321D01*
X244805Y87315D01*
X244832Y87304D01*
X244944Y87288D01*
X245055Y87266D01*
X245084Y87269D01*
X245113Y87265D01*
X245225Y87281D01*
X245338Y87291D01*
X245365Y87301D01*
X245395Y87305D01*
X245498Y87352D01*
X245603Y87393D01*
X245627Y87410D01*
X245654Y87422D01*
X245740Y87496D01*
X245830Y87564D01*
X245848Y87588D01*
X245870Y87607D01*
X245912Y87673D01*
X246000Y87792D01*
X246022Y87850D01*
X246048Y87891D01*
X247689Y91853D01*
X251047Y95211D01*
X255435Y97029D01*
X260185Y97029D01*
X264573Y95211D01*
X267931Y91853D01*
X269572Y87891D01*
X269587Y87866D01*
X269596Y87838D01*
X269659Y87744D01*
X269717Y87647D01*
X269738Y87626D01*
X269754Y87602D01*
X269841Y87529D01*
X269923Y87451D01*
X269949Y87438D01*
X269972Y87419D01*
X270075Y87373D01*
X270176Y87321D01*
X270205Y87315D01*
X270232Y87304D01*
X270344Y87288D01*
X270455Y87266D01*
X270484Y87269D01*
X270513Y87265D01*
X270625Y87281D01*
X270738Y87291D01*
X270765Y87301D01*
X270795Y87305D01*
X270898Y87352D01*
X271003Y87393D01*
X271027Y87410D01*
X271054Y87422D01*
X271140Y87496D01*
X271230Y87564D01*
X271248Y87588D01*
X271270Y87607D01*
X271312Y87673D01*
X271400Y87792D01*
X271422Y87850D01*
X271448Y87891D01*
X273089Y91853D01*
X276447Y95211D01*
X280835Y97029D01*
X285585Y97029D01*
X289973Y95211D01*
X293331Y91853D01*
X294972Y87891D01*
X294987Y87866D01*
X294996Y87838D01*
X295059Y87744D01*
X295117Y87647D01*
X295138Y87626D01*
X295154Y87602D01*
X295241Y87529D01*
X295323Y87451D01*
X295349Y87438D01*
X295372Y87419D01*
X295475Y87373D01*
X295576Y87321D01*
X295605Y87315D01*
X295632Y87304D01*
X295744Y87288D01*
X295855Y87266D01*
X295884Y87269D01*
X295913Y87265D01*
X296025Y87281D01*
X296138Y87291D01*
X296165Y87301D01*
X296195Y87305D01*
X296298Y87352D01*
X296403Y87393D01*
X296427Y87410D01*
X296454Y87422D01*
X296540Y87496D01*
X296630Y87564D01*
X296648Y87588D01*
X296670Y87607D01*
X296712Y87673D01*
X296800Y87792D01*
X296822Y87850D01*
X296848Y87891D01*
X298489Y91853D01*
X301847Y95211D01*
X306235Y97029D01*
X310985Y97029D01*
X315373Y95211D01*
X318731Y91853D01*
X320549Y87465D01*
X320549Y82715D01*
X318731Y78327D01*
X315373Y74969D01*
X311411Y73328D01*
X311386Y73313D01*
X311358Y73304D01*
X311264Y73241D01*
X311167Y73183D01*
X311146Y73162D01*
X311122Y73146D01*
X311049Y73059D01*
X310971Y72977D01*
X310958Y72951D01*
X310939Y72928D01*
X310893Y72825D01*
X310841Y72724D01*
X310835Y72695D01*
X310824Y72668D01*
X310808Y72556D01*
X310786Y72445D01*
X310789Y72416D01*
X310785Y72387D01*
X310801Y72275D01*
X310811Y72162D01*
X310821Y72135D01*
X310825Y72106D01*
X310872Y72002D01*
X310913Y71897D01*
X310930Y71873D01*
X310942Y71846D01*
X311016Y71760D01*
X311084Y71670D01*
X311108Y71652D01*
X311127Y71630D01*
X311193Y71588D01*
X311312Y71500D01*
X311370Y71478D01*
X311411Y71452D01*
X315373Y69811D01*
X318731Y66453D01*
X320372Y62491D01*
X320387Y62466D01*
X320396Y62438D01*
X320459Y62344D01*
X320517Y62247D01*
X320538Y62226D01*
X320554Y62202D01*
X320641Y62129D01*
X320723Y62051D01*
X320749Y62038D01*
X320772Y62019D01*
X320875Y61973D01*
X320976Y61921D01*
X321005Y61915D01*
X321032Y61904D01*
X321144Y61888D01*
X321255Y61866D01*
X321284Y61869D01*
X321313Y61865D01*
X321425Y61881D01*
X321538Y61891D01*
X321565Y61901D01*
X321595Y61905D01*
X321698Y61952D01*
X321803Y61993D01*
X321827Y62010D01*
X321854Y62022D01*
X321940Y62096D01*
X322030Y62164D01*
X322048Y62188D01*
X322070Y62207D01*
X322112Y62273D01*
X322200Y62392D01*
X322222Y62450D01*
X322248Y62491D01*
X323889Y66453D01*
X327247Y69811D01*
X331635Y71629D01*
X336385Y71629D01*
X340773Y69811D01*
X344131Y66453D01*
X345772Y62491D01*
X345787Y62466D01*
X345796Y62438D01*
X345859Y62344D01*
X345917Y62247D01*
X345938Y62226D01*
X345954Y62202D01*
X346041Y62129D01*
X346123Y62051D01*
X346149Y62038D01*
X346172Y62019D01*
X346275Y61973D01*
X346376Y61921D01*
X346405Y61915D01*
X346432Y61904D01*
X346544Y61888D01*
X346655Y61866D01*
X346684Y61869D01*
X346713Y61865D01*
X346825Y61881D01*
G37*
%LPC*%
G36*
X185275Y284495D02*
X185275Y284495D01*
X179634Y290136D01*
X179588Y290171D01*
X179547Y290214D01*
X179474Y290256D01*
X179407Y290307D01*
X179352Y290328D01*
X179302Y290357D01*
X179220Y290378D01*
X179141Y290408D01*
X179083Y290413D01*
X179026Y290428D01*
X178942Y290425D01*
X178858Y290432D01*
X178801Y290420D01*
X178742Y290418D01*
X178662Y290393D01*
X178579Y290376D01*
X178527Y290349D01*
X178472Y290331D01*
X178415Y290291D01*
X178327Y290245D01*
X178255Y290176D01*
X178198Y290136D01*
X177876Y289813D01*
X167564Y289813D01*
X160379Y296999D01*
X160332Y297034D01*
X160292Y297077D01*
X160219Y297119D01*
X160152Y297170D01*
X160097Y297191D01*
X160046Y297220D01*
X159965Y297241D01*
X159886Y297271D01*
X159827Y297276D01*
X159771Y297290D01*
X159687Y297288D01*
X159603Y297295D01*
X159545Y297283D01*
X159487Y297281D01*
X159407Y297255D01*
X159324Y297239D01*
X159272Y297212D01*
X159216Y297194D01*
X159160Y297154D01*
X159071Y297108D01*
X158999Y297039D01*
X158943Y296999D01*
X152265Y290321D01*
X149351Y290321D01*
X149351Y301244D01*
X149343Y301302D01*
X149345Y301360D01*
X149323Y301442D01*
X149311Y301525D01*
X149287Y301579D01*
X149273Y301635D01*
X149230Y301708D01*
X149195Y301785D01*
X149157Y301829D01*
X149127Y301880D01*
X149066Y301937D01*
X149011Y302002D01*
X148963Y302034D01*
X148920Y302074D01*
X148845Y302113D01*
X148775Y302159D01*
X148719Y302177D01*
X148667Y302204D01*
X148599Y302215D01*
X148504Y302245D01*
X148404Y302248D01*
X148336Y302259D01*
X147319Y302259D01*
X147319Y303276D01*
X147311Y303334D01*
X147312Y303392D01*
X147291Y303474D01*
X147279Y303557D01*
X147255Y303611D01*
X147241Y303667D01*
X147198Y303740D01*
X147163Y303817D01*
X147125Y303862D01*
X147095Y303912D01*
X147034Y303970D01*
X146979Y304034D01*
X146931Y304066D01*
X146888Y304106D01*
X146813Y304145D01*
X146743Y304191D01*
X146687Y304209D01*
X146635Y304236D01*
X146567Y304247D01*
X146472Y304277D01*
X146372Y304280D01*
X146304Y304291D01*
X135381Y304291D01*
X135381Y307205D01*
X142059Y313883D01*
X142094Y313930D01*
X142137Y313970D01*
X142179Y314043D01*
X142230Y314110D01*
X142251Y314165D01*
X142280Y314215D01*
X142301Y314297D01*
X142331Y314376D01*
X142336Y314434D01*
X142350Y314491D01*
X142348Y314575D01*
X142355Y314659D01*
X142343Y314716D01*
X142341Y314775D01*
X142315Y314855D01*
X142299Y314938D01*
X142272Y314990D01*
X142254Y315045D01*
X142214Y315102D01*
X142168Y315190D01*
X142099Y315262D01*
X142059Y315319D01*
X134873Y322504D01*
X134873Y332816D01*
X142164Y340107D01*
X152476Y340107D01*
X159302Y333280D01*
X159349Y333245D01*
X159389Y333203D01*
X159462Y333160D01*
X159529Y333109D01*
X159584Y333089D01*
X159634Y333059D01*
X159716Y333038D01*
X159795Y333008D01*
X159853Y333003D01*
X159910Y332989D01*
X159994Y332992D01*
X160078Y332985D01*
X160136Y332996D01*
X160194Y332998D01*
X160274Y333024D01*
X160357Y333040D01*
X160409Y333067D01*
X160465Y333085D01*
X160521Y333125D01*
X160609Y333171D01*
X160682Y333240D01*
X160738Y333280D01*
X167564Y340107D01*
X177876Y340107D01*
X178199Y339784D01*
X178245Y339749D01*
X178286Y339706D01*
X178358Y339664D01*
X178426Y339613D01*
X178480Y339592D01*
X178531Y339563D01*
X178612Y339542D01*
X178691Y339512D01*
X178750Y339507D01*
X178806Y339492D01*
X178891Y339495D01*
X178975Y339488D01*
X179032Y339500D01*
X179090Y339502D01*
X179171Y339527D01*
X179253Y339544D01*
X179305Y339571D01*
X179361Y339589D01*
X179417Y339629D01*
X179506Y339675D01*
X179578Y339744D01*
X179634Y339784D01*
X222079Y382229D01*
X224534Y384684D01*
X433340Y384684D01*
X433426Y384696D01*
X433514Y384699D01*
X433566Y384716D01*
X433621Y384724D01*
X433701Y384759D01*
X433784Y384786D01*
X433824Y384814D01*
X433881Y384840D01*
X433994Y384936D01*
X434058Y384981D01*
X434887Y385811D01*
X438873Y385811D01*
X441691Y382993D01*
X441691Y379007D01*
X438873Y376189D01*
X434887Y376189D01*
X434058Y377019D01*
X433988Y377071D01*
X433924Y377131D01*
X433875Y377157D01*
X433830Y377190D01*
X433749Y377221D01*
X433671Y377261D01*
X433623Y377269D01*
X433565Y377291D01*
X433417Y377303D01*
X433340Y377316D01*
X228006Y377316D01*
X227920Y377304D01*
X227832Y377301D01*
X227780Y377284D01*
X227725Y377276D01*
X227645Y377241D01*
X227562Y377214D01*
X227523Y377186D01*
X227465Y377160D01*
X227352Y377064D01*
X227289Y377019D01*
X192109Y341840D01*
X192092Y341816D01*
X192069Y341797D01*
X192007Y341703D01*
X191939Y341613D01*
X191928Y341585D01*
X191912Y341561D01*
X191878Y341453D01*
X191837Y341347D01*
X191835Y341318D01*
X191826Y341290D01*
X191823Y341176D01*
X191814Y341064D01*
X191820Y341035D01*
X191819Y341006D01*
X191847Y340896D01*
X191870Y340785D01*
X191883Y340759D01*
X191891Y340731D01*
X191948Y340633D01*
X192001Y340533D01*
X192021Y340511D01*
X192036Y340486D01*
X192118Y340409D01*
X192196Y340327D01*
X192222Y340312D01*
X192243Y340292D01*
X192344Y340240D01*
X192442Y340183D01*
X192470Y340176D01*
X192496Y340162D01*
X192574Y340149D01*
X192717Y340113D01*
X192780Y340115D01*
X192827Y340107D01*
X203276Y340107D01*
X203598Y339784D01*
X203645Y339749D01*
X203685Y339706D01*
X203758Y339664D01*
X203826Y339613D01*
X203880Y339592D01*
X203931Y339563D01*
X204012Y339542D01*
X204091Y339512D01*
X204150Y339507D01*
X204206Y339492D01*
X204291Y339495D01*
X204375Y339488D01*
X204432Y339500D01*
X204490Y339502D01*
X204571Y339527D01*
X204653Y339544D01*
X204705Y339571D01*
X204761Y339589D01*
X204817Y339629D01*
X204906Y339675D01*
X204978Y339744D01*
X205034Y339784D01*
X234694Y369444D01*
X433340Y369444D01*
X433426Y369456D01*
X433514Y369459D01*
X433566Y369476D01*
X433621Y369484D01*
X433701Y369519D01*
X433784Y369546D01*
X433824Y369574D01*
X433881Y369600D01*
X433994Y369696D01*
X434058Y369741D01*
X434887Y370571D01*
X438873Y370571D01*
X441691Y367753D01*
X441691Y363767D01*
X438873Y360949D01*
X434887Y360949D01*
X434058Y361779D01*
X433988Y361831D01*
X433924Y361891D01*
X433875Y361917D01*
X433830Y361950D01*
X433749Y361981D01*
X433671Y362021D01*
X433623Y362029D01*
X433565Y362051D01*
X433417Y362063D01*
X433340Y362076D01*
X325358Y362076D01*
X325329Y362072D01*
X325300Y362075D01*
X325189Y362052D01*
X325077Y362036D01*
X325050Y362024D01*
X325021Y362019D01*
X324920Y361966D01*
X324817Y361920D01*
X324795Y361901D01*
X324769Y361888D01*
X324687Y361810D01*
X324600Y361737D01*
X324584Y361712D01*
X324563Y361692D01*
X324505Y361594D01*
X324443Y361500D01*
X324434Y361472D01*
X324419Y361447D01*
X324391Y361337D01*
X324357Y361229D01*
X324356Y361199D01*
X324349Y361171D01*
X324352Y361058D01*
X324350Y360945D01*
X324357Y360916D01*
X324358Y360887D01*
X324393Y360779D01*
X324421Y360670D01*
X324436Y360644D01*
X324445Y360616D01*
X324491Y360552D01*
X324567Y360425D01*
X324612Y360382D01*
X324640Y360343D01*
X324851Y360133D01*
X324851Y356147D01*
X322033Y353329D01*
X318047Y353329D01*
X317218Y354159D01*
X317148Y354211D01*
X317084Y354271D01*
X317035Y354297D01*
X316990Y354330D01*
X316909Y354361D01*
X316831Y354401D01*
X316783Y354409D01*
X316725Y354431D01*
X316577Y354443D01*
X316500Y354456D01*
X314366Y354456D01*
X314280Y354444D01*
X314192Y354441D01*
X314140Y354424D01*
X314085Y354416D01*
X314005Y354381D01*
X313922Y354354D01*
X313883Y354326D01*
X313825Y354300D01*
X313712Y354204D01*
X313649Y354159D01*
X271147Y311657D01*
X208776Y311657D01*
X208747Y311653D01*
X208718Y311656D01*
X208607Y311633D01*
X208495Y311617D01*
X208468Y311605D01*
X208439Y311600D01*
X208338Y311547D01*
X208235Y311501D01*
X208213Y311482D01*
X208187Y311469D01*
X208105Y311391D01*
X208018Y311318D01*
X208002Y311293D01*
X207981Y311273D01*
X207923Y311175D01*
X207861Y311081D01*
X207852Y311053D01*
X207837Y311028D01*
X207809Y310918D01*
X207775Y310810D01*
X207774Y310780D01*
X207767Y310752D01*
X207770Y310639D01*
X207768Y310526D01*
X207775Y310497D01*
X207776Y310468D01*
X207811Y310360D01*
X207839Y310251D01*
X207854Y310225D01*
X207863Y310197D01*
X207909Y310134D01*
X207985Y310006D01*
X208030Y309963D01*
X208058Y309924D01*
X210567Y307416D01*
X210567Y297104D01*
X207058Y293596D01*
X207041Y293572D01*
X207018Y293553D01*
X206955Y293459D01*
X206887Y293369D01*
X206877Y293341D01*
X206861Y293317D01*
X206826Y293209D01*
X206786Y293103D01*
X206784Y293074D01*
X206775Y293046D01*
X206772Y292932D01*
X206763Y292820D01*
X206768Y292791D01*
X206768Y292762D01*
X206796Y292652D01*
X206818Y292541D01*
X206832Y292515D01*
X206839Y292487D01*
X206897Y292389D01*
X206949Y292289D01*
X206970Y292267D01*
X206985Y292242D01*
X207067Y292165D01*
X207145Y292083D01*
X207171Y292068D01*
X207192Y292048D01*
X207293Y291996D01*
X207390Y291939D01*
X207419Y291932D01*
X207445Y291918D01*
X207522Y291905D01*
X207666Y291869D01*
X207728Y291871D01*
X207776Y291863D01*
X298974Y291863D01*
X299032Y291871D01*
X299090Y291869D01*
X299172Y291891D01*
X299256Y291903D01*
X299309Y291926D01*
X299365Y291941D01*
X299438Y291984D01*
X299515Y292019D01*
X299560Y292057D01*
X299610Y292086D01*
X299668Y292148D01*
X299732Y292202D01*
X299764Y292251D01*
X299804Y292294D01*
X299843Y292369D01*
X299890Y292439D01*
X299907Y292495D01*
X299934Y292547D01*
X299945Y292615D01*
X299975Y292710D01*
X299978Y292810D01*
X299989Y292878D01*
X299989Y294093D01*
X302807Y296911D01*
X303801Y296911D01*
X303888Y296923D01*
X303975Y296926D01*
X304028Y296943D01*
X304083Y296951D01*
X304162Y296986D01*
X304246Y297013D01*
X304285Y297041D01*
X304342Y297067D01*
X304455Y297163D01*
X304519Y297208D01*
X305762Y298451D01*
X330741Y298451D01*
X330828Y298463D01*
X330915Y298466D01*
X330968Y298483D01*
X331023Y298491D01*
X331102Y298526D01*
X331186Y298553D01*
X331225Y298581D01*
X331282Y298607D01*
X331395Y298703D01*
X331459Y298748D01*
X336522Y303811D01*
X336574Y303881D01*
X336634Y303945D01*
X336660Y303994D01*
X336693Y304038D01*
X336724Y304120D01*
X336764Y304198D01*
X336772Y304245D01*
X336794Y304304D01*
X336806Y304452D01*
X336819Y304529D01*
X336819Y305523D01*
X339637Y308341D01*
X343623Y308341D01*
X346441Y305523D01*
X346441Y301537D01*
X343623Y298719D01*
X342629Y298719D01*
X342542Y298707D01*
X342455Y298704D01*
X342402Y298687D01*
X342347Y298679D01*
X342268Y298644D01*
X342184Y298617D01*
X342145Y298589D01*
X342088Y298563D01*
X341975Y298467D01*
X341911Y298422D01*
X337085Y293596D01*
X337067Y293572D01*
X337045Y293553D01*
X336982Y293459D01*
X336914Y293369D01*
X336904Y293341D01*
X336887Y293317D01*
X336853Y293209D01*
X336813Y293103D01*
X336810Y293074D01*
X336802Y293046D01*
X336799Y292932D01*
X336789Y292820D01*
X336795Y292791D01*
X336794Y292762D01*
X336823Y292652D01*
X336845Y292541D01*
X336859Y292515D01*
X336866Y292487D01*
X336924Y292389D01*
X336976Y292289D01*
X336996Y292267D01*
X337011Y292242D01*
X337094Y292165D01*
X337172Y292083D01*
X337197Y292068D01*
X337219Y292048D01*
X337320Y291996D01*
X337417Y291939D01*
X337446Y291932D01*
X337472Y291918D01*
X337549Y291905D01*
X337693Y291869D01*
X337755Y291871D01*
X337803Y291863D01*
X370053Y291863D01*
X370139Y291875D01*
X370227Y291878D01*
X370279Y291895D01*
X370334Y291903D01*
X370414Y291938D01*
X370497Y291965D01*
X370536Y291993D01*
X370594Y292019D01*
X370707Y292115D01*
X370770Y292160D01*
X431772Y353162D01*
X431824Y353231D01*
X431884Y353295D01*
X431910Y353345D01*
X431943Y353389D01*
X431974Y353470D01*
X432014Y353548D01*
X432022Y353596D01*
X432044Y353654D01*
X432056Y353802D01*
X432069Y353879D01*
X432069Y355053D01*
X434887Y357871D01*
X438873Y357871D01*
X441691Y355053D01*
X441691Y351067D01*
X438873Y348249D01*
X437699Y348249D01*
X437613Y348237D01*
X437525Y348234D01*
X437473Y348217D01*
X437418Y348209D01*
X437338Y348174D01*
X437255Y348147D01*
X437216Y348119D01*
X437158Y348093D01*
X437045Y347997D01*
X436982Y347952D01*
X395616Y306587D01*
X395547Y306495D01*
X395473Y306407D01*
X395462Y306382D01*
X395446Y306360D01*
X395405Y306252D01*
X395358Y306147D01*
X395354Y306120D01*
X395344Y306094D01*
X395335Y305980D01*
X395319Y305866D01*
X395323Y305838D01*
X395321Y305811D01*
X395343Y305698D01*
X395360Y305584D01*
X395371Y305559D01*
X395377Y305532D01*
X395429Y305430D01*
X395477Y305325D01*
X395495Y305304D01*
X395508Y305280D01*
X395587Y305197D01*
X395661Y305109D01*
X395682Y305096D01*
X395703Y305074D01*
X395933Y304939D01*
X395946Y304931D01*
X396914Y304530D01*
X397616Y303828D01*
X397686Y303776D01*
X397749Y303716D01*
X397799Y303690D01*
X397843Y303657D01*
X397925Y303626D01*
X398003Y303586D01*
X398050Y303578D01*
X398109Y303556D01*
X398256Y303544D01*
X398334Y303531D01*
X485681Y303531D01*
X485768Y303543D01*
X485855Y303546D01*
X485908Y303563D01*
X485963Y303571D01*
X486042Y303606D01*
X486126Y303633D01*
X486165Y303661D01*
X486222Y303687D01*
X486335Y303783D01*
X486399Y303828D01*
X512189Y329618D01*
X512241Y329688D01*
X512301Y329752D01*
X512327Y329801D01*
X512360Y329845D01*
X512391Y329927D01*
X512431Y330005D01*
X512439Y330052D01*
X512461Y330111D01*
X512473Y330259D01*
X512486Y330336D01*
X512486Y331329D01*
X513350Y333414D01*
X514946Y335010D01*
X517031Y335874D01*
X519289Y335874D01*
X521374Y335010D01*
X522970Y333414D01*
X523834Y331329D01*
X523834Y329071D01*
X522970Y326986D01*
X521374Y325390D01*
X519289Y324526D01*
X518296Y324526D01*
X518209Y324514D01*
X518122Y324511D01*
X518069Y324494D01*
X518014Y324486D01*
X517935Y324451D01*
X517851Y324424D01*
X517812Y324396D01*
X517755Y324370D01*
X517642Y324274D01*
X517578Y324229D01*
X489258Y295909D01*
X398334Y295909D01*
X398247Y295897D01*
X398160Y295894D01*
X398107Y295877D01*
X398052Y295869D01*
X397972Y295834D01*
X397889Y295807D01*
X397850Y295779D01*
X397793Y295753D01*
X397679Y295657D01*
X397616Y295612D01*
X396914Y294910D01*
X394829Y294046D01*
X392571Y294046D01*
X390486Y294910D01*
X388890Y296506D01*
X388489Y297474D01*
X388431Y297573D01*
X388378Y297675D01*
X388359Y297695D01*
X388345Y297719D01*
X388261Y297798D01*
X388182Y297881D01*
X388158Y297895D01*
X388138Y297914D01*
X388036Y297967D01*
X387937Y298025D01*
X387910Y298032D01*
X387885Y298044D01*
X387772Y298067D01*
X387661Y298095D01*
X387633Y298094D01*
X387606Y298099D01*
X387492Y298090D01*
X387377Y298086D01*
X387351Y298077D01*
X387323Y298075D01*
X387216Y298034D01*
X387107Y297998D01*
X387086Y297984D01*
X387058Y297973D01*
X386845Y297812D01*
X386833Y297804D01*
X373525Y284495D01*
X185275Y284495D01*
G37*
%LPD*%
G36*
X434300Y8904D02*
X434300Y8904D01*
X434392Y8907D01*
X434440Y8923D01*
X434490Y8931D01*
X434574Y8968D01*
X434662Y8997D01*
X434703Y9026D01*
X434750Y9047D01*
X434820Y9106D01*
X434896Y9158D01*
X434928Y9198D01*
X434967Y9230D01*
X435018Y9307D01*
X435076Y9378D01*
X435096Y9425D01*
X435124Y9467D01*
X435152Y9555D01*
X435188Y9639D01*
X435195Y9690D01*
X435210Y9738D01*
X435212Y9830D01*
X435224Y9921D01*
X435216Y9972D01*
X435217Y10022D01*
X435194Y10111D01*
X435180Y10202D01*
X435160Y10242D01*
X435146Y10297D01*
X435065Y10434D01*
X435030Y10503D01*
X434289Y11523D01*
X433436Y13197D01*
X432855Y14984D01*
X432734Y15749D01*
X443484Y15749D01*
X443542Y15757D01*
X443600Y15755D01*
X443682Y15777D01*
X443765Y15789D01*
X443819Y15813D01*
X443875Y15827D01*
X443948Y15870D01*
X444025Y15905D01*
X444069Y15943D01*
X444120Y15973D01*
X444177Y16034D01*
X444242Y16089D01*
X444274Y16137D01*
X444314Y16180D01*
X444353Y16255D01*
X444399Y16325D01*
X444417Y16381D01*
X444444Y16433D01*
X444455Y16501D01*
X444485Y16596D01*
X444488Y16696D01*
X444499Y16764D01*
X444499Y17781D01*
X445516Y17781D01*
X445574Y17789D01*
X445632Y17788D01*
X445714Y17809D01*
X445797Y17821D01*
X445851Y17845D01*
X445907Y17859D01*
X445980Y17902D01*
X446057Y17937D01*
X446102Y17975D01*
X446152Y18005D01*
X446210Y18066D01*
X446274Y18121D01*
X446306Y18169D01*
X446346Y18212D01*
X446385Y18287D01*
X446431Y18357D01*
X446449Y18413D01*
X446476Y18465D01*
X446487Y18533D01*
X446517Y18628D01*
X446520Y18728D01*
X446531Y18796D01*
X446531Y29546D01*
X447296Y29425D01*
X449083Y28844D01*
X450757Y27991D01*
X452278Y26886D01*
X453606Y25558D01*
X454711Y24037D01*
X455564Y22363D01*
X455928Y21243D01*
X455958Y21181D01*
X455979Y21115D01*
X456020Y21054D01*
X456053Y20988D01*
X456099Y20937D01*
X456138Y20879D01*
X456194Y20832D01*
X456243Y20777D01*
X456302Y20741D01*
X456355Y20696D01*
X456422Y20666D01*
X456485Y20628D01*
X456552Y20609D01*
X456615Y20581D01*
X456688Y20571D01*
X456759Y20551D01*
X456828Y20551D01*
X456896Y20542D01*
X456969Y20552D01*
X457043Y20553D01*
X457110Y20573D01*
X457178Y20583D01*
X457245Y20613D01*
X457316Y20634D01*
X457374Y20671D01*
X457437Y20700D01*
X457493Y20747D01*
X457555Y20787D01*
X457601Y20839D01*
X457653Y20884D01*
X457686Y20937D01*
X457743Y21001D01*
X457792Y21105D01*
X457831Y21169D01*
X459348Y24831D01*
X462849Y28332D01*
X467424Y30227D01*
X472376Y30227D01*
X476951Y28332D01*
X477931Y27352D01*
X477978Y27316D01*
X478018Y27274D01*
X478091Y27231D01*
X478158Y27181D01*
X478213Y27160D01*
X478263Y27130D01*
X478345Y27110D01*
X478424Y27079D01*
X478482Y27075D01*
X478539Y27060D01*
X478623Y27063D01*
X478707Y27056D01*
X478764Y27067D01*
X478823Y27069D01*
X478903Y27095D01*
X478986Y27112D01*
X479038Y27139D01*
X479093Y27157D01*
X479149Y27197D01*
X479238Y27243D01*
X479310Y27311D01*
X479367Y27352D01*
X485484Y33469D01*
X487056Y35041D01*
X488924Y35815D01*
X495951Y35815D01*
X495980Y35819D01*
X496009Y35816D01*
X496120Y35839D01*
X496232Y35855D01*
X496259Y35867D01*
X496288Y35872D01*
X496389Y35925D01*
X496492Y35971D01*
X496514Y35990D01*
X496540Y36003D01*
X496622Y36081D01*
X496709Y36154D01*
X496725Y36179D01*
X496746Y36199D01*
X496803Y36297D01*
X496866Y36391D01*
X496875Y36419D01*
X496890Y36444D01*
X496918Y36554D01*
X496952Y36662D01*
X496953Y36692D01*
X496960Y36720D01*
X496957Y36833D01*
X496959Y36946D01*
X496952Y36975D01*
X496951Y37004D01*
X496916Y37112D01*
X496888Y37221D01*
X496873Y37247D01*
X496864Y37275D01*
X496818Y37339D01*
X496742Y37466D01*
X496697Y37509D01*
X496669Y37548D01*
X495569Y38647D01*
X495569Y39641D01*
X495557Y39728D01*
X495554Y39815D01*
X495537Y39868D01*
X495529Y39923D01*
X495494Y40002D01*
X495467Y40086D01*
X495439Y40125D01*
X495413Y40182D01*
X495317Y40295D01*
X495272Y40359D01*
X491225Y44406D01*
X491155Y44458D01*
X491091Y44518D01*
X491042Y44544D01*
X490998Y44577D01*
X490916Y44608D01*
X490838Y44648D01*
X490791Y44656D01*
X490732Y44678D01*
X490584Y44690D01*
X490507Y44703D01*
X480202Y44703D01*
X472273Y52633D01*
X472226Y52668D01*
X472186Y52710D01*
X472113Y52753D01*
X472045Y52804D01*
X471991Y52825D01*
X471940Y52854D01*
X471859Y52875D01*
X471780Y52905D01*
X471721Y52910D01*
X471665Y52924D01*
X471580Y52922D01*
X471496Y52929D01*
X471439Y52917D01*
X471381Y52915D01*
X471300Y52889D01*
X471218Y52873D01*
X471166Y52846D01*
X471110Y52828D01*
X471054Y52788D01*
X470965Y52742D01*
X470893Y52673D01*
X470837Y52633D01*
X467773Y49569D01*
X463385Y47751D01*
X458635Y47751D01*
X454247Y49569D01*
X450889Y52927D01*
X449248Y56889D01*
X449233Y56914D01*
X449224Y56942D01*
X449161Y57036D01*
X449103Y57133D01*
X449082Y57154D01*
X449066Y57178D01*
X448979Y57251D01*
X448897Y57329D01*
X448871Y57342D01*
X448848Y57361D01*
X448745Y57407D01*
X448644Y57459D01*
X448615Y57465D01*
X448588Y57476D01*
X448476Y57492D01*
X448365Y57514D01*
X448336Y57511D01*
X448307Y57515D01*
X448195Y57499D01*
X448082Y57489D01*
X448055Y57479D01*
X448026Y57475D01*
X447922Y57428D01*
X447817Y57387D01*
X447793Y57370D01*
X447766Y57358D01*
X447680Y57284D01*
X447590Y57216D01*
X447572Y57192D01*
X447550Y57173D01*
X447508Y57107D01*
X447420Y56988D01*
X447407Y56953D01*
X447390Y56929D01*
X447383Y56907D01*
X447372Y56889D01*
X445731Y52927D01*
X442373Y49569D01*
X437985Y47751D01*
X433235Y47751D01*
X428847Y49569D01*
X425489Y52927D01*
X423671Y57315D01*
X423671Y62065D01*
X425489Y66453D01*
X428847Y69811D01*
X432809Y71452D01*
X432834Y71467D01*
X432862Y71476D01*
X432956Y71539D01*
X433053Y71597D01*
X433074Y71618D01*
X433098Y71634D01*
X433171Y71721D01*
X433249Y71803D01*
X433262Y71829D01*
X433281Y71852D01*
X433327Y71955D01*
X433379Y72056D01*
X433385Y72085D01*
X433396Y72112D01*
X433412Y72224D01*
X433434Y72335D01*
X433431Y72364D01*
X433435Y72393D01*
X433419Y72505D01*
X433409Y72618D01*
X433399Y72645D01*
X433395Y72675D01*
X433348Y72778D01*
X433307Y72883D01*
X433290Y72907D01*
X433278Y72934D01*
X433204Y73020D01*
X433136Y73110D01*
X433112Y73128D01*
X433093Y73150D01*
X433027Y73192D01*
X432908Y73280D01*
X432850Y73302D01*
X432809Y73328D01*
X428847Y74969D01*
X425489Y78327D01*
X423848Y82289D01*
X423833Y82314D01*
X423824Y82342D01*
X423761Y82436D01*
X423703Y82533D01*
X423682Y82554D01*
X423666Y82578D01*
X423579Y82651D01*
X423497Y82729D01*
X423471Y82742D01*
X423448Y82761D01*
X423345Y82807D01*
X423244Y82859D01*
X423215Y82865D01*
X423188Y82876D01*
X423076Y82892D01*
X422965Y82914D01*
X422936Y82911D01*
X422907Y82915D01*
X422795Y82899D01*
X422682Y82889D01*
X422655Y82879D01*
X422626Y82875D01*
X422522Y82828D01*
X422417Y82787D01*
X422393Y82770D01*
X422366Y82758D01*
X422280Y82684D01*
X422190Y82616D01*
X422172Y82592D01*
X422150Y82573D01*
X422108Y82507D01*
X422020Y82388D01*
X422000Y82337D01*
X421983Y82310D01*
X421980Y82301D01*
X421972Y82289D01*
X420331Y78327D01*
X416973Y74969D01*
X412585Y73151D01*
X407835Y73151D01*
X403447Y74969D01*
X400089Y78327D01*
X398448Y82289D01*
X398433Y82314D01*
X398424Y82342D01*
X398361Y82436D01*
X398303Y82533D01*
X398282Y82554D01*
X398266Y82578D01*
X398179Y82651D01*
X398097Y82729D01*
X398071Y82742D01*
X398048Y82761D01*
X397945Y82807D01*
X397844Y82859D01*
X397815Y82865D01*
X397788Y82876D01*
X397676Y82892D01*
X397565Y82914D01*
X397536Y82911D01*
X397507Y82915D01*
X397395Y82899D01*
X397282Y82889D01*
X397255Y82879D01*
X397226Y82875D01*
X397122Y82828D01*
X397017Y82787D01*
X396993Y82770D01*
X396966Y82758D01*
X396880Y82684D01*
X396790Y82616D01*
X396772Y82592D01*
X396750Y82573D01*
X396708Y82507D01*
X396620Y82388D01*
X396600Y82337D01*
X396583Y82310D01*
X396580Y82301D01*
X396572Y82289D01*
X394931Y78327D01*
X391573Y74969D01*
X387611Y73328D01*
X387586Y73313D01*
X387558Y73304D01*
X387464Y73241D01*
X387367Y73183D01*
X387346Y73162D01*
X387322Y73146D01*
X387249Y73059D01*
X387171Y72977D01*
X387158Y72951D01*
X387139Y72928D01*
X387093Y72825D01*
X387041Y72724D01*
X387035Y72695D01*
X387024Y72668D01*
X387008Y72556D01*
X386986Y72445D01*
X386989Y72416D01*
X386985Y72387D01*
X387001Y72275D01*
X387011Y72162D01*
X387021Y72135D01*
X387025Y72106D01*
X387072Y72002D01*
X387113Y71897D01*
X387130Y71873D01*
X387142Y71846D01*
X387216Y71760D01*
X387284Y71670D01*
X387308Y71652D01*
X387327Y71630D01*
X387393Y71588D01*
X387512Y71500D01*
X387570Y71478D01*
X387611Y71452D01*
X391573Y69811D01*
X394931Y66453D01*
X396749Y62065D01*
X396749Y57315D01*
X394931Y52927D01*
X391573Y49569D01*
X387185Y47751D01*
X382435Y47751D01*
X378047Y49569D01*
X374689Y52927D01*
X373048Y56889D01*
X373033Y56914D01*
X373024Y56942D01*
X372961Y57036D01*
X372903Y57133D01*
X372882Y57154D01*
X372866Y57178D01*
X372779Y57251D01*
X372697Y57329D01*
X372671Y57342D01*
X372648Y57361D01*
X372545Y57407D01*
X372444Y57459D01*
X372415Y57465D01*
X372388Y57476D01*
X372276Y57492D01*
X372165Y57514D01*
X372136Y57511D01*
X372107Y57515D01*
X371995Y57499D01*
X371882Y57489D01*
X371855Y57479D01*
X371826Y57475D01*
X371722Y57428D01*
X371617Y57387D01*
X371593Y57370D01*
X371566Y57358D01*
X371480Y57284D01*
X371390Y57216D01*
X371372Y57192D01*
X371350Y57173D01*
X371308Y57107D01*
X371220Y56988D01*
X371207Y56953D01*
X371190Y56929D01*
X371183Y56907D01*
X371172Y56889D01*
X369531Y52927D01*
X366173Y49569D01*
X361785Y47751D01*
X357035Y47751D01*
X352647Y49569D01*
X349289Y52927D01*
X347648Y56889D01*
X347633Y56914D01*
X347624Y56942D01*
X347561Y57036D01*
X347503Y57133D01*
X347482Y57154D01*
X347466Y57178D01*
X347379Y57251D01*
X347297Y57329D01*
X347271Y57342D01*
X347248Y57361D01*
X347145Y57407D01*
X347044Y57459D01*
X347015Y57465D01*
X346988Y57476D01*
X346876Y57492D01*
X346765Y57514D01*
X346736Y57511D01*
X346707Y57515D01*
X346595Y57499D01*
X346482Y57489D01*
X346455Y57479D01*
X346425Y57475D01*
X346322Y57428D01*
X346217Y57387D01*
X346193Y57370D01*
X346166Y57358D01*
X346080Y57284D01*
X345990Y57216D01*
X345972Y57192D01*
X345950Y57173D01*
X345908Y57107D01*
X345820Y56988D01*
X345807Y56953D01*
X345790Y56929D01*
X345783Y56906D01*
X345772Y56889D01*
X344131Y52927D01*
X340773Y49569D01*
X336385Y47751D01*
X331635Y47751D01*
X327247Y49569D01*
X323889Y52927D01*
X322248Y56889D01*
X322233Y56914D01*
X322224Y56942D01*
X322161Y57036D01*
X322103Y57133D01*
X322082Y57154D01*
X322066Y57178D01*
X321979Y57251D01*
X321897Y57329D01*
X321871Y57342D01*
X321848Y57361D01*
X321745Y57407D01*
X321644Y57459D01*
X321615Y57465D01*
X321588Y57476D01*
X321476Y57492D01*
X321365Y57514D01*
X321336Y57511D01*
X321307Y57515D01*
X321195Y57499D01*
X321082Y57489D01*
X321055Y57479D01*
X321026Y57475D01*
X320922Y57428D01*
X320817Y57387D01*
X320793Y57370D01*
X320766Y57358D01*
X320680Y57284D01*
X320590Y57216D01*
X320572Y57192D01*
X320550Y57173D01*
X320508Y57107D01*
X320420Y56988D01*
X320407Y56953D01*
X320390Y56929D01*
X320383Y56907D01*
X320372Y56889D01*
X318731Y52927D01*
X315373Y49569D01*
X310985Y47751D01*
X306235Y47751D01*
X301847Y49569D01*
X298489Y52927D01*
X296671Y57315D01*
X296671Y62065D01*
X298489Y66453D01*
X301847Y69811D01*
X305809Y71452D01*
X305834Y71467D01*
X305862Y71476D01*
X305956Y71539D01*
X306053Y71597D01*
X306074Y71618D01*
X306098Y71634D01*
X306171Y71721D01*
X306249Y71803D01*
X306262Y71829D01*
X306281Y71852D01*
X306327Y71955D01*
X306379Y72056D01*
X306385Y72085D01*
X306396Y72112D01*
X306412Y72224D01*
X306434Y72335D01*
X306431Y72364D01*
X306435Y72393D01*
X306419Y72505D01*
X306409Y72618D01*
X306399Y72645D01*
X306395Y72675D01*
X306348Y72778D01*
X306307Y72883D01*
X306290Y72907D01*
X306278Y72934D01*
X306204Y73020D01*
X306136Y73110D01*
X306112Y73128D01*
X306093Y73150D01*
X306027Y73192D01*
X305908Y73280D01*
X305850Y73302D01*
X305809Y73328D01*
X301847Y74969D01*
X298489Y78327D01*
X296848Y82289D01*
X296833Y82314D01*
X296824Y82342D01*
X296761Y82436D01*
X296703Y82533D01*
X296682Y82554D01*
X296666Y82578D01*
X296579Y82651D01*
X296497Y82729D01*
X296471Y82742D01*
X296448Y82761D01*
X296345Y82807D01*
X296244Y82859D01*
X296215Y82865D01*
X296188Y82876D01*
X296076Y82892D01*
X295965Y82914D01*
X295936Y82911D01*
X295907Y82915D01*
X295795Y82899D01*
X295682Y82889D01*
X295655Y82879D01*
X295626Y82875D01*
X295522Y82828D01*
X295417Y82787D01*
X295393Y82770D01*
X295366Y82758D01*
X295280Y82684D01*
X295190Y82616D01*
X295172Y82592D01*
X295150Y82573D01*
X295108Y82507D01*
X295020Y82388D01*
X295000Y82337D01*
X294983Y82310D01*
X294980Y82301D01*
X294972Y82289D01*
X293331Y78327D01*
X289973Y74969D01*
X285585Y73151D01*
X280835Y73151D01*
X276447Y74969D01*
X273089Y78327D01*
X271448Y82289D01*
X271433Y82314D01*
X271424Y82342D01*
X271361Y82436D01*
X271303Y82533D01*
X271282Y82554D01*
X271266Y82578D01*
X271179Y82651D01*
X271097Y82729D01*
X271071Y82742D01*
X271048Y82761D01*
X270945Y82807D01*
X270844Y82859D01*
X270815Y82865D01*
X270788Y82876D01*
X270676Y82892D01*
X270565Y82914D01*
X270536Y82911D01*
X270507Y82915D01*
X270395Y82899D01*
X270282Y82889D01*
X270255Y82879D01*
X270226Y82875D01*
X270122Y82828D01*
X270017Y82787D01*
X269993Y82770D01*
X269966Y82758D01*
X269880Y82684D01*
X269790Y82616D01*
X269772Y82592D01*
X269750Y82573D01*
X269708Y82507D01*
X269620Y82388D01*
X269600Y82337D01*
X269583Y82310D01*
X269580Y82301D01*
X269572Y82289D01*
X267931Y78327D01*
X264573Y74969D01*
X260611Y73328D01*
X260586Y73313D01*
X260558Y73304D01*
X260464Y73241D01*
X260367Y73183D01*
X260346Y73162D01*
X260322Y73146D01*
X260249Y73059D01*
X260171Y72977D01*
X260158Y72951D01*
X260139Y72928D01*
X260093Y72825D01*
X260041Y72724D01*
X260035Y72695D01*
X260024Y72668D01*
X260008Y72556D01*
X259986Y72445D01*
X259989Y72416D01*
X259985Y72387D01*
X260001Y72275D01*
X260011Y72162D01*
X260021Y72135D01*
X260025Y72106D01*
X260072Y72002D01*
X260113Y71897D01*
X260130Y71873D01*
X260142Y71846D01*
X260216Y71760D01*
X260284Y71670D01*
X260308Y71652D01*
X260327Y71630D01*
X260393Y71588D01*
X260512Y71500D01*
X260570Y71478D01*
X260611Y71452D01*
X264573Y69811D01*
X267931Y66453D01*
X269749Y62065D01*
X269749Y57315D01*
X267931Y52927D01*
X264573Y49569D01*
X260185Y47751D01*
X255435Y47751D01*
X251047Y49569D01*
X247689Y52927D01*
X245871Y57315D01*
X245871Y62065D01*
X247689Y66453D01*
X251047Y69811D01*
X255009Y71452D01*
X255034Y71467D01*
X255062Y71476D01*
X255156Y71539D01*
X255253Y71597D01*
X255274Y71618D01*
X255298Y71634D01*
X255371Y71721D01*
X255449Y71803D01*
X255462Y71829D01*
X255481Y71852D01*
X255527Y71955D01*
X255579Y72056D01*
X255585Y72085D01*
X255596Y72112D01*
X255612Y72224D01*
X255634Y72335D01*
X255631Y72364D01*
X255635Y72393D01*
X255619Y72505D01*
X255609Y72618D01*
X255599Y72645D01*
X255595Y72675D01*
X255548Y72778D01*
X255507Y72883D01*
X255490Y72907D01*
X255478Y72934D01*
X255404Y73020D01*
X255336Y73110D01*
X255312Y73128D01*
X255293Y73150D01*
X255227Y73192D01*
X255108Y73280D01*
X255050Y73302D01*
X255009Y73328D01*
X251047Y74969D01*
X247689Y78327D01*
X246048Y82289D01*
X246033Y82314D01*
X246024Y82342D01*
X245961Y82436D01*
X245903Y82533D01*
X245882Y82554D01*
X245866Y82578D01*
X245779Y82651D01*
X245697Y82729D01*
X245671Y82742D01*
X245648Y82761D01*
X245545Y82807D01*
X245444Y82859D01*
X245415Y82865D01*
X245388Y82876D01*
X245276Y82892D01*
X245165Y82914D01*
X245136Y82911D01*
X245107Y82915D01*
X244995Y82899D01*
X244882Y82889D01*
X244855Y82879D01*
X244826Y82875D01*
X244722Y82828D01*
X244617Y82787D01*
X244593Y82770D01*
X244566Y82758D01*
X244480Y82684D01*
X244390Y82616D01*
X244372Y82592D01*
X244350Y82573D01*
X244308Y82507D01*
X244220Y82388D01*
X244200Y82337D01*
X244183Y82310D01*
X244180Y82301D01*
X244172Y82289D01*
X242531Y78327D01*
X239173Y74969D01*
X234785Y73151D01*
X230035Y73151D01*
X225647Y74969D01*
X224153Y76463D01*
X224129Y76481D01*
X224110Y76503D01*
X224016Y76566D01*
X223926Y76634D01*
X223898Y76645D01*
X223874Y76661D01*
X223766Y76695D01*
X223660Y76735D01*
X223631Y76738D01*
X223603Y76747D01*
X223489Y76750D01*
X223377Y76759D01*
X223348Y76753D01*
X223319Y76754D01*
X223209Y76725D01*
X223098Y76703D01*
X223072Y76689D01*
X223044Y76682D01*
X222946Y76624D01*
X222846Y76572D01*
X222824Y76552D01*
X222799Y76537D01*
X222722Y76454D01*
X222640Y76376D01*
X222625Y76351D01*
X222605Y76330D01*
X222553Y76229D01*
X222496Y76131D01*
X222489Y76103D01*
X222475Y76076D01*
X222462Y75999D01*
X222426Y75855D01*
X222428Y75793D01*
X222420Y75745D01*
X222420Y68316D01*
X222424Y68287D01*
X222421Y68258D01*
X222444Y68147D01*
X222460Y68035D01*
X222472Y68008D01*
X222477Y67979D01*
X222530Y67879D01*
X222576Y67775D01*
X222595Y67753D01*
X222608Y67727D01*
X222686Y67645D01*
X222759Y67558D01*
X222784Y67542D01*
X222804Y67521D01*
X222902Y67464D01*
X222996Y67401D01*
X223024Y67392D01*
X223049Y67377D01*
X223159Y67349D01*
X223267Y67315D01*
X223297Y67314D01*
X223325Y67307D01*
X223438Y67311D01*
X223551Y67308D01*
X223580Y67315D01*
X223609Y67316D01*
X223717Y67351D01*
X223826Y67379D01*
X223852Y67394D01*
X223880Y67403D01*
X223944Y67449D01*
X224071Y67525D01*
X224114Y67570D01*
X224153Y67598D01*
X224963Y68409D01*
X226419Y69466D01*
X228022Y70283D01*
X229733Y70839D01*
X230379Y70942D01*
X230379Y60706D01*
X230387Y60648D01*
X230385Y60590D01*
X230407Y60508D01*
X230419Y60425D01*
X230443Y60371D01*
X230457Y60315D01*
X230500Y60242D01*
X230535Y60165D01*
X230573Y60121D01*
X230603Y60070D01*
X230664Y60013D01*
X230719Y59948D01*
X230767Y59916D01*
X230810Y59876D01*
X230885Y59837D01*
X230955Y59791D01*
X231011Y59773D01*
X231063Y59746D01*
X231131Y59735D01*
X231226Y59705D01*
X231326Y59702D01*
X231394Y59691D01*
X232411Y59691D01*
X232411Y59689D01*
X231394Y59689D01*
X231336Y59681D01*
X231278Y59682D01*
X231196Y59661D01*
X231113Y59649D01*
X231059Y59625D01*
X231003Y59611D01*
X230930Y59568D01*
X230853Y59533D01*
X230808Y59495D01*
X230758Y59465D01*
X230700Y59404D01*
X230636Y59349D01*
X230604Y59301D01*
X230564Y59258D01*
X230525Y59183D01*
X230479Y59113D01*
X230461Y59057D01*
X230434Y59005D01*
X230423Y58937D01*
X230393Y58842D01*
X230390Y58742D01*
X230379Y58674D01*
X230379Y48438D01*
X229733Y48541D01*
X229401Y48649D01*
X229356Y48657D01*
X229313Y48673D01*
X229216Y48681D01*
X229121Y48698D01*
X229075Y48693D01*
X229029Y48697D01*
X228935Y48678D01*
X228839Y48667D01*
X228796Y48650D01*
X228751Y48641D01*
X228665Y48596D01*
X228575Y48560D01*
X228539Y48531D01*
X228498Y48510D01*
X228428Y48443D01*
X228352Y48383D01*
X228326Y48346D01*
X228292Y48314D01*
X228243Y48231D01*
X228187Y48152D01*
X228172Y48109D01*
X228148Y48069D01*
X228125Y47975D01*
X228092Y47884D01*
X228090Y47838D01*
X228078Y47793D01*
X228081Y47697D01*
X228076Y47600D01*
X228086Y47555D01*
X228087Y47509D01*
X228117Y47417D01*
X228138Y47323D01*
X228161Y47283D01*
X228175Y47239D01*
X228218Y47177D01*
X228275Y47074D01*
X228334Y47015D01*
X228370Y46965D01*
X266147Y9188D01*
X266217Y9136D01*
X266280Y9076D01*
X266330Y9050D01*
X266374Y9017D01*
X266456Y8986D01*
X266534Y8946D01*
X266581Y8938D01*
X266640Y8916D01*
X266787Y8904D01*
X266865Y8891D01*
X434209Y8891D01*
X434300Y8904D01*
G37*
%LPC*%
G36*
X584747Y236489D02*
X584747Y236489D01*
X581929Y239307D01*
X581929Y240481D01*
X581917Y240567D01*
X581914Y240655D01*
X581897Y240707D01*
X581889Y240762D01*
X581854Y240842D01*
X581827Y240925D01*
X581799Y240964D01*
X581773Y241022D01*
X581677Y241135D01*
X581632Y241199D01*
X577892Y244939D01*
X577891Y244939D01*
X575436Y247394D01*
X575436Y318094D01*
X575424Y318180D01*
X575421Y318268D01*
X575404Y318320D01*
X575396Y318375D01*
X575361Y318455D01*
X575334Y318538D01*
X575306Y318577D01*
X575280Y318635D01*
X575184Y318748D01*
X575139Y318812D01*
X542332Y351619D01*
X542331Y351619D01*
X539876Y354074D01*
X539876Y354600D01*
X539864Y354686D01*
X539861Y354774D01*
X539844Y354826D01*
X539836Y354881D01*
X539801Y354961D01*
X539774Y355044D01*
X539746Y355084D01*
X539720Y355141D01*
X539624Y355254D01*
X539579Y355318D01*
X538749Y356147D01*
X538749Y360133D01*
X541567Y362951D01*
X545553Y362951D01*
X548371Y360133D01*
X548371Y356419D01*
X548383Y356333D01*
X548386Y356245D01*
X548403Y356193D01*
X548411Y356138D01*
X548446Y356058D01*
X548473Y355975D01*
X548501Y355936D01*
X548527Y355878D01*
X548623Y355765D01*
X548668Y355701D01*
X580348Y324021D01*
X580349Y324021D01*
X582804Y321566D01*
X582804Y250866D01*
X582816Y250780D01*
X582819Y250692D01*
X582836Y250640D01*
X582844Y250585D01*
X582879Y250505D01*
X582906Y250422D01*
X582934Y250383D01*
X582960Y250325D01*
X583056Y250212D01*
X583101Y250148D01*
X586841Y246408D01*
X586911Y246356D01*
X586975Y246296D01*
X587025Y246270D01*
X587069Y246237D01*
X587150Y246206D01*
X587228Y246166D01*
X587276Y246158D01*
X587334Y246136D01*
X587482Y246124D01*
X587559Y246111D01*
X588733Y246111D01*
X591551Y243293D01*
X591551Y239307D01*
X588733Y236489D01*
X584747Y236489D01*
G37*
%LPD*%
%LPC*%
G36*
X813347Y147589D02*
X813347Y147589D01*
X810529Y150407D01*
X810529Y154393D01*
X813347Y157211D01*
X814521Y157211D01*
X814607Y157223D01*
X814695Y157226D01*
X814747Y157243D01*
X814802Y157251D01*
X814882Y157286D01*
X814965Y157313D01*
X815004Y157341D01*
X815062Y157367D01*
X815175Y157463D01*
X815238Y157508D01*
X836759Y179029D01*
X836811Y179098D01*
X836871Y179162D01*
X836897Y179212D01*
X836930Y179256D01*
X836961Y179337D01*
X837001Y179415D01*
X837009Y179463D01*
X837031Y179521D01*
X837043Y179669D01*
X837056Y179746D01*
X837056Y227600D01*
X837044Y227686D01*
X837041Y227774D01*
X837024Y227826D01*
X837016Y227881D01*
X836981Y227961D01*
X836954Y228044D01*
X836926Y228084D01*
X836900Y228141D01*
X836804Y228254D01*
X836759Y228318D01*
X835929Y229147D01*
X835929Y233133D01*
X838747Y235951D01*
X842733Y235951D01*
X845551Y233133D01*
X845551Y229147D01*
X844721Y228318D01*
X844669Y228248D01*
X844609Y228184D01*
X844583Y228135D01*
X844550Y228090D01*
X844519Y228009D01*
X844479Y227931D01*
X844471Y227883D01*
X844449Y227825D01*
X844437Y227677D01*
X844424Y227600D01*
X844424Y176274D01*
X820448Y152298D01*
X820396Y152229D01*
X820336Y152165D01*
X820310Y152115D01*
X820277Y152071D01*
X820246Y151990D01*
X820206Y151912D01*
X820198Y151864D01*
X820176Y151806D01*
X820164Y151658D01*
X820151Y151581D01*
X820151Y150407D01*
X817333Y147589D01*
X813347Y147589D01*
G37*
%LPD*%
G36*
X532053Y44463D02*
X532053Y44463D01*
X532140Y44466D01*
X532193Y44483D01*
X532248Y44491D01*
X532328Y44526D01*
X532411Y44553D01*
X532450Y44581D01*
X532507Y44607D01*
X532620Y44703D01*
X532684Y44748D01*
X534363Y46427D01*
X534432Y46519D01*
X534506Y46607D01*
X534518Y46632D01*
X534534Y46654D01*
X534575Y46762D01*
X534622Y46867D01*
X534626Y46894D01*
X534636Y46920D01*
X534645Y47035D01*
X534661Y47148D01*
X534657Y47176D01*
X534659Y47203D01*
X534637Y47316D01*
X534620Y47430D01*
X534609Y47455D01*
X534603Y47482D01*
X534550Y47584D01*
X534503Y47689D01*
X534485Y47710D01*
X534472Y47734D01*
X534393Y47818D01*
X534319Y47905D01*
X534298Y47918D01*
X534276Y47941D01*
X534047Y48075D01*
X534034Y48083D01*
X530447Y49569D01*
X527089Y52927D01*
X525448Y56889D01*
X525433Y56914D01*
X525424Y56942D01*
X525361Y57036D01*
X525303Y57133D01*
X525282Y57154D01*
X525266Y57178D01*
X525179Y57251D01*
X525097Y57329D01*
X525071Y57342D01*
X525048Y57361D01*
X524945Y57407D01*
X524844Y57459D01*
X524815Y57465D01*
X524788Y57476D01*
X524676Y57492D01*
X524565Y57514D01*
X524536Y57511D01*
X524507Y57515D01*
X524395Y57499D01*
X524282Y57489D01*
X524255Y57479D01*
X524226Y57475D01*
X524122Y57428D01*
X524017Y57387D01*
X523993Y57370D01*
X523966Y57358D01*
X523880Y57284D01*
X523790Y57216D01*
X523772Y57192D01*
X523750Y57173D01*
X523708Y57107D01*
X523620Y56988D01*
X523607Y56953D01*
X523590Y56929D01*
X523583Y56907D01*
X523572Y56889D01*
X521931Y52927D01*
X518573Y49569D01*
X514185Y47751D01*
X509435Y47751D01*
X505047Y49569D01*
X501689Y52927D01*
X499871Y57315D01*
X499871Y62065D01*
X501689Y66453D01*
X505047Y69811D01*
X509009Y71452D01*
X509034Y71467D01*
X509062Y71476D01*
X509156Y71539D01*
X509253Y71597D01*
X509274Y71618D01*
X509298Y71634D01*
X509371Y71721D01*
X509449Y71803D01*
X509462Y71829D01*
X509481Y71852D01*
X509527Y71955D01*
X509579Y72056D01*
X509585Y72085D01*
X509596Y72112D01*
X509612Y72224D01*
X509634Y72335D01*
X509631Y72364D01*
X509635Y72393D01*
X509619Y72505D01*
X509609Y72618D01*
X509599Y72645D01*
X509595Y72675D01*
X509548Y72778D01*
X509507Y72883D01*
X509490Y72907D01*
X509478Y72934D01*
X509404Y73020D01*
X509336Y73110D01*
X509312Y73128D01*
X509293Y73150D01*
X509227Y73192D01*
X509108Y73280D01*
X509050Y73302D01*
X509009Y73328D01*
X505047Y74969D01*
X501689Y78327D01*
X500048Y82289D01*
X500033Y82314D01*
X500024Y82342D01*
X499961Y82436D01*
X499903Y82533D01*
X499882Y82554D01*
X499866Y82578D01*
X499779Y82651D01*
X499697Y82729D01*
X499671Y82742D01*
X499648Y82761D01*
X499545Y82807D01*
X499444Y82859D01*
X499415Y82865D01*
X499388Y82876D01*
X499276Y82892D01*
X499165Y82914D01*
X499136Y82911D01*
X499107Y82915D01*
X498995Y82899D01*
X498882Y82889D01*
X498855Y82879D01*
X498826Y82875D01*
X498722Y82828D01*
X498617Y82787D01*
X498593Y82770D01*
X498566Y82758D01*
X498480Y82684D01*
X498390Y82616D01*
X498372Y82592D01*
X498350Y82573D01*
X498308Y82507D01*
X498220Y82388D01*
X498200Y82337D01*
X498183Y82310D01*
X498180Y82301D01*
X498172Y82289D01*
X496531Y78327D01*
X493173Y74969D01*
X488785Y73151D01*
X484035Y73151D01*
X479647Y74969D01*
X476289Y78327D01*
X474648Y82289D01*
X474633Y82314D01*
X474624Y82342D01*
X474561Y82436D01*
X474503Y82533D01*
X474482Y82554D01*
X474466Y82578D01*
X474379Y82651D01*
X474297Y82729D01*
X474271Y82742D01*
X474248Y82761D01*
X474145Y82807D01*
X474044Y82859D01*
X474015Y82865D01*
X473988Y82876D01*
X473876Y82892D01*
X473765Y82914D01*
X473736Y82911D01*
X473707Y82915D01*
X473595Y82899D01*
X473482Y82889D01*
X473455Y82879D01*
X473426Y82875D01*
X473322Y82828D01*
X473217Y82787D01*
X473193Y82770D01*
X473166Y82758D01*
X473080Y82684D01*
X472990Y82616D01*
X472972Y82592D01*
X472950Y82573D01*
X472908Y82507D01*
X472820Y82388D01*
X472800Y82337D01*
X472783Y82310D01*
X472780Y82301D01*
X472772Y82289D01*
X471131Y78327D01*
X468067Y75263D01*
X468032Y75217D01*
X467990Y75176D01*
X467947Y75103D01*
X467896Y75036D01*
X467875Y74981D01*
X467846Y74931D01*
X467825Y74849D01*
X467795Y74770D01*
X467790Y74712D01*
X467776Y74655D01*
X467778Y74571D01*
X467771Y74487D01*
X467783Y74430D01*
X467785Y74371D01*
X467811Y74291D01*
X467827Y74208D01*
X467854Y74156D01*
X467872Y74101D01*
X467912Y74045D01*
X467958Y73956D01*
X468027Y73884D01*
X468067Y73827D01*
X475616Y66278D01*
X475724Y66197D01*
X475835Y66112D01*
X475840Y66110D01*
X475843Y66107D01*
X475971Y66059D01*
X476100Y66008D01*
X476105Y66008D01*
X476109Y66006D01*
X476245Y65995D01*
X476383Y65982D01*
X476388Y65983D01*
X476392Y65983D01*
X476526Y66009D01*
X476663Y66035D01*
X476667Y66038D01*
X476671Y66038D01*
X476793Y66101D01*
X476916Y66164D01*
X476919Y66167D01*
X476923Y66169D01*
X477130Y66365D01*
X477142Y66386D01*
X477155Y66399D01*
X477691Y67137D01*
X478963Y68409D01*
X480419Y69466D01*
X482022Y70283D01*
X483733Y70839D01*
X484379Y70942D01*
X484379Y60706D01*
X484387Y60648D01*
X484385Y60590D01*
X484407Y60508D01*
X484419Y60425D01*
X484443Y60371D01*
X484457Y60315D01*
X484500Y60242D01*
X484535Y60165D01*
X484573Y60121D01*
X484603Y60070D01*
X484664Y60013D01*
X484719Y59948D01*
X484767Y59916D01*
X484810Y59876D01*
X484885Y59837D01*
X484955Y59791D01*
X485011Y59773D01*
X485063Y59746D01*
X485131Y59735D01*
X485226Y59705D01*
X485326Y59702D01*
X485394Y59691D01*
X486411Y59691D01*
X486411Y58674D01*
X486419Y58616D01*
X486418Y58558D01*
X486439Y58476D01*
X486451Y58393D01*
X486475Y58339D01*
X486489Y58283D01*
X486532Y58210D01*
X486567Y58133D01*
X486605Y58088D01*
X486635Y58038D01*
X486696Y57980D01*
X486751Y57916D01*
X486799Y57884D01*
X486842Y57844D01*
X486917Y57805D01*
X486987Y57759D01*
X487043Y57741D01*
X487095Y57714D01*
X487163Y57703D01*
X487258Y57673D01*
X487358Y57670D01*
X487426Y57659D01*
X497662Y57659D01*
X497559Y57013D01*
X497003Y55302D01*
X496186Y53699D01*
X495233Y52387D01*
X495176Y52280D01*
X495115Y52176D01*
X495110Y52155D01*
X495100Y52136D01*
X495075Y52017D01*
X495045Y51900D01*
X495046Y51879D01*
X495042Y51858D01*
X495051Y51737D01*
X495054Y51616D01*
X495061Y51596D01*
X495063Y51574D01*
X495105Y51461D01*
X495142Y51346D01*
X495153Y51330D01*
X495161Y51308D01*
X495330Y51079D01*
X495334Y51076D01*
X495337Y51072D01*
X500661Y45748D01*
X500731Y45696D01*
X500795Y45636D01*
X500844Y45610D01*
X500888Y45577D01*
X500970Y45546D01*
X501048Y45506D01*
X501095Y45498D01*
X501154Y45476D01*
X501302Y45464D01*
X501379Y45451D01*
X502373Y45451D01*
X503075Y44748D01*
X503145Y44696D01*
X503209Y44636D01*
X503258Y44610D01*
X503302Y44577D01*
X503384Y44546D01*
X503462Y44506D01*
X503510Y44498D01*
X503568Y44476D01*
X503716Y44464D01*
X503793Y44451D01*
X531966Y44451D01*
X532053Y44463D01*
G37*
%LPC*%
G36*
X88964Y51053D02*
X88964Y51053D01*
X84389Y52948D01*
X80888Y56449D01*
X78993Y61024D01*
X78993Y65976D01*
X80888Y70551D01*
X84389Y74052D01*
X88964Y75947D01*
X93916Y75947D01*
X98491Y74052D01*
X101992Y70551D01*
X103509Y66889D01*
X103544Y66829D01*
X103570Y66765D01*
X103616Y66707D01*
X103653Y66644D01*
X103703Y66596D01*
X103746Y66542D01*
X103806Y66499D01*
X103860Y66449D01*
X103921Y66417D01*
X103978Y66377D01*
X104047Y66352D01*
X104113Y66318D01*
X104180Y66305D01*
X104246Y66282D01*
X104319Y66278D01*
X104392Y66263D01*
X104460Y66269D01*
X104529Y66265D01*
X104601Y66281D01*
X104675Y66288D01*
X104739Y66313D01*
X104807Y66328D01*
X104871Y66363D01*
X104940Y66390D01*
X104995Y66431D01*
X105056Y66465D01*
X105108Y66517D01*
X105167Y66561D01*
X105208Y66617D01*
X105257Y66666D01*
X105286Y66721D01*
X105337Y66789D01*
X105378Y66897D01*
X105412Y66963D01*
X105776Y68083D01*
X106629Y69757D01*
X107734Y71278D01*
X109062Y72606D01*
X110583Y73711D01*
X112257Y74564D01*
X114044Y75145D01*
X114809Y75266D01*
X114809Y64516D01*
X114817Y64458D01*
X114815Y64400D01*
X114837Y64318D01*
X114849Y64235D01*
X114873Y64181D01*
X114887Y64125D01*
X114930Y64052D01*
X114965Y63975D01*
X115003Y63931D01*
X115033Y63880D01*
X115094Y63823D01*
X115149Y63758D01*
X115197Y63726D01*
X115240Y63686D01*
X115315Y63647D01*
X115385Y63601D01*
X115441Y63583D01*
X115493Y63556D01*
X115561Y63545D01*
X115656Y63515D01*
X115756Y63512D01*
X115824Y63501D01*
X116841Y63501D01*
X116841Y63499D01*
X115824Y63499D01*
X115766Y63491D01*
X115708Y63492D01*
X115626Y63471D01*
X115543Y63459D01*
X115489Y63435D01*
X115433Y63421D01*
X115360Y63378D01*
X115283Y63343D01*
X115238Y63305D01*
X115188Y63275D01*
X115130Y63214D01*
X115066Y63159D01*
X115034Y63111D01*
X114994Y63068D01*
X114955Y62993D01*
X114909Y62923D01*
X114891Y62867D01*
X114864Y62815D01*
X114853Y62747D01*
X114823Y62652D01*
X114820Y62552D01*
X114809Y62484D01*
X114809Y51734D01*
X114044Y51855D01*
X112257Y52436D01*
X110583Y53289D01*
X109062Y54394D01*
X107734Y55722D01*
X106629Y57243D01*
X105776Y58917D01*
X105412Y60037D01*
X105382Y60099D01*
X105361Y60165D01*
X105320Y60226D01*
X105287Y60292D01*
X105241Y60343D01*
X105202Y60401D01*
X105146Y60448D01*
X105097Y60503D01*
X105038Y60539D01*
X104985Y60584D01*
X104918Y60614D01*
X104855Y60653D01*
X104788Y60671D01*
X104725Y60699D01*
X104652Y60709D01*
X104581Y60729D01*
X104512Y60729D01*
X104443Y60738D01*
X104371Y60728D01*
X104297Y60727D01*
X104230Y60707D01*
X104162Y60698D01*
X104095Y60667D01*
X104024Y60646D01*
X103966Y60609D01*
X103903Y60580D01*
X103847Y60533D01*
X103785Y60493D01*
X103739Y60441D01*
X103687Y60396D01*
X103654Y60343D01*
X103597Y60279D01*
X103548Y60175D01*
X103509Y60111D01*
X101992Y56449D01*
X98491Y52948D01*
X93916Y51053D01*
X88964Y51053D01*
G37*
%LPD*%
%LPC*%
G36*
X348527Y246649D02*
X348527Y246649D01*
X345709Y249467D01*
X345709Y250461D01*
X345702Y250510D01*
X345703Y250519D01*
X345699Y250532D01*
X345697Y250548D01*
X345694Y250635D01*
X345677Y250688D01*
X345669Y250743D01*
X345634Y250822D01*
X345607Y250906D01*
X345579Y250945D01*
X345553Y251002D01*
X345457Y251115D01*
X345412Y251179D01*
X331625Y264966D01*
X331578Y265001D01*
X331538Y265043D01*
X331465Y265086D01*
X331398Y265137D01*
X331343Y265158D01*
X331293Y265187D01*
X331211Y265208D01*
X331132Y265238D01*
X331074Y265243D01*
X331017Y265257D01*
X330933Y265255D01*
X330849Y265262D01*
X330792Y265250D01*
X330733Y265248D01*
X330653Y265222D01*
X330570Y265206D01*
X330518Y265179D01*
X330463Y265161D01*
X330406Y265121D01*
X330318Y265075D01*
X330245Y265006D01*
X330189Y264966D01*
X329653Y264429D01*
X325667Y264429D01*
X322849Y267247D01*
X322849Y271233D01*
X325667Y274051D01*
X329653Y274051D01*
X330355Y273348D01*
X330425Y273296D01*
X330489Y273236D01*
X330538Y273210D01*
X330583Y273177D01*
X330664Y273146D01*
X330742Y273106D01*
X330790Y273098D01*
X330848Y273076D01*
X330996Y273064D01*
X331073Y273051D01*
X334318Y273051D01*
X350801Y256568D01*
X350871Y256516D01*
X350935Y256456D01*
X350984Y256430D01*
X351028Y256397D01*
X351110Y256366D01*
X351188Y256326D01*
X351235Y256318D01*
X351294Y256296D01*
X351442Y256284D01*
X351519Y256271D01*
X352513Y256271D01*
X355331Y253453D01*
X355331Y249467D01*
X352513Y246649D01*
X348527Y246649D01*
G37*
%LPD*%
%LPC*%
G36*
X950981Y146791D02*
X950981Y146791D01*
X950981Y153001D01*
X950974Y153049D01*
X950974Y153055D01*
X950972Y153064D01*
X950969Y153087D01*
X950966Y153175D01*
X950949Y153227D01*
X950941Y153282D01*
X950906Y153362D01*
X950879Y153445D01*
X950851Y153484D01*
X950825Y153541D01*
X950729Y153655D01*
X950684Y153718D01*
X948910Y155492D01*
X947951Y157807D01*
X947951Y160313D01*
X948910Y162628D01*
X950682Y164400D01*
X952997Y165359D01*
X955503Y165359D01*
X957818Y164400D01*
X959590Y162628D01*
X960549Y160313D01*
X960549Y157807D01*
X959590Y155492D01*
X957818Y153720D01*
X957435Y153562D01*
X957410Y153547D01*
X957382Y153538D01*
X957288Y153475D01*
X957190Y153417D01*
X957170Y153396D01*
X957146Y153379D01*
X957073Y153293D01*
X956995Y153210D01*
X956981Y153184D01*
X956963Y153162D01*
X956917Y153058D01*
X956865Y152958D01*
X956859Y152929D01*
X956847Y152902D01*
X956832Y152790D01*
X956810Y152679D01*
X956812Y152650D01*
X956808Y152620D01*
X956824Y152508D01*
X956834Y152395D01*
X956845Y152368D01*
X956849Y152339D01*
X956896Y152236D01*
X956936Y152130D01*
X956954Y152107D01*
X956966Y152080D01*
X957039Y151994D01*
X957108Y151903D01*
X957131Y151886D01*
X957150Y151864D01*
X957217Y151822D01*
X957336Y151733D01*
X957394Y151711D01*
X957435Y151686D01*
X958022Y151443D01*
X959257Y150617D01*
X960307Y149567D01*
X961132Y148332D01*
X961701Y146960D01*
X961734Y146791D01*
X950981Y146791D01*
G37*
%LPD*%
%LPC*%
G36*
X952997Y210561D02*
X952997Y210561D01*
X950682Y211520D01*
X948910Y213292D01*
X947951Y215607D01*
X947951Y218113D01*
X948910Y220428D01*
X950684Y222202D01*
X950736Y222271D01*
X950796Y222335D01*
X950822Y222385D01*
X950855Y222429D01*
X950886Y222510D01*
X950926Y222588D01*
X950934Y222636D01*
X950956Y222694D01*
X950966Y222821D01*
X950967Y222823D01*
X950967Y222833D01*
X950968Y222842D01*
X950981Y222919D01*
X950981Y229129D01*
X961734Y229129D01*
X961701Y228960D01*
X961132Y227588D01*
X960307Y226353D01*
X959257Y225303D01*
X958022Y224477D01*
X957435Y224234D01*
X957410Y224219D01*
X957382Y224211D01*
X957288Y224148D01*
X957190Y224090D01*
X957170Y224069D01*
X957146Y224052D01*
X957073Y223966D01*
X956995Y223883D01*
X956982Y223857D01*
X956963Y223835D01*
X956917Y223731D01*
X956865Y223630D01*
X956859Y223602D01*
X956847Y223575D01*
X956832Y223463D01*
X956810Y223352D01*
X956812Y223322D01*
X956808Y223293D01*
X956824Y223181D01*
X956834Y223068D01*
X956845Y223041D01*
X956849Y223012D01*
X956895Y222909D01*
X956936Y222803D01*
X956954Y222780D01*
X956966Y222753D01*
X957039Y222667D01*
X957108Y222576D01*
X957131Y222559D01*
X957150Y222536D01*
X957217Y222495D01*
X957335Y222406D01*
X957394Y222384D01*
X957435Y222358D01*
X957818Y222200D01*
X959590Y220428D01*
X960549Y218113D01*
X960549Y215607D01*
X959590Y213292D01*
X957818Y211520D01*
X955503Y210561D01*
X952997Y210561D01*
G37*
%LPD*%
%LPC*%
G36*
X142375Y290321D02*
X142375Y290321D01*
X135381Y297315D01*
X135381Y300229D01*
X145289Y300229D01*
X145289Y290321D01*
X142375Y290321D01*
G37*
%LPD*%
%LPC*%
G36*
X118871Y65531D02*
X118871Y65531D01*
X118871Y75266D01*
X119636Y75145D01*
X121423Y74564D01*
X123097Y73711D01*
X124618Y72606D01*
X125946Y71278D01*
X127051Y69757D01*
X127904Y68083D01*
X128485Y66296D01*
X128606Y65531D01*
X118871Y65531D01*
G37*
%LPD*%
%LPC*%
G36*
X432734Y19811D02*
X432734Y19811D01*
X432855Y20576D01*
X433436Y22363D01*
X434289Y24037D01*
X435394Y25558D01*
X436722Y26886D01*
X438243Y27991D01*
X439917Y28844D01*
X441704Y29425D01*
X442469Y29546D01*
X442469Y19811D01*
X432734Y19811D01*
G37*
%LPD*%
%LPC*%
G36*
X118871Y61469D02*
X118871Y61469D01*
X128606Y61469D01*
X128485Y60704D01*
X127904Y58917D01*
X127051Y57243D01*
X125946Y55722D01*
X124618Y54394D01*
X123097Y53289D01*
X121423Y52436D01*
X119636Y51855D01*
X118871Y51734D01*
X118871Y61469D01*
G37*
%LPD*%
%LPC*%
G36*
X488441Y61721D02*
X488441Y61721D01*
X488441Y70942D01*
X489087Y70839D01*
X490798Y70283D01*
X492401Y69466D01*
X493857Y68409D01*
X495129Y67137D01*
X496186Y65681D01*
X497003Y64078D01*
X497559Y62367D01*
X497662Y61721D01*
X488441Y61721D01*
G37*
%LPD*%
%LPC*%
G36*
X234441Y61721D02*
X234441Y61721D01*
X234441Y70942D01*
X235087Y70839D01*
X236798Y70283D01*
X238401Y69466D01*
X239857Y68409D01*
X241129Y67137D01*
X242186Y65681D01*
X243003Y64078D01*
X243559Y62367D01*
X243662Y61721D01*
X234441Y61721D01*
G37*
%LPD*%
%LPC*%
G36*
X590041Y61721D02*
X590041Y61721D01*
X590041Y70942D01*
X590687Y70839D01*
X592398Y70283D01*
X594001Y69466D01*
X595457Y68409D01*
X596729Y67137D01*
X597786Y65681D01*
X598603Y64078D01*
X599159Y62367D01*
X599262Y61721D01*
X590041Y61721D01*
G37*
%LPD*%
%LPC*%
G36*
X285241Y61721D02*
X285241Y61721D01*
X285241Y70942D01*
X285887Y70839D01*
X287598Y70283D01*
X289201Y69466D01*
X290657Y68409D01*
X291929Y67137D01*
X292986Y65681D01*
X293803Y64078D01*
X294359Y62367D01*
X294462Y61721D01*
X285241Y61721D01*
G37*
%LPD*%
%LPC*%
G36*
X158241Y87121D02*
X158241Y87121D01*
X158241Y96342D01*
X158887Y96239D01*
X160598Y95683D01*
X162201Y94866D01*
X163657Y93809D01*
X164929Y92537D01*
X165986Y91081D01*
X166803Y89478D01*
X167359Y87767D01*
X167462Y87121D01*
X158241Y87121D01*
G37*
%LPD*%
%LPC*%
G36*
X412241Y61721D02*
X412241Y61721D01*
X412241Y70942D01*
X412887Y70839D01*
X414598Y70283D01*
X416201Y69466D01*
X417657Y68409D01*
X418929Y67137D01*
X419986Y65681D01*
X420803Y64078D01*
X421359Y62367D01*
X421462Y61721D01*
X412241Y61721D01*
G37*
%LPD*%
%LPC*%
G36*
X336041Y87121D02*
X336041Y87121D01*
X336041Y96342D01*
X336687Y96239D01*
X338398Y95683D01*
X340001Y94866D01*
X341457Y93809D01*
X342729Y92537D01*
X343786Y91081D01*
X344603Y89478D01*
X345159Y87767D01*
X345262Y87121D01*
X336041Y87121D01*
G37*
%LPD*%
%LPC*%
G36*
X539241Y87121D02*
X539241Y87121D01*
X539241Y96342D01*
X539887Y96239D01*
X541598Y95683D01*
X543201Y94866D01*
X544657Y93809D01*
X545929Y92537D01*
X546986Y91081D01*
X547803Y89478D01*
X548359Y87767D01*
X548462Y87121D01*
X539241Y87121D01*
G37*
%LPD*%
%LPC*%
G36*
X525958Y87121D02*
X525958Y87121D01*
X526061Y87767D01*
X526617Y89478D01*
X527434Y91081D01*
X528491Y92537D01*
X529763Y93809D01*
X531219Y94866D01*
X532822Y95683D01*
X534533Y96239D01*
X535179Y96342D01*
X535179Y87121D01*
X525958Y87121D01*
G37*
%LPD*%
%LPC*%
G36*
X144958Y87121D02*
X144958Y87121D01*
X145061Y87767D01*
X145617Y89478D01*
X146434Y91081D01*
X147491Y92537D01*
X148763Y93809D01*
X150219Y94866D01*
X151822Y95683D01*
X153533Y96239D01*
X154179Y96342D01*
X154179Y87121D01*
X144958Y87121D01*
G37*
%LPD*%
%LPC*%
G36*
X271958Y61721D02*
X271958Y61721D01*
X272061Y62367D01*
X272617Y64078D01*
X273434Y65681D01*
X274491Y67137D01*
X275763Y68409D01*
X277219Y69466D01*
X278822Y70283D01*
X280533Y70839D01*
X281179Y70942D01*
X281179Y61721D01*
X271958Y61721D01*
G37*
%LPD*%
%LPC*%
G36*
X285241Y57659D02*
X285241Y57659D01*
X294462Y57659D01*
X294359Y57013D01*
X293803Y55302D01*
X292986Y53699D01*
X291929Y52243D01*
X290657Y50971D01*
X289201Y49914D01*
X287598Y49097D01*
X285887Y48541D01*
X285241Y48438D01*
X285241Y57659D01*
G37*
%LPD*%
%LPC*%
G36*
X234441Y57659D02*
X234441Y57659D01*
X243662Y57659D01*
X243559Y57013D01*
X243003Y55302D01*
X242186Y53699D01*
X241129Y52243D01*
X239857Y50971D01*
X238401Y49914D01*
X236798Y49097D01*
X235087Y48541D01*
X234441Y48438D01*
X234441Y57659D01*
G37*
%LPD*%
%LPC*%
G36*
X576758Y61721D02*
X576758Y61721D01*
X576861Y62367D01*
X577417Y64078D01*
X578234Y65681D01*
X579291Y67137D01*
X580563Y68409D01*
X582019Y69466D01*
X583622Y70283D01*
X585333Y70839D01*
X585979Y70942D01*
X585979Y61721D01*
X576758Y61721D01*
G37*
%LPD*%
%LPC*%
G36*
X336041Y83059D02*
X336041Y83059D01*
X345262Y83059D01*
X345159Y82413D01*
X344603Y80702D01*
X343786Y79099D01*
X342729Y77643D01*
X341457Y76371D01*
X340001Y75314D01*
X338398Y74497D01*
X336687Y73941D01*
X336041Y73838D01*
X336041Y83059D01*
G37*
%LPD*%
%LPC*%
G36*
X590041Y57659D02*
X590041Y57659D01*
X599262Y57659D01*
X599159Y57013D01*
X598603Y55302D01*
X597786Y53699D01*
X596729Y52243D01*
X595457Y50971D01*
X594001Y49914D01*
X592398Y49097D01*
X590687Y48541D01*
X590041Y48438D01*
X590041Y57659D01*
G37*
%LPD*%
%LPC*%
G36*
X539241Y83059D02*
X539241Y83059D01*
X548462Y83059D01*
X548359Y82413D01*
X547803Y80702D01*
X546986Y79099D01*
X545929Y77643D01*
X544657Y76371D01*
X543201Y75314D01*
X541598Y74497D01*
X539887Y73941D01*
X539241Y73838D01*
X539241Y83059D01*
G37*
%LPD*%
%LPC*%
G36*
X158241Y83059D02*
X158241Y83059D01*
X167462Y83059D01*
X167359Y82413D01*
X166803Y80702D01*
X165986Y79099D01*
X164929Y77643D01*
X163657Y76371D01*
X162201Y75314D01*
X160598Y74497D01*
X158887Y73941D01*
X158241Y73838D01*
X158241Y83059D01*
G37*
%LPD*%
%LPC*%
G36*
X412241Y57659D02*
X412241Y57659D01*
X421462Y57659D01*
X421359Y57013D01*
X420803Y55302D01*
X419986Y53699D01*
X418929Y52243D01*
X417657Y50971D01*
X416201Y49914D01*
X414598Y49097D01*
X412887Y48541D01*
X412241Y48438D01*
X412241Y57659D01*
G37*
%LPD*%
%LPC*%
G36*
X322758Y87121D02*
X322758Y87121D01*
X322861Y87767D01*
X323417Y89478D01*
X324234Y91081D01*
X325291Y92537D01*
X326563Y93809D01*
X328019Y94866D01*
X329622Y95683D01*
X331333Y96239D01*
X331979Y96342D01*
X331979Y87121D01*
X322758Y87121D01*
G37*
%LPD*%
%LPC*%
G36*
X398958Y61721D02*
X398958Y61721D01*
X399061Y62367D01*
X399617Y64078D01*
X400434Y65681D01*
X401491Y67137D01*
X402763Y68409D01*
X404219Y69466D01*
X405822Y70283D01*
X407533Y70839D01*
X408179Y70942D01*
X408179Y61721D01*
X398958Y61721D01*
G37*
%LPD*%
%LPC*%
G36*
X585333Y48541D02*
X585333Y48541D01*
X583622Y49097D01*
X582019Y49914D01*
X580563Y50971D01*
X579291Y52243D01*
X578234Y53699D01*
X577417Y55302D01*
X576861Y57013D01*
X576758Y57659D01*
X585979Y57659D01*
X585979Y48438D01*
X585333Y48541D01*
G37*
%LPD*%
%LPC*%
G36*
X153533Y73941D02*
X153533Y73941D01*
X151822Y74497D01*
X150219Y75314D01*
X148763Y76371D01*
X147491Y77643D01*
X146434Y79099D01*
X145617Y80702D01*
X145061Y82413D01*
X144958Y83059D01*
X154179Y83059D01*
X154179Y73838D01*
X153533Y73941D01*
G37*
%LPD*%
%LPC*%
G36*
X331333Y73941D02*
X331333Y73941D01*
X329622Y74497D01*
X328019Y75314D01*
X326563Y76371D01*
X325291Y77643D01*
X324234Y79099D01*
X323417Y80702D01*
X322861Y82413D01*
X322758Y83059D01*
X331979Y83059D01*
X331979Y73838D01*
X331333Y73941D01*
G37*
%LPD*%
%LPC*%
G36*
X407533Y48541D02*
X407533Y48541D01*
X405822Y49097D01*
X404219Y49914D01*
X402763Y50971D01*
X401491Y52243D01*
X400434Y53699D01*
X399617Y55302D01*
X399061Y57013D01*
X398958Y57659D01*
X408179Y57659D01*
X408179Y48438D01*
X407533Y48541D01*
G37*
%LPD*%
%LPC*%
G36*
X280533Y48541D02*
X280533Y48541D01*
X278822Y49097D01*
X277219Y49914D01*
X275763Y50971D01*
X274491Y52243D01*
X273434Y53699D01*
X272617Y55302D01*
X272061Y57013D01*
X271958Y57659D01*
X281179Y57659D01*
X281179Y48438D01*
X280533Y48541D01*
G37*
%LPD*%
%LPC*%
G36*
X534533Y73941D02*
X534533Y73941D01*
X532822Y74497D01*
X531219Y75314D01*
X529763Y76371D01*
X528491Y77643D01*
X527434Y79099D01*
X526617Y80702D01*
X526061Y82413D01*
X525958Y83059D01*
X535179Y83059D01*
X535179Y73838D01*
X534533Y73941D01*
G37*
%LPD*%
%LPC*%
G36*
X950981Y233191D02*
X950981Y233191D01*
X950981Y238701D01*
X955193Y238701D01*
X956650Y238411D01*
X958022Y237842D01*
X959257Y237017D01*
X960307Y235967D01*
X961132Y234732D01*
X961701Y233360D01*
X961734Y233191D01*
X950981Y233191D01*
G37*
%LPD*%
%LPC*%
G36*
X936166Y146791D02*
X936166Y146791D01*
X936199Y146960D01*
X936768Y148332D01*
X937593Y149567D01*
X938643Y150617D01*
X939878Y151442D01*
X941250Y152011D01*
X942707Y152301D01*
X946919Y152301D01*
X946919Y146791D01*
X936166Y146791D01*
G37*
%LPD*%
%LPC*%
G36*
X936166Y233191D02*
X936166Y233191D01*
X936199Y233360D01*
X936768Y234732D01*
X937593Y235967D01*
X938643Y237017D01*
X939878Y237842D01*
X941250Y238411D01*
X942707Y238701D01*
X946919Y238701D01*
X946919Y233191D01*
X936166Y233191D01*
G37*
%LPD*%
%LPC*%
G36*
X950981Y137219D02*
X950981Y137219D01*
X950981Y142729D01*
X961734Y142729D01*
X961701Y142560D01*
X961132Y141188D01*
X960307Y139953D01*
X959257Y138903D01*
X958022Y138078D01*
X956650Y137509D01*
X955193Y137219D01*
X950981Y137219D01*
G37*
%LPD*%
%LPC*%
G36*
X942707Y223619D02*
X942707Y223619D01*
X941250Y223909D01*
X939878Y224478D01*
X938643Y225303D01*
X937593Y226353D01*
X936768Y227588D01*
X936199Y228960D01*
X936166Y229129D01*
X946919Y229129D01*
X946919Y223619D01*
X942707Y223619D01*
G37*
%LPD*%
%LPC*%
G36*
X942707Y137219D02*
X942707Y137219D01*
X941250Y137509D01*
X939878Y138078D01*
X938643Y138903D01*
X937593Y139953D01*
X936768Y141188D01*
X936199Y142560D01*
X936166Y142729D01*
X946919Y142729D01*
X946919Y137219D01*
X942707Y137219D01*
G37*
%LPD*%
%LPC*%
G36*
X980466Y146791D02*
X980466Y146791D01*
X980499Y146960D01*
X981068Y148332D01*
X981893Y149567D01*
X982943Y150617D01*
X984178Y151442D01*
X985550Y152011D01*
X987007Y152301D01*
X988719Y152301D01*
X988719Y146791D01*
X980466Y146791D01*
G37*
%LPD*%
%LPC*%
G36*
X987007Y223619D02*
X987007Y223619D01*
X985550Y223909D01*
X984178Y224478D01*
X982943Y225303D01*
X981893Y226353D01*
X981068Y227588D01*
X980499Y228960D01*
X980466Y229129D01*
X988719Y229129D01*
X988719Y223619D01*
X987007Y223619D01*
G37*
%LPD*%
%LPC*%
G36*
X537209Y85089D02*
X537209Y85089D01*
X537209Y85091D01*
X537211Y85091D01*
X537211Y85089D01*
X537209Y85089D01*
G37*
%LPD*%
%LPC*%
G36*
X334009Y85089D02*
X334009Y85089D01*
X334009Y85091D01*
X334011Y85091D01*
X334011Y85089D01*
X334009Y85089D01*
G37*
%LPD*%
%LPC*%
G36*
X156209Y85089D02*
X156209Y85089D01*
X156209Y85091D01*
X156211Y85091D01*
X156211Y85089D01*
X156209Y85089D01*
G37*
%LPD*%
%LPC*%
G36*
X283209Y59689D02*
X283209Y59689D01*
X283209Y59691D01*
X283211Y59691D01*
X283211Y59689D01*
X283209Y59689D01*
G37*
%LPD*%
%LPC*%
G36*
X410209Y59689D02*
X410209Y59689D01*
X410209Y59691D01*
X410211Y59691D01*
X410211Y59689D01*
X410209Y59689D01*
G37*
%LPD*%
%LPC*%
G36*
X588009Y59689D02*
X588009Y59689D01*
X588009Y59691D01*
X588011Y59691D01*
X588011Y59689D01*
X588009Y59689D01*
G37*
%LPD*%
%LPC*%
G36*
X948949Y144759D02*
X948949Y144759D01*
X948949Y144761D01*
X948951Y144761D01*
X948951Y144759D01*
X948949Y144759D01*
G37*
%LPD*%
%LPC*%
G36*
X948949Y231159D02*
X948949Y231159D01*
X948949Y231161D01*
X948951Y231161D01*
X948951Y231159D01*
X948949Y231159D01*
G37*
%LPD*%
D10*
X198120Y327660D03*
X198120Y302260D03*
X172720Y327660D03*
X172720Y302260D03*
X147320Y327660D03*
X147320Y302260D03*
D11*
X495300Y17780D03*
X469900Y17780D03*
X444500Y17780D03*
D12*
X638810Y85090D03*
D13*
X638810Y59690D03*
X613410Y85090D03*
X613410Y59690D03*
X588010Y85090D03*
X588010Y59690D03*
X562610Y85090D03*
X562610Y59690D03*
X537210Y85090D03*
X537210Y59690D03*
X511810Y85090D03*
X511810Y59690D03*
X486410Y85090D03*
X486410Y59690D03*
X461010Y85090D03*
X461010Y59690D03*
X435610Y85090D03*
X435610Y59690D03*
X410210Y85090D03*
X410210Y59690D03*
X384810Y85090D03*
X384810Y59690D03*
X359410Y85090D03*
X359410Y59690D03*
X334010Y85090D03*
X334010Y59690D03*
X308610Y85090D03*
X308610Y59690D03*
X283210Y85090D03*
X283210Y59690D03*
X257810Y85090D03*
X257810Y59690D03*
X232410Y85090D03*
X232410Y59690D03*
X207010Y85090D03*
X207010Y59690D03*
X181610Y85090D03*
X181610Y59690D03*
X156210Y85090D03*
X156210Y59690D03*
D14*
X943450Y144760D02*
X954450Y144760D01*
X954450Y231160D02*
X943450Y231160D01*
X987750Y144760D02*
X993750Y144760D01*
X993750Y231160D02*
X987750Y231160D01*
D11*
X91440Y63500D03*
X116840Y63500D03*
D15*
X721360Y363220D03*
D16*
X735161Y349419D01*
D15*
X584200Y15240D03*
X254000Y-2540D03*
D16*
X566420Y-2540D01*
X584200Y15240D01*
X585018Y15240D02*
X588066Y12192D01*
X585018Y15240D02*
X584200Y15240D01*
X735161Y349419D02*
X756380Y349419D01*
X734451Y12192D02*
X588066Y12192D01*
X802640Y303159D02*
X756380Y349419D01*
X802640Y303159D02*
X802640Y80381D01*
X734451Y12192D01*
D17*
X274320Y266700D03*
D18*
X218609Y210989D01*
X556260Y5080D02*
X568960Y17780D01*
X568960Y20320D01*
D17*
X568960Y20320D03*
D18*
X556260Y5080D02*
X264866Y5080D01*
X218609Y51337D02*
X218609Y210989D01*
X218609Y51337D02*
X264866Y5080D01*
D16*
X655320Y17780D02*
X662940Y25400D01*
X476980Y17780D02*
X469900Y17780D01*
X476980Y17780D02*
X489934Y30734D01*
X577447Y30734D01*
X590401Y17780D02*
X655320Y17780D01*
X590401Y17780D02*
X577447Y30734D01*
D17*
X662940Y25400D03*
X378460Y259080D03*
D18*
X487680Y259080D01*
X523240Y294640D01*
X523160Y294640D01*
D17*
X523160Y294640D03*
D18*
X116840Y271780D02*
X116840Y63500D01*
X116840Y271780D02*
X147320Y302260D01*
D17*
X332740Y360680D03*
D18*
X332740Y345440D01*
X325120Y337820D01*
D17*
X325120Y337820D03*
D18*
X527615Y85090D02*
X537210Y85090D01*
X500634Y73914D02*
X486410Y59690D01*
X516439Y73914D02*
X527615Y85090D01*
X516439Y73914D02*
X500634Y73914D01*
D17*
X500380Y40640D03*
X373380Y205740D03*
X350520Y251460D03*
D18*
X332740Y269240D01*
X327660Y269240D01*
D17*
X327660Y269240D03*
D18*
X548386Y70866D02*
X562610Y85090D01*
X548386Y70866D02*
X548386Y55061D01*
X533965Y40640D01*
X500380Y40640D01*
X456381Y73914D02*
X449834Y80461D01*
X475234Y55061D02*
X481781Y48514D01*
X449834Y129286D02*
X373380Y205740D01*
X449834Y129286D02*
X449834Y80461D01*
X481781Y48514D02*
X492506Y48514D01*
X500380Y40640D01*
X462591Y73914D02*
X456381Y73914D01*
X462591Y73914D02*
X475234Y61271D01*
X475234Y55061D01*
D15*
X393700Y299720D03*
D18*
X487680Y299720D01*
X518160Y330200D01*
D15*
X518160Y330200D03*
D17*
X586740Y241300D03*
D19*
X579120Y248920D01*
X579120Y320040D02*
X543560Y355600D01*
X543560Y358140D01*
D17*
X543560Y358140D03*
D19*
X579120Y320040D02*
X579120Y248920D01*
D15*
X195580Y35560D03*
X198120Y271780D03*
D20*
X198120Y92724D01*
X195326Y89930D01*
X195326Y54850D02*
X195580Y54596D01*
X195580Y35560D01*
X195326Y54850D02*
X195326Y89930D01*
D19*
X172720Y327660D02*
X226060Y381000D01*
X436880Y381000D01*
D17*
X436880Y381000D03*
X436880Y353060D03*
D19*
X186801Y288179D02*
X172720Y302260D01*
X186801Y288179D02*
X371999Y288179D01*
X436880Y353060D01*
X236220Y365760D02*
X198120Y327660D01*
X236220Y365760D02*
X436880Y365760D01*
D17*
X436880Y365760D03*
D19*
X160020Y314960D02*
X147320Y327660D01*
X190307Y314960D02*
X190688Y315341D01*
X269621Y315341D02*
X312420Y358140D01*
X269621Y315341D02*
X190688Y315341D01*
X312420Y358140D02*
X320040Y358140D01*
D17*
X320040Y358140D03*
D19*
X190307Y314960D02*
X160020Y314960D01*
D17*
X341630Y303530D03*
D18*
X332740Y294640D01*
X307340Y294640D01*
X304800Y292100D01*
D17*
X304800Y292100D03*
X535940Y226060D03*
D18*
X511810Y136015D02*
X511810Y85090D01*
X511810Y136015D02*
X539988Y164193D01*
X539988Y184557D01*
X535940Y188605D01*
X535940Y226060D01*
D15*
X528320Y203200D03*
D18*
X437525Y203200D01*
X232172Y209788D02*
X231140Y210820D01*
X423317Y188992D02*
X437525Y203200D01*
X375057Y209788D02*
X232172Y209788D01*
X395853Y188992D02*
X423317Y188992D01*
X395853Y188992D02*
X375057Y209788D01*
D15*
X231140Y210820D03*
D17*
X535940Y182880D03*
X840740Y231140D03*
D19*
X840740Y177800D01*
X815340Y152400D01*
D17*
X815340Y152400D03*
D18*
X534908Y163423D02*
X534908Y166608D01*
X535940Y167640D01*
X486410Y114925D02*
X486410Y85090D01*
X486410Y114925D02*
X534908Y163423D01*
X535940Y167640D02*
X535940Y182880D01*
D17*
X530860Y165100D03*
D18*
X461010Y95250D01*
X461010Y85090D01*
D17*
X421640Y193040D03*
D19*
X386080Y228600D01*
X254000Y228600D01*
X251460Y231140D01*
D17*
X251460Y231140D03*
D15*
X414020Y106680D03*
D18*
X440239Y96266D02*
X446786Y89719D01*
X424434Y96266D02*
X414020Y106680D01*
X446786Y73914D02*
X461010Y59690D01*
X440239Y96266D02*
X424434Y96266D01*
X446786Y89719D02*
X446786Y73914D01*
D15*
X670560Y332740D03*
D20*
X772160Y271780D02*
X792480Y271780D01*
D15*
X792480Y271780D03*
D20*
X772160Y271780D02*
X718820Y325120D01*
X678180Y325120D01*
X670560Y332740D01*
D15*
X792480Y289560D03*
D20*
X749300Y332740D01*
X680720Y332740D01*
D15*
X680720Y332740D03*
X720380Y346420D03*
D20*
X721021Y345779D01*
X726145Y345779D01*
X774700Y320040D02*
X774700Y317500D01*
D15*
X774700Y317500D03*
D18*
X732694Y345779D02*
X726145Y345779D01*
X732694Y345779D02*
X733372Y345101D01*
X749639Y345101D01*
X774700Y320040D01*
D15*
X650240Y325120D03*
D18*
X665480Y340360D01*
X723900Y340360D01*
D15*
X723900Y340360D03*
X646720Y331180D03*
D18*
X652949Y365254D02*
X658874Y371179D01*
X755906Y371179D01*
X921851Y205234D01*
X652949Y337409D02*
X646720Y331180D01*
X652949Y337409D02*
X652949Y365254D01*
X921851Y177969D02*
X922020Y177800D01*
X921851Y177969D02*
X921851Y205234D01*
X922020Y177800D02*
X922020Y175260D01*
D15*
X922020Y175260D03*
X657860Y363220D03*
D18*
X714415Y363220D01*
X719326Y368131D01*
X749469Y368131D01*
X914400Y203200D01*
X916940Y203200D01*
D15*
X916940Y203200D03*
M02*
