G04 EAGLE Gerber RS-274X export*
G75*
%MOMM*%
%FSLAX34Y34*%
%LPD*%
%IN*%
%IPPOS*%
%AMOC8*
5,1,8,0,0,1.08239X$1,22.5*%
G01*
%ADD10C,0.254000*%


D10*
X38100Y-22337D02*
X38171Y-24660D01*
X38518Y-27978D01*
X39154Y-31254D01*
X40073Y-34461D01*
X41267Y-37576D01*
X42729Y-40576D01*
X44446Y-43436D01*
X46407Y-46136D01*
X48595Y-48655D01*
X50994Y-50973D01*
X53586Y-53074D01*
X56352Y-54940D01*
X59270Y-56559D01*
X62317Y-57917D01*
X65471Y-59004D01*
X68709Y-59812D01*
X72004Y-60335D01*
X75332Y-60569D01*
X78668Y-60512D01*
X842522Y-14032D01*
X844786Y-13862D01*
X852826Y-12803D01*
X860743Y-11048D01*
X868477Y-8610D01*
X875969Y-5506D01*
X883162Y-1762D01*
X890002Y2595D01*
X896435Y7532D01*
X902414Y13011D01*
X907893Y18989D01*
X912829Y25423D01*
X917186Y32262D01*
X920931Y39455D01*
X924034Y46947D01*
X926473Y54681D01*
X928228Y62598D01*
X929286Y70638D01*
X929640Y78740D01*
X930305Y83812D01*
X931410Y88807D01*
X932945Y93687D01*
X934901Y98414D01*
X937260Y102953D01*
X940007Y107269D01*
X943119Y111330D01*
X946573Y115103D01*
X950343Y118561D01*
X954400Y121678D01*
X958713Y124429D01*
X963249Y126793D01*
X967975Y128753D01*
X972853Y130294D01*
X977847Y131404D01*
X982918Y132075D01*
X988029Y132300D01*
X993140Y132080D01*
X995680Y132080D01*
X996566Y132119D01*
X997444Y132234D01*
X998310Y132426D01*
X999155Y132693D01*
X999974Y133032D01*
X1000760Y133441D01*
X1001508Y133917D01*
X1002211Y134457D01*
X1002864Y135056D01*
X1003463Y135709D01*
X1004003Y136412D01*
X1004479Y137160D01*
X1004888Y137946D01*
X1005227Y138765D01*
X1005494Y139610D01*
X1005686Y140476D01*
X1005801Y141355D01*
X1005840Y142240D01*
X1005840Y233680D01*
X1005811Y234344D01*
X1005724Y235003D01*
X1005580Y235652D01*
X1005380Y236286D01*
X1005126Y236900D01*
X1004819Y237490D01*
X1004462Y238051D01*
X1004057Y238578D01*
X1003608Y239068D01*
X1003118Y239517D01*
X1002591Y239922D01*
X1002030Y240279D01*
X1001440Y240586D01*
X1000826Y240840D01*
X1000192Y241040D01*
X999543Y241184D01*
X998884Y241271D01*
X998220Y241300D01*
X995680Y241300D01*
X989924Y241551D01*
X984212Y242303D01*
X978588Y243550D01*
X973093Y245283D01*
X967770Y247487D01*
X962660Y250148D01*
X957801Y253243D01*
X953230Y256750D01*
X948983Y260643D01*
X945090Y264890D01*
X941583Y269461D01*
X938488Y274320D01*
X935827Y279430D01*
X933623Y284753D01*
X931890Y290248D01*
X930643Y295872D01*
X929891Y301584D01*
X929640Y307340D01*
X929628Y308662D01*
X929239Y314928D01*
X928305Y321136D01*
X926834Y327239D01*
X924837Y333190D01*
X922328Y338945D01*
X919328Y344459D01*
X915858Y349691D01*
X911945Y354600D01*
X907620Y359150D01*
X902914Y363305D01*
X897865Y367034D01*
X892509Y370309D01*
X886888Y373105D01*
X881045Y375401D01*
X875024Y377178D01*
X868872Y378424D01*
X862634Y379129D01*
X99240Y431800D01*
X94652Y432376D01*
X90032Y432550D01*
X85414Y432321D01*
X80833Y431690D01*
X76325Y430662D01*
X71924Y429245D01*
X67663Y427450D01*
X63574Y425290D01*
X59690Y422783D01*
X56039Y419946D01*
X52648Y416802D01*
X49545Y413374D01*
X46753Y409689D01*
X44292Y405774D01*
X42181Y401660D01*
X40438Y397378D01*
X39074Y392960D01*
X38100Y388440D01*
X38100Y-22337D01*
X943450Y228160D02*
X954450Y228160D01*
X954711Y228171D01*
X954971Y228206D01*
X955226Y228262D01*
X955476Y228341D01*
X955718Y228441D01*
X955950Y228562D01*
X956171Y228703D01*
X956378Y228862D01*
X956571Y229039D01*
X956748Y229232D01*
X956907Y229439D01*
X957048Y229660D01*
X957169Y229892D01*
X957269Y230134D01*
X957348Y230384D01*
X957404Y230639D01*
X957439Y230899D01*
X957450Y231160D01*
X957439Y231421D01*
X957404Y231681D01*
X957348Y231936D01*
X957269Y232186D01*
X957169Y232428D01*
X957048Y232660D01*
X956907Y232881D01*
X956748Y233088D01*
X956571Y233281D01*
X956378Y233458D01*
X956171Y233617D01*
X955950Y233758D01*
X955718Y233879D01*
X955476Y233979D01*
X955226Y234058D01*
X954971Y234114D01*
X954711Y234149D01*
X954450Y234160D01*
X943450Y234160D01*
X943189Y234149D01*
X942929Y234114D01*
X942674Y234058D01*
X942424Y233979D01*
X942182Y233879D01*
X941950Y233758D01*
X941729Y233617D01*
X941522Y233458D01*
X941329Y233281D01*
X941152Y233088D01*
X940993Y232881D01*
X940852Y232660D01*
X940731Y232428D01*
X940631Y232186D01*
X940552Y231936D01*
X940496Y231681D01*
X940461Y231421D01*
X940450Y231160D01*
X940461Y230899D01*
X940496Y230639D01*
X940552Y230384D01*
X940631Y230134D01*
X940731Y229892D01*
X940852Y229660D01*
X940993Y229439D01*
X941152Y229232D01*
X941329Y229039D01*
X941522Y228862D01*
X941729Y228703D01*
X941950Y228562D01*
X942182Y228441D01*
X942424Y228341D01*
X942674Y228262D01*
X942929Y228206D01*
X943189Y228171D01*
X943450Y228160D01*
X987600Y141760D02*
X993800Y141760D01*
X994061Y141771D01*
X994321Y141806D01*
X994576Y141862D01*
X994826Y141941D01*
X995068Y142041D01*
X995300Y142162D01*
X995521Y142303D01*
X995728Y142462D01*
X995921Y142639D01*
X996098Y142832D01*
X996257Y143039D01*
X996398Y143260D01*
X996519Y143492D01*
X996619Y143734D01*
X996698Y143984D01*
X996754Y144239D01*
X996789Y144499D01*
X996800Y144760D01*
X996789Y145021D01*
X996754Y145281D01*
X996698Y145536D01*
X996619Y145786D01*
X996519Y146028D01*
X996398Y146260D01*
X996257Y146481D01*
X996098Y146688D01*
X995921Y146881D01*
X995728Y147058D01*
X995521Y147217D01*
X995300Y147358D01*
X995068Y147479D01*
X994826Y147579D01*
X994576Y147658D01*
X994321Y147714D01*
X994061Y147749D01*
X993800Y147760D01*
X987600Y147760D01*
X987339Y147749D01*
X987079Y147714D01*
X986824Y147658D01*
X986574Y147579D01*
X986332Y147479D01*
X986100Y147358D01*
X985879Y147217D01*
X985672Y147058D01*
X985479Y146881D01*
X985302Y146688D01*
X985143Y146481D01*
X985002Y146260D01*
X984881Y146028D01*
X984781Y145786D01*
X984702Y145536D01*
X984646Y145281D01*
X984611Y145021D01*
X984600Y144760D01*
X984611Y144499D01*
X984646Y144239D01*
X984702Y143984D01*
X984781Y143734D01*
X984881Y143492D01*
X985002Y143260D01*
X985143Y143039D01*
X985302Y142832D01*
X985479Y142639D01*
X985672Y142462D01*
X985879Y142303D01*
X986100Y142162D01*
X986332Y142041D01*
X986574Y141941D01*
X986824Y141862D01*
X987079Y141806D01*
X987339Y141771D01*
X987600Y141760D01*
X987600Y228160D02*
X993800Y228160D01*
X994061Y228171D01*
X994321Y228206D01*
X994576Y228262D01*
X994826Y228341D01*
X995068Y228441D01*
X995300Y228562D01*
X995521Y228703D01*
X995728Y228862D01*
X995921Y229039D01*
X996098Y229232D01*
X996257Y229439D01*
X996398Y229660D01*
X996519Y229892D01*
X996619Y230134D01*
X996698Y230384D01*
X996754Y230639D01*
X996789Y230899D01*
X996800Y231160D01*
X996789Y231421D01*
X996754Y231681D01*
X996698Y231936D01*
X996619Y232186D01*
X996519Y232428D01*
X996398Y232660D01*
X996257Y232881D01*
X996098Y233088D01*
X995921Y233281D01*
X995728Y233458D01*
X995521Y233617D01*
X995300Y233758D01*
X995068Y233879D01*
X994826Y233979D01*
X994576Y234058D01*
X994321Y234114D01*
X994061Y234149D01*
X993800Y234160D01*
X987600Y234160D01*
X987339Y234149D01*
X987079Y234114D01*
X986824Y234058D01*
X986574Y233979D01*
X986332Y233879D01*
X986100Y233758D01*
X985879Y233617D01*
X985672Y233458D01*
X985479Y233281D01*
X985302Y233088D01*
X985143Y232881D01*
X985002Y232660D01*
X984881Y232428D01*
X984781Y232186D01*
X984702Y231936D01*
X984646Y231681D01*
X984611Y231421D01*
X984600Y231160D01*
X984611Y230899D01*
X984646Y230639D01*
X984702Y230384D01*
X984781Y230134D01*
X984881Y229892D01*
X985002Y229660D01*
X985143Y229439D01*
X985302Y229232D01*
X985479Y229039D01*
X985672Y228862D01*
X985879Y228703D01*
X986100Y228562D01*
X986332Y228441D01*
X986574Y228341D01*
X986824Y228262D01*
X987079Y228206D01*
X987339Y228171D01*
X987600Y228160D01*
X943450Y141760D02*
X954450Y141760D01*
X954711Y141771D01*
X954971Y141806D01*
X955226Y141862D01*
X955476Y141941D01*
X955718Y142041D01*
X955950Y142162D01*
X956171Y142303D01*
X956378Y142462D01*
X956571Y142639D01*
X956748Y142832D01*
X956907Y143039D01*
X957048Y143260D01*
X957169Y143492D01*
X957269Y143734D01*
X957348Y143984D01*
X957404Y144239D01*
X957439Y144499D01*
X957450Y144760D01*
X957439Y145021D01*
X957404Y145281D01*
X957348Y145536D01*
X957269Y145786D01*
X957169Y146028D01*
X957048Y146260D01*
X956907Y146481D01*
X956748Y146688D01*
X956571Y146881D01*
X956378Y147058D01*
X956171Y147217D01*
X955950Y147358D01*
X955718Y147479D01*
X955476Y147579D01*
X955226Y147658D01*
X954971Y147714D01*
X954711Y147749D01*
X954450Y147760D01*
X943450Y147760D01*
X943189Y147749D01*
X942929Y147714D01*
X942674Y147658D01*
X942424Y147579D01*
X942182Y147479D01*
X941950Y147358D01*
X941729Y147217D01*
X941522Y147058D01*
X941329Y146881D01*
X941152Y146688D01*
X940993Y146481D01*
X940852Y146260D01*
X940731Y146028D01*
X940631Y145786D01*
X940552Y145536D01*
X940496Y145281D01*
X940461Y145021D01*
X940450Y144760D01*
X940461Y144499D01*
X940496Y144239D01*
X940552Y143984D01*
X940631Y143734D01*
X940731Y143492D01*
X940852Y143260D01*
X940993Y143039D01*
X941152Y142832D01*
X941329Y142639D01*
X941522Y142462D01*
X941729Y142303D01*
X941950Y142162D01*
X942182Y142041D01*
X942424Y141941D01*
X942674Y141862D01*
X942929Y141806D01*
X943189Y141771D01*
X943450Y141760D01*
X76200Y402091D02*
X76122Y401096D01*
X75966Y400110D01*
X75733Y399140D01*
X75424Y398191D01*
X75042Y397269D01*
X74589Y396380D01*
X74068Y395529D01*
X73481Y394721D01*
X72833Y393963D01*
X72127Y393257D01*
X71369Y392609D01*
X70561Y392022D01*
X69710Y391501D01*
X68821Y391048D01*
X67899Y390666D01*
X66950Y390357D01*
X65980Y390124D01*
X64994Y389968D01*
X63999Y389890D01*
X63001Y389890D01*
X62006Y389968D01*
X61020Y390124D01*
X60050Y390357D01*
X59101Y390666D01*
X58179Y391048D01*
X57290Y391501D01*
X56439Y392022D01*
X55631Y392609D01*
X54873Y393257D01*
X54167Y393963D01*
X53519Y394721D01*
X52932Y395529D01*
X52411Y396380D01*
X51958Y397269D01*
X51576Y398191D01*
X51267Y399140D01*
X51034Y400110D01*
X50878Y401096D01*
X50800Y402091D01*
X50800Y403089D01*
X50878Y404084D01*
X51034Y405070D01*
X51267Y406040D01*
X51576Y406989D01*
X51958Y407911D01*
X52411Y408800D01*
X52932Y409651D01*
X53519Y410459D01*
X54167Y411217D01*
X54873Y411923D01*
X55631Y412571D01*
X56439Y413158D01*
X57290Y413679D01*
X58179Y414132D01*
X59101Y414514D01*
X60050Y414823D01*
X61020Y415056D01*
X62006Y415212D01*
X63001Y415290D01*
X63999Y415290D01*
X64994Y415212D01*
X65980Y415056D01*
X66950Y414823D01*
X67899Y414514D01*
X68821Y414132D01*
X69710Y413679D01*
X70561Y413158D01*
X71369Y412571D01*
X72127Y411923D01*
X72833Y411217D01*
X73481Y410459D01*
X74068Y409651D01*
X74589Y408800D01*
X75042Y407911D01*
X75424Y406989D01*
X75733Y406040D01*
X75966Y405070D01*
X76122Y404084D01*
X76200Y403089D01*
X76200Y402091D01*
X76200Y-38599D02*
X76122Y-39594D01*
X75966Y-40580D01*
X75733Y-41550D01*
X75424Y-42499D01*
X75042Y-43421D01*
X74589Y-44310D01*
X74068Y-45161D01*
X73481Y-45969D01*
X72833Y-46727D01*
X72127Y-47433D01*
X71369Y-48081D01*
X70561Y-48668D01*
X69710Y-49189D01*
X68821Y-49642D01*
X67899Y-50024D01*
X66950Y-50333D01*
X65980Y-50566D01*
X64994Y-50722D01*
X63999Y-50800D01*
X63001Y-50800D01*
X62006Y-50722D01*
X61020Y-50566D01*
X60050Y-50333D01*
X59101Y-50024D01*
X58179Y-49642D01*
X57290Y-49189D01*
X56439Y-48668D01*
X55631Y-48081D01*
X54873Y-47433D01*
X54167Y-46727D01*
X53519Y-45969D01*
X52932Y-45161D01*
X52411Y-44310D01*
X51958Y-43421D01*
X51576Y-42499D01*
X51267Y-41550D01*
X51034Y-40580D01*
X50878Y-39594D01*
X50800Y-38599D01*
X50800Y-37601D01*
X50878Y-36606D01*
X51034Y-35620D01*
X51267Y-34650D01*
X51576Y-33701D01*
X51958Y-32779D01*
X52411Y-31890D01*
X52932Y-31039D01*
X53519Y-30231D01*
X54167Y-29473D01*
X54873Y-28767D01*
X55631Y-28119D01*
X56439Y-27532D01*
X57290Y-27011D01*
X58179Y-26558D01*
X59101Y-26176D01*
X60050Y-25867D01*
X61020Y-25634D01*
X62006Y-25478D01*
X63001Y-25400D01*
X63999Y-25400D01*
X64994Y-25478D01*
X65980Y-25634D01*
X66950Y-25867D01*
X67899Y-26176D01*
X68821Y-26558D01*
X69710Y-27011D01*
X70561Y-27532D01*
X71369Y-28119D01*
X72127Y-28767D01*
X72833Y-29473D01*
X73481Y-30231D01*
X74068Y-31039D01*
X74589Y-31890D01*
X75042Y-32779D01*
X75424Y-33701D01*
X75733Y-34650D01*
X75966Y-35620D01*
X76122Y-36606D01*
X76200Y-37601D01*
X76200Y-38599D01*
X908050Y37601D02*
X907972Y36606D01*
X907816Y35620D01*
X907583Y34650D01*
X907274Y33701D01*
X906892Y32779D01*
X906439Y31890D01*
X905918Y31039D01*
X905331Y30231D01*
X904683Y29473D01*
X903977Y28767D01*
X903219Y28119D01*
X902411Y27532D01*
X901560Y27011D01*
X900671Y26558D01*
X899749Y26176D01*
X898800Y25867D01*
X897830Y25634D01*
X896844Y25478D01*
X895849Y25400D01*
X894851Y25400D01*
X893856Y25478D01*
X892870Y25634D01*
X891900Y25867D01*
X890951Y26176D01*
X890029Y26558D01*
X889140Y27011D01*
X888289Y27532D01*
X887481Y28119D01*
X886723Y28767D01*
X886017Y29473D01*
X885369Y30231D01*
X884782Y31039D01*
X884261Y31890D01*
X883808Y32779D01*
X883426Y33701D01*
X883117Y34650D01*
X882884Y35620D01*
X882728Y36606D01*
X882650Y37601D01*
X882650Y38599D01*
X882728Y39594D01*
X882884Y40580D01*
X883117Y41550D01*
X883426Y42499D01*
X883808Y43421D01*
X884261Y44310D01*
X884782Y45161D01*
X885369Y45969D01*
X886017Y46727D01*
X886723Y47433D01*
X887481Y48081D01*
X888289Y48668D01*
X889140Y49189D01*
X890029Y49642D01*
X890951Y50024D01*
X891900Y50333D01*
X892870Y50566D01*
X893856Y50722D01*
X894851Y50800D01*
X895849Y50800D01*
X896844Y50722D01*
X897830Y50566D01*
X898800Y50333D01*
X899749Y50024D01*
X900671Y49642D01*
X901560Y49189D01*
X902411Y48668D01*
X903219Y48081D01*
X903977Y47433D01*
X904683Y46727D01*
X905331Y45969D01*
X905918Y45161D01*
X906439Y44310D01*
X906892Y43421D01*
X907274Y42499D01*
X907583Y41550D01*
X907816Y40580D01*
X907972Y39594D01*
X908050Y38599D01*
X908050Y37601D01*
X908050Y341131D02*
X907972Y340136D01*
X907816Y339150D01*
X907583Y338180D01*
X907274Y337231D01*
X906892Y336309D01*
X906439Y335420D01*
X905918Y334569D01*
X905331Y333761D01*
X904683Y333003D01*
X903977Y332297D01*
X903219Y331649D01*
X902411Y331062D01*
X901560Y330541D01*
X900671Y330088D01*
X899749Y329706D01*
X898800Y329397D01*
X897830Y329164D01*
X896844Y329008D01*
X895849Y328930D01*
X894851Y328930D01*
X893856Y329008D01*
X892870Y329164D01*
X891900Y329397D01*
X890951Y329706D01*
X890029Y330088D01*
X889140Y330541D01*
X888289Y331062D01*
X887481Y331649D01*
X886723Y332297D01*
X886017Y333003D01*
X885369Y333761D01*
X884782Y334569D01*
X884261Y335420D01*
X883808Y336309D01*
X883426Y337231D01*
X883117Y338180D01*
X882884Y339150D01*
X882728Y340136D01*
X882650Y341131D01*
X882650Y342129D01*
X882728Y343124D01*
X882884Y344110D01*
X883117Y345080D01*
X883426Y346029D01*
X883808Y346951D01*
X884261Y347840D01*
X884782Y348691D01*
X885369Y349499D01*
X886017Y350257D01*
X886723Y350963D01*
X887481Y351611D01*
X888289Y352198D01*
X889140Y352719D01*
X890029Y353172D01*
X890951Y353554D01*
X891900Y353863D01*
X892870Y354096D01*
X893856Y354252D01*
X894851Y354330D01*
X895849Y354330D01*
X896844Y354252D01*
X897830Y354096D01*
X898800Y353863D01*
X899749Y353554D01*
X900671Y353172D01*
X901560Y352719D01*
X902411Y352198D01*
X903219Y351611D01*
X903977Y350963D01*
X904683Y350257D01*
X905331Y349499D01*
X905918Y348691D01*
X906439Y347840D01*
X906892Y346951D01*
X907274Y346029D01*
X907583Y345080D01*
X907816Y344110D01*
X907972Y343124D01*
X908050Y342129D01*
X908050Y341131D01*
X954463Y162310D02*
X954885Y162254D01*
X955297Y162144D01*
X955691Y161981D01*
X956059Y161768D01*
X956397Y161509D01*
X956699Y161207D01*
X956958Y160869D01*
X957171Y160501D01*
X957334Y160107D01*
X957444Y159695D01*
X957500Y159273D01*
X957500Y158847D01*
X957444Y158425D01*
X957334Y158013D01*
X957171Y157619D01*
X956958Y157251D01*
X956699Y156913D01*
X956397Y156611D01*
X956059Y156352D01*
X955691Y156139D01*
X955297Y155976D01*
X954885Y155866D01*
X954463Y155810D01*
X954037Y155810D01*
X953615Y155866D01*
X953203Y155976D01*
X952809Y156139D01*
X952441Y156352D01*
X952103Y156611D01*
X951801Y156913D01*
X951542Y157251D01*
X951329Y157619D01*
X951166Y158013D01*
X951056Y158425D01*
X951000Y158847D01*
X951000Y159273D01*
X951056Y159695D01*
X951166Y160107D01*
X951329Y160501D01*
X951542Y160869D01*
X951801Y161207D01*
X952103Y161509D01*
X952441Y161768D01*
X952809Y161981D01*
X953203Y162144D01*
X953615Y162254D01*
X954037Y162310D01*
X954463Y162310D01*
X954463Y220110D02*
X954885Y220054D01*
X955297Y219944D01*
X955691Y219781D01*
X956059Y219568D01*
X956397Y219309D01*
X956699Y219007D01*
X956958Y218669D01*
X957171Y218301D01*
X957334Y217907D01*
X957444Y217495D01*
X957500Y217073D01*
X957500Y216647D01*
X957444Y216225D01*
X957334Y215813D01*
X957171Y215419D01*
X956958Y215051D01*
X956699Y214713D01*
X956397Y214411D01*
X956059Y214152D01*
X955691Y213939D01*
X955297Y213776D01*
X954885Y213666D01*
X954463Y213610D01*
X954037Y213610D01*
X953615Y213666D01*
X953203Y213776D01*
X952809Y213939D01*
X952441Y214152D01*
X952103Y214411D01*
X951801Y214713D01*
X951542Y215051D01*
X951329Y215419D01*
X951166Y215813D01*
X951056Y216225D01*
X951000Y216647D01*
X951000Y217073D01*
X951056Y217495D01*
X951166Y217907D01*
X951329Y218301D01*
X951542Y218669D01*
X951801Y219007D01*
X952103Y219309D01*
X952441Y219568D01*
X952809Y219781D01*
X953203Y219944D01*
X953615Y220054D01*
X954037Y220110D01*
X954463Y220110D01*
M02*
