G04 EAGLE Gerber RS-274X export*
G75*
%MOMM*%
%FSLAX34Y34*%
%LPD*%
%INSilkscreen Top*%
%IPPOS*%
%AMOC8*
5,1,8,0,0,1.08239X$1,22.5*%
G01*
%ADD10C,0.304800*%
%ADD11C,0.152400*%
%ADD12C,0.203200*%
%ADD13C,0.015238*%
%ADD14C,0.254000*%
%ADD15C,0.127000*%
%ADD16R,0.457200X0.762000*%
%ADD17C,0.558800*%
%ADD18C,0.700000*%
%ADD19C,0.101600*%

G36*
X64675Y-12830D02*
X64675Y-12830D01*
X64783Y-12816D01*
X64795Y-12810D01*
X64809Y-12808D01*
X64905Y-12756D01*
X65002Y-12709D01*
X65012Y-12699D01*
X65024Y-12693D01*
X65098Y-12613D01*
X65175Y-12537D01*
X65181Y-12525D01*
X65191Y-12515D01*
X65236Y-12416D01*
X65284Y-12319D01*
X65288Y-12301D01*
X65292Y-12292D01*
X65294Y-12271D01*
X65313Y-12174D01*
X65756Y-7823D01*
X66915Y-7452D01*
X66933Y-7442D01*
X67030Y-7404D01*
X68112Y-6847D01*
X71502Y-9611D01*
X71596Y-9665D01*
X71688Y-9722D01*
X71701Y-9725D01*
X71713Y-9732D01*
X71820Y-9753D01*
X71925Y-9778D01*
X71939Y-9776D01*
X71953Y-9779D01*
X72060Y-9764D01*
X72168Y-9754D01*
X72181Y-9748D01*
X72195Y-9746D01*
X72292Y-9698D01*
X72391Y-9653D01*
X72404Y-9642D01*
X72413Y-9638D01*
X72428Y-9622D01*
X72505Y-9560D01*
X75090Y-6975D01*
X75153Y-6886D01*
X75219Y-6801D01*
X75224Y-6788D01*
X75232Y-6776D01*
X75263Y-6673D01*
X75299Y-6570D01*
X75299Y-6556D01*
X75303Y-6543D01*
X75299Y-6435D01*
X75300Y-6326D01*
X75295Y-6313D01*
X75295Y-6299D01*
X75257Y-6197D01*
X75222Y-6095D01*
X75213Y-6080D01*
X75209Y-6071D01*
X75195Y-6054D01*
X75141Y-5972D01*
X72377Y-2582D01*
X72934Y-1500D01*
X72951Y-1447D01*
X72977Y-1398D01*
X72988Y-1332D01*
X73009Y-1268D01*
X73008Y-1212D01*
X73017Y-1158D01*
X73006Y-1091D01*
X73005Y-1024D01*
X72987Y-972D01*
X72978Y-917D01*
X72946Y-857D01*
X72923Y-794D01*
X72889Y-751D01*
X72863Y-702D01*
X72814Y-655D01*
X72772Y-603D01*
X72725Y-573D01*
X72685Y-535D01*
X72580Y-478D01*
X72567Y-470D01*
X72562Y-469D01*
X72555Y-465D01*
X67358Y1688D01*
X67258Y1711D01*
X67160Y1740D01*
X67140Y1739D01*
X67120Y1744D01*
X67018Y1734D01*
X66916Y1729D01*
X66897Y1722D01*
X66877Y1720D01*
X66784Y1678D01*
X66688Y1640D01*
X66673Y1627D01*
X66655Y1619D01*
X66580Y1549D01*
X66502Y1483D01*
X66487Y1462D01*
X66477Y1452D01*
X66465Y1431D01*
X66417Y1362D01*
X65922Y478D01*
X65295Y-201D01*
X64526Y-715D01*
X63658Y-1035D01*
X62741Y-1143D01*
X61806Y-1030D01*
X60925Y-699D01*
X60148Y-167D01*
X59519Y534D01*
X59076Y1364D01*
X58842Y2276D01*
X58832Y3218D01*
X59046Y4134D01*
X59471Y4974D01*
X60084Y5688D01*
X60849Y6237D01*
X61723Y6588D01*
X62655Y6721D01*
X63592Y6629D01*
X64480Y6317D01*
X65268Y5802D01*
X65912Y5115D01*
X66418Y4216D01*
X66482Y4137D01*
X66541Y4055D01*
X66558Y4042D01*
X66571Y4026D01*
X66656Y3972D01*
X66739Y3912D01*
X66759Y3906D01*
X66777Y3895D01*
X66875Y3871D01*
X66973Y3841D01*
X66993Y3842D01*
X67014Y3837D01*
X67115Y3846D01*
X67216Y3849D01*
X67243Y3857D01*
X67257Y3858D01*
X67279Y3868D01*
X67358Y3892D01*
X72555Y6045D01*
X72602Y6074D01*
X72654Y6095D01*
X72705Y6138D01*
X72762Y6174D01*
X72797Y6217D01*
X72840Y6253D01*
X72874Y6310D01*
X72917Y6362D01*
X72936Y6414D01*
X72965Y6462D01*
X72979Y6528D01*
X73003Y6591D01*
X73005Y6646D01*
X73016Y6700D01*
X73009Y6767D01*
X73011Y6834D01*
X72995Y6888D01*
X72988Y6943D01*
X72944Y7054D01*
X72940Y7068D01*
X72937Y7072D01*
X72934Y7080D01*
X72377Y8162D01*
X75141Y11552D01*
X75195Y11646D01*
X75252Y11738D01*
X75255Y11751D01*
X75262Y11763D01*
X75283Y11870D01*
X75308Y11975D01*
X75306Y11989D01*
X75309Y12003D01*
X75294Y12110D01*
X75284Y12218D01*
X75278Y12231D01*
X75276Y12245D01*
X75228Y12342D01*
X75183Y12441D01*
X75172Y12454D01*
X75168Y12463D01*
X75152Y12478D01*
X75090Y12555D01*
X72505Y15140D01*
X72416Y15203D01*
X72331Y15269D01*
X72318Y15274D01*
X72306Y15282D01*
X72203Y15313D01*
X72100Y15349D01*
X72086Y15349D01*
X72073Y15353D01*
X71965Y15349D01*
X71856Y15350D01*
X71843Y15345D01*
X71829Y15345D01*
X71727Y15307D01*
X71625Y15272D01*
X71610Y15263D01*
X71601Y15259D01*
X71584Y15245D01*
X71502Y15191D01*
X68112Y12427D01*
X67030Y12984D01*
X67010Y12990D01*
X66915Y13032D01*
X65756Y13403D01*
X65313Y17754D01*
X65285Y17858D01*
X65260Y17964D01*
X65253Y17976D01*
X65250Y17989D01*
X65189Y18079D01*
X65132Y18172D01*
X65121Y18180D01*
X65113Y18192D01*
X65027Y18258D01*
X64943Y18327D01*
X64930Y18331D01*
X64919Y18340D01*
X64816Y18374D01*
X64715Y18413D01*
X64697Y18414D01*
X64688Y18418D01*
X64666Y18418D01*
X64568Y18427D01*
X60912Y18427D01*
X60805Y18410D01*
X60697Y18396D01*
X60685Y18390D01*
X60671Y18388D01*
X60575Y18336D01*
X60478Y18289D01*
X60468Y18279D01*
X60456Y18273D01*
X60382Y18193D01*
X60305Y18117D01*
X60299Y18105D01*
X60289Y18095D01*
X60244Y17996D01*
X60196Y17899D01*
X60192Y17881D01*
X60188Y17872D01*
X60186Y17851D01*
X60167Y17754D01*
X59724Y13403D01*
X58565Y13032D01*
X58547Y13022D01*
X58450Y12984D01*
X57368Y12427D01*
X53978Y15191D01*
X53884Y15245D01*
X53792Y15302D01*
X53779Y15305D01*
X53767Y15312D01*
X53660Y15333D01*
X53555Y15358D01*
X53541Y15356D01*
X53527Y15359D01*
X53420Y15344D01*
X53312Y15334D01*
X53299Y15328D01*
X53286Y15326D01*
X53188Y15278D01*
X53089Y15233D01*
X53076Y15222D01*
X53067Y15218D01*
X53052Y15202D01*
X52975Y15140D01*
X50390Y12555D01*
X50327Y12466D01*
X50261Y12381D01*
X50256Y12368D01*
X50248Y12356D01*
X50217Y12253D01*
X50181Y12150D01*
X50181Y12136D01*
X50177Y12123D01*
X50181Y12015D01*
X50180Y11906D01*
X50185Y11893D01*
X50185Y11879D01*
X50223Y11777D01*
X50258Y11675D01*
X50267Y11660D01*
X50271Y11651D01*
X50285Y11634D01*
X50339Y11552D01*
X53103Y8162D01*
X52546Y7080D01*
X52540Y7060D01*
X52498Y6965D01*
X52127Y5806D01*
X47776Y5363D01*
X47672Y5335D01*
X47566Y5310D01*
X47554Y5303D01*
X47541Y5300D01*
X47451Y5239D01*
X47358Y5182D01*
X47350Y5171D01*
X47338Y5163D01*
X47272Y5077D01*
X47204Y4993D01*
X47199Y4980D01*
X47190Y4969D01*
X47156Y4866D01*
X47117Y4765D01*
X47116Y4747D01*
X47112Y4738D01*
X47113Y4716D01*
X47103Y4618D01*
X47103Y962D01*
X47120Y855D01*
X47134Y747D01*
X47140Y735D01*
X47142Y721D01*
X47194Y625D01*
X47241Y528D01*
X47251Y518D01*
X47257Y506D01*
X47337Y432D01*
X47413Y355D01*
X47425Y349D01*
X47436Y339D01*
X47534Y294D01*
X47631Y246D01*
X47649Y242D01*
X47658Y238D01*
X47679Y236D01*
X47776Y217D01*
X52127Y-226D01*
X52498Y-1385D01*
X52508Y-1403D01*
X52546Y-1500D01*
X53103Y-2582D01*
X50339Y-5972D01*
X50285Y-6066D01*
X50228Y-6158D01*
X50225Y-6171D01*
X50218Y-6183D01*
X50197Y-6290D01*
X50172Y-6395D01*
X50174Y-6409D01*
X50171Y-6423D01*
X50186Y-6530D01*
X50196Y-6638D01*
X50202Y-6651D01*
X50204Y-6665D01*
X50252Y-6762D01*
X50297Y-6861D01*
X50308Y-6874D01*
X50312Y-6883D01*
X50328Y-6898D01*
X50390Y-6975D01*
X52975Y-9560D01*
X53064Y-9623D01*
X53149Y-9689D01*
X53162Y-9694D01*
X53174Y-9702D01*
X53277Y-9733D01*
X53380Y-9769D01*
X53394Y-9769D01*
X53407Y-9773D01*
X53515Y-9769D01*
X53624Y-9770D01*
X53637Y-9765D01*
X53651Y-9765D01*
X53753Y-9727D01*
X53855Y-9692D01*
X53870Y-9683D01*
X53879Y-9679D01*
X53896Y-9665D01*
X53978Y-9611D01*
X57368Y-6847D01*
X58450Y-7404D01*
X58470Y-7410D01*
X58565Y-7452D01*
X59724Y-7823D01*
X60167Y-12174D01*
X60195Y-12278D01*
X60220Y-12384D01*
X60227Y-12396D01*
X60230Y-12409D01*
X60291Y-12499D01*
X60348Y-12592D01*
X60359Y-12600D01*
X60367Y-12612D01*
X60453Y-12678D01*
X60537Y-12747D01*
X60550Y-12751D01*
X60561Y-12760D01*
X60664Y-12794D01*
X60765Y-12833D01*
X60783Y-12834D01*
X60792Y-12838D01*
X60814Y-12838D01*
X60912Y-12847D01*
X64568Y-12847D01*
X64675Y-12830D01*
G37*
G36*
X676551Y364160D02*
X676551Y364160D01*
X676598Y364175D01*
X676662Y364185D01*
X677455Y364463D01*
X677497Y364488D01*
X677557Y364512D01*
X678268Y364959D01*
X678304Y364993D01*
X678357Y365029D01*
X678951Y365623D01*
X678978Y365664D01*
X679021Y365712D01*
X679468Y366423D01*
X679486Y366469D01*
X679517Y366525D01*
X679795Y367318D01*
X679802Y367367D01*
X679820Y367429D01*
X679914Y368263D01*
X679910Y368312D01*
X679914Y368377D01*
X679820Y369211D01*
X679805Y369258D01*
X679795Y369322D01*
X679517Y370115D01*
X679492Y370157D01*
X679468Y370217D01*
X679021Y370928D01*
X678987Y370964D01*
X678951Y371017D01*
X678357Y371611D01*
X678316Y371638D01*
X678268Y371681D01*
X677557Y372128D01*
X677511Y372146D01*
X677455Y372177D01*
X676662Y372455D01*
X676613Y372462D01*
X676551Y372480D01*
X675717Y372574D01*
X675668Y372570D01*
X675603Y372574D01*
X674769Y372480D01*
X674722Y372465D01*
X674658Y372455D01*
X673865Y372177D01*
X673823Y372152D01*
X673763Y372128D01*
X673052Y371681D01*
X673016Y371647D01*
X672963Y371611D01*
X672369Y371017D01*
X672367Y371013D01*
X672365Y371012D01*
X672340Y370973D01*
X672299Y370928D01*
X671852Y370217D01*
X671834Y370171D01*
X671803Y370115D01*
X671525Y369322D01*
X671518Y369273D01*
X671500Y369211D01*
X671406Y368377D01*
X671410Y368328D01*
X671406Y368263D01*
X671500Y367429D01*
X671515Y367382D01*
X671525Y367318D01*
X671803Y366525D01*
X671828Y366483D01*
X671852Y366423D01*
X672299Y365712D01*
X672333Y365676D01*
X672369Y365623D01*
X672963Y365029D01*
X673004Y365002D01*
X673052Y364959D01*
X673763Y364512D01*
X673809Y364494D01*
X673865Y364463D01*
X674658Y364185D01*
X674707Y364178D01*
X674769Y364160D01*
X675603Y364066D01*
X675652Y364070D01*
X675717Y364066D01*
X676551Y364160D01*
G37*
D10*
X93479Y413013D02*
X91445Y415046D01*
X87378Y415046D01*
X85344Y413013D01*
X85344Y404878D01*
X87378Y402844D01*
X91445Y402844D01*
X93479Y404878D01*
X101411Y402844D02*
X105478Y402844D01*
X107512Y404878D01*
X107512Y408945D01*
X105478Y410979D01*
X101411Y410979D01*
X99377Y408945D01*
X99377Y404878D01*
X101411Y402844D01*
X113410Y402844D02*
X113410Y410979D01*
X115443Y410979D01*
X117477Y408945D01*
X117477Y402844D01*
X117477Y408945D02*
X119511Y410979D01*
X121545Y408945D01*
X121545Y402844D01*
X129476Y402844D02*
X129476Y413013D01*
X131510Y415046D01*
X131510Y408945D02*
X127442Y408945D01*
X138831Y402844D02*
X142899Y402844D01*
X144932Y404878D01*
X144932Y408945D01*
X142899Y410979D01*
X138831Y410979D01*
X136798Y408945D01*
X136798Y404878D01*
X138831Y402844D01*
X150830Y402844D02*
X150830Y410979D01*
X150830Y406911D02*
X154898Y410979D01*
X156932Y410979D01*
X164558Y413013D02*
X164558Y404878D01*
X166592Y402844D01*
X166592Y410979D02*
X162524Y410979D01*
X185912Y415046D02*
X185912Y402844D01*
X189980Y410979D02*
X185912Y415046D01*
X189980Y410979D02*
X194047Y415046D01*
X194047Y402844D01*
X201979Y410979D02*
X206046Y410979D01*
X208080Y408945D01*
X208080Y402844D01*
X201979Y402844D01*
X199945Y404878D01*
X201979Y406911D01*
X208080Y406911D01*
X213978Y410979D02*
X213978Y398777D01*
X213978Y410979D02*
X220079Y410979D01*
X222113Y408945D01*
X222113Y404878D01*
X220079Y402844D01*
X213978Y402844D01*
X228011Y402844D02*
X234112Y402844D01*
X236146Y404878D01*
X234112Y406911D01*
X230044Y406911D01*
X228011Y408945D01*
X230044Y410979D01*
X236146Y410979D01*
X93479Y390153D02*
X91445Y392186D01*
X87378Y392186D01*
X85344Y390153D01*
X85344Y388119D01*
X87378Y386085D01*
X91445Y386085D01*
X93479Y384051D01*
X93479Y382018D01*
X91445Y379984D01*
X87378Y379984D01*
X85344Y382018D01*
X101411Y388119D02*
X105478Y388119D01*
X107512Y386085D01*
X107512Y379984D01*
X101411Y379984D01*
X99377Y382018D01*
X101411Y384051D01*
X107512Y384051D01*
X113410Y379984D02*
X113410Y388119D01*
X115443Y388119D01*
X117477Y386085D01*
X117477Y379984D01*
X117477Y386085D02*
X119511Y388119D01*
X121545Y386085D01*
X121545Y379984D01*
X127442Y382018D02*
X127442Y388119D01*
X127442Y382018D02*
X129476Y379984D01*
X135577Y379984D01*
X135577Y388119D01*
X143509Y379984D02*
X147576Y379984D01*
X143509Y379984D02*
X141475Y382018D01*
X141475Y386085D01*
X143509Y388119D01*
X147576Y388119D01*
X149610Y386085D01*
X149610Y384051D01*
X141475Y384051D01*
X155508Y392186D02*
X157542Y392186D01*
X157542Y379984D01*
X159575Y379984D02*
X155508Y379984D01*
X184997Y392186D02*
X187031Y390153D01*
X184997Y392186D02*
X180930Y392186D01*
X178896Y390153D01*
X178896Y382018D01*
X180930Y379984D01*
X184997Y379984D01*
X187031Y382018D01*
X192929Y392186D02*
X194962Y392186D01*
X194962Y379984D01*
X192929Y379984D02*
X196996Y379984D01*
X204318Y388119D02*
X208385Y388119D01*
X210419Y386085D01*
X210419Y379984D01*
X204318Y379984D01*
X202284Y382018D01*
X204318Y384051D01*
X210419Y384051D01*
X216317Y382018D02*
X216317Y388119D01*
X216317Y382018D02*
X218350Y379984D01*
X224452Y379984D01*
X224452Y377950D02*
X224452Y388119D01*
X224452Y377950D02*
X222418Y375917D01*
X220384Y375917D01*
X85344Y369326D02*
X85344Y361191D01*
X89411Y357124D01*
X93479Y361191D01*
X93479Y369326D01*
X99377Y367293D02*
X101411Y369326D01*
X105478Y369326D01*
X107512Y367293D01*
X107512Y365259D01*
X105478Y363225D01*
X103444Y363225D01*
X105478Y363225D02*
X107512Y361191D01*
X107512Y359158D01*
X105478Y357124D01*
X101411Y357124D01*
X99377Y359158D01*
X127442Y357124D02*
X135577Y357124D01*
X127442Y357124D02*
X135577Y365259D01*
X135577Y367293D01*
X133544Y369326D01*
X129476Y369326D01*
X127442Y367293D01*
X141475Y367293D02*
X141475Y359158D01*
X141475Y367293D02*
X143509Y369326D01*
X147576Y369326D01*
X149610Y367293D01*
X149610Y359158D01*
X147576Y357124D01*
X143509Y357124D01*
X141475Y359158D01*
X149610Y367293D01*
X155508Y357124D02*
X163643Y357124D01*
X155508Y357124D02*
X163643Y365259D01*
X163643Y367293D01*
X161609Y369326D01*
X157542Y369326D01*
X155508Y367293D01*
X169541Y367293D02*
X169541Y359158D01*
X169541Y367293D02*
X171574Y369326D01*
X175642Y369326D01*
X177676Y367293D01*
X177676Y359158D01*
X175642Y357124D01*
X171574Y357124D01*
X169541Y359158D01*
X177676Y367293D01*
X183573Y363225D02*
X191708Y363225D01*
X197606Y359158D02*
X197606Y367293D01*
X199640Y369326D01*
X203707Y369326D01*
X205741Y367293D01*
X205741Y359158D01*
X203707Y357124D01*
X199640Y357124D01*
X197606Y359158D01*
X205741Y367293D01*
X211639Y365259D02*
X215707Y369326D01*
X215707Y357124D01*
X219774Y357124D02*
X211639Y357124D01*
X225672Y363225D02*
X233807Y363225D01*
X239705Y357124D02*
X247840Y357124D01*
X239705Y357124D02*
X247840Y365259D01*
X247840Y367293D01*
X245806Y369326D01*
X241738Y369326D01*
X239705Y367293D01*
X253737Y369326D02*
X261872Y369326D01*
X261872Y367293D01*
X253737Y359158D01*
X253737Y357124D01*
D11*
X480231Y515D02*
X480231Y-8128D01*
X483112Y-5247D01*
X485993Y-8128D01*
X485993Y515D01*
X489586Y-2366D02*
X489586Y-8128D01*
X489586Y-2366D02*
X492468Y515D01*
X495349Y-2366D01*
X495349Y-8128D01*
X495349Y-3806D02*
X489586Y-3806D01*
X498942Y515D02*
X498942Y-8128D01*
X498942Y-5247D02*
X504704Y515D01*
X500382Y-3806D02*
X504704Y-8128D01*
X508297Y515D02*
X514059Y515D01*
X508297Y515D02*
X508297Y-8128D01*
X514059Y-8128D01*
X511178Y-3806D02*
X508297Y-3806D01*
X453561Y35393D02*
X453561Y41155D01*
X453561Y35393D02*
X456442Y32512D01*
X459323Y35393D01*
X459323Y41155D01*
X464357Y41155D02*
X467238Y41155D01*
X464357Y41155D02*
X462916Y39715D01*
X462916Y33953D01*
X464357Y32512D01*
X467238Y32512D01*
X468679Y33953D01*
X468679Y39715D01*
X467238Y41155D01*
X472272Y41155D02*
X472272Y33953D01*
X473712Y32512D01*
X476593Y32512D01*
X478034Y33953D01*
X478034Y41155D01*
X484508Y41155D02*
X484508Y32512D01*
X481627Y41155D02*
X487389Y41155D01*
X435659Y-925D02*
X434218Y515D01*
X431337Y515D01*
X429896Y-925D01*
X429896Y-6687D01*
X431337Y-8128D01*
X434218Y-8128D01*
X435659Y-6687D01*
X435659Y-3806D01*
X432778Y-3806D01*
X439252Y515D02*
X439252Y-8128D01*
X445014Y-8128D02*
X439252Y515D01*
X445014Y515D02*
X445014Y-8128D01*
X448607Y-8128D02*
X448607Y515D01*
X448607Y-8128D02*
X452929Y-8128D01*
X454369Y-6687D01*
X454369Y-925D01*
X452929Y515D01*
X448607Y515D01*
D12*
X118624Y88654D02*
X116845Y90433D01*
X113286Y90433D01*
X111506Y88654D01*
X111506Y81536D01*
X113286Y79756D01*
X116845Y79756D01*
X118624Y81536D01*
X118624Y85095D01*
X115065Y85095D01*
X123200Y90433D02*
X123200Y79756D01*
X130318Y79756D02*
X123200Y90433D01*
X130318Y90433D02*
X130318Y79756D01*
X134894Y79756D02*
X134894Y90433D01*
X134894Y79756D02*
X140233Y79756D01*
X142012Y81536D01*
X142012Y88654D01*
X140233Y90433D01*
X134894Y90433D01*
X75946Y90433D02*
X75946Y83315D01*
X79505Y79756D01*
X83064Y83315D01*
X83064Y90433D01*
X87640Y79756D02*
X91199Y79756D01*
X89419Y79756D02*
X89419Y90433D01*
X87640Y90433D02*
X91199Y90433D01*
X95436Y90433D02*
X95436Y79756D01*
X102554Y79756D02*
X95436Y90433D01*
X102554Y90433D02*
X102554Y79756D01*
D13*
X635245Y30155D02*
X633872Y30155D01*
X633872Y30156D02*
X633867Y30240D01*
X633858Y30324D01*
X633844Y30407D01*
X633827Y30490D01*
X633806Y30571D01*
X633782Y30652D01*
X633753Y30731D01*
X633721Y30809D01*
X633685Y30886D01*
X633646Y30960D01*
X633604Y31033D01*
X633558Y31104D01*
X633508Y31172D01*
X633456Y31238D01*
X633401Y31302D01*
X633343Y31363D01*
X633282Y31421D01*
X633218Y31476D01*
X633152Y31528D01*
X633084Y31578D01*
X633013Y31624D01*
X632940Y31666D01*
X632866Y31705D01*
X632789Y31741D01*
X632711Y31773D01*
X632632Y31802D01*
X632551Y31826D01*
X632470Y31847D01*
X632387Y31864D01*
X632304Y31878D01*
X632220Y31887D01*
X632136Y31892D01*
X632135Y33265D01*
X632136Y33265D01*
X632246Y33261D01*
X632356Y33252D01*
X632466Y33240D01*
X632575Y33224D01*
X632683Y33204D01*
X632791Y33181D01*
X632898Y33154D01*
X633004Y33123D01*
X633109Y33088D01*
X633212Y33050D01*
X633314Y33009D01*
X633415Y32964D01*
X633514Y32915D01*
X633611Y32863D01*
X633706Y32808D01*
X633800Y32749D01*
X633891Y32687D01*
X633980Y32622D01*
X634067Y32554D01*
X634152Y32483D01*
X634234Y32409D01*
X634313Y32333D01*
X634389Y32254D01*
X634463Y32172D01*
X634534Y32087D01*
X634602Y32000D01*
X634667Y31911D01*
X634729Y31820D01*
X634788Y31726D01*
X634843Y31631D01*
X634895Y31534D01*
X634944Y31435D01*
X634989Y31334D01*
X635030Y31232D01*
X635068Y31129D01*
X635103Y31024D01*
X635134Y30918D01*
X635161Y30811D01*
X635184Y30703D01*
X635204Y30595D01*
X635220Y30486D01*
X635232Y30376D01*
X635241Y30266D01*
X635245Y30156D01*
X635102Y30156D01*
X635097Y30264D01*
X635089Y30371D01*
X635077Y30478D01*
X635061Y30584D01*
X635041Y30690D01*
X635018Y30795D01*
X634991Y30899D01*
X634960Y31002D01*
X634925Y31104D01*
X634887Y31205D01*
X634846Y31304D01*
X634801Y31402D01*
X634752Y31498D01*
X634701Y31592D01*
X634645Y31685D01*
X634587Y31775D01*
X634526Y31864D01*
X634461Y31950D01*
X634393Y32033D01*
X634323Y32115D01*
X634249Y32193D01*
X634173Y32269D01*
X634095Y32343D01*
X634013Y32413D01*
X633930Y32481D01*
X633844Y32546D01*
X633755Y32607D01*
X633665Y32665D01*
X633572Y32721D01*
X633478Y32772D01*
X633382Y32821D01*
X633284Y32866D01*
X633185Y32907D01*
X633084Y32945D01*
X632982Y32980D01*
X632879Y33011D01*
X632775Y33038D01*
X632670Y33061D01*
X632564Y33081D01*
X632458Y33097D01*
X632351Y33109D01*
X632244Y33117D01*
X632136Y33122D01*
X632136Y32979D01*
X632241Y32974D01*
X632345Y32966D01*
X632449Y32954D01*
X632553Y32938D01*
X632656Y32918D01*
X632758Y32895D01*
X632859Y32868D01*
X632960Y32837D01*
X633059Y32803D01*
X633156Y32765D01*
X633253Y32723D01*
X633348Y32679D01*
X633441Y32630D01*
X633532Y32579D01*
X633621Y32524D01*
X633709Y32466D01*
X633794Y32405D01*
X633877Y32341D01*
X633957Y32273D01*
X634035Y32203D01*
X634111Y32131D01*
X634183Y32055D01*
X634253Y31977D01*
X634321Y31897D01*
X634385Y31814D01*
X634446Y31729D01*
X634504Y31641D01*
X634559Y31552D01*
X634610Y31461D01*
X634659Y31368D01*
X634703Y31273D01*
X634745Y31176D01*
X634783Y31079D01*
X634817Y30980D01*
X634848Y30879D01*
X634875Y30778D01*
X634898Y30676D01*
X634918Y30573D01*
X634934Y30469D01*
X634946Y30365D01*
X634954Y30261D01*
X634959Y30156D01*
X634816Y30156D01*
X634811Y30260D01*
X634802Y30364D01*
X634790Y30468D01*
X634773Y30571D01*
X634752Y30674D01*
X634728Y30775D01*
X634700Y30876D01*
X634668Y30975D01*
X634632Y31073D01*
X634592Y31170D01*
X634549Y31265D01*
X634503Y31359D01*
X634452Y31450D01*
X634399Y31540D01*
X634342Y31627D01*
X634281Y31713D01*
X634218Y31796D01*
X634151Y31876D01*
X634082Y31954D01*
X634009Y32029D01*
X633934Y32102D01*
X633856Y32171D01*
X633776Y32238D01*
X633693Y32301D01*
X633607Y32362D01*
X633520Y32419D01*
X633430Y32472D01*
X633339Y32523D01*
X633245Y32569D01*
X633150Y32612D01*
X633053Y32652D01*
X632955Y32688D01*
X632856Y32720D01*
X632755Y32748D01*
X632654Y32772D01*
X632551Y32793D01*
X632448Y32810D01*
X632344Y32822D01*
X632240Y32831D01*
X632136Y32836D01*
X632136Y32693D01*
X632237Y32688D01*
X632338Y32679D01*
X632439Y32666D01*
X632539Y32650D01*
X632638Y32629D01*
X632737Y32605D01*
X632834Y32577D01*
X632930Y32545D01*
X633025Y32509D01*
X633119Y32470D01*
X633210Y32427D01*
X633301Y32381D01*
X633389Y32331D01*
X633475Y32278D01*
X633559Y32221D01*
X633641Y32162D01*
X633721Y32099D01*
X633798Y32033D01*
X633872Y31964D01*
X633944Y31892D01*
X634013Y31818D01*
X634079Y31741D01*
X634142Y31661D01*
X634201Y31579D01*
X634258Y31495D01*
X634311Y31409D01*
X634361Y31321D01*
X634407Y31230D01*
X634450Y31139D01*
X634489Y31045D01*
X634525Y30950D01*
X634557Y30854D01*
X634585Y30757D01*
X634609Y30658D01*
X634630Y30559D01*
X634646Y30459D01*
X634659Y30358D01*
X634668Y30257D01*
X634673Y30156D01*
X634530Y30156D01*
X634525Y30254D01*
X634516Y30352D01*
X634503Y30449D01*
X634487Y30546D01*
X634466Y30642D01*
X634442Y30737D01*
X634414Y30831D01*
X634382Y30924D01*
X634347Y31015D01*
X634308Y31105D01*
X634266Y31194D01*
X634220Y31281D01*
X634170Y31365D01*
X634118Y31448D01*
X634062Y31529D01*
X634003Y31607D01*
X633940Y31683D01*
X633875Y31757D01*
X633807Y31827D01*
X633737Y31895D01*
X633663Y31960D01*
X633587Y32023D01*
X633509Y32082D01*
X633428Y32138D01*
X633345Y32190D01*
X633261Y32240D01*
X633174Y32286D01*
X633085Y32328D01*
X632995Y32367D01*
X632904Y32402D01*
X632811Y32434D01*
X632717Y32462D01*
X632622Y32486D01*
X632526Y32507D01*
X632429Y32523D01*
X632332Y32536D01*
X632234Y32545D01*
X632136Y32550D01*
X632136Y32407D01*
X632231Y32402D01*
X632325Y32393D01*
X632419Y32380D01*
X632512Y32364D01*
X632605Y32343D01*
X632696Y32319D01*
X632787Y32292D01*
X632876Y32260D01*
X632964Y32225D01*
X633051Y32187D01*
X633135Y32145D01*
X633219Y32099D01*
X633300Y32050D01*
X633379Y31998D01*
X633456Y31943D01*
X633530Y31885D01*
X633603Y31823D01*
X633672Y31759D01*
X633739Y31692D01*
X633803Y31623D01*
X633865Y31550D01*
X633923Y31476D01*
X633978Y31399D01*
X634030Y31320D01*
X634079Y31239D01*
X634125Y31155D01*
X634167Y31071D01*
X634205Y30984D01*
X634240Y30896D01*
X634272Y30807D01*
X634299Y30716D01*
X634323Y30625D01*
X634344Y30532D01*
X634360Y30439D01*
X634373Y30345D01*
X634382Y30251D01*
X634387Y30156D01*
X634244Y30156D01*
X634239Y30247D01*
X634230Y30338D01*
X634217Y30428D01*
X634201Y30517D01*
X634181Y30606D01*
X634157Y30694D01*
X634129Y30781D01*
X634098Y30867D01*
X634064Y30951D01*
X634026Y31034D01*
X633984Y31115D01*
X633939Y31194D01*
X633891Y31272D01*
X633840Y31347D01*
X633786Y31420D01*
X633728Y31491D01*
X633668Y31559D01*
X633605Y31625D01*
X633539Y31688D01*
X633471Y31748D01*
X633400Y31806D01*
X633327Y31860D01*
X633252Y31911D01*
X633174Y31959D01*
X633095Y32004D01*
X633014Y32046D01*
X632931Y32084D01*
X632847Y32118D01*
X632761Y32149D01*
X632674Y32177D01*
X632586Y32201D01*
X632497Y32221D01*
X632408Y32237D01*
X632318Y32250D01*
X632227Y32259D01*
X632136Y32264D01*
X632136Y32121D01*
X632226Y32115D01*
X632315Y32106D01*
X632404Y32093D01*
X632492Y32076D01*
X632580Y32055D01*
X632666Y32030D01*
X632751Y32001D01*
X632835Y31969D01*
X632917Y31933D01*
X632998Y31894D01*
X633077Y31851D01*
X633154Y31804D01*
X633229Y31754D01*
X633301Y31701D01*
X633371Y31645D01*
X633439Y31586D01*
X633504Y31524D01*
X633566Y31459D01*
X633625Y31391D01*
X633681Y31321D01*
X633734Y31249D01*
X633784Y31174D01*
X633831Y31097D01*
X633874Y31018D01*
X633913Y30937D01*
X633949Y30855D01*
X633981Y30771D01*
X634010Y30686D01*
X634035Y30600D01*
X634056Y30512D01*
X634073Y30424D01*
X634086Y30335D01*
X634095Y30246D01*
X634101Y30156D01*
X633957Y30156D01*
X633952Y30242D01*
X633943Y30327D01*
X633930Y30412D01*
X633913Y30496D01*
X633892Y30579D01*
X633868Y30661D01*
X633840Y30742D01*
X633808Y30822D01*
X633773Y30900D01*
X633734Y30977D01*
X633692Y31051D01*
X633646Y31124D01*
X633597Y31195D01*
X633546Y31263D01*
X633491Y31329D01*
X633433Y31392D01*
X633372Y31453D01*
X633309Y31511D01*
X633243Y31566D01*
X633175Y31617D01*
X633104Y31666D01*
X633031Y31712D01*
X632957Y31754D01*
X632880Y31793D01*
X632802Y31828D01*
X632722Y31860D01*
X632641Y31888D01*
X632559Y31912D01*
X632476Y31933D01*
X632392Y31950D01*
X632307Y31963D01*
X632222Y31972D01*
X632136Y31977D01*
D11*
X634560Y5480D02*
X634558Y5382D01*
X634552Y5284D01*
X634543Y5186D01*
X634529Y5089D01*
X634512Y4992D01*
X634491Y4896D01*
X634466Y4801D01*
X634438Y4707D01*
X634405Y4615D01*
X634370Y4523D01*
X634330Y4433D01*
X634288Y4345D01*
X634241Y4258D01*
X634192Y4174D01*
X634139Y4091D01*
X634083Y4011D01*
X634023Y3932D01*
X633961Y3856D01*
X633896Y3783D01*
X633828Y3712D01*
X633757Y3644D01*
X633684Y3579D01*
X633608Y3517D01*
X633529Y3457D01*
X633449Y3401D01*
X633366Y3348D01*
X633282Y3299D01*
X633195Y3252D01*
X633107Y3210D01*
X633017Y3170D01*
X632925Y3135D01*
X632833Y3102D01*
X632739Y3074D01*
X632644Y3049D01*
X632548Y3028D01*
X632451Y3011D01*
X632354Y2997D01*
X632256Y2988D01*
X632158Y2982D01*
X632060Y2980D01*
X607360Y2980D02*
X607262Y2982D01*
X607164Y2988D01*
X607066Y2997D01*
X606969Y3011D01*
X606872Y3028D01*
X606776Y3049D01*
X606681Y3074D01*
X606587Y3102D01*
X606495Y3135D01*
X606403Y3170D01*
X606313Y3210D01*
X606225Y3252D01*
X606138Y3299D01*
X606054Y3348D01*
X605971Y3401D01*
X605891Y3457D01*
X605812Y3517D01*
X605736Y3579D01*
X605663Y3644D01*
X605592Y3712D01*
X605524Y3783D01*
X605459Y3856D01*
X605397Y3932D01*
X605337Y4011D01*
X605281Y4091D01*
X605228Y4174D01*
X605179Y4258D01*
X605132Y4345D01*
X605090Y4433D01*
X605050Y4523D01*
X605015Y4615D01*
X604982Y4707D01*
X604954Y4801D01*
X604929Y4896D01*
X604908Y4992D01*
X604891Y5089D01*
X604877Y5186D01*
X604868Y5284D01*
X604862Y5382D01*
X604860Y5480D01*
D13*
X607285Y33265D02*
X607285Y31892D01*
X607284Y31892D02*
X607200Y31887D01*
X607116Y31878D01*
X607033Y31864D01*
X606950Y31847D01*
X606869Y31826D01*
X606788Y31802D01*
X606709Y31773D01*
X606631Y31741D01*
X606554Y31705D01*
X606480Y31666D01*
X606407Y31624D01*
X606336Y31578D01*
X606268Y31528D01*
X606202Y31476D01*
X606138Y31421D01*
X606077Y31363D01*
X606019Y31302D01*
X605964Y31238D01*
X605912Y31172D01*
X605862Y31104D01*
X605816Y31033D01*
X605774Y30960D01*
X605735Y30886D01*
X605699Y30809D01*
X605667Y30731D01*
X605638Y30652D01*
X605614Y30571D01*
X605593Y30490D01*
X605576Y30407D01*
X605562Y30324D01*
X605553Y30240D01*
X605548Y30156D01*
X604175Y30155D01*
X604175Y30156D01*
X604179Y30266D01*
X604188Y30376D01*
X604200Y30486D01*
X604216Y30595D01*
X604236Y30703D01*
X604259Y30811D01*
X604286Y30918D01*
X604317Y31024D01*
X604352Y31129D01*
X604390Y31232D01*
X604431Y31334D01*
X604476Y31435D01*
X604525Y31534D01*
X604577Y31631D01*
X604632Y31726D01*
X604691Y31820D01*
X604753Y31911D01*
X604818Y32000D01*
X604886Y32087D01*
X604957Y32172D01*
X605031Y32254D01*
X605107Y32333D01*
X605186Y32409D01*
X605268Y32483D01*
X605353Y32554D01*
X605440Y32622D01*
X605529Y32687D01*
X605620Y32749D01*
X605714Y32808D01*
X605809Y32863D01*
X605906Y32915D01*
X606005Y32964D01*
X606106Y33009D01*
X606208Y33050D01*
X606311Y33088D01*
X606416Y33123D01*
X606522Y33154D01*
X606629Y33181D01*
X606737Y33204D01*
X606845Y33224D01*
X606954Y33240D01*
X607064Y33252D01*
X607174Y33261D01*
X607284Y33265D01*
X607284Y33122D01*
X607176Y33117D01*
X607069Y33109D01*
X606962Y33097D01*
X606856Y33081D01*
X606750Y33061D01*
X606645Y33038D01*
X606541Y33011D01*
X606438Y32980D01*
X606336Y32945D01*
X606235Y32907D01*
X606136Y32866D01*
X606038Y32821D01*
X605942Y32772D01*
X605848Y32721D01*
X605755Y32665D01*
X605665Y32607D01*
X605576Y32546D01*
X605490Y32481D01*
X605407Y32413D01*
X605325Y32343D01*
X605247Y32269D01*
X605171Y32193D01*
X605097Y32115D01*
X605027Y32033D01*
X604959Y31950D01*
X604894Y31864D01*
X604833Y31775D01*
X604775Y31685D01*
X604719Y31592D01*
X604668Y31498D01*
X604619Y31402D01*
X604574Y31304D01*
X604533Y31205D01*
X604495Y31104D01*
X604460Y31002D01*
X604429Y30899D01*
X604402Y30795D01*
X604379Y30690D01*
X604359Y30584D01*
X604343Y30478D01*
X604331Y30371D01*
X604323Y30264D01*
X604318Y30156D01*
X604461Y30156D01*
X604466Y30261D01*
X604474Y30365D01*
X604486Y30469D01*
X604502Y30573D01*
X604522Y30676D01*
X604545Y30778D01*
X604572Y30879D01*
X604603Y30980D01*
X604637Y31079D01*
X604675Y31176D01*
X604717Y31273D01*
X604761Y31368D01*
X604810Y31461D01*
X604861Y31552D01*
X604916Y31641D01*
X604974Y31729D01*
X605035Y31814D01*
X605099Y31897D01*
X605167Y31977D01*
X605237Y32055D01*
X605309Y32131D01*
X605385Y32203D01*
X605463Y32273D01*
X605543Y32341D01*
X605626Y32405D01*
X605711Y32466D01*
X605799Y32524D01*
X605888Y32579D01*
X605979Y32630D01*
X606072Y32679D01*
X606167Y32723D01*
X606264Y32765D01*
X606361Y32803D01*
X606460Y32837D01*
X606561Y32868D01*
X606662Y32895D01*
X606764Y32918D01*
X606867Y32938D01*
X606971Y32954D01*
X607075Y32966D01*
X607179Y32974D01*
X607284Y32979D01*
X607284Y32836D01*
X607180Y32831D01*
X607076Y32822D01*
X606972Y32810D01*
X606869Y32793D01*
X606766Y32772D01*
X606665Y32748D01*
X606564Y32720D01*
X606465Y32688D01*
X606367Y32652D01*
X606270Y32612D01*
X606175Y32569D01*
X606081Y32523D01*
X605990Y32472D01*
X605900Y32419D01*
X605813Y32362D01*
X605727Y32301D01*
X605644Y32238D01*
X605564Y32171D01*
X605486Y32102D01*
X605411Y32029D01*
X605338Y31954D01*
X605269Y31876D01*
X605202Y31796D01*
X605139Y31713D01*
X605078Y31627D01*
X605021Y31540D01*
X604968Y31450D01*
X604917Y31359D01*
X604871Y31265D01*
X604828Y31170D01*
X604788Y31073D01*
X604752Y30975D01*
X604720Y30876D01*
X604692Y30775D01*
X604668Y30674D01*
X604647Y30571D01*
X604630Y30468D01*
X604618Y30364D01*
X604609Y30260D01*
X604604Y30156D01*
X604747Y30156D01*
X604752Y30257D01*
X604761Y30358D01*
X604774Y30459D01*
X604790Y30559D01*
X604811Y30658D01*
X604835Y30757D01*
X604863Y30854D01*
X604895Y30950D01*
X604931Y31045D01*
X604970Y31139D01*
X605013Y31230D01*
X605059Y31321D01*
X605109Y31409D01*
X605162Y31495D01*
X605219Y31579D01*
X605278Y31661D01*
X605341Y31741D01*
X605407Y31818D01*
X605476Y31892D01*
X605548Y31964D01*
X605622Y32033D01*
X605699Y32099D01*
X605779Y32162D01*
X605861Y32221D01*
X605945Y32278D01*
X606031Y32331D01*
X606119Y32381D01*
X606210Y32427D01*
X606301Y32470D01*
X606395Y32509D01*
X606490Y32545D01*
X606586Y32577D01*
X606683Y32605D01*
X606782Y32629D01*
X606881Y32650D01*
X606981Y32666D01*
X607082Y32679D01*
X607183Y32688D01*
X607284Y32693D01*
X607284Y32550D01*
X607186Y32545D01*
X607088Y32536D01*
X606991Y32523D01*
X606894Y32507D01*
X606798Y32486D01*
X606703Y32462D01*
X606609Y32434D01*
X606516Y32402D01*
X606425Y32367D01*
X606335Y32328D01*
X606246Y32286D01*
X606159Y32240D01*
X606075Y32190D01*
X605992Y32138D01*
X605911Y32082D01*
X605833Y32023D01*
X605757Y31960D01*
X605683Y31895D01*
X605613Y31827D01*
X605545Y31757D01*
X605480Y31683D01*
X605417Y31607D01*
X605358Y31529D01*
X605302Y31448D01*
X605250Y31365D01*
X605200Y31281D01*
X605154Y31194D01*
X605112Y31105D01*
X605073Y31015D01*
X605038Y30924D01*
X605006Y30831D01*
X604978Y30737D01*
X604954Y30642D01*
X604933Y30546D01*
X604917Y30449D01*
X604904Y30352D01*
X604895Y30254D01*
X604890Y30156D01*
X605033Y30156D01*
X605038Y30251D01*
X605047Y30345D01*
X605060Y30439D01*
X605076Y30532D01*
X605097Y30625D01*
X605121Y30716D01*
X605148Y30807D01*
X605180Y30896D01*
X605215Y30984D01*
X605253Y31071D01*
X605295Y31155D01*
X605341Y31239D01*
X605390Y31320D01*
X605442Y31399D01*
X605497Y31476D01*
X605555Y31550D01*
X605617Y31623D01*
X605681Y31692D01*
X605748Y31759D01*
X605817Y31823D01*
X605890Y31885D01*
X605964Y31943D01*
X606041Y31998D01*
X606120Y32050D01*
X606201Y32099D01*
X606285Y32145D01*
X606369Y32187D01*
X606456Y32225D01*
X606544Y32260D01*
X606633Y32292D01*
X606724Y32319D01*
X606815Y32343D01*
X606908Y32364D01*
X607001Y32380D01*
X607095Y32393D01*
X607189Y32402D01*
X607284Y32407D01*
X607284Y32264D01*
X607193Y32259D01*
X607102Y32250D01*
X607012Y32237D01*
X606923Y32221D01*
X606834Y32201D01*
X606746Y32177D01*
X606659Y32149D01*
X606573Y32118D01*
X606489Y32084D01*
X606406Y32046D01*
X606325Y32004D01*
X606246Y31959D01*
X606168Y31911D01*
X606093Y31860D01*
X606020Y31806D01*
X605949Y31748D01*
X605881Y31688D01*
X605815Y31625D01*
X605752Y31559D01*
X605692Y31491D01*
X605634Y31420D01*
X605580Y31347D01*
X605529Y31272D01*
X605481Y31194D01*
X605436Y31115D01*
X605394Y31034D01*
X605356Y30951D01*
X605322Y30867D01*
X605291Y30781D01*
X605263Y30694D01*
X605239Y30606D01*
X605219Y30517D01*
X605203Y30428D01*
X605190Y30338D01*
X605181Y30247D01*
X605176Y30156D01*
X605319Y30156D01*
X605325Y30246D01*
X605334Y30335D01*
X605347Y30424D01*
X605364Y30512D01*
X605385Y30600D01*
X605410Y30686D01*
X605439Y30771D01*
X605471Y30855D01*
X605507Y30937D01*
X605546Y31018D01*
X605589Y31097D01*
X605636Y31174D01*
X605686Y31249D01*
X605739Y31321D01*
X605795Y31391D01*
X605854Y31459D01*
X605916Y31524D01*
X605981Y31586D01*
X606049Y31645D01*
X606119Y31701D01*
X606191Y31754D01*
X606266Y31804D01*
X606343Y31851D01*
X606422Y31894D01*
X606503Y31933D01*
X606585Y31969D01*
X606669Y32001D01*
X606754Y32030D01*
X606840Y32055D01*
X606928Y32076D01*
X607016Y32093D01*
X607105Y32106D01*
X607194Y32115D01*
X607284Y32121D01*
X607284Y31977D01*
X607198Y31972D01*
X607113Y31963D01*
X607028Y31950D01*
X606944Y31933D01*
X606861Y31912D01*
X606779Y31888D01*
X606698Y31860D01*
X606618Y31828D01*
X606540Y31793D01*
X606463Y31754D01*
X606389Y31712D01*
X606316Y31666D01*
X606245Y31617D01*
X606177Y31566D01*
X606111Y31511D01*
X606048Y31453D01*
X605987Y31392D01*
X605929Y31329D01*
X605874Y31263D01*
X605823Y31195D01*
X605774Y31124D01*
X605728Y31051D01*
X605686Y30977D01*
X605647Y30900D01*
X605612Y30822D01*
X605580Y30742D01*
X605552Y30661D01*
X605528Y30579D01*
X605507Y30496D01*
X605490Y30412D01*
X605477Y30327D01*
X605468Y30242D01*
X605463Y30156D01*
D11*
X604860Y29980D02*
X604860Y5380D01*
X634560Y5380D02*
X634560Y29980D01*
X632060Y32580D02*
X607460Y32580D01*
X607360Y2980D02*
X632060Y2980D01*
D14*
X610010Y24280D02*
X610012Y24393D01*
X610018Y24507D01*
X610028Y24620D01*
X610042Y24732D01*
X610059Y24844D01*
X610081Y24956D01*
X610107Y25066D01*
X610136Y25176D01*
X610169Y25284D01*
X610206Y25392D01*
X610247Y25497D01*
X610291Y25602D01*
X610339Y25705D01*
X610390Y25806D01*
X610445Y25905D01*
X610504Y26002D01*
X610566Y26097D01*
X610631Y26190D01*
X610699Y26281D01*
X610770Y26369D01*
X610845Y26455D01*
X610922Y26538D01*
X611002Y26618D01*
X611085Y26695D01*
X611171Y26770D01*
X611259Y26841D01*
X611350Y26909D01*
X611443Y26974D01*
X611538Y27036D01*
X611635Y27095D01*
X611734Y27150D01*
X611835Y27201D01*
X611938Y27249D01*
X612043Y27293D01*
X612148Y27334D01*
X612256Y27371D01*
X612364Y27404D01*
X612474Y27433D01*
X612584Y27459D01*
X612696Y27481D01*
X612808Y27498D01*
X612920Y27512D01*
X613033Y27522D01*
X613147Y27528D01*
X613260Y27530D01*
X613373Y27528D01*
X613487Y27522D01*
X613600Y27512D01*
X613712Y27498D01*
X613824Y27481D01*
X613936Y27459D01*
X614046Y27433D01*
X614156Y27404D01*
X614264Y27371D01*
X614372Y27334D01*
X614477Y27293D01*
X614582Y27249D01*
X614685Y27201D01*
X614786Y27150D01*
X614885Y27095D01*
X614982Y27036D01*
X615077Y26974D01*
X615170Y26909D01*
X615261Y26841D01*
X615349Y26770D01*
X615435Y26695D01*
X615518Y26618D01*
X615598Y26538D01*
X615675Y26455D01*
X615750Y26369D01*
X615821Y26281D01*
X615889Y26190D01*
X615954Y26097D01*
X616016Y26002D01*
X616075Y25905D01*
X616130Y25806D01*
X616181Y25705D01*
X616229Y25602D01*
X616273Y25497D01*
X616314Y25392D01*
X616351Y25284D01*
X616384Y25176D01*
X616413Y25066D01*
X616439Y24956D01*
X616461Y24844D01*
X616478Y24732D01*
X616492Y24620D01*
X616502Y24507D01*
X616508Y24393D01*
X616510Y24280D01*
X616508Y24167D01*
X616502Y24053D01*
X616492Y23940D01*
X616478Y23828D01*
X616461Y23716D01*
X616439Y23604D01*
X616413Y23494D01*
X616384Y23384D01*
X616351Y23276D01*
X616314Y23168D01*
X616273Y23063D01*
X616229Y22958D01*
X616181Y22855D01*
X616130Y22754D01*
X616075Y22655D01*
X616016Y22558D01*
X615954Y22463D01*
X615889Y22370D01*
X615821Y22279D01*
X615750Y22191D01*
X615675Y22105D01*
X615598Y22022D01*
X615518Y21942D01*
X615435Y21865D01*
X615349Y21790D01*
X615261Y21719D01*
X615170Y21651D01*
X615077Y21586D01*
X614982Y21524D01*
X614885Y21465D01*
X614786Y21410D01*
X614685Y21359D01*
X614582Y21311D01*
X614477Y21267D01*
X614372Y21226D01*
X614264Y21189D01*
X614156Y21156D01*
X614046Y21127D01*
X613936Y21101D01*
X613824Y21079D01*
X613712Y21062D01*
X613600Y21048D01*
X613487Y21038D01*
X613373Y21032D01*
X613260Y21030D01*
X613147Y21032D01*
X613033Y21038D01*
X612920Y21048D01*
X612808Y21062D01*
X612696Y21079D01*
X612584Y21101D01*
X612474Y21127D01*
X612364Y21156D01*
X612256Y21189D01*
X612148Y21226D01*
X612043Y21267D01*
X611938Y21311D01*
X611835Y21359D01*
X611734Y21410D01*
X611635Y21465D01*
X611538Y21524D01*
X611443Y21586D01*
X611350Y21651D01*
X611259Y21719D01*
X611171Y21790D01*
X611085Y21865D01*
X611002Y21942D01*
X610922Y22022D01*
X610845Y22105D01*
X610770Y22191D01*
X610699Y22279D01*
X610631Y22370D01*
X610566Y22463D01*
X610504Y22558D01*
X610445Y22655D01*
X610390Y22754D01*
X610339Y22855D01*
X610291Y22958D01*
X610247Y23063D01*
X610206Y23168D01*
X610169Y23276D01*
X610136Y23384D01*
X610107Y23494D01*
X610081Y23604D01*
X610059Y23716D01*
X610042Y23828D01*
X610028Y23940D01*
X610018Y24053D01*
X610012Y24167D01*
X610010Y24280D01*
D15*
X607695Y37000D02*
X607695Y40220D01*
X608500Y41025D01*
X610110Y41025D01*
X610915Y40220D01*
X610915Y37000D01*
X610110Y36195D01*
X608500Y36195D01*
X607695Y37000D01*
X609305Y37805D02*
X610915Y36195D01*
X613308Y39415D02*
X614918Y41025D01*
X614918Y36195D01*
X613308Y36195D02*
X616528Y36195D01*
X503160Y370720D02*
X503160Y379220D01*
X505660Y379220D01*
X503160Y355720D02*
X503160Y347220D01*
X505660Y347220D01*
X533160Y347220D02*
X533160Y355720D01*
X533160Y347220D02*
X530660Y347220D01*
X533160Y370720D02*
X533160Y379220D01*
X530660Y379220D01*
X530660Y381720D02*
X535660Y381720D01*
X535660Y377220D01*
D12*
X210820Y334010D02*
X204470Y340360D01*
X191770Y340360D02*
X185420Y334010D01*
X179070Y340360D01*
X166370Y340360D02*
X160020Y334010D01*
X153670Y340360D01*
X140970Y340360D02*
X134620Y334010D01*
X210820Y334010D02*
X210820Y295910D01*
X204470Y289560D01*
X191770Y289560D01*
X185420Y295910D01*
X179070Y289560D01*
X166370Y289560D01*
X160020Y295910D01*
X153670Y289560D01*
X140970Y289560D01*
X134620Y295910D01*
X185420Y295910D02*
X185420Y334010D01*
X160020Y334010D02*
X160020Y295910D01*
X134620Y295910D02*
X134620Y334010D01*
X140970Y340360D02*
X153670Y340360D01*
X166370Y340360D02*
X179070Y340360D01*
X191770Y340360D02*
X204470Y340360D01*
X204470Y343710D02*
X191770Y343710D01*
D15*
X193414Y346329D02*
X192609Y347134D01*
X193414Y346329D02*
X194219Y346329D01*
X195024Y347134D01*
X195024Y351159D01*
X194219Y351159D02*
X195829Y351159D01*
X198222Y349549D02*
X199832Y351159D01*
X199832Y346329D01*
X198222Y346329D02*
X201442Y346329D01*
D12*
X377190Y271780D02*
X440690Y271780D01*
X377190Y271780D02*
X377190Y398780D01*
X440690Y398780D01*
X440690Y271780D01*
D15*
X383540Y386080D02*
X383542Y386239D01*
X383548Y386398D01*
X383558Y386556D01*
X383572Y386715D01*
X383590Y386873D01*
X383611Y387030D01*
X383637Y387187D01*
X383667Y387343D01*
X383700Y387499D01*
X383738Y387653D01*
X383779Y387807D01*
X383824Y387959D01*
X383873Y388110D01*
X383926Y388260D01*
X383982Y388409D01*
X384043Y388556D01*
X384106Y388701D01*
X384174Y388845D01*
X384245Y388988D01*
X384319Y389128D01*
X384397Y389266D01*
X384479Y389403D01*
X384564Y389537D01*
X384652Y389670D01*
X384743Y389800D01*
X384838Y389927D01*
X384936Y390052D01*
X385037Y390175D01*
X385141Y390295D01*
X385248Y390413D01*
X385358Y390528D01*
X385471Y390640D01*
X385586Y390749D01*
X385704Y390855D01*
X385825Y390959D01*
X385949Y391059D01*
X386074Y391156D01*
X386203Y391250D01*
X386333Y391340D01*
X386466Y391428D01*
X386601Y391512D01*
X386738Y391592D01*
X386877Y391670D01*
X387018Y391743D01*
X387160Y391813D01*
X387305Y391880D01*
X387451Y391943D01*
X387598Y392002D01*
X387747Y392058D01*
X387898Y392109D01*
X388049Y392157D01*
X388202Y392201D01*
X388356Y392242D01*
X388510Y392278D01*
X388666Y392311D01*
X388822Y392340D01*
X388979Y392364D01*
X389137Y392385D01*
X389295Y392402D01*
X389453Y392415D01*
X389612Y392424D01*
X389771Y392429D01*
X389930Y392430D01*
X390089Y392427D01*
X390247Y392420D01*
X390406Y392409D01*
X390564Y392394D01*
X390722Y392375D01*
X390879Y392352D01*
X391036Y392326D01*
X391192Y392295D01*
X391347Y392261D01*
X391501Y392222D01*
X391655Y392180D01*
X391807Y392134D01*
X391958Y392084D01*
X392107Y392030D01*
X392256Y391973D01*
X392402Y391912D01*
X392548Y391847D01*
X392691Y391779D01*
X392833Y391707D01*
X392973Y391631D01*
X393111Y391553D01*
X393247Y391470D01*
X393381Y391385D01*
X393512Y391296D01*
X393642Y391203D01*
X393769Y391108D01*
X393893Y391009D01*
X394016Y390907D01*
X394135Y390803D01*
X394252Y390695D01*
X394366Y390584D01*
X394477Y390471D01*
X394586Y390355D01*
X394691Y390236D01*
X394794Y390114D01*
X394893Y389990D01*
X394990Y389864D01*
X395083Y389735D01*
X395173Y389604D01*
X395259Y389470D01*
X395342Y389335D01*
X395422Y389197D01*
X395498Y389058D01*
X395571Y388917D01*
X395640Y388774D01*
X395706Y388629D01*
X395768Y388482D01*
X395826Y388335D01*
X395881Y388185D01*
X395932Y388035D01*
X395979Y387883D01*
X396022Y387730D01*
X396061Y387576D01*
X396097Y387421D01*
X396128Y387265D01*
X396156Y387109D01*
X396180Y386952D01*
X396200Y386794D01*
X396216Y386636D01*
X396228Y386477D01*
X396236Y386318D01*
X396240Y386159D01*
X396240Y386001D01*
X396236Y385842D01*
X396228Y385683D01*
X396216Y385524D01*
X396200Y385366D01*
X396180Y385208D01*
X396156Y385051D01*
X396128Y384895D01*
X396097Y384739D01*
X396061Y384584D01*
X396022Y384430D01*
X395979Y384277D01*
X395932Y384125D01*
X395881Y383975D01*
X395826Y383825D01*
X395768Y383678D01*
X395706Y383531D01*
X395640Y383386D01*
X395571Y383243D01*
X395498Y383102D01*
X395422Y382963D01*
X395342Y382825D01*
X395259Y382690D01*
X395173Y382556D01*
X395083Y382425D01*
X394990Y382296D01*
X394893Y382170D01*
X394794Y382046D01*
X394691Y381924D01*
X394586Y381805D01*
X394477Y381689D01*
X394366Y381576D01*
X394252Y381465D01*
X394135Y381357D01*
X394016Y381253D01*
X393893Y381151D01*
X393769Y381052D01*
X393642Y380957D01*
X393512Y380864D01*
X393381Y380775D01*
X393247Y380690D01*
X393111Y380607D01*
X392973Y380529D01*
X392833Y380453D01*
X392691Y380381D01*
X392548Y380313D01*
X392402Y380248D01*
X392256Y380187D01*
X392107Y380130D01*
X391958Y380076D01*
X391807Y380026D01*
X391655Y379980D01*
X391501Y379938D01*
X391347Y379899D01*
X391192Y379865D01*
X391036Y379834D01*
X390879Y379808D01*
X390722Y379785D01*
X390564Y379766D01*
X390406Y379751D01*
X390247Y379740D01*
X390089Y379733D01*
X389930Y379730D01*
X389771Y379731D01*
X389612Y379736D01*
X389453Y379745D01*
X389295Y379758D01*
X389137Y379775D01*
X388979Y379796D01*
X388822Y379820D01*
X388666Y379849D01*
X388510Y379882D01*
X388356Y379918D01*
X388202Y379959D01*
X388049Y380003D01*
X387898Y380051D01*
X387747Y380102D01*
X387598Y380158D01*
X387451Y380217D01*
X387305Y380280D01*
X387160Y380347D01*
X387018Y380417D01*
X386877Y380490D01*
X386738Y380568D01*
X386601Y380648D01*
X386466Y380732D01*
X386333Y380820D01*
X386203Y380910D01*
X386074Y381004D01*
X385949Y381101D01*
X385825Y381201D01*
X385704Y381305D01*
X385586Y381411D01*
X385471Y381520D01*
X385358Y381632D01*
X385248Y381747D01*
X385141Y381865D01*
X385037Y381985D01*
X384936Y382108D01*
X384838Y382233D01*
X384743Y382360D01*
X384652Y382490D01*
X384564Y382623D01*
X384479Y382757D01*
X384397Y382894D01*
X384319Y383032D01*
X384245Y383172D01*
X384174Y383315D01*
X384106Y383459D01*
X384043Y383604D01*
X383982Y383751D01*
X383926Y383900D01*
X383873Y384050D01*
X383824Y384201D01*
X383779Y384353D01*
X383738Y384507D01*
X383700Y384661D01*
X383667Y384817D01*
X383637Y384973D01*
X383611Y385130D01*
X383590Y385287D01*
X383572Y385445D01*
X383558Y385604D01*
X383548Y385762D01*
X383542Y385921D01*
X383540Y386080D01*
X380365Y268355D02*
X380365Y264330D01*
X381170Y263525D01*
X382780Y263525D01*
X383585Y264330D01*
X383585Y268355D01*
X385978Y263525D02*
X389198Y263525D01*
X385978Y263525D02*
X389198Y266745D01*
X389198Y267550D01*
X388393Y268355D01*
X386783Y268355D01*
X385978Y267550D01*
D16*
X551180Y5080D03*
D11*
X521399Y6863D02*
X521399Y762D01*
X521399Y6863D02*
X524450Y6863D01*
X525467Y5846D01*
X525467Y3813D01*
X524450Y2796D01*
X521399Y2796D01*
X523433Y2796D02*
X525467Y762D01*
X528416Y4829D02*
X530449Y6863D01*
X530449Y762D01*
X528416Y762D02*
X532483Y762D01*
D17*
X563880Y378155D02*
X563880Y378765D01*
D15*
X583440Y382655D02*
X584245Y381850D01*
X583440Y382655D02*
X581830Y382655D01*
X581025Y381850D01*
X581025Y378630D01*
X581830Y377825D01*
X583440Y377825D01*
X584245Y378630D01*
X586638Y381045D02*
X588248Y382655D01*
X588248Y377825D01*
X586638Y377825D02*
X589858Y377825D01*
D12*
X457200Y11430D02*
X450850Y5080D01*
X438150Y5080D01*
X431800Y11430D01*
X431800Y24130D02*
X438150Y30480D01*
X450850Y30480D01*
X457200Y24130D01*
X488950Y5080D02*
X501650Y5080D01*
X488950Y5080D02*
X482600Y11430D01*
X482600Y24130D02*
X488950Y30480D01*
X482600Y11430D02*
X476250Y5080D01*
X463550Y5080D01*
X457200Y11430D01*
X457200Y24130D02*
X463550Y30480D01*
X476250Y30480D01*
X482600Y24130D01*
X508000Y24130D02*
X508000Y11430D01*
X501650Y5080D01*
X508000Y24130D02*
X501650Y30480D01*
X488950Y30480D01*
X431800Y24130D02*
X431800Y11430D01*
X225044Y8104D02*
X225044Y-484D01*
X196596Y-484D02*
X196596Y8104D01*
X208136Y11914D02*
X213504Y11914D01*
D15*
X207645Y26840D02*
X207645Y30865D01*
X207645Y26840D02*
X208450Y26035D01*
X210060Y26035D01*
X210865Y26840D01*
X210865Y30865D01*
X213258Y30060D02*
X214063Y30865D01*
X215673Y30865D01*
X216478Y30060D01*
X216478Y29255D01*
X215673Y28450D01*
X214868Y28450D01*
X215673Y28450D02*
X216478Y27645D01*
X216478Y26840D01*
X215673Y26035D01*
X214063Y26035D01*
X213258Y26840D01*
D16*
X298450Y337820D03*
D11*
X268669Y336042D02*
X268669Y342143D01*
X271720Y342143D01*
X272737Y341126D01*
X272737Y339093D01*
X271720Y338076D01*
X268669Y338076D01*
X270703Y338076D02*
X272737Y336042D01*
X275686Y336042D02*
X279753Y336042D01*
X275686Y336042D02*
X279753Y340109D01*
X279753Y341126D01*
X278736Y342143D01*
X276702Y342143D01*
X275686Y341126D01*
D17*
X262890Y-20015D02*
X262890Y-20625D01*
D11*
X285753Y-15997D02*
X286769Y-17014D01*
X285753Y-15997D02*
X283719Y-15997D01*
X282702Y-17014D01*
X282702Y-21081D01*
X283719Y-22098D01*
X285753Y-22098D01*
X286769Y-21081D01*
X289718Y-22098D02*
X293786Y-22098D01*
X293786Y-18031D02*
X289718Y-22098D01*
X293786Y-18031D02*
X293786Y-17014D01*
X292769Y-15997D01*
X290735Y-15997D01*
X289718Y-17014D01*
D17*
X260350Y20015D02*
X260350Y20625D01*
D11*
X283213Y24643D02*
X284229Y23626D01*
X283213Y24643D02*
X281179Y24643D01*
X280162Y23626D01*
X280162Y19559D01*
X281179Y18542D01*
X283213Y18542D01*
X284229Y19559D01*
X287178Y23626D02*
X288195Y24643D01*
X290229Y24643D01*
X291246Y23626D01*
X291246Y22609D01*
X290229Y21593D01*
X289212Y21593D01*
X290229Y21593D02*
X291246Y20576D01*
X291246Y19559D01*
X290229Y18542D01*
X288195Y18542D01*
X287178Y19559D01*
D17*
X298450Y398475D02*
X298450Y399085D01*
D11*
X274069Y402086D02*
X273053Y403103D01*
X271019Y403103D01*
X270002Y402086D01*
X270002Y398019D01*
X271019Y397002D01*
X273053Y397002D01*
X274069Y398019D01*
X280069Y397002D02*
X280069Y403103D01*
X277018Y400053D01*
X281086Y400053D01*
D16*
X298450Y378460D03*
D11*
X270002Y376682D02*
X270002Y382783D01*
X273053Y382783D01*
X274069Y381766D01*
X274069Y379733D01*
X273053Y378716D01*
X270002Y378716D01*
X272036Y378716D02*
X274069Y376682D01*
X277018Y381766D02*
X278035Y382783D01*
X280069Y382783D01*
X281086Y381766D01*
X281086Y380749D01*
X280069Y379733D01*
X279052Y379733D01*
X280069Y379733D02*
X281086Y378716D01*
X281086Y377699D01*
X280069Y376682D01*
X278035Y376682D01*
X277018Y377699D01*
D16*
X298450Y358140D03*
D11*
X270002Y356362D02*
X270002Y362463D01*
X273053Y362463D01*
X274069Y361446D01*
X274069Y359413D01*
X273053Y358396D01*
X270002Y358396D01*
X272036Y358396D02*
X274069Y356362D01*
X280069Y356362D02*
X280069Y362463D01*
X277018Y359413D01*
X281086Y359413D01*
D12*
X612940Y125420D02*
X622940Y125420D01*
X602940Y135420D02*
X602940Y235420D01*
X612940Y245420D02*
X622940Y245420D01*
X652940Y245420D02*
X672940Y245420D01*
X702940Y245420D02*
X712940Y245420D01*
X722940Y235420D02*
X722940Y135420D01*
X712940Y125420D02*
X702940Y125420D01*
X672940Y125420D02*
X652940Y125420D01*
X712940Y125420D02*
X722940Y135420D01*
X722940Y235420D02*
X712940Y245420D01*
X612940Y245420D02*
X602940Y235420D01*
X602940Y135420D02*
X612940Y125420D01*
X627940Y185420D02*
X627951Y186279D01*
X627982Y187137D01*
X628035Y187995D01*
X628109Y188851D01*
X628203Y189704D01*
X628319Y190556D01*
X628455Y191404D01*
X628613Y192248D01*
X628790Y193089D01*
X628989Y193924D01*
X629208Y194755D01*
X629447Y195580D01*
X629707Y196399D01*
X629986Y197211D01*
X630285Y198016D01*
X630604Y198814D01*
X630943Y199603D01*
X631300Y200384D01*
X631677Y201156D01*
X632073Y201919D01*
X632487Y202671D01*
X632919Y203414D01*
X633370Y204145D01*
X633839Y204865D01*
X634325Y205573D01*
X634828Y206269D01*
X635348Y206953D01*
X635885Y207624D01*
X636438Y208281D01*
X637007Y208925D01*
X637591Y209554D01*
X638191Y210169D01*
X638806Y210769D01*
X639435Y211353D01*
X640079Y211922D01*
X640736Y212475D01*
X641407Y213012D01*
X642091Y213532D01*
X642787Y214035D01*
X643495Y214521D01*
X644215Y214990D01*
X644946Y215441D01*
X645689Y215873D01*
X646441Y216287D01*
X647204Y216683D01*
X647976Y217060D01*
X648757Y217417D01*
X649546Y217756D01*
X650344Y218075D01*
X651149Y218374D01*
X651961Y218653D01*
X652780Y218913D01*
X653605Y219152D01*
X654436Y219371D01*
X655271Y219570D01*
X656112Y219747D01*
X656956Y219905D01*
X657804Y220041D01*
X658656Y220157D01*
X659509Y220251D01*
X660365Y220325D01*
X661223Y220378D01*
X662081Y220409D01*
X662940Y220420D01*
X663799Y220409D01*
X664657Y220378D01*
X665515Y220325D01*
X666371Y220251D01*
X667224Y220157D01*
X668076Y220041D01*
X668924Y219905D01*
X669768Y219747D01*
X670609Y219570D01*
X671444Y219371D01*
X672275Y219152D01*
X673100Y218913D01*
X673919Y218653D01*
X674731Y218374D01*
X675536Y218075D01*
X676334Y217756D01*
X677123Y217417D01*
X677904Y217060D01*
X678676Y216683D01*
X679439Y216287D01*
X680191Y215873D01*
X680934Y215441D01*
X681665Y214990D01*
X682385Y214521D01*
X683093Y214035D01*
X683789Y213532D01*
X684473Y213012D01*
X685144Y212475D01*
X685801Y211922D01*
X686445Y211353D01*
X687074Y210769D01*
X687689Y210169D01*
X688289Y209554D01*
X688873Y208925D01*
X689442Y208281D01*
X689995Y207624D01*
X690532Y206953D01*
X691052Y206269D01*
X691555Y205573D01*
X692041Y204865D01*
X692510Y204145D01*
X692961Y203414D01*
X693393Y202671D01*
X693807Y201919D01*
X694203Y201156D01*
X694580Y200384D01*
X694937Y199603D01*
X695276Y198814D01*
X695595Y198016D01*
X695894Y197211D01*
X696173Y196399D01*
X696433Y195580D01*
X696672Y194755D01*
X696891Y193924D01*
X697090Y193089D01*
X697267Y192248D01*
X697425Y191404D01*
X697561Y190556D01*
X697677Y189704D01*
X697771Y188851D01*
X697845Y187995D01*
X697898Y187137D01*
X697929Y186279D01*
X697940Y185420D01*
X697929Y184561D01*
X697898Y183703D01*
X697845Y182845D01*
X697771Y181989D01*
X697677Y181136D01*
X697561Y180284D01*
X697425Y179436D01*
X697267Y178592D01*
X697090Y177751D01*
X696891Y176916D01*
X696672Y176085D01*
X696433Y175260D01*
X696173Y174441D01*
X695894Y173629D01*
X695595Y172824D01*
X695276Y172026D01*
X694937Y171237D01*
X694580Y170456D01*
X694203Y169684D01*
X693807Y168921D01*
X693393Y168169D01*
X692961Y167426D01*
X692510Y166695D01*
X692041Y165975D01*
X691555Y165267D01*
X691052Y164571D01*
X690532Y163887D01*
X689995Y163216D01*
X689442Y162559D01*
X688873Y161915D01*
X688289Y161286D01*
X687689Y160671D01*
X687074Y160071D01*
X686445Y159487D01*
X685801Y158918D01*
X685144Y158365D01*
X684473Y157828D01*
X683789Y157308D01*
X683093Y156805D01*
X682385Y156319D01*
X681665Y155850D01*
X680934Y155399D01*
X680191Y154967D01*
X679439Y154553D01*
X678676Y154157D01*
X677904Y153780D01*
X677123Y153423D01*
X676334Y153084D01*
X675536Y152765D01*
X674731Y152466D01*
X673919Y152187D01*
X673100Y151927D01*
X672275Y151688D01*
X671444Y151469D01*
X670609Y151270D01*
X669768Y151093D01*
X668924Y150935D01*
X668076Y150799D01*
X667224Y150683D01*
X666371Y150589D01*
X665515Y150515D01*
X664657Y150462D01*
X663799Y150431D01*
X662940Y150420D01*
X662081Y150431D01*
X661223Y150462D01*
X660365Y150515D01*
X659509Y150589D01*
X658656Y150683D01*
X657804Y150799D01*
X656956Y150935D01*
X656112Y151093D01*
X655271Y151270D01*
X654436Y151469D01*
X653605Y151688D01*
X652780Y151927D01*
X651961Y152187D01*
X651149Y152466D01*
X650344Y152765D01*
X649546Y153084D01*
X648757Y153423D01*
X647976Y153780D01*
X647204Y154157D01*
X646441Y154553D01*
X645689Y154967D01*
X644946Y155399D01*
X644215Y155850D01*
X643495Y156319D01*
X642787Y156805D01*
X642091Y157308D01*
X641407Y157828D01*
X640736Y158365D01*
X640079Y158918D01*
X639435Y159487D01*
X638806Y160071D01*
X638191Y160671D01*
X637591Y161286D01*
X637007Y161915D01*
X636438Y162559D01*
X635885Y163216D01*
X635348Y163887D01*
X634828Y164571D01*
X634325Y165267D01*
X633839Y165975D01*
X633370Y166695D01*
X632919Y167426D01*
X632487Y168169D01*
X632073Y168921D01*
X631677Y169684D01*
X631300Y170456D01*
X630943Y171237D01*
X630604Y172026D01*
X630285Y172824D01*
X629986Y173629D01*
X629707Y174441D01*
X629447Y175260D01*
X629208Y176085D01*
X628989Y176916D01*
X628790Y177751D01*
X628613Y178592D01*
X628455Y179436D01*
X628319Y180284D01*
X628203Y181136D01*
X628109Y181989D01*
X628035Y182845D01*
X627982Y183703D01*
X627951Y184561D01*
X627940Y185420D01*
D18*
X614940Y140420D02*
X614942Y140529D01*
X614948Y140638D01*
X614958Y140746D01*
X614972Y140854D01*
X614989Y140962D01*
X615011Y141069D01*
X615036Y141175D01*
X615066Y141279D01*
X615099Y141383D01*
X615136Y141486D01*
X615176Y141587D01*
X615220Y141686D01*
X615268Y141784D01*
X615320Y141881D01*
X615374Y141975D01*
X615432Y142067D01*
X615494Y142157D01*
X615559Y142244D01*
X615626Y142330D01*
X615697Y142413D01*
X615771Y142493D01*
X615848Y142570D01*
X615927Y142645D01*
X616009Y142716D01*
X616094Y142785D01*
X616181Y142850D01*
X616270Y142913D01*
X616362Y142971D01*
X616456Y143027D01*
X616551Y143079D01*
X616649Y143128D01*
X616748Y143173D01*
X616849Y143215D01*
X616951Y143252D01*
X617054Y143286D01*
X617159Y143317D01*
X617265Y143343D01*
X617371Y143366D01*
X617479Y143384D01*
X617587Y143399D01*
X617695Y143410D01*
X617804Y143417D01*
X617913Y143420D01*
X618022Y143419D01*
X618131Y143414D01*
X618239Y143405D01*
X618347Y143392D01*
X618455Y143375D01*
X618562Y143355D01*
X618668Y143330D01*
X618773Y143302D01*
X618877Y143270D01*
X618980Y143234D01*
X619082Y143194D01*
X619182Y143151D01*
X619280Y143104D01*
X619377Y143054D01*
X619471Y143000D01*
X619564Y142942D01*
X619655Y142882D01*
X619743Y142818D01*
X619829Y142751D01*
X619912Y142681D01*
X619993Y142608D01*
X620071Y142532D01*
X620146Y142453D01*
X620219Y142371D01*
X620288Y142287D01*
X620354Y142201D01*
X620417Y142112D01*
X620477Y142021D01*
X620534Y141928D01*
X620587Y141833D01*
X620636Y141736D01*
X620682Y141637D01*
X620724Y141537D01*
X620763Y141435D01*
X620798Y141331D01*
X620829Y141227D01*
X620857Y141122D01*
X620880Y141015D01*
X620900Y140908D01*
X620916Y140800D01*
X620928Y140692D01*
X620936Y140583D01*
X620940Y140474D01*
X620940Y140366D01*
X620936Y140257D01*
X620928Y140148D01*
X620916Y140040D01*
X620900Y139932D01*
X620880Y139825D01*
X620857Y139718D01*
X620829Y139613D01*
X620798Y139509D01*
X620763Y139405D01*
X620724Y139303D01*
X620682Y139203D01*
X620636Y139104D01*
X620587Y139007D01*
X620534Y138912D01*
X620477Y138819D01*
X620417Y138728D01*
X620354Y138639D01*
X620288Y138553D01*
X620219Y138469D01*
X620146Y138387D01*
X620071Y138308D01*
X619993Y138232D01*
X619912Y138159D01*
X619829Y138089D01*
X619743Y138022D01*
X619655Y137958D01*
X619564Y137898D01*
X619471Y137840D01*
X619377Y137786D01*
X619280Y137736D01*
X619182Y137689D01*
X619082Y137646D01*
X618980Y137606D01*
X618877Y137570D01*
X618773Y137538D01*
X618668Y137510D01*
X618562Y137485D01*
X618455Y137465D01*
X618347Y137448D01*
X618239Y137435D01*
X618131Y137426D01*
X618022Y137421D01*
X617913Y137420D01*
X617804Y137423D01*
X617695Y137430D01*
X617587Y137441D01*
X617479Y137456D01*
X617371Y137474D01*
X617265Y137497D01*
X617159Y137523D01*
X617054Y137554D01*
X616951Y137588D01*
X616849Y137625D01*
X616748Y137667D01*
X616649Y137712D01*
X616551Y137761D01*
X616456Y137813D01*
X616362Y137869D01*
X616270Y137927D01*
X616181Y137990D01*
X616094Y138055D01*
X616009Y138124D01*
X615927Y138195D01*
X615848Y138270D01*
X615771Y138347D01*
X615697Y138427D01*
X615626Y138510D01*
X615559Y138596D01*
X615494Y138683D01*
X615432Y138773D01*
X615374Y138865D01*
X615320Y138959D01*
X615268Y139056D01*
X615220Y139154D01*
X615176Y139253D01*
X615136Y139354D01*
X615099Y139457D01*
X615066Y139561D01*
X615036Y139665D01*
X615011Y139771D01*
X614989Y139878D01*
X614972Y139986D01*
X614958Y140094D01*
X614948Y140202D01*
X614942Y140311D01*
X614940Y140420D01*
X614940Y230420D02*
X614942Y230529D01*
X614948Y230638D01*
X614958Y230746D01*
X614972Y230854D01*
X614989Y230962D01*
X615011Y231069D01*
X615036Y231175D01*
X615066Y231279D01*
X615099Y231383D01*
X615136Y231486D01*
X615176Y231587D01*
X615220Y231686D01*
X615268Y231784D01*
X615320Y231881D01*
X615374Y231975D01*
X615432Y232067D01*
X615494Y232157D01*
X615559Y232244D01*
X615626Y232330D01*
X615697Y232413D01*
X615771Y232493D01*
X615848Y232570D01*
X615927Y232645D01*
X616009Y232716D01*
X616094Y232785D01*
X616181Y232850D01*
X616270Y232913D01*
X616362Y232971D01*
X616456Y233027D01*
X616551Y233079D01*
X616649Y233128D01*
X616748Y233173D01*
X616849Y233215D01*
X616951Y233252D01*
X617054Y233286D01*
X617159Y233317D01*
X617265Y233343D01*
X617371Y233366D01*
X617479Y233384D01*
X617587Y233399D01*
X617695Y233410D01*
X617804Y233417D01*
X617913Y233420D01*
X618022Y233419D01*
X618131Y233414D01*
X618239Y233405D01*
X618347Y233392D01*
X618455Y233375D01*
X618562Y233355D01*
X618668Y233330D01*
X618773Y233302D01*
X618877Y233270D01*
X618980Y233234D01*
X619082Y233194D01*
X619182Y233151D01*
X619280Y233104D01*
X619377Y233054D01*
X619471Y233000D01*
X619564Y232942D01*
X619655Y232882D01*
X619743Y232818D01*
X619829Y232751D01*
X619912Y232681D01*
X619993Y232608D01*
X620071Y232532D01*
X620146Y232453D01*
X620219Y232371D01*
X620288Y232287D01*
X620354Y232201D01*
X620417Y232112D01*
X620477Y232021D01*
X620534Y231928D01*
X620587Y231833D01*
X620636Y231736D01*
X620682Y231637D01*
X620724Y231537D01*
X620763Y231435D01*
X620798Y231331D01*
X620829Y231227D01*
X620857Y231122D01*
X620880Y231015D01*
X620900Y230908D01*
X620916Y230800D01*
X620928Y230692D01*
X620936Y230583D01*
X620940Y230474D01*
X620940Y230366D01*
X620936Y230257D01*
X620928Y230148D01*
X620916Y230040D01*
X620900Y229932D01*
X620880Y229825D01*
X620857Y229718D01*
X620829Y229613D01*
X620798Y229509D01*
X620763Y229405D01*
X620724Y229303D01*
X620682Y229203D01*
X620636Y229104D01*
X620587Y229007D01*
X620534Y228912D01*
X620477Y228819D01*
X620417Y228728D01*
X620354Y228639D01*
X620288Y228553D01*
X620219Y228469D01*
X620146Y228387D01*
X620071Y228308D01*
X619993Y228232D01*
X619912Y228159D01*
X619829Y228089D01*
X619743Y228022D01*
X619655Y227958D01*
X619564Y227898D01*
X619471Y227840D01*
X619377Y227786D01*
X619280Y227736D01*
X619182Y227689D01*
X619082Y227646D01*
X618980Y227606D01*
X618877Y227570D01*
X618773Y227538D01*
X618668Y227510D01*
X618562Y227485D01*
X618455Y227465D01*
X618347Y227448D01*
X618239Y227435D01*
X618131Y227426D01*
X618022Y227421D01*
X617913Y227420D01*
X617804Y227423D01*
X617695Y227430D01*
X617587Y227441D01*
X617479Y227456D01*
X617371Y227474D01*
X617265Y227497D01*
X617159Y227523D01*
X617054Y227554D01*
X616951Y227588D01*
X616849Y227625D01*
X616748Y227667D01*
X616649Y227712D01*
X616551Y227761D01*
X616456Y227813D01*
X616362Y227869D01*
X616270Y227927D01*
X616181Y227990D01*
X616094Y228055D01*
X616009Y228124D01*
X615927Y228195D01*
X615848Y228270D01*
X615771Y228347D01*
X615697Y228427D01*
X615626Y228510D01*
X615559Y228596D01*
X615494Y228683D01*
X615432Y228773D01*
X615374Y228865D01*
X615320Y228959D01*
X615268Y229056D01*
X615220Y229154D01*
X615176Y229253D01*
X615136Y229354D01*
X615099Y229457D01*
X615066Y229561D01*
X615036Y229665D01*
X615011Y229771D01*
X614989Y229878D01*
X614972Y229986D01*
X614958Y230094D01*
X614948Y230202D01*
X614942Y230311D01*
X614940Y230420D01*
X704940Y230420D02*
X704942Y230529D01*
X704948Y230638D01*
X704958Y230746D01*
X704972Y230854D01*
X704989Y230962D01*
X705011Y231069D01*
X705036Y231175D01*
X705066Y231279D01*
X705099Y231383D01*
X705136Y231486D01*
X705176Y231587D01*
X705220Y231686D01*
X705268Y231784D01*
X705320Y231881D01*
X705374Y231975D01*
X705432Y232067D01*
X705494Y232157D01*
X705559Y232244D01*
X705626Y232330D01*
X705697Y232413D01*
X705771Y232493D01*
X705848Y232570D01*
X705927Y232645D01*
X706009Y232716D01*
X706094Y232785D01*
X706181Y232850D01*
X706270Y232913D01*
X706362Y232971D01*
X706456Y233027D01*
X706551Y233079D01*
X706649Y233128D01*
X706748Y233173D01*
X706849Y233215D01*
X706951Y233252D01*
X707054Y233286D01*
X707159Y233317D01*
X707265Y233343D01*
X707371Y233366D01*
X707479Y233384D01*
X707587Y233399D01*
X707695Y233410D01*
X707804Y233417D01*
X707913Y233420D01*
X708022Y233419D01*
X708131Y233414D01*
X708239Y233405D01*
X708347Y233392D01*
X708455Y233375D01*
X708562Y233355D01*
X708668Y233330D01*
X708773Y233302D01*
X708877Y233270D01*
X708980Y233234D01*
X709082Y233194D01*
X709182Y233151D01*
X709280Y233104D01*
X709377Y233054D01*
X709471Y233000D01*
X709564Y232942D01*
X709655Y232882D01*
X709743Y232818D01*
X709829Y232751D01*
X709912Y232681D01*
X709993Y232608D01*
X710071Y232532D01*
X710146Y232453D01*
X710219Y232371D01*
X710288Y232287D01*
X710354Y232201D01*
X710417Y232112D01*
X710477Y232021D01*
X710534Y231928D01*
X710587Y231833D01*
X710636Y231736D01*
X710682Y231637D01*
X710724Y231537D01*
X710763Y231435D01*
X710798Y231331D01*
X710829Y231227D01*
X710857Y231122D01*
X710880Y231015D01*
X710900Y230908D01*
X710916Y230800D01*
X710928Y230692D01*
X710936Y230583D01*
X710940Y230474D01*
X710940Y230366D01*
X710936Y230257D01*
X710928Y230148D01*
X710916Y230040D01*
X710900Y229932D01*
X710880Y229825D01*
X710857Y229718D01*
X710829Y229613D01*
X710798Y229509D01*
X710763Y229405D01*
X710724Y229303D01*
X710682Y229203D01*
X710636Y229104D01*
X710587Y229007D01*
X710534Y228912D01*
X710477Y228819D01*
X710417Y228728D01*
X710354Y228639D01*
X710288Y228553D01*
X710219Y228469D01*
X710146Y228387D01*
X710071Y228308D01*
X709993Y228232D01*
X709912Y228159D01*
X709829Y228089D01*
X709743Y228022D01*
X709655Y227958D01*
X709564Y227898D01*
X709471Y227840D01*
X709377Y227786D01*
X709280Y227736D01*
X709182Y227689D01*
X709082Y227646D01*
X708980Y227606D01*
X708877Y227570D01*
X708773Y227538D01*
X708668Y227510D01*
X708562Y227485D01*
X708455Y227465D01*
X708347Y227448D01*
X708239Y227435D01*
X708131Y227426D01*
X708022Y227421D01*
X707913Y227420D01*
X707804Y227423D01*
X707695Y227430D01*
X707587Y227441D01*
X707479Y227456D01*
X707371Y227474D01*
X707265Y227497D01*
X707159Y227523D01*
X707054Y227554D01*
X706951Y227588D01*
X706849Y227625D01*
X706748Y227667D01*
X706649Y227712D01*
X706551Y227761D01*
X706456Y227813D01*
X706362Y227869D01*
X706270Y227927D01*
X706181Y227990D01*
X706094Y228055D01*
X706009Y228124D01*
X705927Y228195D01*
X705848Y228270D01*
X705771Y228347D01*
X705697Y228427D01*
X705626Y228510D01*
X705559Y228596D01*
X705494Y228683D01*
X705432Y228773D01*
X705374Y228865D01*
X705320Y228959D01*
X705268Y229056D01*
X705220Y229154D01*
X705176Y229253D01*
X705136Y229354D01*
X705099Y229457D01*
X705066Y229561D01*
X705036Y229665D01*
X705011Y229771D01*
X704989Y229878D01*
X704972Y229986D01*
X704958Y230094D01*
X704948Y230202D01*
X704942Y230311D01*
X704940Y230420D01*
X704940Y140420D02*
X704942Y140529D01*
X704948Y140638D01*
X704958Y140746D01*
X704972Y140854D01*
X704989Y140962D01*
X705011Y141069D01*
X705036Y141175D01*
X705066Y141279D01*
X705099Y141383D01*
X705136Y141486D01*
X705176Y141587D01*
X705220Y141686D01*
X705268Y141784D01*
X705320Y141881D01*
X705374Y141975D01*
X705432Y142067D01*
X705494Y142157D01*
X705559Y142244D01*
X705626Y142330D01*
X705697Y142413D01*
X705771Y142493D01*
X705848Y142570D01*
X705927Y142645D01*
X706009Y142716D01*
X706094Y142785D01*
X706181Y142850D01*
X706270Y142913D01*
X706362Y142971D01*
X706456Y143027D01*
X706551Y143079D01*
X706649Y143128D01*
X706748Y143173D01*
X706849Y143215D01*
X706951Y143252D01*
X707054Y143286D01*
X707159Y143317D01*
X707265Y143343D01*
X707371Y143366D01*
X707479Y143384D01*
X707587Y143399D01*
X707695Y143410D01*
X707804Y143417D01*
X707913Y143420D01*
X708022Y143419D01*
X708131Y143414D01*
X708239Y143405D01*
X708347Y143392D01*
X708455Y143375D01*
X708562Y143355D01*
X708668Y143330D01*
X708773Y143302D01*
X708877Y143270D01*
X708980Y143234D01*
X709082Y143194D01*
X709182Y143151D01*
X709280Y143104D01*
X709377Y143054D01*
X709471Y143000D01*
X709564Y142942D01*
X709655Y142882D01*
X709743Y142818D01*
X709829Y142751D01*
X709912Y142681D01*
X709993Y142608D01*
X710071Y142532D01*
X710146Y142453D01*
X710219Y142371D01*
X710288Y142287D01*
X710354Y142201D01*
X710417Y142112D01*
X710477Y142021D01*
X710534Y141928D01*
X710587Y141833D01*
X710636Y141736D01*
X710682Y141637D01*
X710724Y141537D01*
X710763Y141435D01*
X710798Y141331D01*
X710829Y141227D01*
X710857Y141122D01*
X710880Y141015D01*
X710900Y140908D01*
X710916Y140800D01*
X710928Y140692D01*
X710936Y140583D01*
X710940Y140474D01*
X710940Y140366D01*
X710936Y140257D01*
X710928Y140148D01*
X710916Y140040D01*
X710900Y139932D01*
X710880Y139825D01*
X710857Y139718D01*
X710829Y139613D01*
X710798Y139509D01*
X710763Y139405D01*
X710724Y139303D01*
X710682Y139203D01*
X710636Y139104D01*
X710587Y139007D01*
X710534Y138912D01*
X710477Y138819D01*
X710417Y138728D01*
X710354Y138639D01*
X710288Y138553D01*
X710219Y138469D01*
X710146Y138387D01*
X710071Y138308D01*
X709993Y138232D01*
X709912Y138159D01*
X709829Y138089D01*
X709743Y138022D01*
X709655Y137958D01*
X709564Y137898D01*
X709471Y137840D01*
X709377Y137786D01*
X709280Y137736D01*
X709182Y137689D01*
X709082Y137646D01*
X708980Y137606D01*
X708877Y137570D01*
X708773Y137538D01*
X708668Y137510D01*
X708562Y137485D01*
X708455Y137465D01*
X708347Y137448D01*
X708239Y137435D01*
X708131Y137426D01*
X708022Y137421D01*
X707913Y137420D01*
X707804Y137423D01*
X707695Y137430D01*
X707587Y137441D01*
X707479Y137456D01*
X707371Y137474D01*
X707265Y137497D01*
X707159Y137523D01*
X707054Y137554D01*
X706951Y137588D01*
X706849Y137625D01*
X706748Y137667D01*
X706649Y137712D01*
X706551Y137761D01*
X706456Y137813D01*
X706362Y137869D01*
X706270Y137927D01*
X706181Y137990D01*
X706094Y138055D01*
X706009Y138124D01*
X705927Y138195D01*
X705848Y138270D01*
X705771Y138347D01*
X705697Y138427D01*
X705626Y138510D01*
X705559Y138596D01*
X705494Y138683D01*
X705432Y138773D01*
X705374Y138865D01*
X705320Y138959D01*
X705268Y139056D01*
X705220Y139154D01*
X705176Y139253D01*
X705136Y139354D01*
X705099Y139457D01*
X705066Y139561D01*
X705036Y139665D01*
X705011Y139771D01*
X704989Y139878D01*
X704972Y139986D01*
X704958Y140094D01*
X704948Y140202D01*
X704942Y140311D01*
X704940Y140420D01*
D15*
X596050Y183662D02*
X595245Y182857D01*
X595245Y181247D01*
X596050Y180442D01*
X596855Y180442D01*
X597660Y181247D01*
X597660Y182857D01*
X598465Y183662D01*
X599270Y183662D01*
X600075Y182857D01*
X600075Y181247D01*
X599270Y180442D01*
X596855Y186055D02*
X595245Y187665D01*
X600075Y187665D01*
X600075Y186055D02*
X600075Y189275D01*
D12*
X74300Y125420D02*
X64300Y125420D01*
X54300Y135420D02*
X54300Y235420D01*
X64300Y245420D02*
X74300Y245420D01*
X104300Y245420D02*
X124300Y245420D01*
X154300Y245420D02*
X164300Y245420D01*
X174300Y235420D02*
X174300Y135420D01*
X164300Y125420D02*
X154300Y125420D01*
X124300Y125420D02*
X104300Y125420D01*
X164300Y125420D02*
X174300Y135420D01*
X174300Y235420D02*
X164300Y245420D01*
X64300Y245420D02*
X54300Y235420D01*
X54300Y135420D02*
X64300Y125420D01*
X79300Y185420D02*
X79311Y186279D01*
X79342Y187137D01*
X79395Y187995D01*
X79469Y188851D01*
X79563Y189704D01*
X79679Y190556D01*
X79815Y191404D01*
X79973Y192248D01*
X80150Y193089D01*
X80349Y193924D01*
X80568Y194755D01*
X80807Y195580D01*
X81067Y196399D01*
X81346Y197211D01*
X81645Y198016D01*
X81964Y198814D01*
X82303Y199603D01*
X82660Y200384D01*
X83037Y201156D01*
X83433Y201919D01*
X83847Y202671D01*
X84279Y203414D01*
X84730Y204145D01*
X85199Y204865D01*
X85685Y205573D01*
X86188Y206269D01*
X86708Y206953D01*
X87245Y207624D01*
X87798Y208281D01*
X88367Y208925D01*
X88951Y209554D01*
X89551Y210169D01*
X90166Y210769D01*
X90795Y211353D01*
X91439Y211922D01*
X92096Y212475D01*
X92767Y213012D01*
X93451Y213532D01*
X94147Y214035D01*
X94855Y214521D01*
X95575Y214990D01*
X96306Y215441D01*
X97049Y215873D01*
X97801Y216287D01*
X98564Y216683D01*
X99336Y217060D01*
X100117Y217417D01*
X100906Y217756D01*
X101704Y218075D01*
X102509Y218374D01*
X103321Y218653D01*
X104140Y218913D01*
X104965Y219152D01*
X105796Y219371D01*
X106631Y219570D01*
X107472Y219747D01*
X108316Y219905D01*
X109164Y220041D01*
X110016Y220157D01*
X110869Y220251D01*
X111725Y220325D01*
X112583Y220378D01*
X113441Y220409D01*
X114300Y220420D01*
X115159Y220409D01*
X116017Y220378D01*
X116875Y220325D01*
X117731Y220251D01*
X118584Y220157D01*
X119436Y220041D01*
X120284Y219905D01*
X121128Y219747D01*
X121969Y219570D01*
X122804Y219371D01*
X123635Y219152D01*
X124460Y218913D01*
X125279Y218653D01*
X126091Y218374D01*
X126896Y218075D01*
X127694Y217756D01*
X128483Y217417D01*
X129264Y217060D01*
X130036Y216683D01*
X130799Y216287D01*
X131551Y215873D01*
X132294Y215441D01*
X133025Y214990D01*
X133745Y214521D01*
X134453Y214035D01*
X135149Y213532D01*
X135833Y213012D01*
X136504Y212475D01*
X137161Y211922D01*
X137805Y211353D01*
X138434Y210769D01*
X139049Y210169D01*
X139649Y209554D01*
X140233Y208925D01*
X140802Y208281D01*
X141355Y207624D01*
X141892Y206953D01*
X142412Y206269D01*
X142915Y205573D01*
X143401Y204865D01*
X143870Y204145D01*
X144321Y203414D01*
X144753Y202671D01*
X145167Y201919D01*
X145563Y201156D01*
X145940Y200384D01*
X146297Y199603D01*
X146636Y198814D01*
X146955Y198016D01*
X147254Y197211D01*
X147533Y196399D01*
X147793Y195580D01*
X148032Y194755D01*
X148251Y193924D01*
X148450Y193089D01*
X148627Y192248D01*
X148785Y191404D01*
X148921Y190556D01*
X149037Y189704D01*
X149131Y188851D01*
X149205Y187995D01*
X149258Y187137D01*
X149289Y186279D01*
X149300Y185420D01*
X149289Y184561D01*
X149258Y183703D01*
X149205Y182845D01*
X149131Y181989D01*
X149037Y181136D01*
X148921Y180284D01*
X148785Y179436D01*
X148627Y178592D01*
X148450Y177751D01*
X148251Y176916D01*
X148032Y176085D01*
X147793Y175260D01*
X147533Y174441D01*
X147254Y173629D01*
X146955Y172824D01*
X146636Y172026D01*
X146297Y171237D01*
X145940Y170456D01*
X145563Y169684D01*
X145167Y168921D01*
X144753Y168169D01*
X144321Y167426D01*
X143870Y166695D01*
X143401Y165975D01*
X142915Y165267D01*
X142412Y164571D01*
X141892Y163887D01*
X141355Y163216D01*
X140802Y162559D01*
X140233Y161915D01*
X139649Y161286D01*
X139049Y160671D01*
X138434Y160071D01*
X137805Y159487D01*
X137161Y158918D01*
X136504Y158365D01*
X135833Y157828D01*
X135149Y157308D01*
X134453Y156805D01*
X133745Y156319D01*
X133025Y155850D01*
X132294Y155399D01*
X131551Y154967D01*
X130799Y154553D01*
X130036Y154157D01*
X129264Y153780D01*
X128483Y153423D01*
X127694Y153084D01*
X126896Y152765D01*
X126091Y152466D01*
X125279Y152187D01*
X124460Y151927D01*
X123635Y151688D01*
X122804Y151469D01*
X121969Y151270D01*
X121128Y151093D01*
X120284Y150935D01*
X119436Y150799D01*
X118584Y150683D01*
X117731Y150589D01*
X116875Y150515D01*
X116017Y150462D01*
X115159Y150431D01*
X114300Y150420D01*
X113441Y150431D01*
X112583Y150462D01*
X111725Y150515D01*
X110869Y150589D01*
X110016Y150683D01*
X109164Y150799D01*
X108316Y150935D01*
X107472Y151093D01*
X106631Y151270D01*
X105796Y151469D01*
X104965Y151688D01*
X104140Y151927D01*
X103321Y152187D01*
X102509Y152466D01*
X101704Y152765D01*
X100906Y153084D01*
X100117Y153423D01*
X99336Y153780D01*
X98564Y154157D01*
X97801Y154553D01*
X97049Y154967D01*
X96306Y155399D01*
X95575Y155850D01*
X94855Y156319D01*
X94147Y156805D01*
X93451Y157308D01*
X92767Y157828D01*
X92096Y158365D01*
X91439Y158918D01*
X90795Y159487D01*
X90166Y160071D01*
X89551Y160671D01*
X88951Y161286D01*
X88367Y161915D01*
X87798Y162559D01*
X87245Y163216D01*
X86708Y163887D01*
X86188Y164571D01*
X85685Y165267D01*
X85199Y165975D01*
X84730Y166695D01*
X84279Y167426D01*
X83847Y168169D01*
X83433Y168921D01*
X83037Y169684D01*
X82660Y170456D01*
X82303Y171237D01*
X81964Y172026D01*
X81645Y172824D01*
X81346Y173629D01*
X81067Y174441D01*
X80807Y175260D01*
X80568Y176085D01*
X80349Y176916D01*
X80150Y177751D01*
X79973Y178592D01*
X79815Y179436D01*
X79679Y180284D01*
X79563Y181136D01*
X79469Y181989D01*
X79395Y182845D01*
X79342Y183703D01*
X79311Y184561D01*
X79300Y185420D01*
D18*
X66300Y140420D02*
X66302Y140529D01*
X66308Y140638D01*
X66318Y140746D01*
X66332Y140854D01*
X66349Y140962D01*
X66371Y141069D01*
X66396Y141175D01*
X66426Y141279D01*
X66459Y141383D01*
X66496Y141486D01*
X66536Y141587D01*
X66580Y141686D01*
X66628Y141784D01*
X66680Y141881D01*
X66734Y141975D01*
X66792Y142067D01*
X66854Y142157D01*
X66919Y142244D01*
X66986Y142330D01*
X67057Y142413D01*
X67131Y142493D01*
X67208Y142570D01*
X67287Y142645D01*
X67369Y142716D01*
X67454Y142785D01*
X67541Y142850D01*
X67630Y142913D01*
X67722Y142971D01*
X67816Y143027D01*
X67911Y143079D01*
X68009Y143128D01*
X68108Y143173D01*
X68209Y143215D01*
X68311Y143252D01*
X68414Y143286D01*
X68519Y143317D01*
X68625Y143343D01*
X68731Y143366D01*
X68839Y143384D01*
X68947Y143399D01*
X69055Y143410D01*
X69164Y143417D01*
X69273Y143420D01*
X69382Y143419D01*
X69491Y143414D01*
X69599Y143405D01*
X69707Y143392D01*
X69815Y143375D01*
X69922Y143355D01*
X70028Y143330D01*
X70133Y143302D01*
X70237Y143270D01*
X70340Y143234D01*
X70442Y143194D01*
X70542Y143151D01*
X70640Y143104D01*
X70737Y143054D01*
X70831Y143000D01*
X70924Y142942D01*
X71015Y142882D01*
X71103Y142818D01*
X71189Y142751D01*
X71272Y142681D01*
X71353Y142608D01*
X71431Y142532D01*
X71506Y142453D01*
X71579Y142371D01*
X71648Y142287D01*
X71714Y142201D01*
X71777Y142112D01*
X71837Y142021D01*
X71894Y141928D01*
X71947Y141833D01*
X71996Y141736D01*
X72042Y141637D01*
X72084Y141537D01*
X72123Y141435D01*
X72158Y141331D01*
X72189Y141227D01*
X72217Y141122D01*
X72240Y141015D01*
X72260Y140908D01*
X72276Y140800D01*
X72288Y140692D01*
X72296Y140583D01*
X72300Y140474D01*
X72300Y140366D01*
X72296Y140257D01*
X72288Y140148D01*
X72276Y140040D01*
X72260Y139932D01*
X72240Y139825D01*
X72217Y139718D01*
X72189Y139613D01*
X72158Y139509D01*
X72123Y139405D01*
X72084Y139303D01*
X72042Y139203D01*
X71996Y139104D01*
X71947Y139007D01*
X71894Y138912D01*
X71837Y138819D01*
X71777Y138728D01*
X71714Y138639D01*
X71648Y138553D01*
X71579Y138469D01*
X71506Y138387D01*
X71431Y138308D01*
X71353Y138232D01*
X71272Y138159D01*
X71189Y138089D01*
X71103Y138022D01*
X71015Y137958D01*
X70924Y137898D01*
X70831Y137840D01*
X70737Y137786D01*
X70640Y137736D01*
X70542Y137689D01*
X70442Y137646D01*
X70340Y137606D01*
X70237Y137570D01*
X70133Y137538D01*
X70028Y137510D01*
X69922Y137485D01*
X69815Y137465D01*
X69707Y137448D01*
X69599Y137435D01*
X69491Y137426D01*
X69382Y137421D01*
X69273Y137420D01*
X69164Y137423D01*
X69055Y137430D01*
X68947Y137441D01*
X68839Y137456D01*
X68731Y137474D01*
X68625Y137497D01*
X68519Y137523D01*
X68414Y137554D01*
X68311Y137588D01*
X68209Y137625D01*
X68108Y137667D01*
X68009Y137712D01*
X67911Y137761D01*
X67816Y137813D01*
X67722Y137869D01*
X67630Y137927D01*
X67541Y137990D01*
X67454Y138055D01*
X67369Y138124D01*
X67287Y138195D01*
X67208Y138270D01*
X67131Y138347D01*
X67057Y138427D01*
X66986Y138510D01*
X66919Y138596D01*
X66854Y138683D01*
X66792Y138773D01*
X66734Y138865D01*
X66680Y138959D01*
X66628Y139056D01*
X66580Y139154D01*
X66536Y139253D01*
X66496Y139354D01*
X66459Y139457D01*
X66426Y139561D01*
X66396Y139665D01*
X66371Y139771D01*
X66349Y139878D01*
X66332Y139986D01*
X66318Y140094D01*
X66308Y140202D01*
X66302Y140311D01*
X66300Y140420D01*
X66300Y230420D02*
X66302Y230529D01*
X66308Y230638D01*
X66318Y230746D01*
X66332Y230854D01*
X66349Y230962D01*
X66371Y231069D01*
X66396Y231175D01*
X66426Y231279D01*
X66459Y231383D01*
X66496Y231486D01*
X66536Y231587D01*
X66580Y231686D01*
X66628Y231784D01*
X66680Y231881D01*
X66734Y231975D01*
X66792Y232067D01*
X66854Y232157D01*
X66919Y232244D01*
X66986Y232330D01*
X67057Y232413D01*
X67131Y232493D01*
X67208Y232570D01*
X67287Y232645D01*
X67369Y232716D01*
X67454Y232785D01*
X67541Y232850D01*
X67630Y232913D01*
X67722Y232971D01*
X67816Y233027D01*
X67911Y233079D01*
X68009Y233128D01*
X68108Y233173D01*
X68209Y233215D01*
X68311Y233252D01*
X68414Y233286D01*
X68519Y233317D01*
X68625Y233343D01*
X68731Y233366D01*
X68839Y233384D01*
X68947Y233399D01*
X69055Y233410D01*
X69164Y233417D01*
X69273Y233420D01*
X69382Y233419D01*
X69491Y233414D01*
X69599Y233405D01*
X69707Y233392D01*
X69815Y233375D01*
X69922Y233355D01*
X70028Y233330D01*
X70133Y233302D01*
X70237Y233270D01*
X70340Y233234D01*
X70442Y233194D01*
X70542Y233151D01*
X70640Y233104D01*
X70737Y233054D01*
X70831Y233000D01*
X70924Y232942D01*
X71015Y232882D01*
X71103Y232818D01*
X71189Y232751D01*
X71272Y232681D01*
X71353Y232608D01*
X71431Y232532D01*
X71506Y232453D01*
X71579Y232371D01*
X71648Y232287D01*
X71714Y232201D01*
X71777Y232112D01*
X71837Y232021D01*
X71894Y231928D01*
X71947Y231833D01*
X71996Y231736D01*
X72042Y231637D01*
X72084Y231537D01*
X72123Y231435D01*
X72158Y231331D01*
X72189Y231227D01*
X72217Y231122D01*
X72240Y231015D01*
X72260Y230908D01*
X72276Y230800D01*
X72288Y230692D01*
X72296Y230583D01*
X72300Y230474D01*
X72300Y230366D01*
X72296Y230257D01*
X72288Y230148D01*
X72276Y230040D01*
X72260Y229932D01*
X72240Y229825D01*
X72217Y229718D01*
X72189Y229613D01*
X72158Y229509D01*
X72123Y229405D01*
X72084Y229303D01*
X72042Y229203D01*
X71996Y229104D01*
X71947Y229007D01*
X71894Y228912D01*
X71837Y228819D01*
X71777Y228728D01*
X71714Y228639D01*
X71648Y228553D01*
X71579Y228469D01*
X71506Y228387D01*
X71431Y228308D01*
X71353Y228232D01*
X71272Y228159D01*
X71189Y228089D01*
X71103Y228022D01*
X71015Y227958D01*
X70924Y227898D01*
X70831Y227840D01*
X70737Y227786D01*
X70640Y227736D01*
X70542Y227689D01*
X70442Y227646D01*
X70340Y227606D01*
X70237Y227570D01*
X70133Y227538D01*
X70028Y227510D01*
X69922Y227485D01*
X69815Y227465D01*
X69707Y227448D01*
X69599Y227435D01*
X69491Y227426D01*
X69382Y227421D01*
X69273Y227420D01*
X69164Y227423D01*
X69055Y227430D01*
X68947Y227441D01*
X68839Y227456D01*
X68731Y227474D01*
X68625Y227497D01*
X68519Y227523D01*
X68414Y227554D01*
X68311Y227588D01*
X68209Y227625D01*
X68108Y227667D01*
X68009Y227712D01*
X67911Y227761D01*
X67816Y227813D01*
X67722Y227869D01*
X67630Y227927D01*
X67541Y227990D01*
X67454Y228055D01*
X67369Y228124D01*
X67287Y228195D01*
X67208Y228270D01*
X67131Y228347D01*
X67057Y228427D01*
X66986Y228510D01*
X66919Y228596D01*
X66854Y228683D01*
X66792Y228773D01*
X66734Y228865D01*
X66680Y228959D01*
X66628Y229056D01*
X66580Y229154D01*
X66536Y229253D01*
X66496Y229354D01*
X66459Y229457D01*
X66426Y229561D01*
X66396Y229665D01*
X66371Y229771D01*
X66349Y229878D01*
X66332Y229986D01*
X66318Y230094D01*
X66308Y230202D01*
X66302Y230311D01*
X66300Y230420D01*
X156300Y230420D02*
X156302Y230529D01*
X156308Y230638D01*
X156318Y230746D01*
X156332Y230854D01*
X156349Y230962D01*
X156371Y231069D01*
X156396Y231175D01*
X156426Y231279D01*
X156459Y231383D01*
X156496Y231486D01*
X156536Y231587D01*
X156580Y231686D01*
X156628Y231784D01*
X156680Y231881D01*
X156734Y231975D01*
X156792Y232067D01*
X156854Y232157D01*
X156919Y232244D01*
X156986Y232330D01*
X157057Y232413D01*
X157131Y232493D01*
X157208Y232570D01*
X157287Y232645D01*
X157369Y232716D01*
X157454Y232785D01*
X157541Y232850D01*
X157630Y232913D01*
X157722Y232971D01*
X157816Y233027D01*
X157911Y233079D01*
X158009Y233128D01*
X158108Y233173D01*
X158209Y233215D01*
X158311Y233252D01*
X158414Y233286D01*
X158519Y233317D01*
X158625Y233343D01*
X158731Y233366D01*
X158839Y233384D01*
X158947Y233399D01*
X159055Y233410D01*
X159164Y233417D01*
X159273Y233420D01*
X159382Y233419D01*
X159491Y233414D01*
X159599Y233405D01*
X159707Y233392D01*
X159815Y233375D01*
X159922Y233355D01*
X160028Y233330D01*
X160133Y233302D01*
X160237Y233270D01*
X160340Y233234D01*
X160442Y233194D01*
X160542Y233151D01*
X160640Y233104D01*
X160737Y233054D01*
X160831Y233000D01*
X160924Y232942D01*
X161015Y232882D01*
X161103Y232818D01*
X161189Y232751D01*
X161272Y232681D01*
X161353Y232608D01*
X161431Y232532D01*
X161506Y232453D01*
X161579Y232371D01*
X161648Y232287D01*
X161714Y232201D01*
X161777Y232112D01*
X161837Y232021D01*
X161894Y231928D01*
X161947Y231833D01*
X161996Y231736D01*
X162042Y231637D01*
X162084Y231537D01*
X162123Y231435D01*
X162158Y231331D01*
X162189Y231227D01*
X162217Y231122D01*
X162240Y231015D01*
X162260Y230908D01*
X162276Y230800D01*
X162288Y230692D01*
X162296Y230583D01*
X162300Y230474D01*
X162300Y230366D01*
X162296Y230257D01*
X162288Y230148D01*
X162276Y230040D01*
X162260Y229932D01*
X162240Y229825D01*
X162217Y229718D01*
X162189Y229613D01*
X162158Y229509D01*
X162123Y229405D01*
X162084Y229303D01*
X162042Y229203D01*
X161996Y229104D01*
X161947Y229007D01*
X161894Y228912D01*
X161837Y228819D01*
X161777Y228728D01*
X161714Y228639D01*
X161648Y228553D01*
X161579Y228469D01*
X161506Y228387D01*
X161431Y228308D01*
X161353Y228232D01*
X161272Y228159D01*
X161189Y228089D01*
X161103Y228022D01*
X161015Y227958D01*
X160924Y227898D01*
X160831Y227840D01*
X160737Y227786D01*
X160640Y227736D01*
X160542Y227689D01*
X160442Y227646D01*
X160340Y227606D01*
X160237Y227570D01*
X160133Y227538D01*
X160028Y227510D01*
X159922Y227485D01*
X159815Y227465D01*
X159707Y227448D01*
X159599Y227435D01*
X159491Y227426D01*
X159382Y227421D01*
X159273Y227420D01*
X159164Y227423D01*
X159055Y227430D01*
X158947Y227441D01*
X158839Y227456D01*
X158731Y227474D01*
X158625Y227497D01*
X158519Y227523D01*
X158414Y227554D01*
X158311Y227588D01*
X158209Y227625D01*
X158108Y227667D01*
X158009Y227712D01*
X157911Y227761D01*
X157816Y227813D01*
X157722Y227869D01*
X157630Y227927D01*
X157541Y227990D01*
X157454Y228055D01*
X157369Y228124D01*
X157287Y228195D01*
X157208Y228270D01*
X157131Y228347D01*
X157057Y228427D01*
X156986Y228510D01*
X156919Y228596D01*
X156854Y228683D01*
X156792Y228773D01*
X156734Y228865D01*
X156680Y228959D01*
X156628Y229056D01*
X156580Y229154D01*
X156536Y229253D01*
X156496Y229354D01*
X156459Y229457D01*
X156426Y229561D01*
X156396Y229665D01*
X156371Y229771D01*
X156349Y229878D01*
X156332Y229986D01*
X156318Y230094D01*
X156308Y230202D01*
X156302Y230311D01*
X156300Y230420D01*
X156300Y140420D02*
X156302Y140529D01*
X156308Y140638D01*
X156318Y140746D01*
X156332Y140854D01*
X156349Y140962D01*
X156371Y141069D01*
X156396Y141175D01*
X156426Y141279D01*
X156459Y141383D01*
X156496Y141486D01*
X156536Y141587D01*
X156580Y141686D01*
X156628Y141784D01*
X156680Y141881D01*
X156734Y141975D01*
X156792Y142067D01*
X156854Y142157D01*
X156919Y142244D01*
X156986Y142330D01*
X157057Y142413D01*
X157131Y142493D01*
X157208Y142570D01*
X157287Y142645D01*
X157369Y142716D01*
X157454Y142785D01*
X157541Y142850D01*
X157630Y142913D01*
X157722Y142971D01*
X157816Y143027D01*
X157911Y143079D01*
X158009Y143128D01*
X158108Y143173D01*
X158209Y143215D01*
X158311Y143252D01*
X158414Y143286D01*
X158519Y143317D01*
X158625Y143343D01*
X158731Y143366D01*
X158839Y143384D01*
X158947Y143399D01*
X159055Y143410D01*
X159164Y143417D01*
X159273Y143420D01*
X159382Y143419D01*
X159491Y143414D01*
X159599Y143405D01*
X159707Y143392D01*
X159815Y143375D01*
X159922Y143355D01*
X160028Y143330D01*
X160133Y143302D01*
X160237Y143270D01*
X160340Y143234D01*
X160442Y143194D01*
X160542Y143151D01*
X160640Y143104D01*
X160737Y143054D01*
X160831Y143000D01*
X160924Y142942D01*
X161015Y142882D01*
X161103Y142818D01*
X161189Y142751D01*
X161272Y142681D01*
X161353Y142608D01*
X161431Y142532D01*
X161506Y142453D01*
X161579Y142371D01*
X161648Y142287D01*
X161714Y142201D01*
X161777Y142112D01*
X161837Y142021D01*
X161894Y141928D01*
X161947Y141833D01*
X161996Y141736D01*
X162042Y141637D01*
X162084Y141537D01*
X162123Y141435D01*
X162158Y141331D01*
X162189Y141227D01*
X162217Y141122D01*
X162240Y141015D01*
X162260Y140908D01*
X162276Y140800D01*
X162288Y140692D01*
X162296Y140583D01*
X162300Y140474D01*
X162300Y140366D01*
X162296Y140257D01*
X162288Y140148D01*
X162276Y140040D01*
X162260Y139932D01*
X162240Y139825D01*
X162217Y139718D01*
X162189Y139613D01*
X162158Y139509D01*
X162123Y139405D01*
X162084Y139303D01*
X162042Y139203D01*
X161996Y139104D01*
X161947Y139007D01*
X161894Y138912D01*
X161837Y138819D01*
X161777Y138728D01*
X161714Y138639D01*
X161648Y138553D01*
X161579Y138469D01*
X161506Y138387D01*
X161431Y138308D01*
X161353Y138232D01*
X161272Y138159D01*
X161189Y138089D01*
X161103Y138022D01*
X161015Y137958D01*
X160924Y137898D01*
X160831Y137840D01*
X160737Y137786D01*
X160640Y137736D01*
X160542Y137689D01*
X160442Y137646D01*
X160340Y137606D01*
X160237Y137570D01*
X160133Y137538D01*
X160028Y137510D01*
X159922Y137485D01*
X159815Y137465D01*
X159707Y137448D01*
X159599Y137435D01*
X159491Y137426D01*
X159382Y137421D01*
X159273Y137420D01*
X159164Y137423D01*
X159055Y137430D01*
X158947Y137441D01*
X158839Y137456D01*
X158731Y137474D01*
X158625Y137497D01*
X158519Y137523D01*
X158414Y137554D01*
X158311Y137588D01*
X158209Y137625D01*
X158108Y137667D01*
X158009Y137712D01*
X157911Y137761D01*
X157816Y137813D01*
X157722Y137869D01*
X157630Y137927D01*
X157541Y137990D01*
X157454Y138055D01*
X157369Y138124D01*
X157287Y138195D01*
X157208Y138270D01*
X157131Y138347D01*
X157057Y138427D01*
X156986Y138510D01*
X156919Y138596D01*
X156854Y138683D01*
X156792Y138773D01*
X156734Y138865D01*
X156680Y138959D01*
X156628Y139056D01*
X156580Y139154D01*
X156536Y139253D01*
X156496Y139354D01*
X156459Y139457D01*
X156426Y139561D01*
X156396Y139665D01*
X156371Y139771D01*
X156349Y139878D01*
X156332Y139986D01*
X156318Y140094D01*
X156308Y140202D01*
X156302Y140311D01*
X156300Y140420D01*
D15*
X47410Y183662D02*
X46605Y182857D01*
X46605Y181247D01*
X47410Y180442D01*
X48215Y180442D01*
X49020Y181247D01*
X49020Y182857D01*
X49825Y183662D01*
X50630Y183662D01*
X51435Y182857D01*
X51435Y181247D01*
X50630Y180442D01*
X51435Y186055D02*
X51435Y189275D01*
X51435Y186055D02*
X48215Y189275D01*
X47410Y189275D01*
X46605Y188470D01*
X46605Y186860D01*
X47410Y186055D01*
D12*
X818680Y125420D02*
X828680Y125420D01*
X808680Y135420D02*
X808680Y235420D01*
X818680Y245420D02*
X828680Y245420D01*
X858680Y245420D02*
X878680Y245420D01*
X908680Y245420D02*
X918680Y245420D01*
X928680Y235420D02*
X928680Y135420D01*
X918680Y125420D02*
X908680Y125420D01*
X878680Y125420D02*
X858680Y125420D01*
X918680Y125420D02*
X928680Y135420D01*
X928680Y235420D02*
X918680Y245420D01*
X818680Y245420D02*
X808680Y235420D01*
X808680Y135420D02*
X818680Y125420D01*
X833680Y185420D02*
X833691Y186279D01*
X833722Y187137D01*
X833775Y187995D01*
X833849Y188851D01*
X833943Y189704D01*
X834059Y190556D01*
X834195Y191404D01*
X834353Y192248D01*
X834530Y193089D01*
X834729Y193924D01*
X834948Y194755D01*
X835187Y195580D01*
X835447Y196399D01*
X835726Y197211D01*
X836025Y198016D01*
X836344Y198814D01*
X836683Y199603D01*
X837040Y200384D01*
X837417Y201156D01*
X837813Y201919D01*
X838227Y202671D01*
X838659Y203414D01*
X839110Y204145D01*
X839579Y204865D01*
X840065Y205573D01*
X840568Y206269D01*
X841088Y206953D01*
X841625Y207624D01*
X842178Y208281D01*
X842747Y208925D01*
X843331Y209554D01*
X843931Y210169D01*
X844546Y210769D01*
X845175Y211353D01*
X845819Y211922D01*
X846476Y212475D01*
X847147Y213012D01*
X847831Y213532D01*
X848527Y214035D01*
X849235Y214521D01*
X849955Y214990D01*
X850686Y215441D01*
X851429Y215873D01*
X852181Y216287D01*
X852944Y216683D01*
X853716Y217060D01*
X854497Y217417D01*
X855286Y217756D01*
X856084Y218075D01*
X856889Y218374D01*
X857701Y218653D01*
X858520Y218913D01*
X859345Y219152D01*
X860176Y219371D01*
X861011Y219570D01*
X861852Y219747D01*
X862696Y219905D01*
X863544Y220041D01*
X864396Y220157D01*
X865249Y220251D01*
X866105Y220325D01*
X866963Y220378D01*
X867821Y220409D01*
X868680Y220420D01*
X869539Y220409D01*
X870397Y220378D01*
X871255Y220325D01*
X872111Y220251D01*
X872964Y220157D01*
X873816Y220041D01*
X874664Y219905D01*
X875508Y219747D01*
X876349Y219570D01*
X877184Y219371D01*
X878015Y219152D01*
X878840Y218913D01*
X879659Y218653D01*
X880471Y218374D01*
X881276Y218075D01*
X882074Y217756D01*
X882863Y217417D01*
X883644Y217060D01*
X884416Y216683D01*
X885179Y216287D01*
X885931Y215873D01*
X886674Y215441D01*
X887405Y214990D01*
X888125Y214521D01*
X888833Y214035D01*
X889529Y213532D01*
X890213Y213012D01*
X890884Y212475D01*
X891541Y211922D01*
X892185Y211353D01*
X892814Y210769D01*
X893429Y210169D01*
X894029Y209554D01*
X894613Y208925D01*
X895182Y208281D01*
X895735Y207624D01*
X896272Y206953D01*
X896792Y206269D01*
X897295Y205573D01*
X897781Y204865D01*
X898250Y204145D01*
X898701Y203414D01*
X899133Y202671D01*
X899547Y201919D01*
X899943Y201156D01*
X900320Y200384D01*
X900677Y199603D01*
X901016Y198814D01*
X901335Y198016D01*
X901634Y197211D01*
X901913Y196399D01*
X902173Y195580D01*
X902412Y194755D01*
X902631Y193924D01*
X902830Y193089D01*
X903007Y192248D01*
X903165Y191404D01*
X903301Y190556D01*
X903417Y189704D01*
X903511Y188851D01*
X903585Y187995D01*
X903638Y187137D01*
X903669Y186279D01*
X903680Y185420D01*
X903669Y184561D01*
X903638Y183703D01*
X903585Y182845D01*
X903511Y181989D01*
X903417Y181136D01*
X903301Y180284D01*
X903165Y179436D01*
X903007Y178592D01*
X902830Y177751D01*
X902631Y176916D01*
X902412Y176085D01*
X902173Y175260D01*
X901913Y174441D01*
X901634Y173629D01*
X901335Y172824D01*
X901016Y172026D01*
X900677Y171237D01*
X900320Y170456D01*
X899943Y169684D01*
X899547Y168921D01*
X899133Y168169D01*
X898701Y167426D01*
X898250Y166695D01*
X897781Y165975D01*
X897295Y165267D01*
X896792Y164571D01*
X896272Y163887D01*
X895735Y163216D01*
X895182Y162559D01*
X894613Y161915D01*
X894029Y161286D01*
X893429Y160671D01*
X892814Y160071D01*
X892185Y159487D01*
X891541Y158918D01*
X890884Y158365D01*
X890213Y157828D01*
X889529Y157308D01*
X888833Y156805D01*
X888125Y156319D01*
X887405Y155850D01*
X886674Y155399D01*
X885931Y154967D01*
X885179Y154553D01*
X884416Y154157D01*
X883644Y153780D01*
X882863Y153423D01*
X882074Y153084D01*
X881276Y152765D01*
X880471Y152466D01*
X879659Y152187D01*
X878840Y151927D01*
X878015Y151688D01*
X877184Y151469D01*
X876349Y151270D01*
X875508Y151093D01*
X874664Y150935D01*
X873816Y150799D01*
X872964Y150683D01*
X872111Y150589D01*
X871255Y150515D01*
X870397Y150462D01*
X869539Y150431D01*
X868680Y150420D01*
X867821Y150431D01*
X866963Y150462D01*
X866105Y150515D01*
X865249Y150589D01*
X864396Y150683D01*
X863544Y150799D01*
X862696Y150935D01*
X861852Y151093D01*
X861011Y151270D01*
X860176Y151469D01*
X859345Y151688D01*
X858520Y151927D01*
X857701Y152187D01*
X856889Y152466D01*
X856084Y152765D01*
X855286Y153084D01*
X854497Y153423D01*
X853716Y153780D01*
X852944Y154157D01*
X852181Y154553D01*
X851429Y154967D01*
X850686Y155399D01*
X849955Y155850D01*
X849235Y156319D01*
X848527Y156805D01*
X847831Y157308D01*
X847147Y157828D01*
X846476Y158365D01*
X845819Y158918D01*
X845175Y159487D01*
X844546Y160071D01*
X843931Y160671D01*
X843331Y161286D01*
X842747Y161915D01*
X842178Y162559D01*
X841625Y163216D01*
X841088Y163887D01*
X840568Y164571D01*
X840065Y165267D01*
X839579Y165975D01*
X839110Y166695D01*
X838659Y167426D01*
X838227Y168169D01*
X837813Y168921D01*
X837417Y169684D01*
X837040Y170456D01*
X836683Y171237D01*
X836344Y172026D01*
X836025Y172824D01*
X835726Y173629D01*
X835447Y174441D01*
X835187Y175260D01*
X834948Y176085D01*
X834729Y176916D01*
X834530Y177751D01*
X834353Y178592D01*
X834195Y179436D01*
X834059Y180284D01*
X833943Y181136D01*
X833849Y181989D01*
X833775Y182845D01*
X833722Y183703D01*
X833691Y184561D01*
X833680Y185420D01*
D18*
X820680Y140420D02*
X820682Y140529D01*
X820688Y140638D01*
X820698Y140746D01*
X820712Y140854D01*
X820729Y140962D01*
X820751Y141069D01*
X820776Y141175D01*
X820806Y141279D01*
X820839Y141383D01*
X820876Y141486D01*
X820916Y141587D01*
X820960Y141686D01*
X821008Y141784D01*
X821060Y141881D01*
X821114Y141975D01*
X821172Y142067D01*
X821234Y142157D01*
X821299Y142244D01*
X821366Y142330D01*
X821437Y142413D01*
X821511Y142493D01*
X821588Y142570D01*
X821667Y142645D01*
X821749Y142716D01*
X821834Y142785D01*
X821921Y142850D01*
X822010Y142913D01*
X822102Y142971D01*
X822196Y143027D01*
X822291Y143079D01*
X822389Y143128D01*
X822488Y143173D01*
X822589Y143215D01*
X822691Y143252D01*
X822794Y143286D01*
X822899Y143317D01*
X823005Y143343D01*
X823111Y143366D01*
X823219Y143384D01*
X823327Y143399D01*
X823435Y143410D01*
X823544Y143417D01*
X823653Y143420D01*
X823762Y143419D01*
X823871Y143414D01*
X823979Y143405D01*
X824087Y143392D01*
X824195Y143375D01*
X824302Y143355D01*
X824408Y143330D01*
X824513Y143302D01*
X824617Y143270D01*
X824720Y143234D01*
X824822Y143194D01*
X824922Y143151D01*
X825020Y143104D01*
X825117Y143054D01*
X825211Y143000D01*
X825304Y142942D01*
X825395Y142882D01*
X825483Y142818D01*
X825569Y142751D01*
X825652Y142681D01*
X825733Y142608D01*
X825811Y142532D01*
X825886Y142453D01*
X825959Y142371D01*
X826028Y142287D01*
X826094Y142201D01*
X826157Y142112D01*
X826217Y142021D01*
X826274Y141928D01*
X826327Y141833D01*
X826376Y141736D01*
X826422Y141637D01*
X826464Y141537D01*
X826503Y141435D01*
X826538Y141331D01*
X826569Y141227D01*
X826597Y141122D01*
X826620Y141015D01*
X826640Y140908D01*
X826656Y140800D01*
X826668Y140692D01*
X826676Y140583D01*
X826680Y140474D01*
X826680Y140366D01*
X826676Y140257D01*
X826668Y140148D01*
X826656Y140040D01*
X826640Y139932D01*
X826620Y139825D01*
X826597Y139718D01*
X826569Y139613D01*
X826538Y139509D01*
X826503Y139405D01*
X826464Y139303D01*
X826422Y139203D01*
X826376Y139104D01*
X826327Y139007D01*
X826274Y138912D01*
X826217Y138819D01*
X826157Y138728D01*
X826094Y138639D01*
X826028Y138553D01*
X825959Y138469D01*
X825886Y138387D01*
X825811Y138308D01*
X825733Y138232D01*
X825652Y138159D01*
X825569Y138089D01*
X825483Y138022D01*
X825395Y137958D01*
X825304Y137898D01*
X825211Y137840D01*
X825117Y137786D01*
X825020Y137736D01*
X824922Y137689D01*
X824822Y137646D01*
X824720Y137606D01*
X824617Y137570D01*
X824513Y137538D01*
X824408Y137510D01*
X824302Y137485D01*
X824195Y137465D01*
X824087Y137448D01*
X823979Y137435D01*
X823871Y137426D01*
X823762Y137421D01*
X823653Y137420D01*
X823544Y137423D01*
X823435Y137430D01*
X823327Y137441D01*
X823219Y137456D01*
X823111Y137474D01*
X823005Y137497D01*
X822899Y137523D01*
X822794Y137554D01*
X822691Y137588D01*
X822589Y137625D01*
X822488Y137667D01*
X822389Y137712D01*
X822291Y137761D01*
X822196Y137813D01*
X822102Y137869D01*
X822010Y137927D01*
X821921Y137990D01*
X821834Y138055D01*
X821749Y138124D01*
X821667Y138195D01*
X821588Y138270D01*
X821511Y138347D01*
X821437Y138427D01*
X821366Y138510D01*
X821299Y138596D01*
X821234Y138683D01*
X821172Y138773D01*
X821114Y138865D01*
X821060Y138959D01*
X821008Y139056D01*
X820960Y139154D01*
X820916Y139253D01*
X820876Y139354D01*
X820839Y139457D01*
X820806Y139561D01*
X820776Y139665D01*
X820751Y139771D01*
X820729Y139878D01*
X820712Y139986D01*
X820698Y140094D01*
X820688Y140202D01*
X820682Y140311D01*
X820680Y140420D01*
X820680Y230420D02*
X820682Y230529D01*
X820688Y230638D01*
X820698Y230746D01*
X820712Y230854D01*
X820729Y230962D01*
X820751Y231069D01*
X820776Y231175D01*
X820806Y231279D01*
X820839Y231383D01*
X820876Y231486D01*
X820916Y231587D01*
X820960Y231686D01*
X821008Y231784D01*
X821060Y231881D01*
X821114Y231975D01*
X821172Y232067D01*
X821234Y232157D01*
X821299Y232244D01*
X821366Y232330D01*
X821437Y232413D01*
X821511Y232493D01*
X821588Y232570D01*
X821667Y232645D01*
X821749Y232716D01*
X821834Y232785D01*
X821921Y232850D01*
X822010Y232913D01*
X822102Y232971D01*
X822196Y233027D01*
X822291Y233079D01*
X822389Y233128D01*
X822488Y233173D01*
X822589Y233215D01*
X822691Y233252D01*
X822794Y233286D01*
X822899Y233317D01*
X823005Y233343D01*
X823111Y233366D01*
X823219Y233384D01*
X823327Y233399D01*
X823435Y233410D01*
X823544Y233417D01*
X823653Y233420D01*
X823762Y233419D01*
X823871Y233414D01*
X823979Y233405D01*
X824087Y233392D01*
X824195Y233375D01*
X824302Y233355D01*
X824408Y233330D01*
X824513Y233302D01*
X824617Y233270D01*
X824720Y233234D01*
X824822Y233194D01*
X824922Y233151D01*
X825020Y233104D01*
X825117Y233054D01*
X825211Y233000D01*
X825304Y232942D01*
X825395Y232882D01*
X825483Y232818D01*
X825569Y232751D01*
X825652Y232681D01*
X825733Y232608D01*
X825811Y232532D01*
X825886Y232453D01*
X825959Y232371D01*
X826028Y232287D01*
X826094Y232201D01*
X826157Y232112D01*
X826217Y232021D01*
X826274Y231928D01*
X826327Y231833D01*
X826376Y231736D01*
X826422Y231637D01*
X826464Y231537D01*
X826503Y231435D01*
X826538Y231331D01*
X826569Y231227D01*
X826597Y231122D01*
X826620Y231015D01*
X826640Y230908D01*
X826656Y230800D01*
X826668Y230692D01*
X826676Y230583D01*
X826680Y230474D01*
X826680Y230366D01*
X826676Y230257D01*
X826668Y230148D01*
X826656Y230040D01*
X826640Y229932D01*
X826620Y229825D01*
X826597Y229718D01*
X826569Y229613D01*
X826538Y229509D01*
X826503Y229405D01*
X826464Y229303D01*
X826422Y229203D01*
X826376Y229104D01*
X826327Y229007D01*
X826274Y228912D01*
X826217Y228819D01*
X826157Y228728D01*
X826094Y228639D01*
X826028Y228553D01*
X825959Y228469D01*
X825886Y228387D01*
X825811Y228308D01*
X825733Y228232D01*
X825652Y228159D01*
X825569Y228089D01*
X825483Y228022D01*
X825395Y227958D01*
X825304Y227898D01*
X825211Y227840D01*
X825117Y227786D01*
X825020Y227736D01*
X824922Y227689D01*
X824822Y227646D01*
X824720Y227606D01*
X824617Y227570D01*
X824513Y227538D01*
X824408Y227510D01*
X824302Y227485D01*
X824195Y227465D01*
X824087Y227448D01*
X823979Y227435D01*
X823871Y227426D01*
X823762Y227421D01*
X823653Y227420D01*
X823544Y227423D01*
X823435Y227430D01*
X823327Y227441D01*
X823219Y227456D01*
X823111Y227474D01*
X823005Y227497D01*
X822899Y227523D01*
X822794Y227554D01*
X822691Y227588D01*
X822589Y227625D01*
X822488Y227667D01*
X822389Y227712D01*
X822291Y227761D01*
X822196Y227813D01*
X822102Y227869D01*
X822010Y227927D01*
X821921Y227990D01*
X821834Y228055D01*
X821749Y228124D01*
X821667Y228195D01*
X821588Y228270D01*
X821511Y228347D01*
X821437Y228427D01*
X821366Y228510D01*
X821299Y228596D01*
X821234Y228683D01*
X821172Y228773D01*
X821114Y228865D01*
X821060Y228959D01*
X821008Y229056D01*
X820960Y229154D01*
X820916Y229253D01*
X820876Y229354D01*
X820839Y229457D01*
X820806Y229561D01*
X820776Y229665D01*
X820751Y229771D01*
X820729Y229878D01*
X820712Y229986D01*
X820698Y230094D01*
X820688Y230202D01*
X820682Y230311D01*
X820680Y230420D01*
X910680Y230420D02*
X910682Y230529D01*
X910688Y230638D01*
X910698Y230746D01*
X910712Y230854D01*
X910729Y230962D01*
X910751Y231069D01*
X910776Y231175D01*
X910806Y231279D01*
X910839Y231383D01*
X910876Y231486D01*
X910916Y231587D01*
X910960Y231686D01*
X911008Y231784D01*
X911060Y231881D01*
X911114Y231975D01*
X911172Y232067D01*
X911234Y232157D01*
X911299Y232244D01*
X911366Y232330D01*
X911437Y232413D01*
X911511Y232493D01*
X911588Y232570D01*
X911667Y232645D01*
X911749Y232716D01*
X911834Y232785D01*
X911921Y232850D01*
X912010Y232913D01*
X912102Y232971D01*
X912196Y233027D01*
X912291Y233079D01*
X912389Y233128D01*
X912488Y233173D01*
X912589Y233215D01*
X912691Y233252D01*
X912794Y233286D01*
X912899Y233317D01*
X913005Y233343D01*
X913111Y233366D01*
X913219Y233384D01*
X913327Y233399D01*
X913435Y233410D01*
X913544Y233417D01*
X913653Y233420D01*
X913762Y233419D01*
X913871Y233414D01*
X913979Y233405D01*
X914087Y233392D01*
X914195Y233375D01*
X914302Y233355D01*
X914408Y233330D01*
X914513Y233302D01*
X914617Y233270D01*
X914720Y233234D01*
X914822Y233194D01*
X914922Y233151D01*
X915020Y233104D01*
X915117Y233054D01*
X915211Y233000D01*
X915304Y232942D01*
X915395Y232882D01*
X915483Y232818D01*
X915569Y232751D01*
X915652Y232681D01*
X915733Y232608D01*
X915811Y232532D01*
X915886Y232453D01*
X915959Y232371D01*
X916028Y232287D01*
X916094Y232201D01*
X916157Y232112D01*
X916217Y232021D01*
X916274Y231928D01*
X916327Y231833D01*
X916376Y231736D01*
X916422Y231637D01*
X916464Y231537D01*
X916503Y231435D01*
X916538Y231331D01*
X916569Y231227D01*
X916597Y231122D01*
X916620Y231015D01*
X916640Y230908D01*
X916656Y230800D01*
X916668Y230692D01*
X916676Y230583D01*
X916680Y230474D01*
X916680Y230366D01*
X916676Y230257D01*
X916668Y230148D01*
X916656Y230040D01*
X916640Y229932D01*
X916620Y229825D01*
X916597Y229718D01*
X916569Y229613D01*
X916538Y229509D01*
X916503Y229405D01*
X916464Y229303D01*
X916422Y229203D01*
X916376Y229104D01*
X916327Y229007D01*
X916274Y228912D01*
X916217Y228819D01*
X916157Y228728D01*
X916094Y228639D01*
X916028Y228553D01*
X915959Y228469D01*
X915886Y228387D01*
X915811Y228308D01*
X915733Y228232D01*
X915652Y228159D01*
X915569Y228089D01*
X915483Y228022D01*
X915395Y227958D01*
X915304Y227898D01*
X915211Y227840D01*
X915117Y227786D01*
X915020Y227736D01*
X914922Y227689D01*
X914822Y227646D01*
X914720Y227606D01*
X914617Y227570D01*
X914513Y227538D01*
X914408Y227510D01*
X914302Y227485D01*
X914195Y227465D01*
X914087Y227448D01*
X913979Y227435D01*
X913871Y227426D01*
X913762Y227421D01*
X913653Y227420D01*
X913544Y227423D01*
X913435Y227430D01*
X913327Y227441D01*
X913219Y227456D01*
X913111Y227474D01*
X913005Y227497D01*
X912899Y227523D01*
X912794Y227554D01*
X912691Y227588D01*
X912589Y227625D01*
X912488Y227667D01*
X912389Y227712D01*
X912291Y227761D01*
X912196Y227813D01*
X912102Y227869D01*
X912010Y227927D01*
X911921Y227990D01*
X911834Y228055D01*
X911749Y228124D01*
X911667Y228195D01*
X911588Y228270D01*
X911511Y228347D01*
X911437Y228427D01*
X911366Y228510D01*
X911299Y228596D01*
X911234Y228683D01*
X911172Y228773D01*
X911114Y228865D01*
X911060Y228959D01*
X911008Y229056D01*
X910960Y229154D01*
X910916Y229253D01*
X910876Y229354D01*
X910839Y229457D01*
X910806Y229561D01*
X910776Y229665D01*
X910751Y229771D01*
X910729Y229878D01*
X910712Y229986D01*
X910698Y230094D01*
X910688Y230202D01*
X910682Y230311D01*
X910680Y230420D01*
X910680Y140420D02*
X910682Y140529D01*
X910688Y140638D01*
X910698Y140746D01*
X910712Y140854D01*
X910729Y140962D01*
X910751Y141069D01*
X910776Y141175D01*
X910806Y141279D01*
X910839Y141383D01*
X910876Y141486D01*
X910916Y141587D01*
X910960Y141686D01*
X911008Y141784D01*
X911060Y141881D01*
X911114Y141975D01*
X911172Y142067D01*
X911234Y142157D01*
X911299Y142244D01*
X911366Y142330D01*
X911437Y142413D01*
X911511Y142493D01*
X911588Y142570D01*
X911667Y142645D01*
X911749Y142716D01*
X911834Y142785D01*
X911921Y142850D01*
X912010Y142913D01*
X912102Y142971D01*
X912196Y143027D01*
X912291Y143079D01*
X912389Y143128D01*
X912488Y143173D01*
X912589Y143215D01*
X912691Y143252D01*
X912794Y143286D01*
X912899Y143317D01*
X913005Y143343D01*
X913111Y143366D01*
X913219Y143384D01*
X913327Y143399D01*
X913435Y143410D01*
X913544Y143417D01*
X913653Y143420D01*
X913762Y143419D01*
X913871Y143414D01*
X913979Y143405D01*
X914087Y143392D01*
X914195Y143375D01*
X914302Y143355D01*
X914408Y143330D01*
X914513Y143302D01*
X914617Y143270D01*
X914720Y143234D01*
X914822Y143194D01*
X914922Y143151D01*
X915020Y143104D01*
X915117Y143054D01*
X915211Y143000D01*
X915304Y142942D01*
X915395Y142882D01*
X915483Y142818D01*
X915569Y142751D01*
X915652Y142681D01*
X915733Y142608D01*
X915811Y142532D01*
X915886Y142453D01*
X915959Y142371D01*
X916028Y142287D01*
X916094Y142201D01*
X916157Y142112D01*
X916217Y142021D01*
X916274Y141928D01*
X916327Y141833D01*
X916376Y141736D01*
X916422Y141637D01*
X916464Y141537D01*
X916503Y141435D01*
X916538Y141331D01*
X916569Y141227D01*
X916597Y141122D01*
X916620Y141015D01*
X916640Y140908D01*
X916656Y140800D01*
X916668Y140692D01*
X916676Y140583D01*
X916680Y140474D01*
X916680Y140366D01*
X916676Y140257D01*
X916668Y140148D01*
X916656Y140040D01*
X916640Y139932D01*
X916620Y139825D01*
X916597Y139718D01*
X916569Y139613D01*
X916538Y139509D01*
X916503Y139405D01*
X916464Y139303D01*
X916422Y139203D01*
X916376Y139104D01*
X916327Y139007D01*
X916274Y138912D01*
X916217Y138819D01*
X916157Y138728D01*
X916094Y138639D01*
X916028Y138553D01*
X915959Y138469D01*
X915886Y138387D01*
X915811Y138308D01*
X915733Y138232D01*
X915652Y138159D01*
X915569Y138089D01*
X915483Y138022D01*
X915395Y137958D01*
X915304Y137898D01*
X915211Y137840D01*
X915117Y137786D01*
X915020Y137736D01*
X914922Y137689D01*
X914822Y137646D01*
X914720Y137606D01*
X914617Y137570D01*
X914513Y137538D01*
X914408Y137510D01*
X914302Y137485D01*
X914195Y137465D01*
X914087Y137448D01*
X913979Y137435D01*
X913871Y137426D01*
X913762Y137421D01*
X913653Y137420D01*
X913544Y137423D01*
X913435Y137430D01*
X913327Y137441D01*
X913219Y137456D01*
X913111Y137474D01*
X913005Y137497D01*
X912899Y137523D01*
X912794Y137554D01*
X912691Y137588D01*
X912589Y137625D01*
X912488Y137667D01*
X912389Y137712D01*
X912291Y137761D01*
X912196Y137813D01*
X912102Y137869D01*
X912010Y137927D01*
X911921Y137990D01*
X911834Y138055D01*
X911749Y138124D01*
X911667Y138195D01*
X911588Y138270D01*
X911511Y138347D01*
X911437Y138427D01*
X911366Y138510D01*
X911299Y138596D01*
X911234Y138683D01*
X911172Y138773D01*
X911114Y138865D01*
X911060Y138959D01*
X911008Y139056D01*
X910960Y139154D01*
X910916Y139253D01*
X910876Y139354D01*
X910839Y139457D01*
X910806Y139561D01*
X910776Y139665D01*
X910751Y139771D01*
X910729Y139878D01*
X910712Y139986D01*
X910698Y140094D01*
X910688Y140202D01*
X910682Y140311D01*
X910680Y140420D01*
D15*
X801790Y183662D02*
X800985Y182857D01*
X800985Y181247D01*
X801790Y180442D01*
X802595Y180442D01*
X803400Y181247D01*
X803400Y182857D01*
X804205Y183662D01*
X805010Y183662D01*
X805815Y182857D01*
X805815Y181247D01*
X805010Y180442D01*
X801790Y186055D02*
X800985Y186860D01*
X800985Y188470D01*
X801790Y189275D01*
X802595Y189275D01*
X803400Y188470D01*
X803400Y187665D01*
X803400Y188470D02*
X804205Y189275D01*
X805010Y189275D01*
X805815Y188470D01*
X805815Y186860D01*
X805010Y186055D01*
D12*
X419740Y125420D02*
X409740Y125420D01*
X399740Y135420D02*
X399740Y235420D01*
X409740Y245420D02*
X419740Y245420D01*
X449740Y245420D02*
X469740Y245420D01*
X499740Y245420D02*
X509740Y245420D01*
X519740Y235420D02*
X519740Y135420D01*
X509740Y125420D02*
X499740Y125420D01*
X469740Y125420D02*
X449740Y125420D01*
X509740Y125420D02*
X519740Y135420D01*
X519740Y235420D02*
X509740Y245420D01*
X409740Y245420D02*
X399740Y235420D01*
X399740Y135420D02*
X409740Y125420D01*
X424740Y185420D02*
X424751Y186279D01*
X424782Y187137D01*
X424835Y187995D01*
X424909Y188851D01*
X425003Y189704D01*
X425119Y190556D01*
X425255Y191404D01*
X425413Y192248D01*
X425590Y193089D01*
X425789Y193924D01*
X426008Y194755D01*
X426247Y195580D01*
X426507Y196399D01*
X426786Y197211D01*
X427085Y198016D01*
X427404Y198814D01*
X427743Y199603D01*
X428100Y200384D01*
X428477Y201156D01*
X428873Y201919D01*
X429287Y202671D01*
X429719Y203414D01*
X430170Y204145D01*
X430639Y204865D01*
X431125Y205573D01*
X431628Y206269D01*
X432148Y206953D01*
X432685Y207624D01*
X433238Y208281D01*
X433807Y208925D01*
X434391Y209554D01*
X434991Y210169D01*
X435606Y210769D01*
X436235Y211353D01*
X436879Y211922D01*
X437536Y212475D01*
X438207Y213012D01*
X438891Y213532D01*
X439587Y214035D01*
X440295Y214521D01*
X441015Y214990D01*
X441746Y215441D01*
X442489Y215873D01*
X443241Y216287D01*
X444004Y216683D01*
X444776Y217060D01*
X445557Y217417D01*
X446346Y217756D01*
X447144Y218075D01*
X447949Y218374D01*
X448761Y218653D01*
X449580Y218913D01*
X450405Y219152D01*
X451236Y219371D01*
X452071Y219570D01*
X452912Y219747D01*
X453756Y219905D01*
X454604Y220041D01*
X455456Y220157D01*
X456309Y220251D01*
X457165Y220325D01*
X458023Y220378D01*
X458881Y220409D01*
X459740Y220420D01*
X460599Y220409D01*
X461457Y220378D01*
X462315Y220325D01*
X463171Y220251D01*
X464024Y220157D01*
X464876Y220041D01*
X465724Y219905D01*
X466568Y219747D01*
X467409Y219570D01*
X468244Y219371D01*
X469075Y219152D01*
X469900Y218913D01*
X470719Y218653D01*
X471531Y218374D01*
X472336Y218075D01*
X473134Y217756D01*
X473923Y217417D01*
X474704Y217060D01*
X475476Y216683D01*
X476239Y216287D01*
X476991Y215873D01*
X477734Y215441D01*
X478465Y214990D01*
X479185Y214521D01*
X479893Y214035D01*
X480589Y213532D01*
X481273Y213012D01*
X481944Y212475D01*
X482601Y211922D01*
X483245Y211353D01*
X483874Y210769D01*
X484489Y210169D01*
X485089Y209554D01*
X485673Y208925D01*
X486242Y208281D01*
X486795Y207624D01*
X487332Y206953D01*
X487852Y206269D01*
X488355Y205573D01*
X488841Y204865D01*
X489310Y204145D01*
X489761Y203414D01*
X490193Y202671D01*
X490607Y201919D01*
X491003Y201156D01*
X491380Y200384D01*
X491737Y199603D01*
X492076Y198814D01*
X492395Y198016D01*
X492694Y197211D01*
X492973Y196399D01*
X493233Y195580D01*
X493472Y194755D01*
X493691Y193924D01*
X493890Y193089D01*
X494067Y192248D01*
X494225Y191404D01*
X494361Y190556D01*
X494477Y189704D01*
X494571Y188851D01*
X494645Y187995D01*
X494698Y187137D01*
X494729Y186279D01*
X494740Y185420D01*
X494729Y184561D01*
X494698Y183703D01*
X494645Y182845D01*
X494571Y181989D01*
X494477Y181136D01*
X494361Y180284D01*
X494225Y179436D01*
X494067Y178592D01*
X493890Y177751D01*
X493691Y176916D01*
X493472Y176085D01*
X493233Y175260D01*
X492973Y174441D01*
X492694Y173629D01*
X492395Y172824D01*
X492076Y172026D01*
X491737Y171237D01*
X491380Y170456D01*
X491003Y169684D01*
X490607Y168921D01*
X490193Y168169D01*
X489761Y167426D01*
X489310Y166695D01*
X488841Y165975D01*
X488355Y165267D01*
X487852Y164571D01*
X487332Y163887D01*
X486795Y163216D01*
X486242Y162559D01*
X485673Y161915D01*
X485089Y161286D01*
X484489Y160671D01*
X483874Y160071D01*
X483245Y159487D01*
X482601Y158918D01*
X481944Y158365D01*
X481273Y157828D01*
X480589Y157308D01*
X479893Y156805D01*
X479185Y156319D01*
X478465Y155850D01*
X477734Y155399D01*
X476991Y154967D01*
X476239Y154553D01*
X475476Y154157D01*
X474704Y153780D01*
X473923Y153423D01*
X473134Y153084D01*
X472336Y152765D01*
X471531Y152466D01*
X470719Y152187D01*
X469900Y151927D01*
X469075Y151688D01*
X468244Y151469D01*
X467409Y151270D01*
X466568Y151093D01*
X465724Y150935D01*
X464876Y150799D01*
X464024Y150683D01*
X463171Y150589D01*
X462315Y150515D01*
X461457Y150462D01*
X460599Y150431D01*
X459740Y150420D01*
X458881Y150431D01*
X458023Y150462D01*
X457165Y150515D01*
X456309Y150589D01*
X455456Y150683D01*
X454604Y150799D01*
X453756Y150935D01*
X452912Y151093D01*
X452071Y151270D01*
X451236Y151469D01*
X450405Y151688D01*
X449580Y151927D01*
X448761Y152187D01*
X447949Y152466D01*
X447144Y152765D01*
X446346Y153084D01*
X445557Y153423D01*
X444776Y153780D01*
X444004Y154157D01*
X443241Y154553D01*
X442489Y154967D01*
X441746Y155399D01*
X441015Y155850D01*
X440295Y156319D01*
X439587Y156805D01*
X438891Y157308D01*
X438207Y157828D01*
X437536Y158365D01*
X436879Y158918D01*
X436235Y159487D01*
X435606Y160071D01*
X434991Y160671D01*
X434391Y161286D01*
X433807Y161915D01*
X433238Y162559D01*
X432685Y163216D01*
X432148Y163887D01*
X431628Y164571D01*
X431125Y165267D01*
X430639Y165975D01*
X430170Y166695D01*
X429719Y167426D01*
X429287Y168169D01*
X428873Y168921D01*
X428477Y169684D01*
X428100Y170456D01*
X427743Y171237D01*
X427404Y172026D01*
X427085Y172824D01*
X426786Y173629D01*
X426507Y174441D01*
X426247Y175260D01*
X426008Y176085D01*
X425789Y176916D01*
X425590Y177751D01*
X425413Y178592D01*
X425255Y179436D01*
X425119Y180284D01*
X425003Y181136D01*
X424909Y181989D01*
X424835Y182845D01*
X424782Y183703D01*
X424751Y184561D01*
X424740Y185420D01*
D18*
X411740Y140420D02*
X411742Y140529D01*
X411748Y140638D01*
X411758Y140746D01*
X411772Y140854D01*
X411789Y140962D01*
X411811Y141069D01*
X411836Y141175D01*
X411866Y141279D01*
X411899Y141383D01*
X411936Y141486D01*
X411976Y141587D01*
X412020Y141686D01*
X412068Y141784D01*
X412120Y141881D01*
X412174Y141975D01*
X412232Y142067D01*
X412294Y142157D01*
X412359Y142244D01*
X412426Y142330D01*
X412497Y142413D01*
X412571Y142493D01*
X412648Y142570D01*
X412727Y142645D01*
X412809Y142716D01*
X412894Y142785D01*
X412981Y142850D01*
X413070Y142913D01*
X413162Y142971D01*
X413256Y143027D01*
X413351Y143079D01*
X413449Y143128D01*
X413548Y143173D01*
X413649Y143215D01*
X413751Y143252D01*
X413854Y143286D01*
X413959Y143317D01*
X414065Y143343D01*
X414171Y143366D01*
X414279Y143384D01*
X414387Y143399D01*
X414495Y143410D01*
X414604Y143417D01*
X414713Y143420D01*
X414822Y143419D01*
X414931Y143414D01*
X415039Y143405D01*
X415147Y143392D01*
X415255Y143375D01*
X415362Y143355D01*
X415468Y143330D01*
X415573Y143302D01*
X415677Y143270D01*
X415780Y143234D01*
X415882Y143194D01*
X415982Y143151D01*
X416080Y143104D01*
X416177Y143054D01*
X416271Y143000D01*
X416364Y142942D01*
X416455Y142882D01*
X416543Y142818D01*
X416629Y142751D01*
X416712Y142681D01*
X416793Y142608D01*
X416871Y142532D01*
X416946Y142453D01*
X417019Y142371D01*
X417088Y142287D01*
X417154Y142201D01*
X417217Y142112D01*
X417277Y142021D01*
X417334Y141928D01*
X417387Y141833D01*
X417436Y141736D01*
X417482Y141637D01*
X417524Y141537D01*
X417563Y141435D01*
X417598Y141331D01*
X417629Y141227D01*
X417657Y141122D01*
X417680Y141015D01*
X417700Y140908D01*
X417716Y140800D01*
X417728Y140692D01*
X417736Y140583D01*
X417740Y140474D01*
X417740Y140366D01*
X417736Y140257D01*
X417728Y140148D01*
X417716Y140040D01*
X417700Y139932D01*
X417680Y139825D01*
X417657Y139718D01*
X417629Y139613D01*
X417598Y139509D01*
X417563Y139405D01*
X417524Y139303D01*
X417482Y139203D01*
X417436Y139104D01*
X417387Y139007D01*
X417334Y138912D01*
X417277Y138819D01*
X417217Y138728D01*
X417154Y138639D01*
X417088Y138553D01*
X417019Y138469D01*
X416946Y138387D01*
X416871Y138308D01*
X416793Y138232D01*
X416712Y138159D01*
X416629Y138089D01*
X416543Y138022D01*
X416455Y137958D01*
X416364Y137898D01*
X416271Y137840D01*
X416177Y137786D01*
X416080Y137736D01*
X415982Y137689D01*
X415882Y137646D01*
X415780Y137606D01*
X415677Y137570D01*
X415573Y137538D01*
X415468Y137510D01*
X415362Y137485D01*
X415255Y137465D01*
X415147Y137448D01*
X415039Y137435D01*
X414931Y137426D01*
X414822Y137421D01*
X414713Y137420D01*
X414604Y137423D01*
X414495Y137430D01*
X414387Y137441D01*
X414279Y137456D01*
X414171Y137474D01*
X414065Y137497D01*
X413959Y137523D01*
X413854Y137554D01*
X413751Y137588D01*
X413649Y137625D01*
X413548Y137667D01*
X413449Y137712D01*
X413351Y137761D01*
X413256Y137813D01*
X413162Y137869D01*
X413070Y137927D01*
X412981Y137990D01*
X412894Y138055D01*
X412809Y138124D01*
X412727Y138195D01*
X412648Y138270D01*
X412571Y138347D01*
X412497Y138427D01*
X412426Y138510D01*
X412359Y138596D01*
X412294Y138683D01*
X412232Y138773D01*
X412174Y138865D01*
X412120Y138959D01*
X412068Y139056D01*
X412020Y139154D01*
X411976Y139253D01*
X411936Y139354D01*
X411899Y139457D01*
X411866Y139561D01*
X411836Y139665D01*
X411811Y139771D01*
X411789Y139878D01*
X411772Y139986D01*
X411758Y140094D01*
X411748Y140202D01*
X411742Y140311D01*
X411740Y140420D01*
X411740Y230420D02*
X411742Y230529D01*
X411748Y230638D01*
X411758Y230746D01*
X411772Y230854D01*
X411789Y230962D01*
X411811Y231069D01*
X411836Y231175D01*
X411866Y231279D01*
X411899Y231383D01*
X411936Y231486D01*
X411976Y231587D01*
X412020Y231686D01*
X412068Y231784D01*
X412120Y231881D01*
X412174Y231975D01*
X412232Y232067D01*
X412294Y232157D01*
X412359Y232244D01*
X412426Y232330D01*
X412497Y232413D01*
X412571Y232493D01*
X412648Y232570D01*
X412727Y232645D01*
X412809Y232716D01*
X412894Y232785D01*
X412981Y232850D01*
X413070Y232913D01*
X413162Y232971D01*
X413256Y233027D01*
X413351Y233079D01*
X413449Y233128D01*
X413548Y233173D01*
X413649Y233215D01*
X413751Y233252D01*
X413854Y233286D01*
X413959Y233317D01*
X414065Y233343D01*
X414171Y233366D01*
X414279Y233384D01*
X414387Y233399D01*
X414495Y233410D01*
X414604Y233417D01*
X414713Y233420D01*
X414822Y233419D01*
X414931Y233414D01*
X415039Y233405D01*
X415147Y233392D01*
X415255Y233375D01*
X415362Y233355D01*
X415468Y233330D01*
X415573Y233302D01*
X415677Y233270D01*
X415780Y233234D01*
X415882Y233194D01*
X415982Y233151D01*
X416080Y233104D01*
X416177Y233054D01*
X416271Y233000D01*
X416364Y232942D01*
X416455Y232882D01*
X416543Y232818D01*
X416629Y232751D01*
X416712Y232681D01*
X416793Y232608D01*
X416871Y232532D01*
X416946Y232453D01*
X417019Y232371D01*
X417088Y232287D01*
X417154Y232201D01*
X417217Y232112D01*
X417277Y232021D01*
X417334Y231928D01*
X417387Y231833D01*
X417436Y231736D01*
X417482Y231637D01*
X417524Y231537D01*
X417563Y231435D01*
X417598Y231331D01*
X417629Y231227D01*
X417657Y231122D01*
X417680Y231015D01*
X417700Y230908D01*
X417716Y230800D01*
X417728Y230692D01*
X417736Y230583D01*
X417740Y230474D01*
X417740Y230366D01*
X417736Y230257D01*
X417728Y230148D01*
X417716Y230040D01*
X417700Y229932D01*
X417680Y229825D01*
X417657Y229718D01*
X417629Y229613D01*
X417598Y229509D01*
X417563Y229405D01*
X417524Y229303D01*
X417482Y229203D01*
X417436Y229104D01*
X417387Y229007D01*
X417334Y228912D01*
X417277Y228819D01*
X417217Y228728D01*
X417154Y228639D01*
X417088Y228553D01*
X417019Y228469D01*
X416946Y228387D01*
X416871Y228308D01*
X416793Y228232D01*
X416712Y228159D01*
X416629Y228089D01*
X416543Y228022D01*
X416455Y227958D01*
X416364Y227898D01*
X416271Y227840D01*
X416177Y227786D01*
X416080Y227736D01*
X415982Y227689D01*
X415882Y227646D01*
X415780Y227606D01*
X415677Y227570D01*
X415573Y227538D01*
X415468Y227510D01*
X415362Y227485D01*
X415255Y227465D01*
X415147Y227448D01*
X415039Y227435D01*
X414931Y227426D01*
X414822Y227421D01*
X414713Y227420D01*
X414604Y227423D01*
X414495Y227430D01*
X414387Y227441D01*
X414279Y227456D01*
X414171Y227474D01*
X414065Y227497D01*
X413959Y227523D01*
X413854Y227554D01*
X413751Y227588D01*
X413649Y227625D01*
X413548Y227667D01*
X413449Y227712D01*
X413351Y227761D01*
X413256Y227813D01*
X413162Y227869D01*
X413070Y227927D01*
X412981Y227990D01*
X412894Y228055D01*
X412809Y228124D01*
X412727Y228195D01*
X412648Y228270D01*
X412571Y228347D01*
X412497Y228427D01*
X412426Y228510D01*
X412359Y228596D01*
X412294Y228683D01*
X412232Y228773D01*
X412174Y228865D01*
X412120Y228959D01*
X412068Y229056D01*
X412020Y229154D01*
X411976Y229253D01*
X411936Y229354D01*
X411899Y229457D01*
X411866Y229561D01*
X411836Y229665D01*
X411811Y229771D01*
X411789Y229878D01*
X411772Y229986D01*
X411758Y230094D01*
X411748Y230202D01*
X411742Y230311D01*
X411740Y230420D01*
X501740Y230420D02*
X501742Y230529D01*
X501748Y230638D01*
X501758Y230746D01*
X501772Y230854D01*
X501789Y230962D01*
X501811Y231069D01*
X501836Y231175D01*
X501866Y231279D01*
X501899Y231383D01*
X501936Y231486D01*
X501976Y231587D01*
X502020Y231686D01*
X502068Y231784D01*
X502120Y231881D01*
X502174Y231975D01*
X502232Y232067D01*
X502294Y232157D01*
X502359Y232244D01*
X502426Y232330D01*
X502497Y232413D01*
X502571Y232493D01*
X502648Y232570D01*
X502727Y232645D01*
X502809Y232716D01*
X502894Y232785D01*
X502981Y232850D01*
X503070Y232913D01*
X503162Y232971D01*
X503256Y233027D01*
X503351Y233079D01*
X503449Y233128D01*
X503548Y233173D01*
X503649Y233215D01*
X503751Y233252D01*
X503854Y233286D01*
X503959Y233317D01*
X504065Y233343D01*
X504171Y233366D01*
X504279Y233384D01*
X504387Y233399D01*
X504495Y233410D01*
X504604Y233417D01*
X504713Y233420D01*
X504822Y233419D01*
X504931Y233414D01*
X505039Y233405D01*
X505147Y233392D01*
X505255Y233375D01*
X505362Y233355D01*
X505468Y233330D01*
X505573Y233302D01*
X505677Y233270D01*
X505780Y233234D01*
X505882Y233194D01*
X505982Y233151D01*
X506080Y233104D01*
X506177Y233054D01*
X506271Y233000D01*
X506364Y232942D01*
X506455Y232882D01*
X506543Y232818D01*
X506629Y232751D01*
X506712Y232681D01*
X506793Y232608D01*
X506871Y232532D01*
X506946Y232453D01*
X507019Y232371D01*
X507088Y232287D01*
X507154Y232201D01*
X507217Y232112D01*
X507277Y232021D01*
X507334Y231928D01*
X507387Y231833D01*
X507436Y231736D01*
X507482Y231637D01*
X507524Y231537D01*
X507563Y231435D01*
X507598Y231331D01*
X507629Y231227D01*
X507657Y231122D01*
X507680Y231015D01*
X507700Y230908D01*
X507716Y230800D01*
X507728Y230692D01*
X507736Y230583D01*
X507740Y230474D01*
X507740Y230366D01*
X507736Y230257D01*
X507728Y230148D01*
X507716Y230040D01*
X507700Y229932D01*
X507680Y229825D01*
X507657Y229718D01*
X507629Y229613D01*
X507598Y229509D01*
X507563Y229405D01*
X507524Y229303D01*
X507482Y229203D01*
X507436Y229104D01*
X507387Y229007D01*
X507334Y228912D01*
X507277Y228819D01*
X507217Y228728D01*
X507154Y228639D01*
X507088Y228553D01*
X507019Y228469D01*
X506946Y228387D01*
X506871Y228308D01*
X506793Y228232D01*
X506712Y228159D01*
X506629Y228089D01*
X506543Y228022D01*
X506455Y227958D01*
X506364Y227898D01*
X506271Y227840D01*
X506177Y227786D01*
X506080Y227736D01*
X505982Y227689D01*
X505882Y227646D01*
X505780Y227606D01*
X505677Y227570D01*
X505573Y227538D01*
X505468Y227510D01*
X505362Y227485D01*
X505255Y227465D01*
X505147Y227448D01*
X505039Y227435D01*
X504931Y227426D01*
X504822Y227421D01*
X504713Y227420D01*
X504604Y227423D01*
X504495Y227430D01*
X504387Y227441D01*
X504279Y227456D01*
X504171Y227474D01*
X504065Y227497D01*
X503959Y227523D01*
X503854Y227554D01*
X503751Y227588D01*
X503649Y227625D01*
X503548Y227667D01*
X503449Y227712D01*
X503351Y227761D01*
X503256Y227813D01*
X503162Y227869D01*
X503070Y227927D01*
X502981Y227990D01*
X502894Y228055D01*
X502809Y228124D01*
X502727Y228195D01*
X502648Y228270D01*
X502571Y228347D01*
X502497Y228427D01*
X502426Y228510D01*
X502359Y228596D01*
X502294Y228683D01*
X502232Y228773D01*
X502174Y228865D01*
X502120Y228959D01*
X502068Y229056D01*
X502020Y229154D01*
X501976Y229253D01*
X501936Y229354D01*
X501899Y229457D01*
X501866Y229561D01*
X501836Y229665D01*
X501811Y229771D01*
X501789Y229878D01*
X501772Y229986D01*
X501758Y230094D01*
X501748Y230202D01*
X501742Y230311D01*
X501740Y230420D01*
X501740Y140420D02*
X501742Y140529D01*
X501748Y140638D01*
X501758Y140746D01*
X501772Y140854D01*
X501789Y140962D01*
X501811Y141069D01*
X501836Y141175D01*
X501866Y141279D01*
X501899Y141383D01*
X501936Y141486D01*
X501976Y141587D01*
X502020Y141686D01*
X502068Y141784D01*
X502120Y141881D01*
X502174Y141975D01*
X502232Y142067D01*
X502294Y142157D01*
X502359Y142244D01*
X502426Y142330D01*
X502497Y142413D01*
X502571Y142493D01*
X502648Y142570D01*
X502727Y142645D01*
X502809Y142716D01*
X502894Y142785D01*
X502981Y142850D01*
X503070Y142913D01*
X503162Y142971D01*
X503256Y143027D01*
X503351Y143079D01*
X503449Y143128D01*
X503548Y143173D01*
X503649Y143215D01*
X503751Y143252D01*
X503854Y143286D01*
X503959Y143317D01*
X504065Y143343D01*
X504171Y143366D01*
X504279Y143384D01*
X504387Y143399D01*
X504495Y143410D01*
X504604Y143417D01*
X504713Y143420D01*
X504822Y143419D01*
X504931Y143414D01*
X505039Y143405D01*
X505147Y143392D01*
X505255Y143375D01*
X505362Y143355D01*
X505468Y143330D01*
X505573Y143302D01*
X505677Y143270D01*
X505780Y143234D01*
X505882Y143194D01*
X505982Y143151D01*
X506080Y143104D01*
X506177Y143054D01*
X506271Y143000D01*
X506364Y142942D01*
X506455Y142882D01*
X506543Y142818D01*
X506629Y142751D01*
X506712Y142681D01*
X506793Y142608D01*
X506871Y142532D01*
X506946Y142453D01*
X507019Y142371D01*
X507088Y142287D01*
X507154Y142201D01*
X507217Y142112D01*
X507277Y142021D01*
X507334Y141928D01*
X507387Y141833D01*
X507436Y141736D01*
X507482Y141637D01*
X507524Y141537D01*
X507563Y141435D01*
X507598Y141331D01*
X507629Y141227D01*
X507657Y141122D01*
X507680Y141015D01*
X507700Y140908D01*
X507716Y140800D01*
X507728Y140692D01*
X507736Y140583D01*
X507740Y140474D01*
X507740Y140366D01*
X507736Y140257D01*
X507728Y140148D01*
X507716Y140040D01*
X507700Y139932D01*
X507680Y139825D01*
X507657Y139718D01*
X507629Y139613D01*
X507598Y139509D01*
X507563Y139405D01*
X507524Y139303D01*
X507482Y139203D01*
X507436Y139104D01*
X507387Y139007D01*
X507334Y138912D01*
X507277Y138819D01*
X507217Y138728D01*
X507154Y138639D01*
X507088Y138553D01*
X507019Y138469D01*
X506946Y138387D01*
X506871Y138308D01*
X506793Y138232D01*
X506712Y138159D01*
X506629Y138089D01*
X506543Y138022D01*
X506455Y137958D01*
X506364Y137898D01*
X506271Y137840D01*
X506177Y137786D01*
X506080Y137736D01*
X505982Y137689D01*
X505882Y137646D01*
X505780Y137606D01*
X505677Y137570D01*
X505573Y137538D01*
X505468Y137510D01*
X505362Y137485D01*
X505255Y137465D01*
X505147Y137448D01*
X505039Y137435D01*
X504931Y137426D01*
X504822Y137421D01*
X504713Y137420D01*
X504604Y137423D01*
X504495Y137430D01*
X504387Y137441D01*
X504279Y137456D01*
X504171Y137474D01*
X504065Y137497D01*
X503959Y137523D01*
X503854Y137554D01*
X503751Y137588D01*
X503649Y137625D01*
X503548Y137667D01*
X503449Y137712D01*
X503351Y137761D01*
X503256Y137813D01*
X503162Y137869D01*
X503070Y137927D01*
X502981Y137990D01*
X502894Y138055D01*
X502809Y138124D01*
X502727Y138195D01*
X502648Y138270D01*
X502571Y138347D01*
X502497Y138427D01*
X502426Y138510D01*
X502359Y138596D01*
X502294Y138683D01*
X502232Y138773D01*
X502174Y138865D01*
X502120Y138959D01*
X502068Y139056D01*
X502020Y139154D01*
X501976Y139253D01*
X501936Y139354D01*
X501899Y139457D01*
X501866Y139561D01*
X501836Y139665D01*
X501811Y139771D01*
X501789Y139878D01*
X501772Y139986D01*
X501758Y140094D01*
X501748Y140202D01*
X501742Y140311D01*
X501740Y140420D01*
D15*
X392850Y183662D02*
X392045Y182857D01*
X392045Y181247D01*
X392850Y180442D01*
X393655Y180442D01*
X394460Y181247D01*
X394460Y182857D01*
X395265Y183662D01*
X396070Y183662D01*
X396875Y182857D01*
X396875Y181247D01*
X396070Y180442D01*
X396875Y188470D02*
X392045Y188470D01*
X394460Y186055D01*
X394460Y189275D01*
D12*
X234320Y125420D02*
X224320Y125420D01*
X214320Y135420D02*
X214320Y235420D01*
X224320Y245420D02*
X234320Y245420D01*
X264320Y245420D02*
X284320Y245420D01*
X314320Y245420D02*
X324320Y245420D01*
X334320Y235420D02*
X334320Y135420D01*
X324320Y125420D02*
X314320Y125420D01*
X284320Y125420D02*
X264320Y125420D01*
X324320Y125420D02*
X334320Y135420D01*
X334320Y235420D02*
X324320Y245420D01*
X224320Y245420D02*
X214320Y235420D01*
X214320Y135420D02*
X224320Y125420D01*
X239320Y185420D02*
X239331Y186279D01*
X239362Y187137D01*
X239415Y187995D01*
X239489Y188851D01*
X239583Y189704D01*
X239699Y190556D01*
X239835Y191404D01*
X239993Y192248D01*
X240170Y193089D01*
X240369Y193924D01*
X240588Y194755D01*
X240827Y195580D01*
X241087Y196399D01*
X241366Y197211D01*
X241665Y198016D01*
X241984Y198814D01*
X242323Y199603D01*
X242680Y200384D01*
X243057Y201156D01*
X243453Y201919D01*
X243867Y202671D01*
X244299Y203414D01*
X244750Y204145D01*
X245219Y204865D01*
X245705Y205573D01*
X246208Y206269D01*
X246728Y206953D01*
X247265Y207624D01*
X247818Y208281D01*
X248387Y208925D01*
X248971Y209554D01*
X249571Y210169D01*
X250186Y210769D01*
X250815Y211353D01*
X251459Y211922D01*
X252116Y212475D01*
X252787Y213012D01*
X253471Y213532D01*
X254167Y214035D01*
X254875Y214521D01*
X255595Y214990D01*
X256326Y215441D01*
X257069Y215873D01*
X257821Y216287D01*
X258584Y216683D01*
X259356Y217060D01*
X260137Y217417D01*
X260926Y217756D01*
X261724Y218075D01*
X262529Y218374D01*
X263341Y218653D01*
X264160Y218913D01*
X264985Y219152D01*
X265816Y219371D01*
X266651Y219570D01*
X267492Y219747D01*
X268336Y219905D01*
X269184Y220041D01*
X270036Y220157D01*
X270889Y220251D01*
X271745Y220325D01*
X272603Y220378D01*
X273461Y220409D01*
X274320Y220420D01*
X275179Y220409D01*
X276037Y220378D01*
X276895Y220325D01*
X277751Y220251D01*
X278604Y220157D01*
X279456Y220041D01*
X280304Y219905D01*
X281148Y219747D01*
X281989Y219570D01*
X282824Y219371D01*
X283655Y219152D01*
X284480Y218913D01*
X285299Y218653D01*
X286111Y218374D01*
X286916Y218075D01*
X287714Y217756D01*
X288503Y217417D01*
X289284Y217060D01*
X290056Y216683D01*
X290819Y216287D01*
X291571Y215873D01*
X292314Y215441D01*
X293045Y214990D01*
X293765Y214521D01*
X294473Y214035D01*
X295169Y213532D01*
X295853Y213012D01*
X296524Y212475D01*
X297181Y211922D01*
X297825Y211353D01*
X298454Y210769D01*
X299069Y210169D01*
X299669Y209554D01*
X300253Y208925D01*
X300822Y208281D01*
X301375Y207624D01*
X301912Y206953D01*
X302432Y206269D01*
X302935Y205573D01*
X303421Y204865D01*
X303890Y204145D01*
X304341Y203414D01*
X304773Y202671D01*
X305187Y201919D01*
X305583Y201156D01*
X305960Y200384D01*
X306317Y199603D01*
X306656Y198814D01*
X306975Y198016D01*
X307274Y197211D01*
X307553Y196399D01*
X307813Y195580D01*
X308052Y194755D01*
X308271Y193924D01*
X308470Y193089D01*
X308647Y192248D01*
X308805Y191404D01*
X308941Y190556D01*
X309057Y189704D01*
X309151Y188851D01*
X309225Y187995D01*
X309278Y187137D01*
X309309Y186279D01*
X309320Y185420D01*
X309309Y184561D01*
X309278Y183703D01*
X309225Y182845D01*
X309151Y181989D01*
X309057Y181136D01*
X308941Y180284D01*
X308805Y179436D01*
X308647Y178592D01*
X308470Y177751D01*
X308271Y176916D01*
X308052Y176085D01*
X307813Y175260D01*
X307553Y174441D01*
X307274Y173629D01*
X306975Y172824D01*
X306656Y172026D01*
X306317Y171237D01*
X305960Y170456D01*
X305583Y169684D01*
X305187Y168921D01*
X304773Y168169D01*
X304341Y167426D01*
X303890Y166695D01*
X303421Y165975D01*
X302935Y165267D01*
X302432Y164571D01*
X301912Y163887D01*
X301375Y163216D01*
X300822Y162559D01*
X300253Y161915D01*
X299669Y161286D01*
X299069Y160671D01*
X298454Y160071D01*
X297825Y159487D01*
X297181Y158918D01*
X296524Y158365D01*
X295853Y157828D01*
X295169Y157308D01*
X294473Y156805D01*
X293765Y156319D01*
X293045Y155850D01*
X292314Y155399D01*
X291571Y154967D01*
X290819Y154553D01*
X290056Y154157D01*
X289284Y153780D01*
X288503Y153423D01*
X287714Y153084D01*
X286916Y152765D01*
X286111Y152466D01*
X285299Y152187D01*
X284480Y151927D01*
X283655Y151688D01*
X282824Y151469D01*
X281989Y151270D01*
X281148Y151093D01*
X280304Y150935D01*
X279456Y150799D01*
X278604Y150683D01*
X277751Y150589D01*
X276895Y150515D01*
X276037Y150462D01*
X275179Y150431D01*
X274320Y150420D01*
X273461Y150431D01*
X272603Y150462D01*
X271745Y150515D01*
X270889Y150589D01*
X270036Y150683D01*
X269184Y150799D01*
X268336Y150935D01*
X267492Y151093D01*
X266651Y151270D01*
X265816Y151469D01*
X264985Y151688D01*
X264160Y151927D01*
X263341Y152187D01*
X262529Y152466D01*
X261724Y152765D01*
X260926Y153084D01*
X260137Y153423D01*
X259356Y153780D01*
X258584Y154157D01*
X257821Y154553D01*
X257069Y154967D01*
X256326Y155399D01*
X255595Y155850D01*
X254875Y156319D01*
X254167Y156805D01*
X253471Y157308D01*
X252787Y157828D01*
X252116Y158365D01*
X251459Y158918D01*
X250815Y159487D01*
X250186Y160071D01*
X249571Y160671D01*
X248971Y161286D01*
X248387Y161915D01*
X247818Y162559D01*
X247265Y163216D01*
X246728Y163887D01*
X246208Y164571D01*
X245705Y165267D01*
X245219Y165975D01*
X244750Y166695D01*
X244299Y167426D01*
X243867Y168169D01*
X243453Y168921D01*
X243057Y169684D01*
X242680Y170456D01*
X242323Y171237D01*
X241984Y172026D01*
X241665Y172824D01*
X241366Y173629D01*
X241087Y174441D01*
X240827Y175260D01*
X240588Y176085D01*
X240369Y176916D01*
X240170Y177751D01*
X239993Y178592D01*
X239835Y179436D01*
X239699Y180284D01*
X239583Y181136D01*
X239489Y181989D01*
X239415Y182845D01*
X239362Y183703D01*
X239331Y184561D01*
X239320Y185420D01*
D18*
X226320Y140420D02*
X226322Y140529D01*
X226328Y140638D01*
X226338Y140746D01*
X226352Y140854D01*
X226369Y140962D01*
X226391Y141069D01*
X226416Y141175D01*
X226446Y141279D01*
X226479Y141383D01*
X226516Y141486D01*
X226556Y141587D01*
X226600Y141686D01*
X226648Y141784D01*
X226700Y141881D01*
X226754Y141975D01*
X226812Y142067D01*
X226874Y142157D01*
X226939Y142244D01*
X227006Y142330D01*
X227077Y142413D01*
X227151Y142493D01*
X227228Y142570D01*
X227307Y142645D01*
X227389Y142716D01*
X227474Y142785D01*
X227561Y142850D01*
X227650Y142913D01*
X227742Y142971D01*
X227836Y143027D01*
X227931Y143079D01*
X228029Y143128D01*
X228128Y143173D01*
X228229Y143215D01*
X228331Y143252D01*
X228434Y143286D01*
X228539Y143317D01*
X228645Y143343D01*
X228751Y143366D01*
X228859Y143384D01*
X228967Y143399D01*
X229075Y143410D01*
X229184Y143417D01*
X229293Y143420D01*
X229402Y143419D01*
X229511Y143414D01*
X229619Y143405D01*
X229727Y143392D01*
X229835Y143375D01*
X229942Y143355D01*
X230048Y143330D01*
X230153Y143302D01*
X230257Y143270D01*
X230360Y143234D01*
X230462Y143194D01*
X230562Y143151D01*
X230660Y143104D01*
X230757Y143054D01*
X230851Y143000D01*
X230944Y142942D01*
X231035Y142882D01*
X231123Y142818D01*
X231209Y142751D01*
X231292Y142681D01*
X231373Y142608D01*
X231451Y142532D01*
X231526Y142453D01*
X231599Y142371D01*
X231668Y142287D01*
X231734Y142201D01*
X231797Y142112D01*
X231857Y142021D01*
X231914Y141928D01*
X231967Y141833D01*
X232016Y141736D01*
X232062Y141637D01*
X232104Y141537D01*
X232143Y141435D01*
X232178Y141331D01*
X232209Y141227D01*
X232237Y141122D01*
X232260Y141015D01*
X232280Y140908D01*
X232296Y140800D01*
X232308Y140692D01*
X232316Y140583D01*
X232320Y140474D01*
X232320Y140366D01*
X232316Y140257D01*
X232308Y140148D01*
X232296Y140040D01*
X232280Y139932D01*
X232260Y139825D01*
X232237Y139718D01*
X232209Y139613D01*
X232178Y139509D01*
X232143Y139405D01*
X232104Y139303D01*
X232062Y139203D01*
X232016Y139104D01*
X231967Y139007D01*
X231914Y138912D01*
X231857Y138819D01*
X231797Y138728D01*
X231734Y138639D01*
X231668Y138553D01*
X231599Y138469D01*
X231526Y138387D01*
X231451Y138308D01*
X231373Y138232D01*
X231292Y138159D01*
X231209Y138089D01*
X231123Y138022D01*
X231035Y137958D01*
X230944Y137898D01*
X230851Y137840D01*
X230757Y137786D01*
X230660Y137736D01*
X230562Y137689D01*
X230462Y137646D01*
X230360Y137606D01*
X230257Y137570D01*
X230153Y137538D01*
X230048Y137510D01*
X229942Y137485D01*
X229835Y137465D01*
X229727Y137448D01*
X229619Y137435D01*
X229511Y137426D01*
X229402Y137421D01*
X229293Y137420D01*
X229184Y137423D01*
X229075Y137430D01*
X228967Y137441D01*
X228859Y137456D01*
X228751Y137474D01*
X228645Y137497D01*
X228539Y137523D01*
X228434Y137554D01*
X228331Y137588D01*
X228229Y137625D01*
X228128Y137667D01*
X228029Y137712D01*
X227931Y137761D01*
X227836Y137813D01*
X227742Y137869D01*
X227650Y137927D01*
X227561Y137990D01*
X227474Y138055D01*
X227389Y138124D01*
X227307Y138195D01*
X227228Y138270D01*
X227151Y138347D01*
X227077Y138427D01*
X227006Y138510D01*
X226939Y138596D01*
X226874Y138683D01*
X226812Y138773D01*
X226754Y138865D01*
X226700Y138959D01*
X226648Y139056D01*
X226600Y139154D01*
X226556Y139253D01*
X226516Y139354D01*
X226479Y139457D01*
X226446Y139561D01*
X226416Y139665D01*
X226391Y139771D01*
X226369Y139878D01*
X226352Y139986D01*
X226338Y140094D01*
X226328Y140202D01*
X226322Y140311D01*
X226320Y140420D01*
X226320Y230420D02*
X226322Y230529D01*
X226328Y230638D01*
X226338Y230746D01*
X226352Y230854D01*
X226369Y230962D01*
X226391Y231069D01*
X226416Y231175D01*
X226446Y231279D01*
X226479Y231383D01*
X226516Y231486D01*
X226556Y231587D01*
X226600Y231686D01*
X226648Y231784D01*
X226700Y231881D01*
X226754Y231975D01*
X226812Y232067D01*
X226874Y232157D01*
X226939Y232244D01*
X227006Y232330D01*
X227077Y232413D01*
X227151Y232493D01*
X227228Y232570D01*
X227307Y232645D01*
X227389Y232716D01*
X227474Y232785D01*
X227561Y232850D01*
X227650Y232913D01*
X227742Y232971D01*
X227836Y233027D01*
X227931Y233079D01*
X228029Y233128D01*
X228128Y233173D01*
X228229Y233215D01*
X228331Y233252D01*
X228434Y233286D01*
X228539Y233317D01*
X228645Y233343D01*
X228751Y233366D01*
X228859Y233384D01*
X228967Y233399D01*
X229075Y233410D01*
X229184Y233417D01*
X229293Y233420D01*
X229402Y233419D01*
X229511Y233414D01*
X229619Y233405D01*
X229727Y233392D01*
X229835Y233375D01*
X229942Y233355D01*
X230048Y233330D01*
X230153Y233302D01*
X230257Y233270D01*
X230360Y233234D01*
X230462Y233194D01*
X230562Y233151D01*
X230660Y233104D01*
X230757Y233054D01*
X230851Y233000D01*
X230944Y232942D01*
X231035Y232882D01*
X231123Y232818D01*
X231209Y232751D01*
X231292Y232681D01*
X231373Y232608D01*
X231451Y232532D01*
X231526Y232453D01*
X231599Y232371D01*
X231668Y232287D01*
X231734Y232201D01*
X231797Y232112D01*
X231857Y232021D01*
X231914Y231928D01*
X231967Y231833D01*
X232016Y231736D01*
X232062Y231637D01*
X232104Y231537D01*
X232143Y231435D01*
X232178Y231331D01*
X232209Y231227D01*
X232237Y231122D01*
X232260Y231015D01*
X232280Y230908D01*
X232296Y230800D01*
X232308Y230692D01*
X232316Y230583D01*
X232320Y230474D01*
X232320Y230366D01*
X232316Y230257D01*
X232308Y230148D01*
X232296Y230040D01*
X232280Y229932D01*
X232260Y229825D01*
X232237Y229718D01*
X232209Y229613D01*
X232178Y229509D01*
X232143Y229405D01*
X232104Y229303D01*
X232062Y229203D01*
X232016Y229104D01*
X231967Y229007D01*
X231914Y228912D01*
X231857Y228819D01*
X231797Y228728D01*
X231734Y228639D01*
X231668Y228553D01*
X231599Y228469D01*
X231526Y228387D01*
X231451Y228308D01*
X231373Y228232D01*
X231292Y228159D01*
X231209Y228089D01*
X231123Y228022D01*
X231035Y227958D01*
X230944Y227898D01*
X230851Y227840D01*
X230757Y227786D01*
X230660Y227736D01*
X230562Y227689D01*
X230462Y227646D01*
X230360Y227606D01*
X230257Y227570D01*
X230153Y227538D01*
X230048Y227510D01*
X229942Y227485D01*
X229835Y227465D01*
X229727Y227448D01*
X229619Y227435D01*
X229511Y227426D01*
X229402Y227421D01*
X229293Y227420D01*
X229184Y227423D01*
X229075Y227430D01*
X228967Y227441D01*
X228859Y227456D01*
X228751Y227474D01*
X228645Y227497D01*
X228539Y227523D01*
X228434Y227554D01*
X228331Y227588D01*
X228229Y227625D01*
X228128Y227667D01*
X228029Y227712D01*
X227931Y227761D01*
X227836Y227813D01*
X227742Y227869D01*
X227650Y227927D01*
X227561Y227990D01*
X227474Y228055D01*
X227389Y228124D01*
X227307Y228195D01*
X227228Y228270D01*
X227151Y228347D01*
X227077Y228427D01*
X227006Y228510D01*
X226939Y228596D01*
X226874Y228683D01*
X226812Y228773D01*
X226754Y228865D01*
X226700Y228959D01*
X226648Y229056D01*
X226600Y229154D01*
X226556Y229253D01*
X226516Y229354D01*
X226479Y229457D01*
X226446Y229561D01*
X226416Y229665D01*
X226391Y229771D01*
X226369Y229878D01*
X226352Y229986D01*
X226338Y230094D01*
X226328Y230202D01*
X226322Y230311D01*
X226320Y230420D01*
X316320Y230420D02*
X316322Y230529D01*
X316328Y230638D01*
X316338Y230746D01*
X316352Y230854D01*
X316369Y230962D01*
X316391Y231069D01*
X316416Y231175D01*
X316446Y231279D01*
X316479Y231383D01*
X316516Y231486D01*
X316556Y231587D01*
X316600Y231686D01*
X316648Y231784D01*
X316700Y231881D01*
X316754Y231975D01*
X316812Y232067D01*
X316874Y232157D01*
X316939Y232244D01*
X317006Y232330D01*
X317077Y232413D01*
X317151Y232493D01*
X317228Y232570D01*
X317307Y232645D01*
X317389Y232716D01*
X317474Y232785D01*
X317561Y232850D01*
X317650Y232913D01*
X317742Y232971D01*
X317836Y233027D01*
X317931Y233079D01*
X318029Y233128D01*
X318128Y233173D01*
X318229Y233215D01*
X318331Y233252D01*
X318434Y233286D01*
X318539Y233317D01*
X318645Y233343D01*
X318751Y233366D01*
X318859Y233384D01*
X318967Y233399D01*
X319075Y233410D01*
X319184Y233417D01*
X319293Y233420D01*
X319402Y233419D01*
X319511Y233414D01*
X319619Y233405D01*
X319727Y233392D01*
X319835Y233375D01*
X319942Y233355D01*
X320048Y233330D01*
X320153Y233302D01*
X320257Y233270D01*
X320360Y233234D01*
X320462Y233194D01*
X320562Y233151D01*
X320660Y233104D01*
X320757Y233054D01*
X320851Y233000D01*
X320944Y232942D01*
X321035Y232882D01*
X321123Y232818D01*
X321209Y232751D01*
X321292Y232681D01*
X321373Y232608D01*
X321451Y232532D01*
X321526Y232453D01*
X321599Y232371D01*
X321668Y232287D01*
X321734Y232201D01*
X321797Y232112D01*
X321857Y232021D01*
X321914Y231928D01*
X321967Y231833D01*
X322016Y231736D01*
X322062Y231637D01*
X322104Y231537D01*
X322143Y231435D01*
X322178Y231331D01*
X322209Y231227D01*
X322237Y231122D01*
X322260Y231015D01*
X322280Y230908D01*
X322296Y230800D01*
X322308Y230692D01*
X322316Y230583D01*
X322320Y230474D01*
X322320Y230366D01*
X322316Y230257D01*
X322308Y230148D01*
X322296Y230040D01*
X322280Y229932D01*
X322260Y229825D01*
X322237Y229718D01*
X322209Y229613D01*
X322178Y229509D01*
X322143Y229405D01*
X322104Y229303D01*
X322062Y229203D01*
X322016Y229104D01*
X321967Y229007D01*
X321914Y228912D01*
X321857Y228819D01*
X321797Y228728D01*
X321734Y228639D01*
X321668Y228553D01*
X321599Y228469D01*
X321526Y228387D01*
X321451Y228308D01*
X321373Y228232D01*
X321292Y228159D01*
X321209Y228089D01*
X321123Y228022D01*
X321035Y227958D01*
X320944Y227898D01*
X320851Y227840D01*
X320757Y227786D01*
X320660Y227736D01*
X320562Y227689D01*
X320462Y227646D01*
X320360Y227606D01*
X320257Y227570D01*
X320153Y227538D01*
X320048Y227510D01*
X319942Y227485D01*
X319835Y227465D01*
X319727Y227448D01*
X319619Y227435D01*
X319511Y227426D01*
X319402Y227421D01*
X319293Y227420D01*
X319184Y227423D01*
X319075Y227430D01*
X318967Y227441D01*
X318859Y227456D01*
X318751Y227474D01*
X318645Y227497D01*
X318539Y227523D01*
X318434Y227554D01*
X318331Y227588D01*
X318229Y227625D01*
X318128Y227667D01*
X318029Y227712D01*
X317931Y227761D01*
X317836Y227813D01*
X317742Y227869D01*
X317650Y227927D01*
X317561Y227990D01*
X317474Y228055D01*
X317389Y228124D01*
X317307Y228195D01*
X317228Y228270D01*
X317151Y228347D01*
X317077Y228427D01*
X317006Y228510D01*
X316939Y228596D01*
X316874Y228683D01*
X316812Y228773D01*
X316754Y228865D01*
X316700Y228959D01*
X316648Y229056D01*
X316600Y229154D01*
X316556Y229253D01*
X316516Y229354D01*
X316479Y229457D01*
X316446Y229561D01*
X316416Y229665D01*
X316391Y229771D01*
X316369Y229878D01*
X316352Y229986D01*
X316338Y230094D01*
X316328Y230202D01*
X316322Y230311D01*
X316320Y230420D01*
X316320Y140420D02*
X316322Y140529D01*
X316328Y140638D01*
X316338Y140746D01*
X316352Y140854D01*
X316369Y140962D01*
X316391Y141069D01*
X316416Y141175D01*
X316446Y141279D01*
X316479Y141383D01*
X316516Y141486D01*
X316556Y141587D01*
X316600Y141686D01*
X316648Y141784D01*
X316700Y141881D01*
X316754Y141975D01*
X316812Y142067D01*
X316874Y142157D01*
X316939Y142244D01*
X317006Y142330D01*
X317077Y142413D01*
X317151Y142493D01*
X317228Y142570D01*
X317307Y142645D01*
X317389Y142716D01*
X317474Y142785D01*
X317561Y142850D01*
X317650Y142913D01*
X317742Y142971D01*
X317836Y143027D01*
X317931Y143079D01*
X318029Y143128D01*
X318128Y143173D01*
X318229Y143215D01*
X318331Y143252D01*
X318434Y143286D01*
X318539Y143317D01*
X318645Y143343D01*
X318751Y143366D01*
X318859Y143384D01*
X318967Y143399D01*
X319075Y143410D01*
X319184Y143417D01*
X319293Y143420D01*
X319402Y143419D01*
X319511Y143414D01*
X319619Y143405D01*
X319727Y143392D01*
X319835Y143375D01*
X319942Y143355D01*
X320048Y143330D01*
X320153Y143302D01*
X320257Y143270D01*
X320360Y143234D01*
X320462Y143194D01*
X320562Y143151D01*
X320660Y143104D01*
X320757Y143054D01*
X320851Y143000D01*
X320944Y142942D01*
X321035Y142882D01*
X321123Y142818D01*
X321209Y142751D01*
X321292Y142681D01*
X321373Y142608D01*
X321451Y142532D01*
X321526Y142453D01*
X321599Y142371D01*
X321668Y142287D01*
X321734Y142201D01*
X321797Y142112D01*
X321857Y142021D01*
X321914Y141928D01*
X321967Y141833D01*
X322016Y141736D01*
X322062Y141637D01*
X322104Y141537D01*
X322143Y141435D01*
X322178Y141331D01*
X322209Y141227D01*
X322237Y141122D01*
X322260Y141015D01*
X322280Y140908D01*
X322296Y140800D01*
X322308Y140692D01*
X322316Y140583D01*
X322320Y140474D01*
X322320Y140366D01*
X322316Y140257D01*
X322308Y140148D01*
X322296Y140040D01*
X322280Y139932D01*
X322260Y139825D01*
X322237Y139718D01*
X322209Y139613D01*
X322178Y139509D01*
X322143Y139405D01*
X322104Y139303D01*
X322062Y139203D01*
X322016Y139104D01*
X321967Y139007D01*
X321914Y138912D01*
X321857Y138819D01*
X321797Y138728D01*
X321734Y138639D01*
X321668Y138553D01*
X321599Y138469D01*
X321526Y138387D01*
X321451Y138308D01*
X321373Y138232D01*
X321292Y138159D01*
X321209Y138089D01*
X321123Y138022D01*
X321035Y137958D01*
X320944Y137898D01*
X320851Y137840D01*
X320757Y137786D01*
X320660Y137736D01*
X320562Y137689D01*
X320462Y137646D01*
X320360Y137606D01*
X320257Y137570D01*
X320153Y137538D01*
X320048Y137510D01*
X319942Y137485D01*
X319835Y137465D01*
X319727Y137448D01*
X319619Y137435D01*
X319511Y137426D01*
X319402Y137421D01*
X319293Y137420D01*
X319184Y137423D01*
X319075Y137430D01*
X318967Y137441D01*
X318859Y137456D01*
X318751Y137474D01*
X318645Y137497D01*
X318539Y137523D01*
X318434Y137554D01*
X318331Y137588D01*
X318229Y137625D01*
X318128Y137667D01*
X318029Y137712D01*
X317931Y137761D01*
X317836Y137813D01*
X317742Y137869D01*
X317650Y137927D01*
X317561Y137990D01*
X317474Y138055D01*
X317389Y138124D01*
X317307Y138195D01*
X317228Y138270D01*
X317151Y138347D01*
X317077Y138427D01*
X317006Y138510D01*
X316939Y138596D01*
X316874Y138683D01*
X316812Y138773D01*
X316754Y138865D01*
X316700Y138959D01*
X316648Y139056D01*
X316600Y139154D01*
X316556Y139253D01*
X316516Y139354D01*
X316479Y139457D01*
X316446Y139561D01*
X316416Y139665D01*
X316391Y139771D01*
X316369Y139878D01*
X316352Y139986D01*
X316338Y140094D01*
X316328Y140202D01*
X316322Y140311D01*
X316320Y140420D01*
D15*
X207430Y183662D02*
X206625Y182857D01*
X206625Y181247D01*
X207430Y180442D01*
X208235Y180442D01*
X209040Y181247D01*
X209040Y182857D01*
X209845Y183662D01*
X210650Y183662D01*
X211455Y182857D01*
X211455Y181247D01*
X210650Y180442D01*
X206625Y186055D02*
X206625Y189275D01*
X206625Y186055D02*
X209040Y186055D01*
X208235Y187665D01*
X208235Y188470D01*
X209040Y189275D01*
X210650Y189275D01*
X211455Y188470D01*
X211455Y186860D01*
X210650Y186055D01*
X651510Y72390D02*
X651510Y46990D01*
X651510Y72390D02*
X651510Y97790D01*
X651510Y46990D02*
X321310Y46990D01*
X321310Y97790D01*
X626110Y97790D01*
X635635Y97790D01*
X641985Y97790D01*
X651510Y97790D01*
X651510Y72390D02*
X626110Y72390D01*
X626110Y97790D01*
X641985Y97790D02*
X641985Y100965D01*
X635635Y100965D01*
X635635Y97790D01*
D19*
X638426Y104005D02*
X641477Y107056D01*
X638426Y104005D02*
X638426Y113157D01*
X635376Y113157D02*
X641477Y113157D01*
D15*
X321310Y97790D02*
X143510Y97790D01*
X143510Y46990D01*
X321310Y46990D01*
X654685Y60075D02*
X657905Y55245D01*
X654685Y55245D02*
X657905Y60075D01*
X660298Y58465D02*
X661908Y60075D01*
X661908Y55245D01*
X660298Y55245D02*
X663518Y55245D01*
D19*
X680720Y365760D02*
X711200Y365760D01*
X711200Y363820D01*
X680720Y363820D02*
X680720Y365760D01*
X690960Y335520D02*
X711200Y335520D01*
X711200Y337220D01*
X690960Y335520D02*
X680720Y335520D01*
X680720Y337220D01*
D15*
X691515Y369740D02*
X691515Y373765D01*
X691515Y369740D02*
X692320Y368935D01*
X693930Y368935D01*
X694735Y369740D01*
X694735Y373765D01*
X699543Y373765D02*
X699543Y368935D01*
X697128Y371350D02*
X699543Y373765D01*
X700348Y371350D02*
X697128Y371350D01*
D11*
X798926Y276103D02*
X798926Y270002D01*
X798926Y276103D02*
X801976Y276103D01*
X802993Y275086D01*
X802993Y273053D01*
X801976Y272036D01*
X798926Y272036D01*
X800959Y272036D02*
X802993Y270002D01*
X805942Y276103D02*
X810009Y276103D01*
X805942Y276103D02*
X805942Y273053D01*
X807976Y274069D01*
X808993Y274069D01*
X810009Y273053D01*
X810009Y271019D01*
X808993Y270002D01*
X806959Y270002D01*
X805942Y271019D01*
X798926Y285242D02*
X798926Y291343D01*
X801976Y291343D01*
X802993Y290326D01*
X802993Y288293D01*
X801976Y287276D01*
X798926Y287276D01*
X800959Y287276D02*
X802993Y285242D01*
X807976Y290326D02*
X810009Y291343D01*
X807976Y290326D02*
X805942Y288293D01*
X805942Y286259D01*
X806959Y285242D01*
X808993Y285242D01*
X810009Y286259D01*
X810009Y287276D01*
X808993Y288293D01*
X805942Y288293D01*
X798926Y303022D02*
X798926Y309123D01*
X801976Y309123D01*
X802993Y308106D01*
X802993Y306073D01*
X801976Y305056D01*
X798926Y305056D01*
X800959Y305056D02*
X802993Y303022D01*
X805942Y309123D02*
X810009Y309123D01*
X810009Y308106D01*
X805942Y304039D01*
X805942Y303022D01*
D12*
X744855Y302578D02*
X744855Y312103D01*
D11*
X701136Y311663D02*
X701136Y305562D01*
X704186Y305562D01*
X705203Y306579D01*
X705203Y310646D01*
X704186Y311663D01*
X701136Y311663D01*
X708152Y310646D02*
X709169Y311663D01*
X711203Y311663D01*
X712219Y310646D01*
X712219Y309629D01*
X711203Y308613D01*
X710186Y308613D01*
X711203Y308613D02*
X712219Y307596D01*
X712219Y306579D01*
X711203Y305562D01*
X709169Y305562D01*
X708152Y306579D01*
D12*
X744855Y294323D02*
X744855Y284798D01*
D11*
X701136Y287782D02*
X701136Y293883D01*
X701136Y287782D02*
X704186Y287782D01*
X705203Y288799D01*
X705203Y292866D01*
X704186Y293883D01*
X701136Y293883D01*
X711203Y293883D02*
X711203Y287782D01*
X708152Y290833D02*
X711203Y293883D01*
X712219Y290833D02*
X708152Y290833D01*
D12*
X744855Y276543D02*
X744855Y267018D01*
D11*
X701136Y270002D02*
X701136Y276103D01*
X701136Y270002D02*
X704186Y270002D01*
X705203Y271019D01*
X705203Y275086D01*
X704186Y276103D01*
X701136Y276103D01*
X708152Y276103D02*
X712219Y276103D01*
X708152Y276103D02*
X708152Y273053D01*
X710186Y274069D01*
X711203Y274069D01*
X712219Y273053D01*
X712219Y271019D01*
X711203Y270002D01*
X709169Y270002D01*
X708152Y271019D01*
X622653Y308106D02*
X621636Y309123D01*
X619602Y309123D01*
X618586Y308106D01*
X618586Y304039D01*
X619602Y303022D01*
X621636Y303022D01*
X622653Y304039D01*
X625602Y309123D02*
X629669Y309123D01*
X625602Y309123D02*
X625602Y306073D01*
X627636Y307089D01*
X628653Y307089D01*
X629669Y306073D01*
X629669Y304039D01*
X628653Y303022D01*
X626619Y303022D01*
X625602Y304039D01*
X763366Y341122D02*
X763366Y347223D01*
X766416Y347223D01*
X767433Y346206D01*
X767433Y344173D01*
X766416Y343156D01*
X763366Y343156D01*
X765399Y343156D02*
X767433Y341122D01*
X770382Y346206D02*
X771399Y347223D01*
X773433Y347223D01*
X774449Y346206D01*
X774449Y345189D01*
X773433Y344173D01*
X774449Y343156D01*
X774449Y342139D01*
X773433Y341122D01*
X771399Y341122D01*
X770382Y342139D01*
X770382Y343156D01*
X771399Y344173D01*
X770382Y345189D01*
X770382Y346206D01*
X771399Y344173D02*
X773433Y344173D01*
X767433Y363986D02*
X766416Y365003D01*
X764382Y365003D01*
X763366Y363986D01*
X763366Y359919D01*
X764382Y358902D01*
X766416Y358902D01*
X767433Y359919D01*
X772416Y363986D02*
X774449Y365003D01*
X772416Y363986D02*
X770382Y361953D01*
X770382Y359919D01*
X771399Y358902D01*
X773433Y358902D01*
X774449Y359919D01*
X774449Y360936D01*
X773433Y361953D01*
X770382Y361953D01*
X571533Y359923D02*
X571533Y353822D01*
X571533Y359923D02*
X574583Y359923D01*
X575600Y358906D01*
X575600Y356873D01*
X574583Y355856D01*
X571533Y355856D01*
X573567Y355856D02*
X575600Y353822D01*
X580583Y353822D02*
X580583Y359923D01*
X578549Y359923D02*
X582617Y359923D01*
X585566Y359923D02*
X585566Y353822D01*
X585566Y356873D02*
X589633Y356873D01*
X589633Y359923D02*
X589633Y353822D01*
X592582Y359923D02*
X596649Y359923D01*
X592582Y359923D02*
X592582Y353822D01*
X596649Y353822D01*
X594616Y356873D02*
X592582Y356873D01*
X599598Y353822D02*
X599598Y359923D01*
X602649Y359923D01*
X603666Y358906D01*
X603666Y356873D01*
X602649Y355856D01*
X599598Y355856D01*
X601632Y355856D02*
X603666Y353822D01*
X606615Y353822D02*
X606615Y359923D01*
X608648Y357889D01*
X610682Y359923D01*
X610682Y353822D01*
X554117Y319283D02*
X554117Y313182D01*
X554117Y319283D02*
X557168Y319283D01*
X558185Y318266D01*
X558185Y316233D01*
X557168Y315216D01*
X554117Y315216D01*
X556151Y315216D02*
X558185Y313182D01*
X561134Y317249D02*
X563168Y319283D01*
X563168Y313182D01*
X565201Y313182D02*
X561134Y313182D01*
X568150Y314199D02*
X568150Y318266D01*
X569167Y319283D01*
X571201Y319283D01*
X572218Y318266D01*
X572218Y314199D01*
X571201Y313182D01*
X569167Y313182D01*
X568150Y314199D01*
X572218Y318266D01*
D12*
X174620Y26204D02*
X174620Y-8796D01*
X174620Y26204D02*
X166620Y26204D01*
X166620Y1204D01*
X154620Y1204D01*
X114620Y1204D02*
X102620Y1204D01*
X102620Y26204D01*
X94620Y26204D01*
X94620Y-8796D01*
X114620Y-48796D02*
X154620Y-48796D01*
D15*
X181179Y-41232D02*
X181984Y-42037D01*
X182789Y-42037D01*
X183594Y-41232D01*
X183594Y-37207D01*
X182789Y-37207D02*
X184399Y-37207D01*
X186792Y-42037D02*
X190012Y-42037D01*
X186792Y-42037D02*
X190012Y-38817D01*
X190012Y-38012D01*
X189207Y-37207D01*
X187597Y-37207D01*
X186792Y-38012D01*
D11*
X961800Y144760D02*
X979800Y144760D01*
X979800Y231160D02*
X961800Y231160D01*
D15*
X944753Y127907D02*
X943948Y127102D01*
X944753Y127907D02*
X944753Y128712D01*
X943948Y129517D01*
X939923Y129517D01*
X939923Y128712D02*
X939923Y130322D01*
X940728Y132715D02*
X939923Y133520D01*
X939923Y135130D01*
X940728Y135935D01*
X941533Y135935D01*
X942338Y135130D01*
X942338Y134325D01*
X942338Y135130D02*
X943143Y135935D01*
X943948Y135935D01*
X944753Y135130D01*
X944753Y133520D01*
X943948Y132715D01*
D11*
X625237Y376682D02*
X625237Y382783D01*
X628288Y382783D01*
X629305Y381766D01*
X629305Y379733D01*
X628288Y378716D01*
X625237Y378716D01*
X627271Y378716D02*
X629305Y376682D01*
X632254Y380749D02*
X634288Y382783D01*
X634288Y376682D01*
X636321Y376682D02*
X632254Y376682D01*
X639270Y380749D02*
X641304Y382783D01*
X641304Y376682D01*
X639270Y376682D02*
X643338Y376682D01*
X625237Y334523D02*
X625237Y328422D01*
X625237Y334523D02*
X628288Y334523D01*
X629305Y333506D01*
X629305Y331473D01*
X628288Y330456D01*
X625237Y330456D01*
X627271Y330456D02*
X629305Y328422D01*
X632254Y332489D02*
X634288Y334523D01*
X634288Y328422D01*
X636321Y328422D02*
X632254Y328422D01*
X639270Y328422D02*
X643338Y328422D01*
X643338Y332489D02*
X639270Y328422D01*
X643338Y332489D02*
X643338Y333506D01*
X642321Y334523D01*
X640287Y334523D01*
X639270Y333506D01*
D15*
X100500Y73025D02*
X99695Y73830D01*
X100500Y73025D02*
X101305Y73025D01*
X102110Y73830D01*
X102110Y77855D01*
X101305Y77855D02*
X102915Y77855D01*
X107723Y77855D02*
X107723Y73025D01*
X105308Y75440D02*
X107723Y77855D01*
X108528Y75440D02*
X105308Y75440D01*
D16*
X558800Y226060D03*
D11*
X576072Y224282D02*
X576072Y230383D01*
X579123Y230383D01*
X580139Y229366D01*
X580139Y227333D01*
X579123Y226316D01*
X576072Y226316D01*
X578106Y226316D02*
X580139Y224282D01*
X583088Y225299D02*
X584105Y224282D01*
X586139Y224282D01*
X587156Y225299D01*
X587156Y229366D01*
X586139Y230383D01*
X584105Y230383D01*
X583088Y229366D01*
X583088Y228349D01*
X584105Y227333D01*
X587156Y227333D01*
D16*
X558800Y203200D03*
D11*
X576072Y201422D02*
X576072Y207523D01*
X579123Y207523D01*
X580139Y206506D01*
X580139Y204473D01*
X579123Y203456D01*
X576072Y203456D01*
X578106Y203456D02*
X580139Y201422D01*
X583088Y205489D02*
X585122Y207523D01*
X585122Y201422D01*
X583088Y201422D02*
X587156Y201422D01*
X590105Y206506D02*
X591122Y207523D01*
X593155Y207523D01*
X594172Y206506D01*
X594172Y205489D01*
X593155Y204473D01*
X592138Y204473D01*
X593155Y204473D02*
X594172Y203456D01*
X594172Y202439D01*
X593155Y201422D01*
X591122Y201422D01*
X590105Y202439D01*
D16*
X558800Y180340D03*
D11*
X576072Y178562D02*
X576072Y184663D01*
X579123Y184663D01*
X580139Y183646D01*
X580139Y181613D01*
X579123Y180596D01*
X576072Y180596D01*
X578106Y180596D02*
X580139Y178562D01*
X583088Y182629D02*
X585122Y184663D01*
X585122Y178562D01*
X583088Y178562D02*
X587156Y178562D01*
X593155Y178562D02*
X593155Y184663D01*
X590105Y181613D01*
X594172Y181613D01*
D16*
X558800Y157480D03*
D11*
X576072Y155702D02*
X576072Y161803D01*
X579123Y161803D01*
X580139Y160786D01*
X580139Y158753D01*
X579123Y157736D01*
X576072Y157736D01*
X578106Y157736D02*
X580139Y155702D01*
X583088Y159769D02*
X585122Y161803D01*
X585122Y155702D01*
X583088Y155702D02*
X587156Y155702D01*
X590105Y161803D02*
X594172Y161803D01*
X590105Y161803D02*
X590105Y158753D01*
X592138Y159769D01*
X593155Y159769D01*
X594172Y158753D01*
X594172Y156719D01*
X593155Y155702D01*
X591122Y155702D01*
X590105Y156719D01*
D16*
X558800Y134620D03*
D11*
X576072Y132842D02*
X576072Y138943D01*
X579123Y138943D01*
X580139Y137926D01*
X580139Y135893D01*
X579123Y134876D01*
X576072Y134876D01*
X578106Y134876D02*
X580139Y132842D01*
X583088Y136909D02*
X585122Y138943D01*
X585122Y132842D01*
X583088Y132842D02*
X587156Y132842D01*
X592138Y137926D02*
X594172Y138943D01*
X592138Y137926D02*
X590105Y135893D01*
X590105Y133859D01*
X591122Y132842D01*
X593155Y132842D01*
X594172Y133859D01*
X594172Y134876D01*
X593155Y135893D01*
X590105Y135893D01*
D14*
X246918Y302880D02*
X246918Y316880D01*
D11*
X231062Y314043D02*
X231062Y307942D01*
X234113Y307942D01*
X235129Y308959D01*
X235129Y313026D01*
X234113Y314043D01*
X231062Y314043D01*
X240112Y313026D02*
X242146Y314043D01*
X240112Y313026D02*
X238078Y310993D01*
X238078Y308959D01*
X239095Y307942D01*
X241129Y307942D01*
X242146Y308959D01*
X242146Y309976D01*
X241129Y310993D01*
X238078Y310993D01*
D14*
X246918Y291480D02*
X246918Y277480D01*
D11*
X231062Y280002D02*
X231062Y286103D01*
X231062Y280002D02*
X234113Y280002D01*
X235129Y281019D01*
X235129Y285086D01*
X234113Y286103D01*
X231062Y286103D01*
X238078Y286103D02*
X242146Y286103D01*
X242146Y285086D01*
X238078Y281019D01*
X238078Y280002D01*
D12*
X396875Y22543D02*
X396875Y13018D01*
D15*
X376022Y24765D02*
X376022Y29595D01*
X376022Y24765D02*
X378437Y24765D01*
X379242Y25570D01*
X379242Y28790D01*
X378437Y29595D01*
X376022Y29595D01*
X381635Y27985D02*
X383245Y29595D01*
X383245Y24765D01*
X381635Y24765D02*
X384855Y24765D01*
X335115Y26035D02*
X335115Y30865D01*
X337530Y30865D01*
X338335Y30060D01*
X338335Y28450D01*
X337530Y27645D01*
X335115Y27645D01*
X336725Y27645D02*
X338335Y26035D01*
X340728Y29255D02*
X342338Y30865D01*
X342338Y26035D01*
X340728Y26035D02*
X343949Y26035D01*
X346342Y30865D02*
X349562Y30865D01*
X349562Y30060D01*
X346342Y26840D01*
X346342Y26035D01*
M02*
